<?xml version="1.0" standalone="no"?>
<!DOCTYPE svg PUBLIC "-//W3C//DTD SVG 1.1//EN" "http://www.w3.org/Graphics/SVG/1.1/DTD/svg11.dtd" >
<!--
This size was designed for 20pt staff size.
-->
<svg xmlns="http://www.w3.org/2000/svg" xmlns:xlink="http://www.w3.org/1999/xlink" version="1.1">
<metadata>
Created by FontForge 20150330 at Wed Apr 22 04:55:05 2015
 By root
Made LilyPond compatible by Abraham Lee (tisimst@gmail.com)

Copyright (c) 2013 by Torsten Hammerle, released under the GPL.
</metadata>
<defs>
<font id="lilyjazz-11" horiz-adv-x="329" >
  <font-face 
    font-family="lilyjazz-11"
    font-weight="500"
    font-stretch="normal"
    units-per-em="1000"
    panose-1="2 0 6 3 0 0 0 0 0 0"
    ascent="800"
    descent="-200"
    x-height="286"
    bbox="-653.231 -1610 1300 1562"
    underline-thickness="50"
    underline-position="-100"
    stemh="88"
    stemv="33"
    unicode-range="U+0020-E31F"
  />
<missing-glyph horiz-adv-x="500" 
d="M100 50h300v433h-300v-433zM50 0v533h400v-533h-400z" />
    <glyph glyph-name=".notdef" horiz-adv-x="500" 
d="M100 50h300v433h-300v-433zM50 0v533h400v-533h-400z" />
    <glyph glyph-name="rests.0" unicode="&#xe100;" horiz-adv-x="375" 
d="M-39 -18l6 18h225h224l-1 -6c-1 -4 -1 -10 -2 -18c-2 -25 -10 -62 -22 -110l-11 -43l-11 1c-36 4 -105 6 -209 6s-175 -1 -212 -5c-12 -1 -19 -1 -19 -1s2 15 7 46c8 49 16 86 25 112z" />
    <glyph glyph-name="rests.1" unicode="&#xe101;" horiz-adv-x="375" 
d="M99 139c49 0 110 1 185 1l112 1l-1 -31c-1 -32 -7 -66 -17 -103l-2 -7h-188h-187v5c0 38 7 82 22 130c1 2 26 4 76 4z" />
    <glyph glyph-name="rests.0o" unicode="&#xe102;" horiz-adv-x="375" 
d="M-41 -25h-118c-7 0 -13 2 -18 7s-7 11 -7 18s2 13 7 18s11 7 18 7h695c7 0 13 -2 18 -7s7 -11 7 -18s-2 -13 -7 -18s-11 -7 -18 -7l-123 1c-7 -37 -15 -73 -22 -110l-11 -43l-11 1c-36 4 -105 6 -209 6s-175 -1 -212 -5c-13 -1 -19 -1 -19 -1c1 0 3 15 7 46
c7 49 14 84 23 105z" />
    <glyph glyph-name="rests.1o" unicode="&#xe103;" horiz-adv-x="375" 
d="M0 25v19c0 19 8 49 23 92c1 2 26 3 76 3c49 0 110 1 185 1l112 1l2 -26c0 -6 -6 -30 -19 -73l-4 -17h131c7 0 13 -2 18 -7s7 -11 7 -18s-2 -13 -7 -18s-11 -7 -18 -7h-637c-7 0 -13 2 -18 7s-7 11 -7 18s2 13 7 18s11 7 18 7h131z" />
    <glyph glyph-name="rests.M3" unicode="&#xe104;" horiz-adv-x="450" 
d="M0 262c30.2883 4.78236 54.0823 7.0235 78.2838 7.0235c21.3437 0 43.0044 -1.74311 69.7162 -5.0235c11 -1 16 -11 16 -22c0.766312 -48.0222 1.14113 -90.6941 1.14113 -130.732c0 -116.706 -3.18463 -211.034 -9.14113 -350.268c0 -8 -7 -12 -14 -14
c-49 -14 -77 -21 -128 -27c-5 -1 -6.15377 7.002 -6 12c1.83095 59.5059 2.91693 111.469 2.91693 160.55c0 111.756 -5.63042 208.567 -20.9169 345.45c-1.1099 9.938 0 22 10 24zM281 246c-1.549 9.879 5 21 15 22c21.6435 2.85857 39.4514 4.0495 56.5563 4.0495
c24.7813 0 48.0871 -2.49971 79.4437 -6.0495c9 -1 18 -7 18 -16c1.54881 -59.1645 2.23405 -110.461 2.23405 -158.764c0 -107.632 -3.40238 -200.401 -8.23405 -332.236c0 -7 -5 -11 -12 -13c-45 -13 -71 -20 -118 -25c-9 -1 -20.655 1.968 -20 11
c6.07781 83.787 9.894 156.831 9.894 227.806c0 92.5124 -6.48375 181.508 -22.894 286.194z" />
    <glyph glyph-name="rests.M2" unicode="&#xe105;" horiz-adv-x="164" 
d="M0 262c30.2883 4.78236 54.0823 7.0235 78.2838 7.0235c21.3437 0 43.0044 -1.74311 69.7162 -5.0235c11 -1 16 -11 16 -22c0.766312 -48.0222 1.14113 -90.6941 1.14113 -130.732c0 -116.706 -3.18463 -211.034 -9.14113 -350.268c0 -8 -7 -12 -14 -14
c-49 -14 -77 -21 -128 -27c-5 -1 -6 7 -6 12c-9 197 0 285 -18 506c-0.8118 9.967 0 22 10 24z" />
    <glyph glyph-name="rests.M1" unicode="&#xe106;" horiz-adv-x="164" 
d="M0 262c30.2883 4.78236 54.0823 7.0235 78.2838 7.0235c21.3437 0 43.0044 -1.74311 69.7162 -5.0235c11 -1 16 -11 16 -22c0.766312 -24.0111 1.14113 -45.4123 1.14113 -65.5369c0 -58.6603 -3.18463 -106.474 -9.14113 -176.463c-1 -8 -7 -12 -14 -14
c-49 -14 -77 -21 -128 -27c-5 -1 -6 7 -6 12c-9 104 4 162 -18 267c-2.0507 9.787 0 22 10 24z" />
    <glyph glyph-name="rests.M1o" unicode="&#xe107;" horiz-adv-x="160" 
d="M-120 275c157 8 245 14 402 16c8 0 18 -2 18 -10c0.0980762 -2.15768 0.148058 -4.2384 0.148058 -6.25538c0 -18.5485 -4.2269 -31.7061 -14.1481 -49.7446c-5 -9 -14 -10 -24 -10c-41.95 -2.039 -78.639 -3.484 -113.131 -4.533
c0.182082 -9.6217 0.272141 -18.826 0.272141 -27.7542c0 -50.55 -2.88694 -92.2503 -8.30414 -150.751c42.793 1.3712 88.142 2.3718 141.163 3.0387c6 0 8 -6 8 -12c0.92665 -12.0464 1.63863 -21.9462 1.63863 -31.6885c0 -11.2846 -0.955255 -22.358 -3.63863 -36.3115
c-1 -5 -7 -2 -12 -2c-91.1438 -0.607625 -157.92 -1.58446 -229.941 -1.58446c-46.5078 0 -95.2028 0.407334 -154.059 1.58446c-7 0 -13 2 -16 8c-8 18 -7 31 -8 50c0 4 2 8 6 8c53.2163 3.0122 98.7033 5.5764 141.635 7.73
c-3.4566 67.4206 1.7321 122.953 -8.75118 181.103c-35.0023 -0.328 -72.2221 -0.537 -114.884 -0.833c-8 0 -17 -2 -20 6c-3.5 10.5 -4.75 19.25 -4.75 28.25s1.25 18.25 2.75 29.75c1 4 6 4 10 4z" />
    <glyph glyph-name="rests.2" unicode="&#xe108;" horiz-adv-x="237" 
d="M69 -402c-30 0 -39 25 -39 59c0 12 1 23 4 32c11 34 57 116 102 187c0 2 -11 5 -32 10c-9 2 -28 4 -55 6l-41 4v7c0 11 7 27 21 48c15 23 38 48 65 78l18 21l-22 12c-15 8 -27 13 -34 18c-60 38 -90 92 -90 158c0 53 23 99 70 140c11 8 17 13 19 13l1 -1
c-6 -21 -10 -41 -10 -61c0 -59 24 -92 73 -117c30 -15 66 -24 108 -27c29 -2 48 -7 48 -13c0 -8 -27 -44 -80 -106c-34 -39 -50 -60 -50 -60c0 -4 79 -7 118 -27l-22 -27c-14 -18 -36 -44 -63 -77c-45 -55 -70 -88 -75 -97v-2c0 -8 9 -27 28 -56c12 -19 18 -34 18 -47
c0 -32 -51 -75 -80 -75z" />
    <glyph glyph-name="rests.2classical" unicode="&#xe109;" horiz-adv-x="250" 
d="M178 -250c-8 -7 -18 -10 -28 -10s-19 3 -27 10l-123 420c2.5 6 8 9 13.625 9s11.375 -3 14.375 -9c7 -15 45 -63 61 -63c29 0 25 31 35 59c8 24 31 39 56 39c40 0 73 -32 73 -72c0 -46 -41 -79 -87 -79c-36 0 -71 10 -105 22z" />
    <glyph glyph-name="rests.3" unicode="&#xe10a;" horiz-adv-x="250" 
d="M-25 66c0 58 50 175 94 175c8 0 11 -3 11 -12c0 -14 -17 -64 -17 -82c0 -21 12 -28 32 -28c8 0 17 1 27 4c42 11 101 49 130 76c9 8 16 11 26 11c14 0 22 -7 22 -21c0 -9 -4 -21 -11 -35c-9 -19 -29 -53 -61 -104c-42 -66 -69 -116 -83 -150c-4 -11 -7 -19 -7 -25
c0 -8 4 -15 12 -27c4 -5 6 -10 6 -16c0 -5 -2 -10 -4 -15c-8 -18 -48 -72 -72 -72c-16 0 -20 10 -20 29c0 11 1 20 4 28c8 24 29 72 62 143c16 35 24 53 24 55c-3 0 -16 -2 -39 -6c-30 -6 -52 -9 -67 -9c-46 0 -69 35 -69 81z" />
    <glyph glyph-name="rests.4" unicode="&#xe10b;" horiz-adv-x="299" 
d="M70 -49c0 -18 14 -28 34 -28c15 0 32 6 54 16c6 3 13 11 18 24s9 21 11 26c1 3 2 5 2 6s-1 1 -1 1c-1 -1 -5 -2 -12 -2c-29 0 -60 -5 -91 -15h-10c-2 -9 -5 -17 -5 -28zM28 4c-9 16 -16 33 -16 55c0 12 2 26 6 40c10 41 37 103 62 125c8 7 15 12 27 12c7 0 12 -2 12 -11
c0 -14 -19 -69 -19 -85c0 -19 12 -26 34 -26c18 0 37 6 58 16c18 9 43 26 75 51l32 25h11c15 0 22 -8 22 -23c0 -6 -1 -12 -3 -18c-3 -9 -13 -28 -28 -57c-44 -84 -76 -151 -98 -201c-13 -31 -25 -64 -38 -101s-19 -59 -19 -67c0 -4 2 -9 7 -17c8 -14 13 -20 13 -26
c0 -4 -2 -10 -6 -17c-8 -15 -45 -62 -60 -69c-4 -2 -8 -2 -11 -2c-12 0 -16 12 -16 26c0 24 11 67 32 129c7 20 10 30 10 32c0 0 0 1 -1 1c-11 0 -45 -7 -58 -7c-50 0 -73 31 -73 82c0 54 19 94 45 133z" />
    <glyph glyph-name="rests.5" unicode="&#xe10c;" horiz-adv-x="325" 
d="M66 -106c0 -23 13 -34 36 -34c11 0 23 3 38 8l15 5l8 26c5 17 7 27 7 29c0 1 -1 1 -4 1s-7 0 -14 -2c-14 -3 -27 -5 -39 -5c-13 0 -24 5 -35 5c-10 0 -12 -18 -12 -33zM113 92c0 -24 10 -34 35 -34c15 0 30 4 49 13l13 6l8 24c5 16 9 26 9 28c0 1 0 1 -2 1
c-6 0 -17 -3 -40 -8c-24 -5 -42 -7 -53 -7c-18.1818 0 -19.0083 -1.65289 -19.0083 -17.731c0 -1.60781 0.00826446 -3.35988 0.00826446 -5.26897zM66 139c-12 18 -21 36 -21 68c0 23 6 50 16 79c17 49 34 77 53 83c3 1 7 1 10 1c10 0 12 -5 12 -17c0 -15 -10 -53 -10 -70
c0 -24 10 -35 34 -35c31 0 55 11 79 27c13 9 31 23 54 43c13 12 22 19 25 20c3 2 6 3 10 3c17 0 26 -10 26 -31c0 -8 -7 -29 -20 -60c-90 -213 -151 -390 -183 -529c-5 -20 -7 -33 -7 -40c0 -8 5 -14 13 -24c8 -9 12 -16 12 -22c0 -5 -2 -12 -7 -21c-10 -20 -37 -64 -62 -64
c-15 0 -20 9 -20 27c0 7 1 16 3 27c5 27 13 65 27 114c2 8 3 12 3 13s0 1 -1 1c-9 0 -34 -4 -45 -4c-59 0 -81 34 -81 94c0 53 17 92 41 132l11 18l-3 14c-2 11 -2 21 -2 32c0 33 8 67 25 102z" />
    <glyph glyph-name="rests.6" unicode="&#xe10d;" horiz-adv-x="349" 
d="M67 -310c0 -21 9 -33 27 -33c6 0 12 2 19 4l10 4l1 10c3 23 6 41 10 53c0 1 -1 3 -4 3c-13 0 -19 -4 -38 -4h-18c-4 -11 -7 -21 -7 -37zM85 -110c0 -21 15 -32 37 -32c10 0 23 2 37 7l17 6l7 26c5 16 7 25 7 28c0 1 0 2 -3 2s-7 -1 -13 -2c-15 -3 -29 -5 -41 -5
c-15 0 -27 3 -38 7l-4 -10c-4 -10 -6 -19 -6 -27zM133 90c0 -23 13 -35 36 -35c13 0 54 10 63 25c0 0 16 38 16 48c-1 0 -8 -1 -19 -4c-33 -8 -59 -12 -78 -12c-17 0 -18 -1 -18 -13v-9zM66 203c0 57 36 165 78 165c9 0 14 -5 14 -16c0 -19 -12 -54 -12 -73
c0 -23 13 -34 34 -34c10 0 23 3 37 8c34 12 70 36 107 71c12 11 17 15 28 15c17 0 23 -11 23 -29c0 -10 -5 -25 -15 -51c-88 -221 -132 -388 -176 -637c-17 -96 -26 -158 -26 -188c0 -25 4 -24 18 -43c3 -4 5 -9 5 -14c0 -21 -34 -70 -46 -79c-6 -4 -12 -7 -17 -7
c-18 0 -21 17 -21 39c0 9 1 19 1 30c0 52 2 100 8 141c2 18 4 27 4 27h-20c-70 1 -103 33 -103 98c0 32 9 65 27 101c5 11 8 20 8 26c0 3 -1 6 -2 8c-9 15 -14 33 -14 57c0 53 14 89 40 132l13 20l-3 15c-2 11 -2 22 -2 33c0 35 8 70 26 105l7 13l-7 11c-9 15 -14 34 -14 56
z" />
    <glyph glyph-name="rests.7" unicode="&#xe10e;" horiz-adv-x="375" 
d="M67 -261c0 -7 -10 -33 -10 -42c0 -21 15 -32 39 -32c12 0 33 3 33 8c0 0 5 48 5 55s-6 5 -21 6c-18 1 -31 4 -42 8h-2c-1 0 -2 -1 -2 -3zM156 -65c-13 0 -18 -4 -38 -4l-20 -1c-3 -9 -5 -20 -5 -35c0 -22 8 -34 26 -34c8 0 20 4 28 6l6 31c4 21 6 31 6 35c0 1 -1 2 -3 2z
M110 93c0 -21 14 -30 36 -30c15 0 36 5 45 8l10 4l7 23c5 17 9 24 9 30c0 2 -2 3 -4 3s-8 -1 -16 -3c-12 -3 -23 -4 -35 -4s-25 2 -37 5h-2c-9 0 -13 -25 -13 -36zM157 293c0 -23 14 -33 36 -33c14 0 31 4 50 12l13 6l8 24c6 17 9 26 9 28c0 1 -1 1 -3 1c-7 0 -13 -2 -31 -6
c-19 -4 -37 -7 -54 -8l-25 -1c-1 -7 -3 -16 -3 -23zM31 22c0 64 24 104 54 153l-11 13c-12 14 -17 16 -17 34c0 13 4 30 12 52c14 39 24 55 42 66c-12 18 -20 38 -20 66c0 55 34 167 80 167c8 0 12 -6 12 -17s-11 -56 -11 -71c0 -26 9 -35 35 -35c13 0 24 3 36 7
c34 13 68 34 102 67c13 12 24 19 33 19c13 0 22 -10 22 -25c0 -11 -6 -33 -19 -65c-121 -312 -171 -533 -202 -872c-5 -57 -8 -98 -8 -124c0 -33 1 -32 17 -50c8 -8 12 -14 12 -21c0 -4 -2 -10 -5 -17c-5 -12 -28 -48 -37 -56c-7 -6 -14 -10 -19 -10c-8 0 -15 8 -19 24
c-2 8 -4 40 -4 96s1 90 2 104l1 21h-19c-89 0 -112 14 -112 97c0 46 10 84 31 115l8 11l-6 12c-7 13 -10 28 -10 45c0 30 10 65 30 107c3 7 5 14 5 20c0 5 -1 8 -3 12c-8 16 -12 34 -12 55z" />
    <glyph glyph-name="accidentals.sharp" unicode="&#xe10f;" horiz-adv-x="268" 
d="M107 -40c0 -9 0 -17 3 -17c10 0 30 15 38 18l12 8l2 44c1 24 2 38 2 45c0 2 -1 3 -2 3c-3 0 -16 -8 -40 -23l-10 -7l-2 -12c-2 -26 -3 -46 -3 -59zM118 390c12.8 0 14.08 -25.6 14.08 -54.784c0 -7.296 -0.08 -14.816 -0.08 -22.216v-23
c0 -17.3333 0.444444 -33.3333 0.444444 -47.1111c0 -6.88889 -0.111111 -13.2222 -0.444444 -18.8889l-2 -28c9 2 35 9 38 17c2 7 7 64 12 176c3 97 12 148 26 163c3 3 5 6 6 6c9 0 14 -45 14 -70c0 -41 0 -112 -8 -210c-2 -28 -7 -43 -7 -46c0 -1 1 -3 1 -3c1 0 3 4 10 6
c24 13 39 16 48 16c8 0 10 -6 10 -16v-16c0 -26 -3 -52 -8 -77c-2 -15 -22 -37 -58 -54l-18 -7v-45c-1 -25 -1 -41 -1 -44v-1c1 0 3 1 11 6c14 9 29 16 42 16s14 -52 14 -85v-13c0 -18 0 -31 -2 -36c-2 -3 -16 -16 -40 -32l-36 -23l-3 -46c-1 -44 -4 -183 -19 -196
c-2 -2 -4 -5 -6 -5c-14 0 -16 36 -16 72v12c0 26 2 76 2 108c0 23 0 35 -2 35c-13 0 -22 -6 -30 -14l-3 -62c-2 -63 -5 -196 -15 -211c-2 -2 -8 -4 -10 -4c-8 0 -10 3 -12 10c-3 9 -6 27 -6 60s3 77 6 132c2 33 2 51 2 54v7l-30 -10c-16 -5 -25 -8 -28 -8
c-10 0 -14 28 -14 64v24l2 34c13 10 15 13 40 26c17 9 28 15 30 16c7 2 8 24 8 47v27c0 10 -1 16 -2 16s-8 -2 -18 -7c-25 -13 -41 -18 -46 -18c-5.44444 0 -6.04938 9.67901 -6.04938 20.5679c0 3.11111 0.0493827 6.32099 0.0493827 9.4321v19c2 54 6 88 16 98
c9 9 29 19 54 34c8 3 11 9 12 12s1 17 2 42c3 112 13 168 26 168z" />
    <glyph glyph-name="accidentals.sharp.arrowup" unicode="&#xe110;" horiz-adv-x="268" 
d="M105 435l5 30l10 18c12 15 22 30 30 43c22 41 28 58 52 131l10 18l12 -5c13 -42 40 -114 98 -194l3 -22l-6 -22l-7 -16l-10 -3c-45 62 -69 109 -89 167l-4 11c-7 -20 -14 -42 -23 -62l-7 -17c0 -1 -1 1 -1 0c-23 -52 -12 -37 -56 -94l-10 -3zM107 -40c0 -9 0 -17 3 -17
c10 0 30 15 38 18l12 8l2 44c1 24 2 38 2 45c0 2 -1 3 -2 3c-3 0 -16 -8 -40 -23l-10 -7l-2 -12c-2 -26 -3 -46 -3 -59zM118 390c12.8 0 14.08 -25.6 14.08 -54.784c0 -7.296 -0.08 -14.816 -0.08 -22.216v-23c0 -17.3333 0.444444 -33.3333 0.444444 -47.1111
c0 -6.88889 -0.111111 -13.2222 -0.444444 -18.8889l-2 -28c9 2 35 9 38 17c2 7 7 64 12 176c3 97 12 148 26 163c3 3 5 6 6 6c9 0 14 -45 14 -70c0 -41 0 -112 -8 -210c-2 -28 -7 -43 -7 -46c0 -1 1 -3 1 -3c1 0 3 4 10 6c24 13 39 16 48 16c8 0 10 -6 10 -16v-16
c0 -26 -3 -52 -8 -77c-2 -15 -22 -37 -58 -54l-18 -7v-45c-1 -25 -1 -41 -1 -44v-1c1 0 3 1 11 6c14 9 29 16 42 16s14 -52 14 -85v-13c0 -18 0 -31 -2 -36c-2 -3 -16 -16 -40 -32l-36 -23l-3 -46c-1 -44 -4 -183 -19 -196c-2 -2 -4 -5 -6 -5c-14 0 -16 36 -16 72v12
c0 26 2 76 2 108c0 23 0 35 -2 35c-13 0 -22 -6 -30 -14l-3 -62c-2 -63 -5 -196 -15 -211c-2 -2 -8 -4 -10 -4c-8 0 -10 3 -12 10c-3 9 -6 27 -6 60s3 77 6 132c2 33 2 51 2 54v7l-30 -10c-16 -5 -25 -8 -28 -8c-10 0 -14 28 -14 64v24l2 34c13 10 15 13 40 26
c17 9 28 15 30 16c7 2 8 24 8 47v27c0 10 -1 16 -2 16s-8 -2 -18 -7c-25 -13 -41 -18 -46 -18c-5.44444 0 -6.04938 9.67901 -6.04938 20.5679c0 3.11111 0.0493827 6.32099 0.0493827 9.4321v19c2 54 6 88 16 98c9 9 29 19 54 34c8 3 11 9 12 12s1 17 2 42
c3 112 13 168 26 168z" />
    <glyph glyph-name="accidentals.sharp.arrowdown" unicode="&#xe111;" horiz-adv-x="268" 
d="M107 -40c0 -9 0 -17 3 -17c10 0 30 15 38 18l12 8l2 44c1 24 2 38 2 45c0 2 -1 3 -2 3c-3 0 -16 -8 -40 -23l-10 -7l-2 -12c-2 -26 -3 -46 -3 -59zM-16 -390l10 18l12 -5l59 -159l22.4635 50.428c-2.1482 -0.848 -4.3862 -1.428 -5.4635 -1.428c-8 0 -10 3 -12 10
c-3 9 -6 27 -6 60s3 77 6 132c2 33 2 51 2 54v7l-30 -10c-16 -5 -25 -8 -28 -8c-10 0 -14 28 -14 64v24l2 34c13 10 15 13 40 26c17 9 28 15 30 16c7 2 8 24 8 47v27c0 10 -1 16 -2 16s-8 -2 -18 -7c-25 -13 -41 -18 -46 -18c-5.44444 0 -6.04938 9.67901 -6.04938 20.5679
c0 3.11111 0.0493827 6.32099 0.0493827 9.4321v19c2 54 6 88 16 98c9 9 29 19 54 34c8 3 11 9 12 12s1 17 2 42c3 112 13 168 26 168c12.8 0 14.08 -25.6 14.08 -54.784c0 -7.296 -0.08 -14.816 -0.08 -22.216v-23c0 -17.3333 0.444444 -33.3333 0.444444 -47.1111
c0 -6.88889 -0.111111 -13.2222 -0.444444 -18.8889l-2 -28c9 2 35 9 38 17c2 7 7 64 12 176c3 97 12 148 26 163c3 3 5 6 6 6c9 0 14 -45 14 -70c0 -41 0 -112 -8 -210c-2 -28 -7 -43 -7 -46c0 -1 1 -3 1 -3c1 0 3 4 10 6c24 13 39 16 48 16c8 0 10 -6 10 -16v-16
c0 -26 -3 -52 -8 -77c-2 -15 -22 -37 -58 -54l-18 -7v-45c-1 -25 -1 -41 -1 -44v-1c1 0 3 1 11 6c14 9 29 16 42 16s14 -52 14 -85v-13c0 -18 0 -31 -2 -36c-2 -3 -16 -16 -40 -32l-36 -23l-3 -46c-1 -44 -4 -183 -19 -196c-2 -2 -4 -5 -6 -5c-14 0 -16 36 -16 72v12
c0 26 2 76 2 108c0 23 0 35 -2 35c-13 0 -22 -6 -30 -14l-3 -62c-1.644 -51.776 -3.963 -150.831 -10.2878 -192.809l17.2878 38.809l10 18l12 -5l3 -22l-6 -22l-7 -16l-64 -144l-10 -3l-66 180l-7 20z" />
    <glyph glyph-name="accidentals.sharp.arrowboth" unicode="&#xe112;" horiz-adv-x="268" 
d="M107 -40c0 -9 0 -17 3 -17c10 0 30 15 38 18l12 8l2 44c1 24 2 38 2 45c0 2 -1 3 -2 3c-3 0 -16 -8 -40 -23l-10 -7l-2 -12c-2 -26 -3 -46 -3 -59zM105 435l5 30l10 18c12 15 22 30 30 43c22 41 28 58 52 131l10 18l12 -5c13 -42 40 -114 98 -194l3 -22l-6 -22l-7 -16
l-10 -3c-45 62 -69 109 -89 167l-4 11c-7 -20 -14 -42 -23 -62l-7 -17c0 -1 -1 1 -1 0c-23 -52 -12 -37 -56 -94l-10 -3zM-16 -390l10 18l12 -5l59 -159l22.4635 50.428c-2.1482 -0.848 -4.3862 -1.428 -5.4635 -1.428c-8 0 -10 3 -12 10c-3 9 -6 27 -6 60s3 77 6 132
c2 33 2 51 2 54v7l-30 -10c-16 -5 -25 -8 -28 -8c-10 0 -14 28 -14 64v24l2 34c13 10 15 13 40 26c17 9 28 15 30 16c7 2 8 24 8 47v27c0 10 -1 16 -2 16s-8 -2 -18 -7c-25 -13 -41 -18 -46 -18c-5.44444 0 -6.04938 9.67901 -6.04938 20.5679
c0 3.11111 0.0493827 6.32099 0.0493827 9.4321v19c2 54 6 88 16 98c9 9 29 19 54 34c8 3 11 9 12 12s1 17 2 42c3 112 13 168 26 168c12.8 0 14.08 -25.6 14.08 -54.784c0 -7.296 -0.08 -14.816 -0.08 -22.216v-23c0 -17.3333 0.444444 -33.3333 0.444444 -47.1111
c0 -6.88889 -0.111111 -13.2222 -0.444444 -18.8889l-2 -28c9 2 35 9 38 17c2 7 7 64 12 176c3 97 12 148 26 163c3 3 5 6 6 6c9 0 14 -45 14 -70c0 -41 0 -112 -8 -210c-2 -28 -7 -43 -7 -46c0 -1 1 -3 1 -3c1 0 3 4 10 6c24 13 39 16 48 16c8 0 10 -6 10 -16v-16
c0 -26 -3 -52 -8 -77c-2 -15 -22 -37 -58 -54l-18 -7v-45c-1 -25 -1 -41 -1 -44v-1c1 0 3 1 11 6c14 9 29 16 42 16s14 -52 14 -85v-13c0 -18 0 -31 -2 -36c-2 -3 -16 -16 -40 -32l-36 -23l-3 -46c-1 -44 -4 -183 -19 -196c-2 -2 -4 -5 -6 -5c-14 0 -16 36 -16 72v12
c0 26 2 76 2 108c0 23 0 35 -2 35c-13 0 -22 -6 -30 -14l-3 -62c-1.644 -51.776 -3.963 -150.831 -10.2878 -192.809l17.2878 38.809l10 18l12 -5l3 -22l-6 -22l-7 -16l-64 -144l-10 -3l-66 180l-7 20z" />
    <glyph glyph-name="accidentals.sharp.slashslash.stem" unicode="&#xe113;" horiz-adv-x="175" 
d="M88 379c5 3 10 0 12 -5c4 -7 3 -13 3 -22c0 -61 -1 -116 -1 -168c24 10 49 21 80 33c5 2 10 0 12 -5c4 -7 3 -13 3 -22c-1 -25 -2 -39 -6 -64c-1 -7 -1 -13 -7 -16c-31 -16 -57 -28 -82 -39v-146c25 10 51 20 84 32c5 2 10 0 12 -5c4 -7 3 -13 3 -22
c-1 -25 -2 -39 -6 -64c-1 -7 -1 -13 -7 -16c-33 -16 -60 -28 -87 -39c0 -37 0 -75 -1 -117c-1 -25 -2 -39 -6 -64c-1 -7 -3 -11 -7 -16c-3 -3 -7 -6 -10 -3c-5 6 -7 12 -7 20v168c-22 -9 -46 -18 -74 -29c-4 -2 -7 -6 -10 -3c-5 6 -6 12 -7 20c0 28 0 44 5 72
c1 8 3 14 10 18c29 14 53 25 76 35c0 49 1 95 1 145c-21 -9 -43 -17 -69 -29c-4 -2 -7 -6 -10 -3c-5 6 -6 12 -7 20c0 28 0 44 5 72c1 8 3 14 10 18c27 14 50 26 72 36c0 37 1 76 1 118c1 28 0 44 5 72c1 8 3 14 10 18z" />
    <glyph glyph-name="accidentals.sharp.slashslashslash.stemstem" unicode="&#xe114;" horiz-adv-x="275" 
d="M161 -49c-19 -5 -38 -10 -57 -14v-50c19 7 38 13 57 19v45zM163 121c-21 -7 -40 -13 -60 -19v-50c20 4 40 9 60 13v56zM86 357c5 3 10 0 12 -5c4 -7 3 -13 3 -22c0 -41 1 -79 1 -115c21 7 41 13 63 19c1 39 1 81 2 125c1 28 0 44 5 72c1 8 3 14 10 18c5 3 10 0 12 -5
c4 -7 3 -13 3 -22c-1 -66 -1 -124 -2 -179c15 4 31 9 49 14c5 1 10 0 12 -5c4 -7 3 -13 3 -22c-1 -25 -2 -39 -6 -64c-1 -7 -1 -14 -7 -16c-19 -7 -36 -13 -52 -19c0 -20 -1 -40 -1 -60c29 6 61 11 97 18c5 1 10 0 12 -5c4 -7 3 -13 3 -22c-1 -25 -2 -39 -6 -64
c-1 -7 -3 -11 -7 -16c-3 -3 -6 -2 -10 -3c-34 -7 -63 -14 -90 -21c0 -14 -1 -28 -1 -43c29 9 59 18 95 28c5 1 10 0 12 -5c4 -7 3 -13 3 -22c-1 -25 -2 -39 -6 -64c-1 -7 -1 -14 -7 -16c-37 -14 -68 -25 -98 -35c0 -22 -1 -44 -1 -67c-1 -25 -2 -39 -6 -64
c-1 -7 -3 -11 -7 -16c-3 -3 -7 -6 -10 -3c-5 6 -7 12 -7 20c0 43 1 83 1 121c-18 -6 -36 -11 -55 -17v-115c0 -25 -2 -39 -6 -64c-1 -7 -3 -11 -7 -16c-3 -3 -7 -6 -10 -3c-5 6 -7 12 -7 20c-1 61 -1 117 -2 169c-18 -5 -36 -11 -57 -18c-4 -2 -7 -6 -10 -3
c-5 6 -6 12 -7 20c0 28 0 44 5 72c1 8 2 15 10 18c21 8 40 15 58 21v54c-29 -6 -62 -12 -98 -17c-8 -1 -6 12 -7 20c0 28 0 44 5 72c1 8 2 16 10 18c33 9 62 16 89 22v48c-19 -6 -39 -12 -61 -19c-4 -2 -7 -6 -10 -3c-5 6 -6 12 -7 20c0 28 0 44 5 72c1 8 2 15 10 18
c23 9 44 16 63 23v63c0 28 0 44 5 72c1 8 3 14 10 18z" />
    <glyph glyph-name="accidentals.sharp.slashslashslash.stem" unicode="&#xe115;" horiz-adv-x="238" 
d="M122 381c5 3 10 0 12 -5c4 -7 3 -13 3 -22c-2 -53 -4 -101 -5 -147c22 8 45 15 72 24c5 2 10 0 12 -5c4 -7 3 -13 3 -22c-1 -25 -2 -39 -6 -64c-1 -7 -1 -14 -7 -16c-29 -13 -53 -23 -77 -32c0 -12 -2 -24 -2 -36c37 13 75 25 123 41c5 2 10 0 12 -5c4 -7 3 -13 3 -22
c-1 -25 -2 -39 -6 -64c-1 -7 -1 -14 -7 -16c-49 -20 -88 -35 -128 -49c0 -11 -2 -22 -2 -33c28 7 58 15 94 23c5 1 10 0 12 -5c4 -7 3 -13 3 -22c-1 -25 -2 -39 -6 -64c-1 -7 -1 -14 -7 -16c-29 -10 -66 -21 -100 -30c-1 -32 -2 -66 -3 -102c-1 -25 -2 -39 -6 -64
c-1 -7 -3 -11 -7 -16c-3 -3 -7 -6 -10 -3c-5 6 -7 12 -7 20c1 57 3 108 4 157c-38 -10 -67 -16 -67 -16s-7 -6 -10 -3c-5 6 -6 12 -7 20c0 28 0 44 5 72c1 8 2 15 10 18c27 9 51 17 73 23c0 10 1 21 1 31c-28 -9 -57 -19 -92 -31c-4 -2 -7 -6 -10 -3c-5 6 -6 12 -7 20
c0 28 0 44 5 72c1 8 3 15 10 18c37 15 68 28 98 39c0 12 1 24 1 36c-22 -8 -44 -16 -71 -26c-4 -2 -7 -6 -10 -3c-5 6 -6 12 -7 20c0 28 0 44 5 72c1 8 3 15 10 18c30 14 54 24 78 33c1 30 2 62 3 95c1 28 0 44 5 72c1 8 3 14 10 18z" />
    <glyph glyph-name="accidentals.sharp.slashslash.stemstemstem" unicode="&#xe116;" horiz-adv-x="400" 
d="M185 64l-63 -24c0 -34 -1 -67 -1 -101c21 8 43 15 64 23v102zM292 102c-25 -8 -50 -17 -75 -26c0 -34 -1 -68 -1 -103c25 9 51 18 76 27v102zM108 312c5 3 10 0 12 -5c4 -7 3 -13 3 -22c0 -64 -1 -86 -1 -139c21 8 43 15 64 23c0 49 0 66 1 123c1 28 0 44 5 72
c1 8 3 14 10 18c5 3 10 0 12 -5c4 -7 3 -13 3 -22v-175c27 9 52 18 75 26c0 58 1 86 1 156c1 28 0 44 5 72c1 8 3 14 10 18c5 3 10 0 12 -5c4 -7 3 -13 3 -22v-208c32 11 53 17 55 18c0 0 10 0 12 -5c4 -7 3 -13 3 -22c-1 -25 -2 -39 -6 -64c-1 -7 -3 -11 -7 -16
c-2 -3 -7 -2 -7 -2c-16 -4 -32 -9 -49 -14v-102c19 6 37 13 56 19c0 0 10 0 12 -5c4 -7 3 -13 3 -22c-1 -25 -2 -39 -6 -64c-1 -7 -7 -16 -7 -16c-19 -6 -39 -13 -58 -20c0 -42 -1 -86 -1 -134c-1 -25 -2 -39 -6 -64c-1 -7 -3 -11 -7 -16c-3 -3 -7 -6 -10 -3
c-5 6 -7 12 -7 20c-1 68 -1 130 -1 187c-25 -9 -51 -18 -76 -27c0 -40 -1 -82 -1 -127c-1 -25 -2 -39 -6 -64c-1 -7 -3 -11 -7 -16c-3 -3 -7 -6 -10 -3c-5 6 -7 12 -7 20v179c-22 -8 -43 -16 -65 -24c0 -40 0 -83 -1 -130c-1 -25 -2 -39 -6 -64c-1 -7 -3 -11 -7 -16
c-3 -3 -7 -6 -10 -3c-5 6 -7 12 -7 20v182c-22 -8 -45 -17 -67 -25c0 0 -7 -6 -10 -3c-5 6 -6 12 -7 20c0 28 0 44 5 72c1 8 10 18 10 18c23 9 46 17 69 26c0 33 1 67 1 101c-26 -11 -52 -21 -78 -32c0 0 -7 -6 -10 -3c-5 6 -6 12 -7 20c0 28 0 44 5 72c1 8 10 18 10 18
c23 10 52 21 82 32c1 38 0 43 1 87c1 28 0 44 5 72c1 8 3 14 10 18z" />
    <glyph glyph-name="accidentals.natural" unicode="&#xe117;" horiz-adv-x="222" 
d="M51 -58c0 -2 2 -2 4 -2c22 0 66 21 76 34l8 9v23c1 17 5 35 5 52c0 13 -2 9 -15 4c-25 -9 -48 -23 -65 -40l-9 -8l-2 -35c-1 -18 -2 -34 -2 -37zM37 538c0 9 20 13 30 13c3 0 9 -1 9 -3s0 -25 -2 -72c-2 -53 -11 -248 -13 -295v-16l10 8c17 16 84 43 112 48
c8 1 11 2 13 2s2 0 2 -2c0 -10 -2 -86 -10 -233c-10 -215 -18 -362 -27 -516c-1 -15 -5 -25 -8 -27c-9 -8 -17 -10 -25 -10c-2 0 -8 1 -10 1v11c0 9 3 23 4 46c13 215 17 335 17 358v1c-2 0 -4 -6 -6 -8c-23 -26 -77 -53 -110 -53c-17 0 -26 3 -26 6c0 1 1 54 8 159
c10 204 15 265 25 455c3 83 7 125 7 127z" />
    <glyph glyph-name="accidentals.natural.arrowup" unicode="&#xe118;" horiz-adv-x="222" 
d="M51 -58c0 -2 2 -2 4 -2c22 0 66 21 76 34l8 9v23c1 17 5 35 5 52c0 13 -2 9 -15 4c-25 -9 -48 -23 -65 -40l-9 -8l-2 -35c-1 -18 -2 -34 -2 -37zM-20 390l-7 20l5 72c26 62 52 125 72 192l10 18l12 -5c27 -120 7 -85 56 -174l3 -22l-6 -64l-7 -16l-10 -3
c-12 22 -21 43 -28 64l-5.4928 16.479c-0.1529 -3.954 -0.3214 -8.113 -0.5072 -12.479c-2 -53 -11 -248 -13 -295v-16l10 8c17 16 84 43 112 48c8 1 11 2 13 2s2 0 2 -2c0 -10 -2 -86 -10 -233c-10 -215 -18 -362 -27 -516c-1 -15 -5 -25 -8 -27c-9 -8 -17 -10 -25 -10
c-2 0 -8 1 -10 1v11c0 9 3 23 4 46c13 215 17 335 17 358v1c-2 0 -4 -6 -6 -8c-23 -26 -77 -53 -110 -53c-17 0 -26 3 -26 6c0 1 1 54 8 159c10 204 15 265 25 455c1.4154 39.158 3.0533 69.191 4.3888 90.202c-12.0426 -31.058 -24.9104 -61.63 -37.3888 -92.202l-7 -16z
" />
    <glyph glyph-name="accidentals.natural.arrowdown" unicode="&#xe119;" horiz-adv-x="222" 
d="M51 -58c0 -2 2 -2 4 -2c22 0 66 21 76 34l8 9v23c1 17 5 35 5 52c0 13 -2 9 -15 4c-25 -9 -48 -23 -65 -40l-9 -8l-2 -35c-1 -18 -2 -34 -2 -37zM48 -406l10 18l12 -5c37.892 -58.56 48.426 -72.623 53.175 -94.417c12.067 202.712 15.825 316.125 15.825 338.417v1
c-2 0 -4 -6 -6 -8c-23 -26 -77 -53 -110 -53c-17 0 -26 3 -26 6c0 1 1 54 8 159c10 204 15 265 25 455c3 83 7 125 7 127c0 9 20 13 30 13c3 0 9 -1 9 -3s0 -25 -2 -72c-2 -53 -11 -248 -13 -295v-16l10 8c17 16 84 43 112 48c8 1 11 2 13 2s2 0 2 -2c0 -10 -2 -86 -10 -233
c-9.631 -207.073 -17.407 -351.068 -26.008 -498.991c11.356 21.932 23.259 43.679 36.008 65.991v1l11 18c8 14 16 28 25 42l12 -5l3 -22l-6 -64l-7 -16c-29 -46 -58 -96 -110 -210l-10 -3l-7 20c-1 7 3 33 -20 108c-9 25 -22 52 -39 78l-7 20z" />
    <glyph glyph-name="accidentals.natural.arrowboth" unicode="&#xe11a;" horiz-adv-x="222" 
d="M51 -58c0 -2 2 -2 4 -2c22 0 66 21 76 34l8 9v23c1 17 5 35 5 52c0 13 -2 9 -15 4c-25 -9 -48 -23 -65 -40l-9 -8l-2 -35c-1 -18 -2 -34 -2 -37zM-20 390l-7 20l5 72c26 62 52 125 72 192l10 18l12 -5c27 -120 7 -85 56 -174l3 -22l-6 -64l-7 -16l-10 -3
c-12 22 -21 43 -28 64l-5.4928 16.479c-0.1529 -3.954 -0.3214 -8.113 -0.5072 -12.479c-2 -53 -11 -248 -13 -295v-16l10 8c17 16 84 43 112 48c8 1 11 2 13 2s2 0 2 -2c0 -10 -2 -86 -10 -233c-9.631 -207.073 -17.407 -351.068 -26.008 -498.991
c11.356 21.932 23.259 43.679 36.008 65.991v1l11 18c8 14 16 28 25 42l12 -5l3 -22l-6 -64l-7 -16c-29 -46 -58 -96 -110 -210l-10 -3l-7 20c-1 7 3 33 -20 108c-9 25 -22 52 -39 78l-7 20l5 72l10 18l12 -5c37.892 -58.56 48.426 -72.623 53.175 -94.417
c12.067 202.712 15.825 316.125 15.825 338.417v1c-2 0 -4 -6 -6 -8c-23 -26 -77 -53 -110 -53c-17 0 -26 3 -26 6c0 1 1 54 8 159c10 204 15 265 25 455c1.4154 39.158 3.0533 69.191 4.3888 90.202c-12.0426 -31.058 -24.9104 -61.63 -37.3888 -92.202l-7 -16z" />
    <glyph glyph-name="accidentals.flat" unicode="&#xe11b;" horiz-adv-x="232" 
d="M148 77c0 17 -7 32 -22 32c-25 0 -47 -39 -60 -62c-10 -17 -17 -29 -18 -37v-112c0 -6 -1 -6 0 -6s3 -1 6 2c9 8 18 23 27 33c39 46 58 91 65 134c1 7 2 11 2 16zM174 230c44 0 58 -43 58 -95c0 -10 0 -23 -2 -35c-12 -90 -56 -183 -137 -288c-15 -17 -36 -44 -58 -69
s-33 -39 -35 -39c-1 0 -2 4 -2 6c0 12 1 49 2 140c1 85 4 220 4 406l2 278c14 15 25 24 53 25v-52c-3 -163 -4 -270 -4 -318c0 -21 -1 -33 0 -33s8 7 11 14c21 33 60 60 108 60z" />
    <glyph glyph-name="accidentals.flat.arrowup" unicode="&#xe11c;" horiz-adv-x="232" 
d="M49.9113 558.332c-7.3692 13.545 -15.0173 27.107 -22.9113 40.668c-5.6723 -20.988 -11.9881 -42.297 -19.1299 -63.015c11.5549 12.13 21.6302 19.973 42.0412 22.347zM148 77c0 17 -7 32 -22 32c-25 0 -47 -39 -60 -62c-10 -17 -17 -29 -18 -37v-112c0 -6 -1 -6 0 -6
s3 -1 6 2c9 8 18 23 27 33c39 46 58 91 65 134c1 7 2 11 2 16zM-87 399l5 72l10 18c8 10 15 21 22 32c27 50 36 61 67 184l10 18l12 -5c56 -94 108 -228 108 -228l3 -22l-6 -64l-7 -16l-10 -3l-5 15c-16.399 46.346 -37.8827 93.709 -63 141.364v-34.364
c-3 -163 -4 -270 -4 -318c0 -21 -1 -33 0 -33s8 7 11 14c21 33 60 60 108 60c44 0 58 -43 58 -95c0 -10 0 -23 -2 -35c-12 -90 -56 -183 -137 -288c-15 -17 -36 -44 -58 -69s-33 -39 -35 -39c-1 0 -2 4 -2 6c0 12 1 49 2 140c1 85 4 220 4 406l1.97523 274.557
c-4.92224 -13.918 -10.2286 -27.531 -15.9752 -40.557l-8 -17v-1c-36 -81 -2 -24 -52 -90l-10 -3z" />
    <glyph glyph-name="accidentals.flat.arrowdown" unicode="&#xe11d;" horiz-adv-x="232" 
d="M148 77c0 17 -7 32 -22 32c-25 0 -47 -39 -60 -62c-10 -17 -17 -29 -18 -37v-112c0 -6 -1 -6 0 -6s3 -1 6 2c9 8 18 23 27 33c39 46 58 91 65 134c1 7 2 11 2 16zM-109 -261c1 8 3 14 10 18c5 3 12 -5 12 -5c40.1804 -53.226 65.112 -99.1 80.7627 -134.638
c0.36266 19.65 1.44177 38.099 3.23731 62.638c0.56387 9.304 1.088 18.032 1.5976 26.343c-0.35973 1.23 -0.5976 2.682 -0.5976 3.657c0 12 1 49 2 140c1 85 4 220 4 406l2 278c14 15 25 24 53 25v-52c-3 -163 -4 -270 -4 -318c0 -21 -1 -33 0 -33s8 7 11 14
c21 33 60 60 108 60c44 0 58 -43 58 -95c0 -10 0 -23 -2 -35c-12 -90 -56 -183 -137 -288c-13.5207 -15.323 -31.9164 -38.772 -51.5252 -61.557c-3.3411 -55.923 -6.7701 -112.364 -10.8627 -168.169c14.6792 39.698 39.3383 105.773 58.3879 153.726c3 7 3 14 10 18
c5 3 10 0 12 -5c4 -7 3 -13 3 -22c-0.2 -5 -0.24 -9.6 -0.24 -13.952c0 -2.90133 0.0177778 -5.69244 0.0177778 -8.41837c0 -13.6296 -0.444444 -25.6296 -5.77778 -41.6296c-29 -92 -53 -141 -87 -231c-2 -6 -3 -11 -7 -16c-3 -3 -7 -6 -10 -3c-5 6 -7 20 -7 20
c-3 17 -8 35 -13 52c-19 53 -50 108 -91 162c0 0 -6 12 -7 20c0 28 0 44 5 72z" />
    <glyph glyph-name="accidentals.flat.arrowboth" unicode="&#xe11e;" horiz-adv-x="232" 
d="M49.9113 558.332c-7.3692 13.545 -15.0173 27.107 -22.9113 40.668c-5.6723 -20.988 -11.9881 -42.297 -19.1299 -63.015c11.5549 12.13 21.6302 19.973 42.0412 22.347zM148 77c0 17 -7 32 -22 32c-25 0 -47 -39 -60 -62c-10 -17 -17 -29 -18 -37v-112c0 -6 -1 -6 0 -6
s3 -1 6 2c9 8 18 23 27 33c39 46 58 91 65 134c1 7 2 11 2 16zM-87 399l5 72l10 18c8 10 15 21 22 32c27 50 36 61 67 184l10 18l12 -5c56 -94 108 -228 108 -228l3 -22l-6 -64l-7 -16l-10 -3l-5 15c-16.399 46.346 -37.8827 93.709 -63 141.364v-34.364
c-3 -163 -4 -270 -4 -318c0 -21 -1 -33 0 -33s8 7 11 14c21 33 60 60 108 60c44 0 58 -43 58 -95c0 -10 0 -23 -2 -35c-12 -90 -56 -183 -137 -288c-13.5207 -15.323 -31.9164 -38.772 -51.5252 -61.557c-3.3411 -55.923 -6.7701 -112.364 -10.8627 -168.169
c14.6792 39.698 39.3383 105.773 58.3879 153.726c3 7 3 14 10 18c5 3 10 0 12 -5c4 -7 3 -13 3 -22c-0.2 -5 -0.24 -9.6 -0.24 -13.952c0 -2.90133 0.0177778 -5.69244 0.0177778 -8.41837c0 -13.6296 -0.444444 -25.6296 -5.77778 -41.6296c-29 -92 -53 -141 -87 -231
c-2 -6 -3 -11 -7 -16c-3 -3 -7 -6 -10 -3c-5 6 -7 20 -7 20c-3 17 -8 35 -13 52c-19 53 -50 108 -91 162c0 0 -6 12 -7 20c0 28 0 44 5 72c1 8 3 14 10 18c5 3 12 -5 12 -5c40.1804 -53.226 65.112 -99.1 80.7627 -134.638c0.36266 19.65 1.44177 38.099 3.23731 62.638
c0.56387 9.304 1.088 18.032 1.5976 26.343c-0.35973 1.23 -0.5976 2.682 -0.5976 3.657c0 12 1 49 2 140c1 85 4 220 4 406l1.97523 274.557c-4.92224 -13.918 -10.2286 -27.531 -15.9752 -40.557l-8 -17v-1c-36 -81 -2 -24 -52 -90l-10 -3z" />
    <glyph glyph-name="accidentals.flat.slash" unicode="&#xe11f;" horiz-adv-x="232" 
d="M148 77c0 17 -7 32 -22 32c-25 0 -47 -39 -60 -62c-10 -17 -17 -29 -18 -37v-112c0 -6 -1 -6 0 -6s3 -1 6 2c9 8 18 23 27 33c39 46 58 91 65 134c1 7 2 11 2 16zM-112 251l5 72l10 18c36.3625 20.818 70.2595 39.402 102.012 55.623l0.98832 137.377c14 15 25 24 53 25
v-52c-0.5561 -30.213 -1.0434 -58.503 -1.4684 -84.849c59.6744 27.344 111.269 44.652 157.468 50.849l12 -5l3 -22l-6 -64l-7 -16l-10 -3c-21 -3 -40 -7 -59 -12c-32.42 -8.907 -62.8095 -20.733 -91.982 -34.257c-0.7302 -59.255 -1.018 -101.99 -1.018 -127.743
c0 -21 -1 -33 0 -33s8 7 11 14c21 33 60 60 108 60c44 0 58 -43 58 -95c0 -10 0 -23 -2 -35c-12 -90 -56 -183 -137 -288c-15 -17 -36 -44 -58 -69s-33 -39 -35 -39c-1 0 -2 4 -2 6c0 12 1 49 2 140c1 85 4 220 4 406l0.24903 34.615
c-33.6589 -18.192 -66.2705 -37.77 -99.249 -56.615l-10 -3z" />
    <glyph glyph-name="accidentals.flat.slashslash" unicode="&#xe120;" horiz-adv-x="232" 
d="M148 77c0 17 -7 32 -22 32c-25 0 -47 -39 -60 -62c-10 -17 -17 -29 -18 -37v-112c0 -6 -1 -6 0 -6s3 -1 6 2c9 8 18 23 27 33c39 46 58 91 65 134c1 7 2 11 2 16zM-150 343l5 72l10 18l140.619 47.976l0.38147 53.024c14 15 25 24 53 25v-52
c-0.0485 -2.635 -0.0965 -5.255 -0.1439 -7.861l146.144 49.861l12 -5l3 -22l-6 -64l-7 -16l-149.959 -51.162c-0.2372 -15.654 -0.4505 -30.527 -0.6416 -44.615l164.6 42.777l12 -5l3 -22l-6 -64l-7 -16l-10 -3l-157.782 -41.006
c-0.1509 -20.238 -0.2177 -36.587 -0.2177 -48.994c0 -21 -1 -33 0 -33s8 7 11 14c21 33 60 60 108 60c44 0 58 -43 58 -95c0 -10 0 -23 -2 -35c-12 -90 -56 -183 -137 -288c-15 -17 -36 -44 -58 -69s-33 -39 -35 -39c-1 0 -2 4 -2 6c0 12 1 49 2 140
c0.942973 80.1527 3.66434 204.765 3.97166 374.676l-144.972 -37.676l-7 20l5 72l10 18l137.552 35.748l0.28979 40.28l-137.842 -47.028l-10 -3z" />
    <glyph glyph-name="accidentals.mirroredflat.flat" unicode="&#xe121;" horiz-adv-x="404" 
d="M227 78c0 -48 -1 -99 -1 -155c2 2 3 4 3 4c24 20 79 72 114 136c1 4 7 21 9 29c0 24 0 34 -27 40c-1.0718 0.267949 -2.26924 0.392305 -3.57068 0.392305c-8.41266 0 -21.171 -5.19615 -32.4293 -10.3923c-29 -13 -44 -15 -62 -44zM173 -68c0 51 1 97 1 143
c-1 0 -18 27 -18 27c-17 17 -23 24 -55 29c-4 1 -25 -4 -29 -6c-8.66504 -4.33252 -11.1709 -19.8102 -11.1709 -34.2025c0 -12.1831 1.79563 -23.5885 3.17093 -26.7975c8 -20 47 -74 109 -132zM393 210c8.33333 -13.3333 9.02778 -32.9167 9.02778 -50.0694
c0 -3.43056 -0.0277778 -6.76389 -0.0277778 -9.93056c0.0315931 -1.92718 0.0472162 -3.84837 0.0472162 -5.76335c0 -58.6989 -14.6791 -111.564 -34.0472 -152.237l-7 -16c-7 -16 -91 -120 -143 -165c-2 -2 -8 -6 -11 -1c-1 -4 -10 -23 -17 -16c-5 6 -7 20 -7 20v4
c0 -4 -10 -9 -13 -8c-32 34 -110 88 -137 167l-6 20c-8.54657 38.4596 -13.5424 56.6292 -13.5424 90.2746c0 13.5951 0.815688 29.7171 2.5424 50.7254c3 33 7 57 24 77c7.20284 9.00355 29.8078 20.439 46.6489 20.439c1.86386 0 3.65713 -0.140069 5.3511 -0.439005
c13 -2 25 -4 36 -8l12 -5c11 -4 24 -12 35 -23c1 70 2 145 3 233c0.324764 0 0.412217 2.21491 0.412217 5.95109c0 4.36062 -0.119128 10.7935 -0.119128 18.1959c0 25.3136 1.39308 61.9644 13.7069 65.853c1.19353 0.716118 3.81157 1.03337 7.13324 1.03337
c10.5937 0 28.3442 -3.2269 29.8668 -7.03337c4 -7 3 -22 3 -22c-1 -119 -3 -211 -4 -304c21 47 82 52 102 52c15 0 48 -9 63 -32z" />
    <glyph glyph-name="accidentals.mirroredflat" unicode="&#xe122;" horiz-adv-x="232" 
d="M82 77c0 -5 1 -9 2 -16c7 -43 26 -88 65 -134c9 -10 18 -25 27 -33c3 -3 5 -2 6 -2s0 0 0 6v112c-1 8 -8 20 -18 37c-13 23 -35 62 -60 62c-15 0 -22 -15 -22 -32zM56 230c48 0 87 -27 108 -60c3 -7 10 -14 11 -14s0 12 0 33c0 48 -1 155 -4 318v52c28 -1 39 -10 53 -25
l2 -278c0 -186 3 -321 4 -406c1 -91 2 -128 2 -140c0 -2 -1 -6 -2 -6c-2 0 -13 14 -35 39s-43 52 -58 69c-81 105 -125 198 -137 288c-2 12 -2 25 -2 35c0 52 14 95 58 95z" />
    <glyph glyph-name="accidentals.mirroredflat.backslash" unicode="&#xe123;" horiz-adv-x="232" 
d="M82 77c0 -5 1 -9 2 -16c7 -43 26 -88 65 -134c9 -10 18 -25 27 -33c3 -3 5 -2 6 -2s0 0 0 6v112c-1 8 -8 20 -18 37c-13 23 -35 62 -60 62c-15 0 -22 -15 -22 -32zM-30 369l5 72l10 18c44 -9 87 -22 129 -38h1l12 -5c15.461 -5.985 30.736 -12.467 45.87 -19.385
c-0.511 33.355 -1.13 70.165 -1.87 110.385v52c28 -1 39 -10 53 -25l1.174 -163.188c27.471 -14.495 54.648 -30.229 81.826 -46.812l3 -22l-6 -64l-7 -16l-10 -3c-23.375 14.384 -43.381 26.726 -61.003 37.411l0.003 -0.411c0 -186 3 -321 4 -406c1 -91 2 -128 2 -140
c0 -2 -1 -6 -2 -6c-2 0 -13 14 -35 39s-43 52 -58 69c-81 105 -125 198 -137 288c-2 12 -2 25 -2 35c0 52 14 95 58 95c48 0 87 -27 108 -60c3 -7 10 -14 11 -14s0 12 0 33c0 21.165 -0.194 53.802 -0.669 97.654c-61.492 33.949 -96.3736 42.564 -197.331 62.346z" />
    <glyph glyph-name="accidentals.flatflat" unicode="&#xe124;" horiz-adv-x="396" 
d="M311 71c0 17 -3 34 -18 34c-7 0 -14 -1 -22 -9c-16 -13 -42 -53 -47 -86c-1 -8 -4 -104 -4 -114v-4c10 8 21 21 29 31c41 52 62 101 62 148zM146 74c0 17 -4 31 -18 31c-8 0 -13 -2 -22 -10c-13 -13 -44 -58 -47 -83c-2 -9 -1 -30 -2 -63l-1 -59c58 64 90 126 90 184z
M176 -293c-1 8 -1 13 -1 23c0 26 3 92 5 198l1 36l-14 -28c-37 -75 -87 -149 -150 -221l-7 -8v19c0 13 3 149 11 411l12 392c8 5 25 22 35 22c1 0 1 -9 1 -26c0 -25 -10 -356 -10 -366v-5c1 0 4 5 9 13c17 33 56 61 97 61c8 0 17 -2 22 -2c1 0 10 302 10 302
c2 9 23 23 33 23c2 0 5 -2 5 -9c0 -15 0 -119 -7 -318c-1 -39 -4 -63 -4 -65c0 -1 2 -5 2 -5c2 0 5 8 6 10c9 15 34 45 50 53s36 10 53 10c9 0 16 0 21 -3c17 -14 30 -53 30 -94c0 -33 -5 -68 -18 -108c-28 -91 -86 -189 -171 -290z" />
    <glyph glyph-name="accidentals.flatflat.slash" unicode="&#xe125;" horiz-adv-x="396" 
d="M62.0197 267.601c-1.6898 -58.618 -3.0197 -104.954 -3.0197 -108.601v-5c1 0 4 5 9 13c17 33 56 61 97 61c8 0 17 -2 22 -2c0.331 0 1.541 33.165 3.011 77.514c-15.102 -3.741 -30.121 -7.585 -45.011 -11.514c-27.31 -7.568 -55.0534 -15.677 -82.9803 -24.399z
M176 -293c-1 8 -1 13 -1 23c0 26 3 92 5 198l1 36l-14 -28c-37 -75 -87 -149 -150 -221l-7 -8v19c0 13 3 149 11 411l3.63 118.581c-44.6953 -14.794 -89.5752 -31.225 -133.63 -49.581l-10 -3l-7 20l5 72l10 18c56.137 23.702 100.571 41.615 139.096 55.789
l4.9044 160.211c8 5 25 22 35 22c1 0 1 -9 1 -26c0 -10.309 -1.7004 -72.65 -3.6988 -143.059c45.2068 15.264 83.8878 25.501 128.322 35.054c1.858 60.05 3.377 111.005 3.377 111.005c2 9 23 23 33 23c2 0 5 -2 5 -9c0 -8.689 -1.361 -47.246 -1.361 -116.835
c38.604 7.538 83.026 15.431 139.361 25.835l12 -5l3 -22l-6 -64l-7 -16l-10 -3c-44.341 -7.896 -89.421 -17.269 -134.117 -27.668c-0.797 -27.297 -1.748 -57.066 -2.883 -89.332c-1 -39 -4 -63 -4 -65c0 -1 2 -5 2 -5c2 0 5 8 6 10c9 15 34 45 50 53s36 10 53 10
c9 0 16 0 21 -3c17 -14 30 -53 30 -94c0 -33 -5 -68 -18 -108c-28 -91 -86 -189 -171 -290zM146 74c0 17 -4 31 -18 31c-8 0 -13 -2 -22 -10c-13 -13 -44 -58 -47 -83c-2 -9 -1 -30 -2 -63l-1 -59c58 64 90 126 90 184zM311 71c0 17 -3 34 -18 34c-7 0 -14 -1 -22 -9
c-16 -13 -42 -53 -47 -86c-1 -8 -4 -104 -4 -114v-4c10 8 21 21 29 31c41 52 62 101 62 148z" />
    <glyph glyph-name="accidentals.doublesharp" unicode="&#xe126;" horiz-adv-x="396" 
d="M123 -44c0 0 49 44 49 45c0 2 -9 9 -25 23c-14 9 -15 16 -24 26l-12 -12c-3 -3 -10 -6 -12 -6c-3 0 -11 7 -22 18c-19 19 -34 39 -42 58l-2 13l8 12c15 28 30 49 49 68l18 18l9 -6c6 -3 15 -10 25 -21c16 -18 27 -37 30 -56l1 -11c-3 -9 -11 -16 -14 -25l15 -33
c11 -24 20 -32 21 -32s8 11 19 30l17 31c-2 3 -6 6 -6 15c0 8 3 15 6 25c15 31 32 56 51 71l10 6c33 -20 57 -47 68 -83l3 -10l-12 -23c-14 -25 -26 -46 -44 -62c-10 -9 -18 -12 -21 -12s-16 12 -18 12s-11 -9 -26 -23l-18 -22c10 -11 27 -20 41 -29c6 -3 9 -5 10 -5
c0 0 5 4 8 13l9 13l13 -8c25 -20 43 -46 54 -75l4 -12l-10 -15c-14 -26 -28 -48 -47 -67c-11 -11 -19 -16 -20 -16c-2 0 -10 3 -21 18s-18 28 -26 39c-11 19 -18 33 -18 36c0 1 17 23 17 23c0 1 -2 6 -5 9c-2 2 -28 44 -31 44c-2 0 -4 -2 -7 -8c-9 -11 -14 -21 -17 -35
c-2 -3 -5 -12 -5 -15c0 -10 8 -14 11 -17l-6 -16c-18 -36 -39 -61 -58 -77l-8 -7l-15 17c-19 19 -40 41 -51 60l-7 16l7 16c14 25 29 45 44 61c11 11 19 17 20 17s12 -14 13 -14z" />
    <glyph glyph-name="accidentals.rightparen" unicode="&#xe127;" horiz-adv-x="173" 
d="M48 -409c-2 14 -4 21 -4 46c0 38 16 96 48 174c20 51 30 96 36 131c1 11 4 23 4 36c0 48 -11 90 -24 130c-14 44 -35 87 -64 131c-9 14 -14 37 -14 70c0 34 3 63 14 91c4 9 8 15 8 15c2 0 16 -21 40 -65c52 -97 81 -210 81 -350c0 -160 -43 -279 -111 -385z" />
    <glyph glyph-name="accidentals.leftparen" unicode="&#xe128;" horiz-adv-x="0" 
d="M-50 371l20 27v-27v-7c0 -46 -11 -107 -32 -142c-47 -78 -74 -141 -82 -188c-1 -12 -4 -23 -4 -35c0 -20 4 -40 8 -61c12 -54 36 -113 74 -178c11 -18 16 -32 16 -44c0 -29 -7 -71 -16 -112c-4 -18 -8 -26 -10 -26c-1 0 -12 24 -20 38c-58 119 -88 235 -88 347
c0 12 1 25 2 37c8 130 51 253 132 371z" />
    <glyph glyph-name="arrowheads.open.01" unicode="&#xe129;" horiz-adv-x="20" 
d="M-250 105c0 11 9 20 20 20c6 0 11 -2 15 -7c54 -62 133 -98 215 -98c13 0 20 -10 20 -20s-7 -20 -20 -20c-82 0 -161 -36 -215 -98c-4 -5 -9 -7 -15 -7c-11 0 -20 9 -20 20c0 5 2 9 5 13c36 42 82 73 133 92c-51 19 -97 50 -133 92c-3 4 -5 8 -5 13z" />
    <glyph glyph-name="arrowheads.open.0M1" unicode="&#xe12a;" horiz-adv-x="259" 
d="M250 105c0 -5 -2 -9 -5 -13c-36 -42 -82 -73 -133 -92c51 -19 97 -50 133 -92c3 -4 5 -8 5 -13c0 -11 -9 -20 -20 -20c-6 0 -11 2 -15 7c-54 62 -133 98 -215 98c-13 0 -20 10 -20 20s7 20 20 20c82 0 161 36 215 98c4 5 9 7 15 7c11 0 20 -9 20 -20z" />
    <glyph glyph-name="arrowheads.open.11" unicode="&#xe12b;" horiz-adv-x="105" 
d="M-105 -250c-11 0 -20 9 -20 20c0 6 2 11 7 15c62 54 98 133 98 215c0 13 10 20 20 20s20 -7 20 -20c0 -82 36 -161 98 -215c5 -4 7 -9 7 -15c0 -11 -9 -20 -20 -20c-5 0 -9 2 -13 5c-42 36 -73 82 -92 133c-19 -51 -50 -97 -92 -133c-4 -3 -8 -5 -13 -5z" />
    <glyph glyph-name="arrowheads.open.1M1" unicode="&#xe12c;" horiz-adv-x="105" 
d="M-105 250c5 0 9 -2 13 -5c42 -36 73 -82 92 -133c19 51 50 97 92 133c4 3 8 5 13 5c11 0 20 -9 20 -20c0 -6 -2 -11 -7 -15c-62 -54 -98 -133 -98 -215c0 -13 -10 -20 -20 -20s-20 7 -20 20c0 82 -36 161 -98 215c-5 4 -7 9 -7 15c0 11 9 20 20 20z" />
    <glyph glyph-name="arrowheads.close.01" unicode="&#xe12d;" horiz-adv-x="0" 
d="M-240 -125c-6 0 -10 5 -10 10v2c8 37 13 75 13 113c0 39 -13 77 -13 115c0 5 4 10 10 10c3 0 6 -2 8 -4c38 -47 172 -111 232 -111c7 0 10 -5 10 -10s-3 -10 -10 -10c-60 0 -194 -64 -232 -111c-2 -2 -5 -4 -8 -4z" />
    <glyph glyph-name="arrowheads.close.0M1" unicode="&#xe12e;" horiz-adv-x="271" 
d="M240 -125c-3 0 -6 2 -8 4c-38 47 -172 111 -232 111c-7 0 -10 5 -10 10s3 10 10 10c60 0 194 64 232 111c2 2 5 4 8 4c6 0 10 -5 10 -10c0 -38 -13 -76 -13 -115c0 -38 5 -76 13 -113v-2c0 -5 -4 -10 -10 -10z" />
    <glyph glyph-name="arrowheads.close.11" unicode="&#xe12f;" horiz-adv-x="113" 
d="M125 -240c0 -6 -5 -10 -10 -10h-2c-37 8 -75 13 -113 13s-76 -5 -113 -13h-2c-5 0 -10 4 -10 10c0 3 2 6 4 8c47 38 111 172 111 232c0 7 5 10 10 10s10 -3 10 -10c0 -60 64 -194 111 -232c2 -2 4 -5 4 -8z" />
    <glyph glyph-name="arrowheads.close.1M1" unicode="&#xe130;" horiz-adv-x="113" 
d="M-125 240c0 6 5 10 10 10h2c37 -8 75 -13 113 -13s76 5 113 13h2c5 0 10 -4 10 -10c0 -3 -2 -6 -4 -8c-47 -38 -111 -172 -111 -232c0 -7 -5 -10 -10 -10s-10 3 -10 10c0 60 -64 194 -111 232c-2 2 -4 5 -4 8z" />
    <glyph glyph-name="dots.dot" unicode="&#xe131;" horiz-adv-x="112" 
d="M36 -68c-41 0 -59 0 -59 19c0 13 7 34 22 63c15 30 27 46 36 49c4 1 19 2 45 2c38 0 56 0 56 -23c0 -13 -6 -33 -18 -60c-11 -25 -22 -40 -32 -46c-5 -3 -21 -4 -50 -4z" />
    <glyph glyph-name="scripts.ufermata" unicode="&#xe132;" horiz-adv-x="200" 
d="M5 688c6.58846 1.4641 15.3205 2.3923 26.5885 2.3923c4.12436 0 8.58846 -0.124356 13.4115 -0.392305c18 -1 31 -2 39 -5c55 -20 89 -81 102 -183c4.59798 -38.0975 7.03867 -74.0378 7.03867 -108.104c0 -17.7965 -0.666089 -35.0817 -2.03867 -51.8958
c-5 -59 -16 -123 -33 -192s-34 -116 -51 -141c-8 -13 -15 -14 -21 -4c-3 5 -4 15 -4 32c0 26 8 69 24 128c19 71 28 117 27 137l-1 10h-9c-6 0 -21 -4 -44 -12c-77 -25 -143 -37 -197 -37c-9 0 -15 -1 -17 -2s-2 -6 -2 -14c0 -20 9 -54 27 -102l12 -33v-46
c0 -31 -1 -49 -4 -54s-7 -9 -11 -9s-7 1 -9 2c-9 5 -21 33 -36 85s-27 103 -34 151c-5.21791 36.5254 -7.79795 71.1666 -7.79795 103.866c0 73.835 13.1546 137.768 38.798 191.134c41 85 96 136 166 152zM-32 204c4 5 9 7 15 7
c18.6405 0 27.4284 -15.7641 27.4284 -46.7601c0 -7.24912 -0.48067 -15.3314 -1.42839 -24.2399c-3 -23 -7 -40 -12 -50s-13 -14 -23 -12s-17 6 -20 11c-2.25 3.75 -3.375 10.875 -3.375 21.375c0 3.5 0.125 7.375 0.375 11.625c0 43 6 70 17 82z" />
    <glyph glyph-name="scripts.dfermata" unicode="&#xe133;" horiz-adv-x="200" 
d="M90 -5l6 6c11 0 27 -34 48 -103c24 -77 41 -155 48 -235c1.5 -18 2.25 -37.25 2.25 -57.875s-0.75 -42.625 -2.25 -66.125c-10 -141 -53 -219 -126 -232c-8.89209 -1.53312 -17.6902 -2.31409 -26.5095 -2.31409c-19.9435 0 -39.9958 3.99358 -61.4905 12.3141
c-42 15 -80 47 -112 96s-53 103 -62 164c-2.95883 19.2324 -4.41295 40.2431 -4.41295 63.0321c0 38.8272 4.22106 82.8165 12.413 131.968c17 99 35 169 58 210c7 13 16 16 24 7c5.89181 -5.89181 8.24144 -22.4102 8.24144 -49.5552
c0 -5.10567 -0.083124 -10.5873 -0.241436 -16.4448v-37l-14 -40c-9 -27 -16 -45 -18 -54c-4.16667 -19.1667 -6.25 -34.1667 -6.25 -45c0 -2.16667 0.0833333 -4.16667 0.25 -6l2 -6l22 -1c61 -3 121 -14 182 -33c21 -7 37 -11 46 -14l16 -4l2 5
c0.803848 1.87564 1.17691 4.61285 1.17691 8.21162c0 9.83201 -2.78461 26.0948 -7.17691 48.7884c-4 20 -11 51 -22 93c-15.4186 56.5347 -22.9953 98.2112 -22.9953 125.295c0 15.0737 2.347 25.6269 6.99527 31.7054zM-38 -85c3 2 9 3 16 3c11 0 19 -6 24 -18
c5 -10 7 -27 8 -51c0.366025 -8.78461 0.598076 -16.4974 0.598076 -23.1384c0 -11.5026 -0.696152 -19.7898 -2.59808 -24.8616c-3 -7 -7 -11 -15 -13s-15 -2 -21 1c-14 9 -20 38 -20 87c-0.123106 2.70832 -0.185591 5.28025 -0.185591 7.71579
c0 17.3486 3.17044 27.7766 10.1856 31.2842z" />
    <glyph glyph-name="scripts.ushortfermata" unicode="&#xe134;" horiz-adv-x="250" 
d="M-271 -22l-11 2l16 24l245 286l20 16l22 14l12 -8l269 -280l-10 -19l-19 -17l-30 -12l-11 2l-253 264l-201 -243l-19 -17zM-9 86l21 14l1 1c0 0 1 -1 2 -1l12 -8c1 0 0 1 1 0c6.06811 -4.71964 9.40867 -11.2577 9.40867 -18.0815
c0 -3.29704 -0.779842 -6.66082 -2.40867 -9.91847l-3 -6l-10 -19c-9 -16 5 -2 -11 -16l-19 -17c-1 -1 -2 -2 -7 -4l-30 -12c-3 -1 -6 -2 -9 -1l-11 2c-1 0 0 1 -1 1h-2c-2.68061 0.893537 -22.9262 4.9807 -22.9262 31.5235c0 3.16253 0.287412 6.64384 0.926192 10.4765
c3 18 0 6 4 12l16 24c10 14 3 3 9 8l19 16l2 2l20 16l22 14l12 -8l-10 -19c-1 -2 -2 -4 -4 -5c-1 -1 0 1 -1 0z" />
    <glyph glyph-name="scripts.dshortfermata" unicode="&#xe135;" horiz-adv-x="250" 
d="M57 -25c1 -5 13 8 13 8c1 1 5 2 7 1c1 0 2 -1 3 -2c0 0 8 -5 12 -8h1c8 -6 11 -18 7 -26c0 0 -6 -12 -10 -19l-1 -1v-1s5 1 -13 -15c0 0 -11 -10 -19 -17v-1c-4 -3 0 -1 -11 -6c0 0 -19 -8 -30 -12l-1 -1c-6 -2 -11 -2 -18 -1c0 0 -7 1 -11 2h-1
c-8.16543 1.81454 -28.6779 6.09849 -28.6779 31.5221c0 2.59849 0.214283 5.41782 0.677934 8.47792c0.801566 6.01175 0.767812 7.84719 0.767812 8.27452c0.0831211 -0.286689 0.505345 -0.864787 2.23219 1.72548l16 24c6 9 1 1 5 5c0 0 12 9 20 16h1l2 2
c8 5 13 8 22 14h1c6 4 13 6 21 10c0 0 3 6 7 5c5 -1 11 -3 12 -8c0 -8 -13 -11 -10 -19zM-231 0c8 6 12 12 22 14c6 1 12 -8 12 -8c75 -92 143 -189 248 -263c54 80 116 149 174 223c0 0 12 10 20 16s12 12 22 14c6 1 12 -2 12 -8c1 -8 -10 -19 -10 -19
c-91 -115 -171 -207 -228 -310c0 0 -10 -12 -19 -17c-11 -6 -18 -9 -30 -12c-4 -1 -11 2 -11 2c-123 101 -202 201 -284 302c0 0 8 16 16 24c7 7 12 10 20 16c6 5 11 6 17 11c8 5 11 10 19 15zM-42.2322 -75.7255c-0.0134517 0.178602 -0.0322514 0.111237 0 0z" />
    <glyph glyph-name="scripts.ulongfermata" unicode="&#xe136;" horiz-adv-x="313" 
d="M23 111l18 11s4 3 8 0c1 0 1 -1 2 -2l12 -8c10.7143 -7.14286 17.3469 -18.8776 17.3469 -31.1953c0 -4.92711 -1.06122 -9.94752 -3.34694 -14.8047c-1 -1 -1 -2 -2 -3l-10 -19c-6 -11 6 0 -11 -15l-19 -17c-3 -3 0 -3 -13 -8l-30 -12c-7 -3 -14 -3 -22 -2l-11 2h-1h-1
c-11.5247 2.88118 -34.1176 7.60706 -34.1176 41.6381c0 18.1582 1.85655 13.3471 4.11764 16.3619l16 24c2.13454 3.20181 3.13002 4.83741 3.55628 5.60961c0.0206174 -0.275386 0.489874 -0.237813 2.44372 1.39039l20 16c4 3 7 4 13 8l13 11l22 14l12 -8zM-270 -22
l-30 -12l-11 2c-18.5814 95.4408 -33.596 191.595 -33.596 287.257c0 17.6 0.508224 35.1834 1.59596 52.7426l16 24l20 16l22 14c158.06 20.5846 314.499 33.0622 467.727 33.0622c55.1992 0 109.982 -1.61928 164.273 -5.06216l12 -8c-6 -121 -18 -241 -30 -362l-10 -19
l-19 -17l-30 -12l-11 2c9 93 19 185 25 278l-2 -2l-30 -12c-48.0777 4.2068 -97.7806 6.06601 -148.81 6.06601c-118.795 0 -244.779 -10.0757 -374.19 -24.066c5 -69 17 -137 30 -206l-10 -19zM-53.4437 79.6096c0.651083 1.17947 -0.0258027 0.344647 0 0z" />
    <glyph glyph-name="scripts.dlongfermata" unicode="&#xe137;" horiz-adv-x="313" 
d="M-291 0l22 14l12 -8c-10.0527 -63.6669 -14.4911 -129.439 -14.4911 -197.317c0 -13.1488 0.166551 -26.3765 0.491106 -39.6833l18 11c52.1764 -1.78891 104.264 -2.51108 156.316 -2.51108c122.53 0 244.861 4.00184 367.684 7.51108c-7 61 -17 122 -22 183l16 24
l20 16l22 14l12 -8c8.95054 -101.141 29.9179 -203.083 29.9179 -304.393c0 -11.8786 -0.288253 -23.7484 -0.917926 -35.6073l-10 -19l-19 -17l-30 -12c-110.142 -9.36208 -220.891 -16.2979 -333.415 -16.2979c-91.8014 0 -184.785 4.61639 -279.585 16.2979l-11 2
c-4.15339 48.1794 -6.40921 95.4962 -6.40921 141.879c0 65.2914 4.46998 128.732 14.4092 190.121l16 24zM11 -27l5 4l1 1s0 -1 1 0l22 14c4 3 -3 3 7 2c6 0 -2 4 10 -4l12 -8c1 -1 0 1 1 0c6.63331 -4.42221 10.5505 -12.1037 10.5505 -19.8416
c0 -2.76079 -0.498655 -5.52875 -1.55052 -8.15841c-1 -1 -1 -3 -2 -4l-10 -19c-8 -15 5 -2 -15 -20l-19 -17l-1 -1c-6 -5 1 -2 -15 -9l-30 -12h-1c-6 -2 -12 -4 -20 -4h-5l-11 2c-1 0 1 1 0 1c-7 1 -23 2 -27 37c-1 16 0 8 3 12l16 24c9 14 -1 1 10 10l4 3c9 8 -2 -5 9 9
l20 16l22 14l12 -8z" />
    <glyph glyph-name="scripts.uverylongfermata" unicode="&#xe138;" horiz-adv-x="375" 
d="M-226 -10l-30 -12l-11 2c-10.0336 45.1514 -23.1491 89.7891 -23.1491 134.649c0 17.7336 2.04952 35.5019 7.14913 53.3506l16 24l20 16l22 14c138.182 16.4091 280.093 24.6136 426.378 24.6136c23.0976 0 46.3042 -0.204545 69.6224 -0.613636l12 -8
c2.13884 -29.0882 4.46067 -58.1765 4.46067 -86.795c0 -38.2835 -4.15487 -75.7266 -18.4607 -111.205l-10 -19l-19 -17l-30 -12l-11 2c14.3058 35.4784 18.4607 72.594 18.4607 110.41c0 28.2691 -2.32183 56.9295 -4.46067 85.59
c-18.375 0.25 -36.7188 0.375 -55.0273 0.375c-128.16 0 -254.598 -6.125 -377.973 -18.375c-0.130019 -3.12045 -0.192418 -6.24512 -0.192418 -9.37374c0 -44.9972 12.9075 -90.8117 23.1924 -136.626l-10 -19zM-344 -6l-30 -12l-11 2
c-13.3325 71.5105 -21.8905 144.857 -21.8905 216.702c0 46.7067 3.61698 92.7785 11.8905 137.298l16 24l20 16l22 14c157.736 23.4649 313.348 29.9359 468.22 29.9359c82.7341 0 165.257 -1.84671 247.78 -3.9359l12 -8
c1.90238 -80.534 7.82592 -161.47 7.82592 -242.298c0 -46.6358 -1.97194 -93.2356 -7.82592 -139.702l-10 -19l-19 -17l-30 -12l-11 2c5.95472 44.4314 7.92296 89.0726 7.92296 133.731c0 52.8377 -2.75518 105.7 -4.92296 158.269l-4 -4l-34 2
c-55.9873 6.74192 -114.724 9.44544 -175.052 9.44544c-145.48 0 -300.212 -15.7217 -447.948 -28.4454c-0.0506411 -3.74744 -0.075637 -7.50002 -0.075637 -11.2571c0 -70.4327 8.78461 -142.44 22.0756 -211.743l-10 -19zM23 95l12 8c1 1 0 -1 1 0c2 1 -3 2 5 1
c3 0 -2 3 4 -1l12 -8c5 -3 6 -11 4 -17c-2 -8 -5 -16 -8 -23l-10 -19c0 -1 -1 0 -1 -1c-1.46159 -2.92318 -1.18748 -3.44308 -0.738831 -3.3648c-0.682582 -0.513722 -1.97562 -1.57821 -4.26117 -3.6352l-19 -17l-1 -1c0 0 0 -1 -5 -3l-30 -12c-2 -1 -4 -1 -6 -1h-4l-11 2
s-16 1 -20 34c-1 16 2 10 3 12l16 24c1 1 -1 0 0 1c3 5 9 8 13 13l2 4l20 16l22 14l12 -8zM41.2612 31.6352c0.498563 0.086991 1.21267 0.912674 0 0z" />
    <glyph glyph-name="scripts.dverylongfermata" unicode="&#xe139;" horiz-adv-x="375" 
d="M-211 4c8 6 12 12 22 14c6 1 12 -8 12 -8c-8.97798 -49.3789 -23.5983 -100.37 -23.5983 -149.355c0 -5.57622 0.189458 -11.1264 0.598264 -16.6453c79.0905 -2.45242 160.436 -8.28791 239.889 -8.28791c50.1382 0 99.5227 2.32379 147.111 9.28791
c0.22954 4.01695 0.340531 8.06025 0.340531 12.1299c0 31.3894 -6.603 64.3461 -16.3405 98.8701c0 0 8 16 16 24c7 7 12 10 20 16s12 12 22 14c6 1 12 -8 12 -8c9.88854 -34.6099 16.7214 -68.4559 16.7214 -100.122c0 -19.5704 -2.6099 -38.3081 -8.72136 -55.8785
c0 0 -5 -12 -10 -19c-6 -8 -10 -12 -19 -17c-11 -6 -30 -12 -30 -12c-67.6059 -14.0657 -135.418 -18.2495 -203.249 -18.2495c-81.6649 0 -163.357 6.0644 -244.751 8.24948l-11 2c-0.860391 8.31711 -1.24783 16.6342 -1.24783 24.9513
c0 49.6829 13.8252 99.3658 23.2478 149.049c0 0 8 16 16 24c7 7 12 10 20 16zM-347 4c8 6 12 12 22 14c6 1 12 -8 12 -8c-12.8 -79.2 -14.08 -155.84 -14.08 -231.968c0 -19.032 0.08 -38.032 0.08 -57.032l10 7c116.283 -5.94936 232.859 -12.4838 349.41 -12.4838
c98.945 0 197.873 4.70931 296.59 18.4838c-1 75 -2 150 -14 228c0 0 8 16 16 24c7 7 12 10 20 16s12 12 22 14c6 1 12 -8 12 -8c19 -128 12 -247 16 -370c0 0 -5 -12 -10 -19c-6 -8 -10 -12 -19 -17c-11 -6 -30 -12 -30 -12
c-144.777 -16.0864 -289.91 -21.1688 -434.974 -21.1688c-98.4172 0 -196.803 2.3393 -295.026 5.16876l-11 2c5 129 -5 254 16 388c0 0 8 16 16 24c7 7 12 10 20 16zM-4 -42l12 9l22 14c1 0 -2 1 3 1c11 1 3 5 14 -3l12 -8c3 -2 5 -5 4 -9c-2 -7 -4 -16 -7 -22l-10 -19
c0 -1 -1 1 -1 0c-4 -8 4 1 -6 -9l-19 -17c-2 -2 2 -1 -6 -4l-30 -12c-2 -1 -5 -1 -8 -1c-2 0 -4 1 -6 1l-11 2c-11 2 -27 2 -30 35c-2 15 2 11 3 12l16 24c2.13454 3.20181 3.13002 4.83741 3.55628 5.60961c0.0206174 -0.275386 0.489874 -0.237813 2.44372 1.39039l18 14
l1 1l20 16l22 14l12 -8l-10 -19l-4 -4zM-48.4437 -42.3904c0.651083 1.17947 -0.0258027 0.344647 0 0z" />
    <glyph glyph-name="scripts.thumb" unicode="&#xe13a;" horiz-adv-x="100" 
d="M26 136c6 3 16 10 16 10c9 -2 18 -6 25 -11c0 0 7 -5 12 -8c24.9412 -16.6275 36.2294 -46.9079 36.2294 -79.0176c0 -2.65055 -0.0769172 -5.31356 -0.229422 -7.98239c-2 -33 -7 -69 -21 -95c0 0 -6 -12 -10 -19v-1c-8 -15 4 -4 -17 -22l-19 -17c-5 -5 -11 -3 -13 -9
c-1.33333 -4.66667 -1.77778 -9 -1.77778 -13.1481c0 -8.2963 1.77778 -15.8519 1.77778 -23.8519c0 0 -5 -12 -10 -19c-6 -8 -10 -12 -19 -17c-11 -6 -18 -9 -30 -12c-4 -1 -11 2 -11 2c0.366025 8.05256 0.598076 15.9711 0.598076 23.8538
c0 13.6532 -0.696152 27.1987 -2.59808 41.1462h-2l-11 2c-32 6 -71 45 -75 121c-0.123725 2.53637 -0.182392 4.97323 -0.182392 7.31509c0 35.514 13.4917 49.1798 18.1824 56.6849c0 0 10 14 16 24h1c19 28 18 21 25 27l20 16c3 2 6 5 9 7c0 0 13 8 22 14h1
c24 15 3 7 28 12c0 0 8 -4 12 -8c1 -1 -1 -2 -1 -2zM-12 98c-7 0 -17 -7 -17 -7c-2 -1 -3 -1 -3 -1c-1 0 -1 -2 -3 -3c-17 -19 -10 -13 -12 -16c-5.2379 -13.0948 -8.1895 -24.6653 -8.1895 -37.3729c0 -1.84891 0.0624837 -3.7219 0.1895 -5.62715c2 -41 17 -84 44 -106
c6 -3 9 -6 12 -7c0 0 9 10 17 11c6 1 12 -8 12 -8c0 -1 1 -3 1 -4c9 25 12 53 14 80c0.201299 3.27111 0.298762 6.44091 0.298762 9.51235c0 57.9608 -34.7079 80.8903 -61.2988 88.4877c0 0 7 6 4 6z" />
    <glyph glyph-name="scripts.sforzato" unicode="&#xe13b;" horiz-adv-x="224" 
d="M-130 118c2.18377 0.485281 4.54416 0.735065 7.10974 0.735065c8.00801 0 18.0152 -2.43355 30.8903 -7.73506c17 -7 55 -18 112 -31c88 -21 135 -34 142 -42c1.45001 -1.65716 2.17057 -3.48595 2.17057 -5.49526c0 -7.69075 -10.5563 -18.0262 -31.1706 -31.5047
c-22 -15 -74 -39 -157 -72c-71 -28 -115 -47 -132 -57l-13 -8l-12 6c-17 8 -25 16 -25 24c0 21 48 47 145 79c23 7 35 12 35 13s-25 8 -76 19c-71 16 -112 29 -121 40c-1.36111 1.55556 -2.04167 3.33796 -2.04167 5.33987c0 8.29362 11.6806 20.3546 35.0417 35.6601
c26 18 46 29 60 32z" />
    <glyph glyph-name="scripts.espr" unicode="&#xe13c;" horiz-adv-x="474" 
d="M-111 129c7 4 15 3 26 -2c14 -7 21 -15 21 -23c0 -21 -52 -47 -149 -79c-23 -7 -89 -24 -90 -25c0 -0.0819931 0.194963 -0.116926 0.576069 -0.116926c2.19563 0 10.5696 1.15947 23.4354 1.15947c12.1373 0 28.2721 -1.03188 46.9885 -5.04255c81 -17 177 -31 186 -42
c1.16667 -1.33333 1.75 -2.86111 1.75 -4.58796c0 -8.63426 -14.5833 -22.2454 -43.75 -41.412c-25 -16 -44 -25 -57 -28c-0.970563 -0.12132 -2.78009 -0.183766 -5.24644 -0.183766c-17.8629 0 -70.18 3.27565 -87.7536 11.1838c-10 5 -37 12 -82 22
c-97 23 -150 38 -159 45c-7 6 -6 14 5 25c18 17 77 46 177 86c73 29 169 49 186 60zM138 122c5 1 9 2 13 1c10 -2 23 -7 38 -14c5 -3 -21 -5 -8 -8c97 -22 237 -36 257 -42c19 -6 31 -12 35 -17s3 -12 -6 -21c-19 -18 -78 -47 -178 -87c-71 -29 -162 -48 -179 -58l-12 -8
l-11 5c-18 8 -27 16 -27 25c0 21 49 47 146 79c23 7 96 22 95 23c0 0.138197 -1.62336 0.180902 -4.54543 0.180902c-4.72802 0 -12.8561 -0.111803 -23.0091 -0.111803c-28.9777 0 -74.4502 0.910739 -104.445 7.9309c-79 17 -121 31 -127 42c-3 5 2 14 15 25
c31 26 58 42 81 47z" />
    <glyph glyph-name="scripts.staccato" unicode="&#xe13d;" horiz-adv-x="49" 
d="M8 63c4 1 19 2 45 2c31 0 48 -3 53 -10c2.04167 -3.20833 3.0625 -7.52257 3.0625 -12.9675c0 -13.2235 -6.02083 -33.1158 -18.0625 -60.0325c-11 -25 -22 -40 -32 -46c-5 -3 -21 -4 -50 -4c-35 0 -54 3 -57 10c-1.11381 2.45038 -1.68177 5.54585 -1.68177 9.28642
c0 13.0512 6.91424 33.9558 21.6818 62.7136c15 30 27 46 36 49z" />
    <glyph glyph-name="scripts.ustaccatissimo" unicode="&#xe13e;" horiz-adv-x="50" 
d="M-17 247c8 6 12 12 22 14c6 1 12 -8 12 -8c1 -5 1 -10 2 -14c0 0 12 12 22 14c6 1 12 -8 12 -8c0.260612 -10.0336 0.385387 -20.0162 0.385387 -29.9545c0 -66.3308 -5.55814 -130.688 -13.3854 -195.045c0 0 -5 -12 -10 -19c-6 -8 -10 -12 -19 -17
c-11 -6 -18 -9 -30 -12c-4 -1 -11 2 -11 2c-1 79 -6 154 -23 233c0 0 8 16 16 24c7 7 12 10 20 16z" />
    <glyph glyph-name="scripts.dstaccatissimo" unicode="&#xe13f;" horiz-adv-x="50" 
d="M-23 -243c-11 -6 -18 -9 -30 -12c-4 -1 -11 2 -11 2c16 76 21 151 29 227c0 0 8 16 16 24c7 7 12 10 20 16s12 12 22 14c6 1 12 -8 12 -8c13 -71 27 -143 34 -211c0 0 -5 -12 -10 -19c-6 -8 -10 -12 -19 -17c-11 -6 -18 -9 -30 -12c-4 -1 -11 2 -11 2c0 5 0 9 -1 14
c0 0 -1 -2 -2 -3c-7 -7 -10 -12 -19 -17z" />
    <glyph glyph-name="scripts.tenuto" unicode="&#xe140;" horiz-adv-x="150" 
d="M152 61c9 1 20 1 34 1s24 -2 28 -5c3.27565 -2.54773 4.96169 -6.68507 4.96169 -12.5084c0 -10.1766 -5.14902 -25.5023 -15.9617 -46.4916c-12 -24 -24 -37 -37 -40c-35.1 -8.1 -92.88 -12.15 -173.34 -12.15c-8.94 0 -18.16 0.05 -27.66 0.15c-64 0 -100 3 -109 10
c-3.64797 3.19197 -5.42455 7.42361 -5.42455 12.7897c0 6.40178 2.52851 14.4182 7.42455 24.2103c15 31 28 49 37 54c3 1 26 2 71 3s85 3 120 6s57 4 66 5z" />
    <glyph glyph-name="scripts.uportato" unicode="&#xe141;" horiz-adv-x="150" 
d="M4 173c3 2 15 3 35 3s32 -1 37 -2c9 -3 11 -12 8 -25c-3 -11 -7 -24 -14 -38s-13 -24 -18 -27c-7 -5 -23 -7 -49 -8c-21 0 -34 3 -37 9c-2 3 -2 9 0 18c3 11 8 25 17 41s16 26 21 29zM98 56c13 1 27 2 43 2s25 -2 28 -5s4 -8 3 -13c0 -7 -4 -21 -13 -42s-16 -34 -21 -38
s-30 -9 -77 -13c-55.7942 -4.78236 -100.012 -7.0235 -132.503 -7.0235c-28.6542 0 -48.1877 1.74311 -58.4975 5.0235c-13.9393 4.64643 -20.1064 11.8836 -20.1064 21.7114c0 9.50213 5.57019 19.2757 15.1064 37.2886c9 17 16 28 22 35l5 5h32c33 0 74 2 123 7
c21 2 38 4 51 5z" />
    <glyph glyph-name="scripts.dportato" unicode="&#xe142;" horiz-adv-x="150" 
d="M152 54c9 0 20 1 34 1s24 -1 28 -4c3.27565 -2.54773 4.96169 -6.68507 4.96169 -12.5084c0 -10.1766 -5.14902 -25.5023 -15.9617 -46.4916c-12 -24 -24 -37 -37 -40c-39 -9 -106 -13 -201 -13c-64 0 -100 4 -109 11
c-3.64797 3.19197 -5.42455 7.42361 -5.42455 12.7897c0 6.40178 2.52851 14.4182 7.42455 24.2103c15 31 28 48 37 53c3 1 26 3 71 4s85 3 120 6s57 4 66 4zM-7 -93c4 1 17 1 38 1c28 0 44 -4 47 -12c2 -4 2 -9 0 -16c-4 -17 -13 -35 -26 -54c-6 -8 -12 -12 -18 -14
s-20 -3 -43 -4c-4.78236 -0.177124 -9.18824 -0.26013 -13.2176 -0.26013c-18.7196 0 -29.3137 1.7915 -31.7824 4.26013c-3.0625 2.625 -4.59375 6.39844 -4.59375 11.4041c0 6.43579 2.53125 14.9084 7.59375 25.5959c17 37 32 56 44 58z" />
    <glyph glyph-name="scripts.umarcato" unicode="&#xe143;" horiz-adv-x="125" 
d="M33 342c10 5 17 6 20 2c1 -2 4 -10 7 -23c17 -61 29 -101 38 -120c10 -21 25 -46 45 -75c11 -15 16 -25 16 -28c0 -7 -6 -22 -17 -43s-20 -36 -29 -45c-4.32143 -4.32143 -8.95153 -6.48214 -13.8903 -6.48214c-7.63265 0 -16.0026 5.16071 -25.1097 15.4821
c-23 26 -44 69 -63 130c-5 14 -7 21 -8 21s-9 -15 -25 -46c-33 -64 -54 -102 -63 -115c-5 -6 -10 -9 -15 -9c-10 1 -17 5 -22 13c-3 6 -4 13 -1 20s11 25 26 53c19 37 34 64 43 82c10 19 18 36 24 51c27 65 43 101 49 110c4 6 9 10 14 13z" />
    <glyph glyph-name="scripts.dmarcato" unicode="&#xe144;" horiz-adv-x="125" 
d="M122 -4c3 4 8 5 13 4c10 -1 17 -6 20 -13s3 -14 0 -23s-16 -34 -38 -77c-28 -54 -50 -99 -65 -136c-19 -45 -30 -71 -35 -77c-5 -8 -12 -14 -19 -18s-13 -3 -16 0c-2 2 -5 10 -8 25c-16 61 -29 102 -40 122c-9 19 -23 42 -42 70
c-11.1384 15.7795 -17.1075 27.2511 -17.1075 32.8155c0 10.054 8.97721 24.9539 22.1075 48.1845c13 23 23 37 28 40c7 5 16 3 26 -4s22 -24 36 -51s26 -56 35 -85c4 -13 7 -21 8 -23c0 -1 2 1 5 7l12 24s11 20 17 32c30 59 49 93 58 102z" />
    <glyph glyph-name="scripts.open" unicode="&#xe145;" horiz-adv-x="100" 
d="M-23 88c-3 0 -7 -2 -7 -2c-4.64083 -2.32042 -6.9551 -3.37784 -8.02253 -3.8064c-0.246671 -0.335367 -1.25365 -1.21264 -3.97747 -3.1936c-2 -3 -4 -7 -6 -9c-5.17029 -14.0336 -8.15838 -29.1584 -8.15838 -44.9713c0 -5.59601 0.374222 -11.2782 1.15838 -17.0287
c4 -33 22 -66 45 -85c15.2304 -8.20101 18.4508 -11.598 24.9378 -11.598c4.58701 0 10.8074 1.69848 24.0622 4.59798h1c8.11911 21.1097 10.3054 44.197 10.3054 67.6562c0 5.43463 -0.117334 10.8892 -0.305423 16.3438c-4 61 -55 86 -63 89c-3 0 -6 0 -8 -1
c0 0 -1 1 -2 0zM16 138c5 1 10 6 10 6c5.89725 1.96575 9.16686 3.31323 12.3003 3.31323c4.83668 0 9.34898 -3.21048 22.6997 -12.3132l12 -8c23 -16 45 -47 47 -81c0.316625 -5.38262 0.482873 -10.8154 0.482873 -16.2546
c0 -28.9183 -4.69925 -58.0198 -16.4829 -80.7454l-10 -19c-8 -15 4 -5 -18 -24l-19 -17c-6 -6 -1 -5 -22 -13l-30 -12h-1c-4 -2 -8 -3 -12 -4c-9 -2 -18 -3 -27 -1l-11 2c-1 0 0 1 -1 1c-29 5 -70 34 -78 100c-0.843986 6.32989 -1.2131 12.363 -1.2131 18.0715
c0 34.8737 13.7758 57.6319 17.2131 61.9285l16 24c16 24 13 16 21 22l20 16c3 2 6 5 9 7l22 14c31 19 7 7 34 15c0 0 2 -3 3 -2z" />
    <glyph glyph-name="scripts.halfopen" unicode="&#xe146;" horiz-adv-x="100" 
d="M-30 -74c5 -6 9 -11 14 -15c11.0036 -5.74099 20.405 -7.13323 29.8467 -7.13323c8.89228 0 17.8203 1.23491 28.1563 1.23491c1.62891 0 3.29278 -0.0306708 4.99699 -0.10168c3 0 4 5 4 5c6.82698 14.8952 10.9576 31.3312 10.9576 50.2641
c0 11.5729 -1.54335 24.0787 -4.95764 37.7359c-1 8 -2 15 -4 22c-26 -32 -54 -64 -83 -94zM1 130c7 5 18 12 18 12c11 -1 27 1 57 -19l10 -6l30 39c0 0 12 10 20 16s12 12 22 14c6 1 12 -2 12 -8c1 -8 -10 -19 -10 -19c-17 -22 -33 -44 -50 -66c8 -13 14 -29 17 -49
c3.48763 -14.7255 5.17325 -28.0996 5.17325 -40.3548c0 -19.3701 -4.21093 -35.9455 -12.1732 -50.6452l-10 -19c-7 -14 0 -10 -26 -33l-19 -17c-9 -8 -16 -13 -32 -22l-30 -12c-9.77082 -1.95416 -19.9659 -3.48402 -29.7562 -3.48402
c-5.23959 0 -10.3632 0.438184 -15.2438 1.48402l-11 2h-1c-12 2 -24 5 -37 16l-1 -1l-19 -17c-9 -8 -18 -15 -27 -23c0 0 -18 -9 -30 -12c-4 -1 -12 -2 -11 2c2 11 16 24 16 24c16 13 34 31 54 51c-9 15 -17 37 -24 68c-1.5167 8.2576 -2.15301 15.8904 -2.15301 22.8888
c0 34.5298 15.4901 53.6167 17.153 56.1112l16 24v1c16 23 14 16 20 21l20 16c3 2 5 4 8 6l22 14c22 14 5 8 32 12c0 0 0 -1 1 -1zM-22 85l-25 -10h-2c-2 -1 -2 -2 -2 -2c-2 -2 -6 -7 -7 -8c-4.59798 -11.8234 -7.03867 -24.5097 -7.03867 -38.3423
c0 -7.22626 0.666089 -14.7654 2.03867 -22.6577c5 -19 10 -35 16 -48c28 31 56 66 84 100c-15 19 -35 24 -59 29z" />
    <glyph glyph-name="scripts.halfopenvertical" unicode="&#xe147;" horiz-adv-x="100" 
d="M30 -92c3 0 7 -1 11 -2c3 -1 7 3 7 3c5.78571 12.8571 8.67857 27.7806 8.67857 45.5674c0 9.88156 -0.892857 20.6469 -2.67857 32.4326c-4 28 -10 48 -18 62c-1 -47 -3 -94 -6 -141zM-35 78c-1 0 -2 -1 -2 -1c-20 -9 -8 -4 -13 -7c-2 -2 -2 -4 -3 -5
c-5.02633 -13.4036 -7.24555 -27.5089 -7.24555 -44.0797c0 -3.20998 0.0832755 -6.51247 0.245553 -9.9203c3 -29 11 -52 24 -70c1.17157 26.9462 1.65685 53.5492 1.65685 80.2111c0 18.8528 -0.242641 37.7351 -0.656854 56.7889zM-2 207c8 6 12 12 22 14
c6 1 12 -8 12 -8c1 -24 2 -49 3 -73c3.75 0.25 6.5 0.5 8.875 0.5c7.125 0 10.875 -2.25 28.125 -13.5l12 -8v-1c25 -17 35 -48 40 -85c1.88923 -11.3354 2.78702 -21.7785 2.78702 -31.4229c0 -20.9853 -4.25061 -38.1894 -11.787 -52.5771l-10 -19c-6 -11 0 -7 -21 -26
l-19 -17c-10 -9 -3 -10 -38 -24c-1 -13 -3 -26 -4 -39c0 0 -5 -12 -10 -19c-6 -8 -10 -12 -19 -17c-11 -6 -18 -9 -30 -12c-4 -1 -11 2 -11 2c3 26 4 51 6 77c-48 10 -82 32 -89 110c-0.255781 3.92197 -0.373444 7.66947 -0.373444 11.2462
c0 38.3744 13.544 57.0948 15.3734 60.7538l16 24c14 21 12 14 17 18l20 16h1c2 2 4 4 7 6l18 11c-1 18 -1 37 -2 55c0 0 8 16 16 24c7 7 12 10 20 16z" />
    <glyph glyph-name="scripts.stopped" unicode="&#xe148;" horiz-adv-x="136" 
d="M-4 149c8 6 12 12 22 14c6 1 12 -8 12 -8c8 -41 12 -84 13 -125c15.7401 0.828427 30.2792 1.31371 42.9777 1.31371c17.9584 0 32.2355 -0.970563 41.0223 -3.31371c0 0 12 -2 12 -8c1 -8 -5 -12 -10 -19c-6 -8 -10 -12 -19 -17c-11 -6 -18 -9 -30 -12
c-4 -1 -11 2 -11 2c-4 1 -7 1 -11 2c-5 1 -11 2 -16 2c-2 -37 -6 -70 -12 -98c0 0 -5 -12 -10 -19c-6 -8 -10 -12 -19 -17c-11 -6 -18 -9 -30 -12c-4 -1 -11 2 -11 2c8.23928 35.7036 13.1262 81.4643 13.1262 130.377c0 4.516 -0.0416582 9.05886 -0.126182 13.6232
c-44 -4 -88 -13 -132 -18c0 0 -12 -2 -11 2c2 11 8 16 16 24c7 7 12 10 20 16s22 14 22 14c26 3 55 6 83 9c-2 28 -6 56 -11 84c0 0 8 16 16 24c7 7 12 10 20 16z" />
    <glyph glyph-name="scripts.upbow" unicode="&#xe149;" horiz-adv-x="162" 
d="M10 122c40 124 76 249 105 375c0 0 8 16 16 24c7 7 12 10 20 16s12 12 22 14c6 1 12 -8 12 -8c-41 -177 -93 -351 -156 -523c0 0 -5 -12 -10 -19c-6 -8 -10 -12 -19 -17c-11 -6 -18 -9 -30 -12c-4 -1 -11 2 -11 2c-24 162 -77 331 -146 509c0 0 8 16 16 24
c7 7 12 10 20 16s12 12 22 14c6 1 12 -8 12 -8c55 -143 99 -275 127 -407z" />
    <glyph glyph-name="scripts.downbow" unicode="&#xe14a;" horiz-adv-x="187" 
d="M-193 319l22 14l12 -8c-0.645 -3.825 -1.265 -7.675 -1.86 -11.547l11.86 7.547c61 21 123.25 28.5 186.125 28.5s126.375 -7.5 189.875 -16.5l12 -8c2.55451 -25.5451 3.67341 -52.1343 3.67341 -79.0508c0 -78.452 -9.50517 -159.684 -20.6734 -225.949l-10 -19
l-19 -17l-30 -12l-11 2c11.1682 66.2648 20.6734 146.389 20.6734 224.687c0 26.8638 -1.1189 53.5126 -3.67341 79.3132c-59.9023 7.85625 -120.528 14.507 -180.693 14.507c-51.9745 0 -103.605 -4.9632 -154.129 -18.4
c-1.91993 -19.6498 -3.01918 -39.7918 -3.01918 -60.3333c0 -59.0277 9.07703 -121.354 33.8412 -184.774l-10 -19l-19 -17l-30 -12l-11 2c-24.7644 63.421 -33.8412 125.748 -33.8412 184.776c0 38.6992 3.90135 75.9809 9.8412 111.224l16 24z" />
    <glyph glyph-name="scripts.reverseturn" unicode="&#xe14b;" horiz-adv-x="273" 
d="M-112 73l-30 -12l-11 2c-14 11 -12 14 -38 21c-6 1 -12 0 -17 -1c-1 -1 -1 -2 -2 -2c-17 -18 -12 -13 -19 -24c-11.2784 -25.0087 -17.5072 -52.6625 -17.5072 -77.4194c0 -25.7296 6.72786 -48.3302 21.5072 -61.5806
c4.84383 -2.26045 12.3989 -3.37384 21.4193 -3.37384c18.9133 0 44.2684 4.89475 64.5807 14.3738c44 21 80 41 108 59c42 27 75 52 112 76l1 1l22 14c27 17 57 34 95 50c18.7847 7.87746 43.4444 12.8174 63.9666 12.8174c13.3451 0 24.9407 -2.08893 32.0334 -6.81743
l12 -8c16.5 -11 23.75 -31 23.75 -54.25s-7.25 -49.75 -19.75 -73.75l-10 -19c-11 -20 -9 -22 -35 -46l-19 -17c-12 -10 -7 -11 -33 -21l-30 -12c-10.3562 -4.14249 -21.6658 -6.37829 -33.5996 -6.37829c-5.35116 0 -10.8278 0.449541 -16.4004 1.37829l-11 2
c-3 1 -7 1 -10 2l16 24l20 16l22 14c2.5662 -0.769861 7.50316 -1.07874 13.4927 -1.07874c17.3505 0 43.5338 2.59199 46.5073 4.07874c2 2 5 5 8 9c11.3334 20.4001 18.351 48.1987 18.351 73.7065c0 30.759 -10.2045 58.1869 -35.351 65.2935
c-2.10961 0.162278 -4.32456 0.245553 -6.63629 0.245553c-11.9338 0 -26.447 -2.21922 -42.3637 -7.24555c-140 -63 -144 -108 -329 -196c-5 -2 -9 -4 -14 -6l-30 -12c-17.3524 -7.23016 -32.6138 -10.2783 -45.4062 -10.2783
c-4.90071 0 -9.43907 0.447351 -13.5938 1.2783l-11 2c-30.7775 5.64253 -43.3993 37.3345 -43.3993 74.4251c0 35.2168 11.3787 75.3005 29.3993 102.575l16 24c14 22 24 28 28 31l20 16c3 2 5 4 8 6l22 14c11.1928 6.92886 24.09 12.4373 39.146 12.4373
c13.1922 0 28.0416 -4.22909 44.854 -15.4373l12 -8c1 -1 0 1 1 0c3 -2 7 -5 10 -8l-10 -19z" />
    <glyph glyph-name="scripts.turn" unicode="&#xe14c;" horiz-adv-x="273" 
d="M-115 -98l-19 -17l-30 -12c-12 0 -23 1 -33 3h-1l-11 2c-71.3364 13.4597 -95.1174 64.5109 -95.1174 108.653c0 21.4492 5.61504 41.2669 14.1174 54.3475l1 1l16 24c10 14 16 18 16 18l20 16c2 1 4 3 6 4l22 14c8.50197 5.66798 23.0276 8.32415 34.33 8.32415
c4.65027 0 8.75493 -0.449639 11.67 -1.32415c49 -14 88 -34 123 -57l12 -8c41 -28 78 -59 118 -87c34 -22 71 -41 117 -54c14 -4 1 -3 19 -3c2.45767 10.409 3.57773 20.7134 3.57773 30.7562c0 59.4247 -39.2159 109.689 -72.5777 118.244
c-2.59675 0.236068 -5.36068 0.36068 -8.25233 0.36068c-9.35757 0 -20.0526 -1.30495 -30.7477 -4.36068l-11 2l16 24l20 16l22 14c16.8546 5.21689 27.9116 7.69608 36.7257 7.69608c13.1497 0 21.3068 -5.51816 36.2743 -15.6961l12 -8
c32.2935 -21.529 48.7448 -66.5951 48.7448 -107.791c0 -20.0363 -3.89158 -39.157 -11.7448 -54.2091l-10 -19c-5 -10 0 -5 -14 -18l-19 -17c-5 -4 0 -3 -14 -9l-30 -12h-1c-6 -2.66667 -12.8889 -4 -20.3704 -4c-3.74074 0 -7.62963 0.333333 -11.6296 1l-11 2
c-2 0 -4 1 -7 2c-182 51 -187 155 -370 206h-7c0 -1 -1 -1 -1 -2c-4.96708 -12.5833 -7.74111 -26.592 -7.74111 -40.828c0 -28.7551 11.3178 -58.4373 38.7411 -79.172c39 -23 38 -19 81 -20l12 -8z" />
    <glyph glyph-name="scripts.trill" unicode="&#xe14d;" horiz-adv-x="212" 
d="M-88 405l9 47c8 -11 13 -23 15 -37c0.292893 -1.46447 0.414214 -3.35786 0.414214 -5.73045c0 -5.72792 -0.707107 -14.2487 -1.41421 -26.2696c-1 -17 -3 -27 -4 -31l21 -4h25h47v-17c0 -26 -5 -55 -16 -86l-3 -8h-45l-45 -1l-6 -37
c-3.31371 -20.7107 -5.25483 -34.5584 -5.25483 -41.5433c0 -19.301 16.2945 -31.7303 34.2548 -36.4567c12.9095 -3.39725 30.8972 -5.40954 54.5905 -5.40954c11.178 0 23.6259 0.447888 37.4095 1.40954l27 2l-2 -26c-1 -27 -5 -54 -11 -81l-3 -11h-69c-39 0 -63 1 -72 2
s-16 5 -23 12c-9.92116 9.92116 -14.1481 23.9097 -14.1481 41.9655c0 1.96341 0.0499815 3.97492 0.148058 6.03452c3 44 12 100 26 168l2 5h-34c-22 0 -33 1 -34 4c-2.14359 7.50258 -3.13844 16.1539 -3.13844 25.954c0 8.48711 0.746134 17.8358 2.13844 28.046
c2 17 7 32 15 44l6 10h30c21 0 31 2 32 4s3 20 7 53zM163 313c4 1 8 1 13 1c11 0 29 -4 53 -12c13 -5 20 -14 22 -29c0.406586 -2.8461 0.611124 -5.74731 0.611124 -8.7086c0 -18.8886 -8.3217 -40.2217 -25.6111 -65.2914l-8 -13l-6 3c-4 2 -9 4 -16 7
c-14.0189 6.42532 -26.3318 9.43867 -37.138 9.43867c-7.69379 0 -14.6238 -1.52751 -20.862 -4.43867c-21 -11 -36 -67 -44 -170l-3 -30h-18l-17 -1l1 12c21 191 32 290 34 297l9 -20c6 -15 9 -23 10 -23s3 4 7 11c11 19 27 31 46 36z" />
    <glyph glyph-name="scripts.upedalheel" unicode="&#xe14e;" horiz-adv-x="125" 
d="M-111 167l22 14l12 -8s-17.9377 -59.2941 -17.9377 -117.035c0 -24.0586 3.11419 -47.8475 11.9377 -66.9652c14 -30 33 -56 55 -73c24.9714 -15.1143 31.8057 -17.7053 42.9214 -17.7053c5.79946 0 12.7644 0.705306 24.0786 0.705306c13 0 27 3 36 6c1 1 1 2 1 2
c6 12 10 23 14 36c3.76923 13.8205 5.31558 29.1874 5.31558 45.1003c0 72.7446 -32.3156 156.9 -32.3156 156.9l16 24l20 16l22 14l12 -8s32.3156 -84.1552 32.3156 -156.9c0 -15.9129 -1.54635 -31.2797 -5.31558 -45.1003c-3 -13 -8 -25 -14 -36l-10 -19
c-11 -21 0 -12 -28 -37l-19 -17c-10 -9 -4 -8 -30 -18l-30 -12c-11 -4 -23 -7 -37 -7c-9 0 -18 1 -26 2l-11 2h-1c-50 9 -76 28 -107 96c-8.82353 19.1176 -11.9377 42.9066 -11.9377 66.9652c0 57.7407 17.9377 117.035 17.9377 117.035l16 24z" />
    <glyph glyph-name="scripts.dpedalheel" unicode="&#xe14f;" horiz-adv-x="125" 
d="M-104 -169l-30 -12l-11 2s-21.9037 71.0654 -21.9037 140.523c0 30.0985 4.11303 59.8951 15.9037 83.4765c0.806316 1.7739 1.24855 2.81963 1.47349 3.4056c0.380153 0.275494 1.87707 2.23278 6.52651 9.5944c1 1 -1 0 0 1l16 24c17 25 18 21 22 24l20 16c3 2 6 5 9 7
c1 1 0 -1 1 0l22 14c14.6396 9.24608 35.8097 20.2732 72.659 20.2732c10.9755 0 23.3419 -0.978253 37.341 -3.27319c0 0 0.18 0.01 0.531 0.01c3.159 0 20.169 -0.81 44.469 -17.01c1 -1 0 1 1 0l12 -8c27 -18 44 -48 54 -85c4 -14.2 5.6 -30.24 5.6 -46.816
c0 -66.304 -25.6 -141.184 -25.6 -141.184l-10 -19l-19 -17l-30 -12l-11 2s25.6 74.88 25.6 141.184c0 16.576 -1.6 32.616 -5.6 46.816c-20 71 -49 90 -92 100c-11.2372 1.79796 -22.4745 2.78775 -33.5301 2.78775c-13.5403 0 -26.8082 -1.48469 -39.4699 -4.78775
c-1.76002 -1.02668 -2.93923 -1.70917 -3.70484 -2.14844c0.153179 0.0401121 -0.619269 -0.512357 -4.29516 -2.85156c-14 -16 -7 -9 -10 -14c-9.30769 -22.2821 -12.6489 -49.2577 -12.6489 -76.5067c0 -69.3611 21.6489 -140.493 21.6489 -140.493l-10 -19z
M-149.527 48.4056c0.629465 1.6398 -0.44278 -0.320879 0 0z" />
    <glyph glyph-name="scripts.upedaltoe" unicode="&#xe150;" horiz-adv-x="125" 
d="M-107 345l22 14l12 -8c33 -77 60 -163 80 -233c23 65 45 130 60 197l16 24l20 16l22 14l12 -8c-25 -112 -67 -218 -108 -324l-10 -19l-19 -17l-30 -12l-11 2c-27 105 -57 209 -102 314l16 24z" />
    <glyph glyph-name="scripts.dpedaltoe" unicode="&#xe151;" horiz-adv-x="125" 
d="M-106 -382l-30 -12l-11 2c56 114 85 234 100 358l16 24l20 16l22 14l12 -8c59 -115 106 -227 137 -336l-10 -19l-19 -17l-30 -12l-11 2c-22 79 -53 159 -91 242c-17 -74 -42 -148 -76 -218l-10 -19z" />
    <glyph glyph-name="scripts.flageolet" unicode="&#xe152;" horiz-adv-x="133" 
d="M-8 93l-28 -11c-5 0 -11 -1 -15 -2c-8 -5 3 3 -7 -4c-16 -18 -8 -10 -11 -15c-6.62742 -16.5685 -10.5097 -33.8234 -10.5097 -51.7645c0 -3.71573 0.166522 -7.46089 0.509668 -11.2355c3 -32 20 -60 43 -77c21.875 -12.5 28.125 -16.7969 39.2578 -16.7969
c6.67969 0 15.1172 1.54688 29.7422 3.79688c28 4 27 7 27 7l2 2c10.4468 20.8936 17.0674 45.997 17.0674 73.0771c0 58.0422 -41.6319 82.0584 -66.0674 87.9229c-6 1 -13 1 -19 0l-11 2zM17 118l2 2l22 14c11.6614 1.16614 17.8832 2.48337 22.9531 2.48337
c7.97292 0 13.0969 -3.25761 32.0469 -15.4834l12 -8l1 -1c24.2595 -16.4965 40.0443 -46.176 40.0443 -77.1596c0 -26.3807 -6.79762 -51.3918 -18.0443 -71.8404l-10 -19c-10 -19 1 -11 -26 -35l-19 -17l-1 -1c-10 -9 -3 -8 -33 -20l-30 -12c-8 -3 -17 -6 -26 -7
c-4.58359 -0.763932 -9.02129 -1.09017 -13.3688 -1.09017c-7.03444 0 -13.8328 0.854102 -20.6312 2.09017l-11 2c-39 7 -83 30 -90 97c-0.3596 4.1354 -0.525232 8.14148 -0.525232 12.0139c0 39.2023 16.9747 64.7053 21.5252 71.9861l16 24c19 29 15 19 24 26l20 16l9 6
l22 14l1 1c22 14 9 13 47 15l12 -8z" />
    <glyph glyph-name="scripts.segno" unicode="&#xe153;" horiz-adv-x="250" 
d="M321 461l-11 28h-327c-219 0 -328 -1 -329 -3c-4 -13 -14 -92 -31 -237c-18.8673 -159.276 -28.301 -291.983 -28.301 -398.037c0 -135.651 15.4337 -227.698 46.301 -275.963l7 -10h404h403v39c0 229 -25 452 -76 668c-16 69 -35 132 -58 189zM-365 660c0 1 117 1 352 1
s352 -1 353 -3c21 -55 43 -121 66 -199c53 -186 87 -381 100 -585c3.15116 -45.4667 4.68113 -92.9599 4.68113 -142.48c0 -60.4836 -2.28245 -123.99 -6.68113 -190.52c-5 -77 -9 -125 -12 -144l-1 -6h-435h-436l-8 6c-40 31 -67 135 -82 312
c-3.79372 43.3568 -5.5314 89.0634 -5.5314 136.961c0 40.4805 1.2412 82.5257 3.5314 126.039c11 194 42 404 94 630c9 37 13 57 13 58zM229 457c6 4 13 6 21 5c21 -2 32 -13 33 -32l1 -13l-42 -62c-47 -70 -91 -142 -133 -216c-19 -33 -27 -50 -27 -51s6 -2 18 -5
c61 -15 106 -50 134 -106c11 -21 19 -49 26 -83c3 -17 5 -41 5 -72s-1 -51 -4 -61c-7 -25 -18 -43 -35 -55s-41 -20 -74 -23c-13 -1 -47 -2 -103 -2h-83l-2 7c-8 23 -13 48 -14 75c-0.0833333 2.25 -0.125 4.48611 -0.125 6.70833c0 24.4444 5.04167 47.2083 15.125 68.2917
c14 29 31 45 52 48c0.56032 0.0622577 1.13227 0.0935073 1.71608 0.0935073c8.79361 0 20.28 -7.08963 35.2839 -22.0935c11 -11 19 -17 25 -19s16 -3 32 -3c41.6667 0 62.5 6.25 62.5 19.3287c0 2.61574 -0.833333 5.50463 -2.5 8.6713c-3 4 -7 9 -12 14
c-16 14 -39 26 -68 35c-17 5 -41 8 -74 8h-25l-49 -98c-70 -140 -118 -223 -143 -249c-9 -10 -18 -13 -27 -8c-6.28541 4.48958 -10.1521 13.0104 -10.1521 26.2865c0 39.1317 18.8959 92.0993 57.1521 171.714c45 92 72 144 82 157c2 3 0 5 -6 6c-1 1 -3 1 -6 2
c-27 7 -48 22 -63 45c-13 21 -25 55 -34 103c-4.14547 20.7274 -6.16935 40.3939 -6.16935 58.9997c0 21.7882 2.77543 42.1216 8.16935 61.0003c18 62 63 111 135 148c24.3621 12.1811 42.5784 19.0942 54.6488 19.0942c0.811512 0 1.59524 -0.031248 2.3512 -0.0942441
c12 -1 24 -10 36 -27c17 -23 28 -45 32 -64c0.707107 -4.94975 1.41421 -12.3995 1.41421 -22.3492c0 -4.12132 -0.12132 -8.67157 -0.414214 -13.6508l-1 -24h-11c-19 0 -40 -5 -65 -15s-44 -23 -59 -36c-15 -14 -24 -29 -27 -46c-2 -12 1 -20 9 -25c5 -3 20 -4 47 -4h40
l5 7c3 5 13 22 28 50c103 181 172 284 207 307zM211 201c3 1 14 1 31 1s27 0 32 -2s7 -8 7 -16c0 -12 -5 -27 -14 -46c-9 -16 -18 -25 -29 -28c-3 -1 -16 -1 -37 -2l-32 -2v11c0 7 2 17 7 29c11 35 23 53 35 55zM-256 -63c3 1 13 1 30 2c23 0 36 -4 39 -11
c0.928753 -1.85751 1.37829 -4.19422 1.37829 -7.03982c0 -6.34608 -2.2358 -15.2231 -6.37829 -26.9602c-6 -17 -13 -30 -21 -38c-7.19184 -7.19184 -21.6571 -11.151 -41.2164 -11.151c-2.19792 0 -4.46016 0.0499948 -6.78363 0.151015c-17 1 -28 3 -32 8s-4 14 1 27
c13 36 25 55 36 57z" />
    <glyph glyph-name="scripts.varsegno" unicode="&#xe154;" horiz-adv-x="250" 
d="M229 457c6 4 13 6 21 5c21 -2 32 -13 33 -32l1 -13l-42 -62c-47 -70 -91 -142 -133 -216c-19 -33 -27 -50 -27 -51s6 -2 18 -5c61 -15 106 -50 134 -106c11 -21 19 -49 26 -83c3 -17 5 -41 5 -72s-1 -51 -4 -61c-7 -25 -18 -43 -35 -55s-41 -20 -74 -23
c-13 -1 -47 -2 -103 -2h-83l-2 7c-8 23 -13 48 -14 75c-0.0833333 2.25 -0.125 4.48611 -0.125 6.70833c0 24.4444 5.04167 47.2083 15.125 68.2917c14 29 31 45 52 48c0.56032 0.0622577 1.13227 0.0935073 1.71608 0.0935073c8.79361 0 20.28 -7.08963 35.2839 -22.0935
c11 -11 19 -17 25 -19s16 -3 32 -3c41.6667 0 62.5 6.25 62.5 19.3287c0 2.61574 -0.833333 5.50463 -2.5 8.6713c-3 4 -7 9 -12 14c-16 14 -39 26 -68 35c-17 5 -41 8 -74 8h-25l-49 -98c-70 -140 -118 -223 -143 -249c-9 -10 -18 -13 -27 -8
c-6.28541 4.48958 -10.1521 13.0104 -10.1521 26.2865c0 39.1317 18.8959 92.0993 57.1521 171.714c45 92 72 144 82 157c2 3 0 5 -6 6c-1 1 -3 1 -6 2c-27 7 -48 22 -63 45c-13 21 -25 55 -34 103c-4.14547 20.7274 -6.16935 40.3939 -6.16935 58.9997
c0 21.7882 2.77543 42.1216 8.16935 61.0003c18 62 63 111 135 148c24.3621 12.1811 42.5784 19.0942 54.6488 19.0942c0.811512 0 1.59524 -0.031248 2.3512 -0.0942441c12 -1 24 -10 36 -27c17 -23 28 -45 32 -64c0.707107 -4.94975 1.41421 -12.3995 1.41421 -22.3492
c0 -4.12132 -0.12132 -8.67157 -0.414214 -13.6508l-1 -24h-11c-19 0 -40 -5 -65 -15s-44 -23 -59 -36c-15 -14 -24 -29 -27 -46c-2 -12 1 -20 9 -25c5 -3 20 -4 47 -4h40l5 7c3 5 13 22 28 50c103 181 172 284 207 307zM211 201c3 1 14 1 31 1s27 0 32 -2s7 -8 7 -16
c0 -12 -5 -27 -14 -46c-9 -16 -18 -25 -29 -28c-3 -1 -16 -1 -37 -2l-32 -2v11c0 7 2 17 7 29c11 35 23 53 35 55zM-256 -63c3 1 13 1 30 2c23 0 36 -4 39 -11c0.928753 -1.85751 1.37829 -4.19422 1.37829 -7.03982c0 -6.34608 -2.2358 -15.2231 -6.37829 -26.9602
c-6 -17 -13 -30 -21 -38c-7.19184 -7.19184 -21.6571 -11.151 -41.2164 -11.151c-2.19792 0 -4.46016 0.0499948 -6.78363 0.151015c-17 1 -28 3 -32 8s-4 14 1 27c13 36 25 55 36 57z" />
    <glyph glyph-name="scripts.coda" unicode="&#xe155;" horiz-adv-x="254" 
d="M335 464c-1 2 -112 3 -335 4h-335l-3 -11c-11 -36 -21 -79 -31 -129c-25 -128 -38 -271 -40 -428c-0.0707142 -9.4757 -0.106425 -18.8714 -0.106425 -28.1867c0 -122.417 6.16714 -230.955 20.1064 -324.813l2 -15h410h410l1 4c3 11 6 54 9 127
c1.6 31.6 2.4 62.88 2.4 93.968c0 46.632 -1.8 92.832 -5.4 139.032c-9 122 -32 261 -68 416c-21 89 -33 139 -37 152zM-333 629l8 15h352h351l1 -5c1 -3 5 -17 13 -44c63 -208 103 -411 118 -610c4.94364 -64.6205 7.39345 -127.121 7.39345 -187.414
c0 -110.452 -8.22138 -213.494 -24.3934 -308.586c-7 -43 -15 -79 -23 -110l-5 -18l-439 -1h-440l-6 6c-22 23 -39 81 -52 174c-12.5282 90.8291 -18.3122 187.789 -18.3122 291.841c0 28.8351 0.444198 58.2148 1.31216 88.1595c4 138 18 263 42 375c24 113 56 211 95 294
c7 15 11 23 11 24s3 6 8 16zM-15 -47l-1 15l-7 -1c-5 0 -13 -1 -25 -3l-18 -3v-37c1 -79 17 -119 46 -119c10.6836 0 12.3923 -2.07142 12.3923 5.93474c0 8.29096 -0.928203 27.0512 -2.3923 57.0653c-2 41 -4 69 -5 85zM77 -66v44l-8 -1c-3 0 -12 -2 -25 -4s-20 -4 -20 -4
s0 -14 2 -43s3 -55 4 -77s2 -33 3 -33s5 4 14 11c13 11 21 24 25 37s5 37 5 70zM-28 211c-1 6 -7 4 -16 -6c-11 -11 -19 -29 -25 -54c-3 -11 -3 -35 -3 -71s0 -54 1 -55s10 -1 27 1c20.6603 2.43063 26.375 0.0582417 26.375 8.71875
c0 8.71875 -1.125 29.5312 -3.375 63.2812c-3 45 -4 74 -5 88s-1 22 -2 25zM26 220c-7 3 -10 4 -12 3s-3 -4 -3 -11s1 -38 4 -94s5 -84 5 -84s4 0 11 2s15 4 26 5l15 1l-1 21c-2 44 -5 74 -8 91c-7 36 -20 58 -37 66zM-30 437c6 2 12 4 19 4s10 0 10 -3c0 -6 1 -32 4 -79
s5 -70 5 -71s4 0 12 2c18.5 4.5 37 6.75 55.125 6.75s35.875 -2.25 52.875 -6.75c34 -9 62 -27 84 -52c32 -37 50 -84 55 -139c1 -19 3 -29 3 -29s10 2 31 6s32 7 35 8s5 -1 8 -6c7 -11 13 -26 16 -45c1 -6 0 -9 -3 -10s-20 -4 -50 -10s-45 -8 -46 -9s-3 -4 -5 -10
c-20 -60 -53 -113 -99 -160c-37 -38 -74 -64 -111 -77c-7 -3 -10 -5 -10 -6s0 -18 2 -52s3 -65 4 -94l1 -42l-7 -3c-5 -1 -11 -2 -18 -2h-11l-1 29c-5 102 -8 154 -10 156c-1 1 -9 2 -26 3c-65 5 -119 26 -160 64c-32 29 -52 67 -60 116l-1 7l-44 -10l-45 -10l-6 6
c-4 4 -7 9 -11 17s-6 17 -6 27v16l56 9c37 6 56 10 57 13c7 34 16 64 28 90c41 87 100 148 175 183c10 5 16 7 16 7s-1 24 -4 72s-4 74 -4 77s3 5 9 7z" />
    <glyph glyph-name="scripts.varcoda" unicode="&#xe156;" horiz-adv-x="254" 
d="M-15 -47l-1 15l-7 -1c-5 0 -13 -1 -25 -3l-18 -3v-37c1 -79 17 -119 46 -119c10.6836 0 12.3923 -2.07142 12.3923 5.93474c0 8.29096 -0.928203 27.0512 -2.3923 57.0653c-2 41 -4 69 -5 85zM77 -66v44l-8 -1c-3 0 -12 -2 -25 -4s-20 -4 -20 -4s0 -14 2 -43s3 -55 4 -77
s2 -33 3 -33s5 4 14 11c13 11 21 24 25 37s5 37 5 70zM-28 211c-1 6 -7 4 -16 -6c-11 -11 -19 -29 -25 -54c-3 -11 -3 -35 -3 -71s0 -54 1 -55s10 -1 27 1c20.6603 2.43063 26.375 0.0582417 26.375 8.71875c0 8.71875 -1.125 29.5312 -3.375 63.2812c-3 45 -4 74 -5 88
s-1 22 -2 25zM26 220c-7 3 -10 4 -12 3s-3 -4 -3 -11s1 -38 4 -94s5 -84 5 -84s4 0 11 2s15 4 26 5l15 1l-1 21c-2 44 -5 74 -8 91c-7 36 -20 58 -37 66zM-30 437c6 2 12 4 19 4s10 0 10 -3c0 -6 1 -32 4 -79s5 -70 5 -71s4 0 12 2c18.5 4.5 37 6.75 55.125 6.75
s35.875 -2.25 52.875 -6.75c34 -9 62 -27 84 -52c32 -37 50 -84 55 -139c1 -19 3 -29 3 -29s10 2 31 6s32 7 35 8s5 -1 8 -6c7 -11 13 -26 16 -45c1 -6 0 -9 -3 -10s-20 -4 -50 -10s-45 -8 -46 -9s-3 -4 -5 -10c-20 -60 -53 -113 -99 -160c-37 -38 -74 -64 -111 -77
c-7 -3 -10 -5 -10 -6s0 -18 2 -52s3 -65 4 -94l1 -42l-7 -3c-5 -1 -11 -2 -18 -2h-11l-1 29c-5 102 -8 154 -10 156c-1 1 -9 2 -26 3c-65 5 -119 26 -160 64c-32 29 -52 67 -60 116l-1 7l-44 -10l-45 -10l-6 6c-4 4 -7 9 -11 17s-6 17 -6 27v16l56 9c37 6 56 10 57 13
c7 34 16 64 28 90c41 87 100 148 175 183c10 5 16 7 16 7s-1 24 -4 72s-4 74 -4 77s3 5 9 7z" />
    <glyph glyph-name="scripts.rcomma" unicode="&#xe157;" horiz-adv-x="112" 
d="M15 133c7 7 12 10 20 16s22 14 22 14c8 -3 16 -7 23 -12l12 -8c25.0192 -16.476 41.8461 -42.2614 41.8461 -77.5833c0 -22.5616 -6.86529 -49.0141 -22.8461 -79.4167l-10 -19c-18 -33 -29 -58 -104 -129c0 0 -10 -12 -19 -17c-11 -6 -18 -9 -30 -12c-4 -1 -12 -2 -11 2
c2 11 16 24 16 24c33 32 58 59 78 87c19.743 32.5394 28.124 63.4748 28.124 90.6558c0 47.1628 -25.2326 83.0221 -60.124 96.3442c0 0 8 16 16 24z" />
    <glyph glyph-name="scripts.lcomma" unicode="&#xe158;" horiz-adv-x="51" 
d="M-3 161c8 6 12 12 22 14c6 1 12 -2 12 -8c1 -8 -10 -19 -10 -19c-18 -28 -35 -56 -47 -78c-30.8505 -60.6184 -42.0742 -104.247 -42.0742 -135.007c0 -26.0729 8.06383 -42.9006 19.0742 -52.9934c8.91165 -4.15877 16.4114 -6.55271 25.2255 -6.55271
c6.02166 0 12.6567 1.11737 20.7745 3.55271c0 0 12 -2 12 -8c1 -8 -5 -12 -10 -19c-6 -8 -10 -12 -19 -17c-11 -6 -30 -12 -30 -12c-5.81176 -1.93725 -12.4575 -3.04052 -19.3987 -3.04052c-3.80782 0 -7.70456 0.332021 -11.6013 1.04052l-11 2
c-22.5292 4.3141 -42.9905 24.2526 -42.9905 67.195c0 46.6432 24.14 120.426 95.9905 230.805c0 0 8 16 16 24c7 7 12 10 20 16z" />
    <glyph glyph-name="scripts.rvarcomma" unicode="&#xe159;" horiz-adv-x="91" 
d="M83 215c8 6 12 12 22 14c6 1 12 -8 12 -8c-42 -134 -105 -258 -170 -381c0 0 -5 -12 -10 -19c-6 -8 -10 -12 -19 -17c-11 -6 -18 -9 -30 -12c-4 -1 -11 2 -11 2c65 123 128 247 170 381c0 0 8 16 16 24c7 7 12 10 20 16z" />
    <glyph glyph-name="scripts.lvarcomma" unicode="&#xe15a;" horiz-adv-x="62" 
d="M-112 -196l-11 2l16 24c3 4 7 10 8 12c60 94 98 185 152 318l16 24l20 16l22 14l12 -8c-33 -81 -65 -161 -105 -238l-10 -19c-31 -59 -52 -90 -71 -116l-19 -17z" />
    <glyph glyph-name="scripts.arpeggio" unicode="&#xe15b;" horiz-adv-x="212" 
d="M142 -1c24 -27 24 -37 24 -47c0 -3 0 -4 -1 -7c-4 -9 -15 -10 -27 -10c-16 0 -25 10 -73 64c-29 32 -41 36 -41 66c0 19 21 49 41 70c17 19 34 32 34 58s-16 38 -34 59c-22 26 -23 29 -23 41c0 7 6 16 13 18c4.15348 1.14579 8.0608 1.71721 11.8277 1.71721
c22.5342 0 40.0444 -20.4487 75.1723 -60.7172c34.8868 -38.9434 38.178 -48.2659 38.178 -63.7486c0 -3.60062 -0.177999 -7.53441 -0.177999 -12.2514c0 -25 -15 -36 -35 -55c-26 -25 -35 -40 -35 -61c0 -17 8 -34 32 -61z" />
    <glyph glyph-name="scripts.trill_element" unicode="&#xe15c;" horiz-adv-x="294" 
d="M0 132c32 26 105 70 106 71c2.41888 1.05826 5.02061 1.59085 7.74299 1.59085c15.2851 0 34.3735 -16.7892 46.257 -51.5908c14 -41 28 -62 40 -62c19 18 32 25 53 41c17.3333 13.3333 25.7778 15.5556 33.037 15.5556c3.62963 0 6.96296 -0.555556 10.963 -0.555556
c7 0 12 -2 15 -6c-2 -23 -12 -42 -59 -79c-48 -39 -94 -74 -113 -74c-1.16517 -0.0613248 -2.35667 -0.0925637 -3.56918 -0.0925637c-18.5595 0 -42.0441 7.31906 -51.4308 26.0926c-4 7 -10 26 -19 56c-6 20 -11 30 -17 30c-2 0 -22 -16 -49 -38s-37 -22 -47 -22
c-3 0 -4 0 -7 1c-9 4 -10 13 -10 24c0 15 10 23 64 67z" />
    <glyph glyph-name="scripts.arpeggio.arrow.M1" unicode="&#xe15d;" horiz-adv-x="200" 
d="M279 207c2 -5 0 -13 0 -13c-49 -77 -109 -134 -153 -194c0 0 -20 1 -28 9c-26 27 -56 77 -56 77c-54 62 -56 66 -102 115c0 0 -19 15 -24 28c-2 6 3 11 8 15c9 8.1 14.76 19.44 26.028 19.44c1.252 0 2.572 -0.14 3.972 -0.44c21 -4 44 -34 44 -34c21 -23 48 -52 76 -83
c9.74712 32.0712 13.8591 52.4766 13.8591 66.594c0 30.7819 -19.5495 31.6685 -42.8591 58.406c0 0 -13 13 -15 24c-1 7 3 12 9 15c10 5 18 7 29 3c21 -9 48 -34 48 -34c14 -14 17.253 -21.252 30 -34c8 -8 16.268 -21.598 22 -35
c1.80707 -3.61414 2.49163 -7.73852 2.49163 -12.1657c0 -15.1721 -8.03986 -33.9002 -6.49163 -47.8343c18 32 48 67 70 102c0 0 17 -1 24 -8c12 -12 15 -22 21 -37z" />
    <glyph glyph-name="scripts.arpeggio.arrow.1" unicode="&#xe15e;" horiz-adv-x="200" 
d="M76 -8l-26 28c-6.55119 6.84897 -8.75737 17.5996 -8.75737 29.9546c0 25.488 9.38914 57.8039 9.38914 76.7786c0 2.71516 -0.192252 5.15715 -0.631776 7.26687c-15 -28 -54 -104 -72 -133c0 0 -18 3 -28 9c-19 12 -11 18 -16 31c-2 6 8 15 8 15c49 77 74 160 138 200
c0 0 16 -3 24 -8c18 -11 44 -34 44 -34c54 -62 74 -110 120 -159c0 0 14 -19 20 -33c2 -5 5 -12 0 -13c-6.68388 -1.21525 -17.7983 -3.16892 -27.7346 -3.16892c-6.41642 0 -12.3416 0.814669 -16.2654 3.16892c-19 12 -44 36 -44 36c-21 23 -32 56 -60 87
c0 -3 -1 -6 -1 -6c-11 -33 -15 -54 -16 -76c1 -15 1 -26 9 -37c8 -9 10.483 -13.4834 18 -21c4 -4 8 -8 6 -13c-3 -8 -10 -12 -16 -13c-12 -2 -19 -5 -30 1c-21 12 -32 22 -34 25z" />
    <glyph glyph-name="scripts.trilelement" unicode="&#xe15f;" horiz-adv-x="104" 
d="M-178 35c56 32 147 66 148 67c15 0 32 -20 52 -61s39 -62 56 -62c26 18 69 40 98 56c-0.666667 -7.66667 -0.888889 -13.3333 -0.888889 -19.037c0 -11.4074 0.888889 -22.963 0.888889 -50.963c-67 -39 -131 -74 -158 -74
c-0.973053 -0.036039 -1.93831 -0.0538947 -2.89573 -0.0538947c-25.6088 0 -45.6088 12.7747 -59.1043 32.0539c-5 7 -14 26 -26 56c-8 20 -16 30 -24 30c-3 0 -46 -22 -84 -44v70z" />
    <glyph glyph-name="scripts.prall" unicode="&#xe160;" horiz-adv-x="303" 
d="M-237 -49c-6 0 -11 7 -11 8c0 2 5 10 14 25c20 29 50 60 90 92l26 20l18 -14c12 -9 27 -24 44 -43s27 -30 30 -30s18 10 44 31c27 21 44 34 52 38l12 6l36 -38c24 -25 39 -39 46 -42c3 -1 6 -1 9 -1c15 0 35 11 59 33c10 9 17 13 23 13c7 0 13 -7 13 -9
c0 -13 -19 -37 -56 -70c-23 -21 -48 -36 -71 -36c-10 0 -27 12 -51 36c-25 25 -39 38 -40 38s-11 -9 -28 -26c-27 -27 -54 -43 -82 -48h-1c-10 0 -27 13 -51 40l-36 42l-20 -16c-37 -32 -60 -49 -69 -49z" />
    <glyph glyph-name="scripts.mordent" unicode="&#xe161;" horiz-adv-x="231" 
d="M-290 -70l-11 2l16 24l112 96l20 16l22 14l12 -8c43 -38 79 -66 107 -105c6 4 11 7 16 11c-1 42 -7 87 -25 140l16 24l20 16l22 14l12 -8c17 -49 23 -91 25 -130c4 4 9 8 15 14l20 16l22 14l12 -8c27 -21 61 -52 84 -84l58 40l22 14l12 -8l-10 -19l-19 -17l-84 -58
l-30 -12l-11 2c-18 32 -48 59 -76 83l-8 -8c-2 -2 -5 -4 -7 -6c-2 -52 -11 -102 -15 -161l-10 -19l-19 -17l-30 -12l-11 2c4 56 13 104 15 154c-10 -7 -23 -14 -38 -24l-30 -12l-11 2c-27 41 -59 67 -100 103l-85 -73z" />
    <glyph glyph-name="scripts.prallprall" unicode="&#xe162;" horiz-adv-x="447" 
d="M-406 -42c-8 0 -17 7 -17 17c0 4 2 9 7 14c20 17 56 39 108 66c43 21 66 33 70 34c11 0 25 -16 42 -48c16 -28 29 -44 39 -47c2 -1 3 -1 5 -1c10 0 26 8 46 24c49 37 85 56 106 56c17 0 38 -15 62 -46l24 -30l12 6c39 25 73 46 104 62c8 4 15 6 19 6s6 -2 7 -4
c2 -5 18 -70 24 -70c4 0 10 4 20 12c23 16 70 38 100 43c3 0 6 1 8 1c8 0 12 -3 14 -8c0 -12 -21 -31 -62 -58c-61 -40 -106 -60 -134 -60c-20 0 -36 17 -36 34c0 5 -1 8 -3 8s-12 -5 -29 -16c-49 -29 -83 -44 -102 -44c-8 0 -21 9 -38 28c-24 24 -41 36 -52 36
c-5 0 -24 -7 -55 -22s-53 -23 -65 -26c-6 -1 -11 -2 -16 -2c-29 0 -52 19 -68 58c-8 20 -15 31 -21 31s-19 -6 -41 -19c-38 -23 -64 -35 -78 -35z" />
    <glyph glyph-name="scripts.prallmordent" unicode="&#xe163;" horiz-adv-x="340" 
d="M-397 -76l16 24l20 16c45 31 71 49 116 80l22 14l12 -8c18 -22 22 -48 47 -68c1 -1 2 -1 3 -2c8.55147 1.83246 12.0661 2.07924 13.7344 2.07924c0.615004 0 0.979109 -0.033536 1.25215 -0.033536c1.41146 0 0.389278 0.896196 19.0134 11.9543c11 7 20 14 31 21l22 14
c38 24 23 22 57 23l12 -8c23 -19 39 -35 57 -48c8 -5 14 -8 23 -12c7 1 13 2 17 3c-6 45 -16 98 -35 175l16 24l20 16l22 14l12 -8c19 -79 30 -132 36 -178l17 11c10 6 22 13 37 19c6 0 -1 4 13 -5l12 -8c20 -14 36 -56 60 -80c37 24 63 40 105 67l22 14l12 -8l-10 -19
l-19 -17c-50 -32 -78 -50 -128 -82l-30 -12l-11 2c-45 33 -72 90 -72 90c-1 -1 -3 -2 -5 -3c1.6 -20 2.24 -39.68 2.24 -60.64c0 -31.44 -1.44 -65.76 -3.24 -108.36l-10 -19l-19 -17l-30 -12l-11 2c1.8 42 3.24 75.72 3.24 106.776c0 20.704 -0.64 40.224 -2.24 60.224
c-2 -1 -3 -1 -4 -2l-30 -12c-9 -4 -21 -7 -34 -9l-11 2c-42 18 -34 20 -89 65h-3c-26 -15 -52 -40 -89 -55l-30 -12h-1c-5 -2 -9 -3 -13 -4l-11 2c-8 4 -31 29 -53 66c-26 -18 -51 -35 -84 -58l-30 -12z" />
    <glyph glyph-name="scripts.upprall" unicode="&#xe164;" horiz-adv-x="340" 
d="M-574 -294l-30 -12l-11 2c-0.805483 12.8877 -1.17505 25.2179 -1.17505 36.9925c0 105.17 29.484 166.021 41.1751 184.007c1 1 0 -1 1 0l16 24c20 30 28 34 35 39l1 1l20 16c5 4 10 8 15 11l22 14c47 30 122 34 180 50c37 -16 57 -24 74 -35l1 -1l12 -8
c20 -13 34 -30 65 -68c6 2 12 6 17 8c1 1 1 0 1 0s38 37 64 68l20 16l22 14l12 -8c36 -40 46 -59 64 -99l116 77l22 14l12 -8l77 -84l141 88l12 -8l-10 -19l-19 -17l-144 -90l-30 -12l-11 2l-76 83l-113 -75l-30 -12l-11 2c-19 43 -27 61 -52 92c-4 -4 -12 -13 -18 -18
l-19 -17c-24 -21 -23 -25 -65 -42l-30 -12c-1 0 -2 -1 -3 -1l-11 2c-79 99 -50 72 -141 111c-32 -8 -81 -11 -126 -26c-29 -14 -13 -4 -33 -20c-21 -22 -17 -22 -24 -33c-16.7602 -36.0344 -27.2 -86.1141 -27.2 -153.181c0 -12.9643 0.390098 -26.5635 1.20005 -40.8186
l-10 -19z" />
    <glyph glyph-name="scripts.upmordent" unicode="&#xe165;" horiz-adv-x="338" 
d="M-331 -251l-19 -17l-30 -12c-13.9002 -4.23049 -27.0699 -5.90426 -39.7298 -5.90426c-8.28788 0 -16.3573 0.717329 -24.2702 1.90426h-1l-11 2c-63.424 11.2754 -103.01 73.2057 -103.01 135.395c0 26.0587 6.95055 52.1629 22.0103 74.6049l16 24c15 23 27 32 35 38v1
l20 16c5 4 12 8 18 12l22 14c39 25 82 45 191 47l12 -8c27 -33 35 -55 49 -93c30 17 61 27 89 41c4 4 7 8 10 12l20 16l22 14l12 -8c21 -28 34 -24 57 -65l7 4c2 1 6 3 12 5c-8 55 -20 112 -36 170l16 24l20 16l22 14l12 -8c18 -66 32 -130 39 -191c6 2 10 3 11 3l2 4l10 14
l20 16l22 14l12 -8c27 -37 42 -50 53 -73l15 12c6 5 13 10 19 14l22 14c27 17 52 25 77 39l12 -8l-10 -19l-19 -17c-46 -25 -73 -35 -95 -52c-7 -7 -15 -16 -22 -25l-19 -17l-30 -12l-11 2c-11 36 -23 44 -47 75c-3 -3 -1 -4 -18 -12
c2.57143 -28.7143 3.85714 -56.6939 3.85714 -83.7813c0 -36.1166 -2.28571 -70.6472 -6.85714 -103.219l-10 -19l-19 -17l-30 -12l-11 2c4.24903 32.93 6.52338 68.1168 6.52338 104.961c0 32.5254 -1.77241 66.3425 -5.52338 101.039c-10 -3 -19 -5 -29 -8
c-7 -4 -11 -7 -15 -10l-2 -2l-30 -12l-11 2c-22 43 -35 48 -50 62c-38 -28 -81 -36 -121 -62l-30 -12l-11 2c-18 47 -23 68 -52 104c-47 -1 -91 -9 -126 -21c-34 -16 -19 -7 -42 -25c-16 -16 -18 -23 -20 -26c-7.94244 -18.3287 -11.6856 -37.4973 -11.6856 -56.3084
c0 -42.7681 19.3486 -83.6888 52.6856 -108.692c20.7097 -11.9238 36.6933 -19.1215 58.3316 -19.1215c12.8414 0 27.6743 2.53496 46.6684 8.12145l12 -8z" />
    <glyph glyph-name="scripts.pralldown" unicode="&#xe166;" horiz-adv-x="392" 
d="M-379 74l22 14l12 -8l67 -87l125 83l22 14l12 -8l49 -86l91 76l20 16l22 14l12 -8l42 -94l126 92l22 14c5.11381 0.329923 9.90107 0.550997 14.5413 0.550997c23.4891 0 43.2119 -5.6648 82.4587 -31.551l12 -8c90 -60 172 -198 201 -341l-10 -19l-19 -17l-30 -12l-11 2
c-40 200 -171 348 -264 369c-2 0 -6 1 -10 1l-137 -100l-30 -12l-11 2l-40 90l-103 -86l-30 -12l-11 2l-51 89l-116 -77l-30 -12l-11 2l-76 98l16 24z" />
    <glyph glyph-name="scripts.downprall" unicode="&#xe167;" horiz-adv-x="333" 
d="M-424 202l-30 -12l-11 2c-15 13 -7 12 -36 20c-8 1 -15 0 -21 -1c-1.41252 -0.807153 -2.0921 -1.1664 -2.39206 -1.30781c-0.206214 -0.248527 -1.62161 -1.41624 -7.60794 -5.69219c-27 -28 -18 -21 -29 -40c-14.3837 -29.6663 -22.302 -59.3326 -22.302 -86.8194
c0 -3.08875 0.0999896 -6.14998 0.302031 -9.1806c2 -37 17 -62 38 -79c17.691 -9.9512 42.5815 -13.9255 69.2143 -13.9255c45.6284 0 96.371 11.6653 124.786 24.9255l108 72l22 14l12 -8l53 -74l145 80l12 -8l64 -78l134 78l12 -8l33 -65l157 59l12 -8l-10 -19l-19 -17
l-30 -12l-164 -62l-11 2l-33 65l-102 -59l-30 -12l-11 2l-65 79l-116 -63l-30 -12l-11 2l-52 72l-93 -62l-21 -9l-30 -12c-1 0 0 -1 -1 -1c-31.5874 -12.488 -66.9522 -20.1195 -100.148 -20.1195c-11.9938 0 -23.7045 0.996201 -34.8517 3.11947l-11 2
c-46 8 -86 25 -91 101c-0.155653 2.80176 -0.230547 5.59544 -0.230547 8.37741c0 50.8367 25.0088 97.764 39.2305 118.623l16 24l1 1c20 30 32 38 37 42l20 16c4 3 7 5 11 7l22 14c1 1 -1 0 0 1c13.3333 8.33333 28.5185 14.8148 45.3841 14.8148
c13.4925 0 28.0604 -4.14815 43.6159 -14.8148l12 -8c4 -2 7 -5 11 -8l-10 -19z" />
    <glyph glyph-name="scripts.downmordent" unicode="&#xe168;" horiz-adv-x="333" 
d="M-411 249l-19 -17l-30 -12c-11 -1 -22 -3 -32 -6c-24 -12 -4 -1 -23 -15c-16 -17 -13 -17 -15 -20c-7.61345 -17.7647 -11.8778 -37.3328 -11.8778 -59.0965c0 -21.1151 4.01398 -44.2968 12.8778 -69.9035c7 -21 21 -39 37 -51
c17.9942 -10.612 38.9687 -14.8375 59.2894 -14.8375c23.7217 0 46.5523 5.75835 62.7106 13.8375l5 4s71 55 116 90l22 14l12 -8l45 -91l111 79l22 14l12 -8l68 -85l5 3c-6 61 -15 123 -33 186l16 24l20 16l22 14l12 -8c18 -63 27 -125 33 -186l53 34l22 14l12 -8l23 -124
l133 94l22 14l12 -8l-10 -19l-19 -17l-164 -116l-30 -12l-11 2l-23 125l-17 -11c5 -65 6 -129 10 -192l-10 -19l-19 -17l-30 -12l-11 2c-4 63 -5 128 -10 193l-29 -19l-30 -12l-11 2l-66 84l-107 -76l-30 -12l-11 2l-44 88c-39 -30 -83 -64 -83 -64c-7 -6 -8 -10 -39 -23
l-30 -12l-1 -1c-16.2107 -6.079 -32.4213 -8.96443 -48.3239 -8.96443c-7.64126 0 -15.2114 0.666204 -22.6761 1.96443l-11 2h-1c-43 8 -68 20 -86 73c-8.33473 24.6955 -11.4284 47.1993 -11.4284 66.923c0 44.1705 15.5153 74.3987 22.4284 84.077l16 24
c17 26 22 25 29 31l20 16c4 3 8 7 13 10l22 14h1c31 19 27 21 74 26l12 -8z" />
    <glyph glyph-name="scripts.prallup" unicode="&#xe169;" horiz-adv-x="379" 
d="M-339 44l22 14l12 -8c20 -25 27 -30 36 -47c12 6 22 12 32 18c8 7 15 15 21 23l11 16l20 16l22 14c4 -2 9 -4 13 -7l12 -8c36 -24 54 -64 69 -91c31 26 43 32 84 86l20 16l22 14l12 -8c36 -37 35 -46 54 -81c46 24 100 46 162 73l12 -8c33 -49 33 -57 46 -82
c46 1 206 10 261 37l1 1c5.71868 12.3905 8.88242 26.3707 8.88242 42.1842c0 50.5521 -32.3313 119.839 -116.882 215.816l16 24l20 16l22 14l12 -8c84.5857 -96.4574 116.871 -165.939 116.871 -216.205c0 -17.4799 -3.90412 -32.6361 -10.8707 -45.7952l-10 -19v-1
c-6 -11 -3 -11 -22 -28l-19 -17c-12 -10 -12 -14 -50 -29l-30 -12c-1 0 0 -1 -1 -1c-66.75 -27 -158.25 -28.6875 -212.906 -28.6875c-7.80804 0 -14.8642 0.0344388 -20.9888 0.0344388c-8.16618 0 -14.6764 -0.0612245 -19.105 -0.346939l-11 2c-17 33 -14 36 -46 84
c-47 -20 -94 -40 -131 -60l-30 -12l-11 2c-21 37 -21 47 -41 71c-4 -4 -15 -13 -20 -17l-19 -17c-1 -1 1 0 0 -1c-46 -41 -18 -17 -69 -56l-30 -12l-11 2c-15 23 -30 65 -66 96l-16 -15l-1 -1c-19 -17 -21 -17 -78 -48l-30 -12l-11 2c-13 29 -18 29 -42 58l16 24z" />
    <glyph glyph-name="scripts.lineprall" unicode="&#xe16a;" horiz-adv-x="340" 
d="M-401 470l22 14l12 -8c2.75171 -70.6273 4.03111 -141.886 4.03111 -213.1c0 -84.0654 -1.78282 -168.069 -5.03111 -250.9c29 14 75 37 109 58c6 4 10 7 14 10l22 14l12 -8c18 -36 21 -49 30 -83c42 25 94 46 147 78l1 1l22 14l12 -8c28 -39 40 -67 53 -103l22 15
c9 6 21 13 29 18s16 10 23 15c2 2 7 3 31 33l20 16l22 14l12 -8c42 -41 44 -66 59 -103l151 61l12 -8l-10 -19l-19 -17l-158 -64l-30 -12l-11 2c-17 39 -18 62 -48 97l-3 -3l-1 -1c-35 -31 -77 -51 -125 -85l-30 -12l-11 2c-15 40 -23 66 -50 105c-54 -31 -144 -76 -145 -77
l-30 -12l-11 2c-11 39 -14 53 -28 83c-41 -25 -96 -53 -123 -65l-30 -12l-11 2c3.90207 88.6327 5.93971 177.576 5.93971 266.484c0 70.5856 -1.28434 141.149 -3.93971 211.516l16 24z" />
    <glyph glyph-name="scripts.caesura.curved" unicode="&#xe16b;" horiz-adv-x="500" 
d="M119 369c7 7 17 8 25 2s7 -26 7 -26c5.5 -35.5 8 -69.75 8 -102.875s-2.5 -65.125 -7 -96.125v-1l-8 -54c-7 -48 -54 -189 -83 -243l-18 -34c-11 -20 -23 -41 -35 -61c0 0 -14 -9 -22 -6c-9 3 -14 10 -14 19c-0.0864471 1.90184 -0.128056 3.72894 -0.128056 5.49295
c0 18.6416 4.64674 30.236 10.1281 48.5071c6 18 20 45 20 45c43 71 26 41 51 92c15 36 28 77 37 118c4 29 6.25 60.25 6.25 93s-2.25 67 -7.25 102c0 0 4 34 10 54c6 18 7 31 20 45zM282 400c7 7 17 8 25 2s7 -26 7 -26
c7.42152 -42.4087 10.9088 -84.8174 10.9088 -126.779c0 -37.1952 -2.74003 -74.0392 -7.90883 -110.221v-1l-8 -54c-6 -41 -56 -198 -76 -236c0 -1 -1 0 -1 -1l-18 -34c-15 -29 -32 -55 -50 -79c0 0 -14 -9 -22 -6c-9 3 -14 10 -14 19
c-0.0864471 1.90184 -0.128056 3.73642 -0.128056 5.51407c0 18.7859 4.64674 31.2149 10.1281 49.4859c6 18 20 44 20 44c40 53 51 80 59 96c15 38 28 79 38 122c5.1688 35.2418 7.90883 72.0293 7.90883 109.429c0 42.192 -3.48731 85.1628 -10.9088 127.571
c0 0 4 35 10 55c6 18 7 30 20 44z" />
    <glyph glyph-name="scripts.caesura.straight" unicode="&#xe16c;" horiz-adv-x="500" 
d="M16 -259c-9 3 -14 10 -14 19c-0.0864471 1.90184 -0.128056 3.72894 -0.128056 5.49295c0 18.6416 4.64674 30.236 10.1281 48.5071c6 18 11 28 20 45c99 194 150 307 257 497c5 9 17 8 25 2s7 -15 7 -26c0 -3.81818 0.0330579 -7.40496 0.0330579 -10.8325
c0 -15.4237 -0.669421 -27.6221 -8.03306 -43.1675c-95 -197 -257 -497 -257 -497s-7 -23 -18 -34c-6 -6 -14 -9 -22 -6zM158 -249c-9 3 -14 10 -14 19c-0.0864471 1.90184 -0.128056 3.72894 -0.128056 5.49295c0 18.6416 4.64674 30.236 10.1281 48.5071c6 18 11 28 20 45
c99 194 150 307 257 497c5 9 17 8 25 2s7 -15 7 -26c0 -3.81818 0.0330579 -7.40496 0.0330579 -10.8325c0 -15.4237 -0.669421 -27.6221 -8.03306 -43.1675c-95 -197 -257 -497 -257 -497s-7 -23 -18 -34c-6 -6 -14 -9 -22 -6z" />
    <glyph glyph-name="scripts.tickmark" unicode="&#xe16d;" horiz-adv-x="275" 
d="M-10 119c20 42 23 51 65 115l16 24c40 60 92 112 109 125l20 16c9 7 18 13 27 19l1 1l22 14c13 8 26 15 39 20l12 -8l-10 -19l-19 -17c-44 -18 -56 -30 -73 -45c-70 -67 -85 -97 -127 -175c-14 -28 -29 -59 -40 -87c-8 -21 -16 -41 -22 -60l-10 -19l-19 -17l-30 -12
l-11 2c1.06457 4.57138 1.56837 9.32706 1.56837 14.2288c0 73.373 -112.885 179.46 -147.568 189.771l16 24l20 16l22 14c10 -3 20 -8 30 -15c1 -1 0 1 1 0l12 -8c37 -25 73 -70 95 -112z" />
    <glyph glyph-name="scripts.snappizzicato" unicode="&#xe16e;" horiz-adv-x="133" 
d="M-33 82c-1 -1 -2 -1 -2 -1c-4 1 -10 0 -13 0c-2 -2 -4 -3 -5 -3c-19 -20 -11 -15 -14 -19c-5.57082 -12.7333 -8.60825 -25.4666 -8.60825 -38.1999c0 -3.2667 0.199913 -6.53339 0.60825 -9.80009c4 -39 24 -74 52 -96
c22.3595 -12.7768 26.7617 -16.1669 35.8897 -16.1669c5.16032 0 11.831 1.08347 24.1103 2.16695c7 1 17 -3 21 4c13 28 17 50 17 77c0 37 -18 64 -37 80c0 -20 -2 -40 -3 -60c0 0 -5 -12 -10 -19c-6 -8 -10 -12 -19 -17c-11 -6 -18 -9 -30 -12c-4 -1 -11 2 -11 2
c1.93725 27.1216 3.04052 54.2431 3.04052 81.3647c0 14.8784 -0.332021 29.7569 -1.04052 44.6353zM-8 219c8 6 12 12 22 14c6 1 12 -8 12 -8c6 -29 9 -59 11 -88l2 1c7.46422 1.49284 11.7249 2.70712 15.537 2.70712c6.40232 0 11.5397 -3.42491 28.463 -14.7071l12 -8
c27 -18 50 -54 50 -90c0 -29 -7 -58 -19 -81l-10 -19c-8 -14 -2 -11 -25 -32l-19 -17c-9 -8 -1 -7 -25 -16l-30 -12c-8 -3 -17 -5 -27 -6c-9 -1 -18 -1 -27 1l-11 2h-1c-42 8 -88 42 -96 117c-0.3763 3.85708 -0.549048 7.53716 -0.549048 11.0461
c0 33.79 16.0194 51.7065 20.549 58.9539l16 24c21 31 18 22 27 29l20 16c3 2 6 5 9 7l17 11c-2 19 -4 38 -8 57c0 0 8 16 16 24c7 7 12 10 20 16z" />
    </font>
</defs>
</svg>
