<?xml version="1.0" encoding="UTF-8"?>
<!DOCTYPE score-partwise PUBLIC "-//Recordare//DTD MusicXML 3.0 Partwise//EN" "http://www.musicxml.org/dtds/partwise.dtd">
<score-partwise>
  <identification>
    <encoding>
      <software>MuseScore 2.0.3</software>
      <encoding-date>2016-09-05</encoding-date>
      <supports element="accidental" type="yes"/>
      <supports element="beam" type="yes"/>
      <supports element="print" attribute="new-page" type="yes" value="yes"/>
      <supports element="print" attribute="new-system" type="yes" value="yes"/>
      <supports element="stem" type="yes"/>
      </encoding>
    <source>http://api.musescore.com/score/2586141</source>
    </identification>
  <defaults>
    <scaling>
      <millimeters>5.2</millimeters>
      <tenths>40</tenths>
      </scaling>
    <page-layout>
      <page-height>2149.23</page-height>
      <page-width>1660.77</page-width>
      <page-margins type="even">
        <left-margin>76.9231</left-margin>
        <right-margin>76.9231</right-margin>
        <top-margin>76.9231</top-margin>
        <bottom-margin>153.846</bottom-margin>
        </page-margins>
      <page-margins type="odd">
        <left-margin>76.9231</left-margin>
        <right-margin>76.9231</right-margin>
        <top-margin>76.9231</top-margin>
        <bottom-margin>153.846</bottom-margin>
        </page-margins>
      </page-layout>
    <word-font font-family="FreeSerif" font-size="10"/>
    <lyric-font font-family="FreeSerif" font-size="12"/>
    </defaults>
  <credit page="1">
    <credit-words default-x="830.385" default-y="2072.31" justify="center" valign="top" font-weight="bold" font-family="Times New Roman" font-size="24">Sing out All Your Praise to God!</credit-words>
    </credit>
  <credit page="1">
    <credit-words default-x="830.385" default-y="2010.38" justify="center" valign="top" font-style="italic" font-family="Times New Roman" font-size="14">“He is risen”</credit-words>
    <credit-words font-style="normal"> Mark 16:6</credit-words>
    </credit>
  <credit page="1">
    <credit-words default-x="76.9231" default-y="891.158" justify="left" valign="bottom" font-size="12">Washed Clean and Forgiven!                           Yirmeya House, BMI
</credit-words>
    <credit-words>William F. Maddock, 2016                            UREEBERN Music, BMI</credit-words>
    </credit>
  <credit page="1">
    <credit-words default-x="1583.85" default-y="891.158" justify="right" valign="bottom" font-size="12">HALLELU LELOHI 9.7.9.7.
</credit-words>
    <credit-words>©2016 William F. Maddock</credit-words>
    </credit>
  <part-list>
    <score-part id="P1">
      <part-name print-object="no">Violins 1</part-name>
      <score-instrument id="P1-I1">
        <instrument-name>Violins 1</instrument-name>
        </score-instrument>
      <midi-device id="P1-I1" port="1"></midi-device>
      <midi-instrument id="P1-I1">
        <midi-channel>1</midi-channel>
        <midi-program>49</midi-program>
        <volume>78.7402</volume>
        <pan>0</pan>
        </midi-instrument>
      </score-part>
    <score-part id="P2">
      <part-name print-object="no">Violoncellos</part-name>
      <score-instrument id="P2-I1">
        <instrument-name>Violoncellos</instrument-name>
        </score-instrument>
      <midi-device id="P2-I1" port="1"></midi-device>
      <midi-instrument id="P2-I1">
        <midi-channel>4</midi-channel>
        <midi-program>49</midi-program>
        <volume>78.7402</volume>
        <pan>0</pan>
        </midi-instrument>
      </score-part>
    </part-list>
  <part id="P1">
    <measure number="1" width="587.30">
      <print>
        <system-layout>
          <system-margins>
            <left-margin>0.00</left-margin>
            <right-margin>0.00</right-margin>
            </system-margins>
          <top-system-distance>180.00</top-system-distance>
          </system-layout>
        </print>
      <attributes>
        <divisions>2</divisions>
        <key>
          <fifths>-3</fifths>
          </key>
        <time>
          <beats>4</beats>
          <beat-type>4</beat-type>
          </time>
        <clef>
          <sign>G</sign>
          <line>2</line>
          </clef>
        </attributes>
      <note default-x="129.06" default-y="-40.00">
        <pitch>
          <step>E</step>
          <alter>-1</alter>
          <octave>4</octave>
          </pitch>
        <duration>1</duration>
        <voice>1</voice>
        <type>eighth</type>
        <stem>up</stem>
        <beam number="1">begin</beam>
        <lyric number="1">
          <syllabic>single</syllabic>
          <text>1. Sing</text>
          </lyric>
        <lyric number="2">
          <syllabic>single</syllabic>
          <text>2. For</text>
          </lyric>
        <lyric number="3">
          <syllabic>single</syllabic>
          <text>3. No</text>
          </lyric>
        <lyric number="4">
          <syllabic>single</syllabic>
          <text>4. For</text>
          </lyric>
        <lyric number="5">
          <syllabic>single</syllabic>
          <text>5. Death</text>
          </lyric>
        <lyric number="6">
          <syllabic>begin</syllabic>
          <text>6. Je</text>
          </lyric>
        </note>
      <note default-x="129.06" default-y="-30.00">
        <chord/>
        <pitch>
          <step>G</step>
          <octave>4</octave>
          </pitch>
        <duration>1</duration>
        <voice>1</voice>
        <type>eighth</type>
        <stem>up</stem>
        </note>
      <note default-x="209.56" default-y="-45.00">
        <pitch>
          <step>D</step>
          <octave>4</octave>
          </pitch>
        <duration>1</duration>
        <voice>1</voice>
        <type>eighth</type>
        <stem>up</stem>
        <beam number="1">continue</beam>
        <lyric number="1">
          <syllabic>single</syllabic>
          <text>out</text>
          </lyric>
        <lyric number="2">
          <syllabic>single</syllabic>
          <text>the</text>
          </lyric>
        <lyric number="3">
          <syllabic>single</syllabic>
          <text>more</text>
          </lyric>
        <lyric number="4">
          <syllabic>single</syllabic>
          <text>your</text>
          </lyric>
        <lyric number="5">
          <syllabic>single</syllabic>
          <text>and</text>
          </lyric>
        <lyric number="6">
          <syllabic>end</syllabic>
          <text>sus</text>
          </lyric>
        </note>
      <note default-x="209.56" default-y="-20.00">
        <chord/>
        <pitch>
          <step>B</step>
          <alter>-1</alter>
          <octave>4</octave>
          </pitch>
        <duration>1</duration>
        <voice>1</voice>
        <type>eighth</type>
        <stem>up</stem>
        </note>
      <note default-x="270.23" default-y="-40.00">
        <pitch>
          <step>E</step>
          <alter>-1</alter>
          <octave>4</octave>
          </pitch>
        <duration>1</duration>
        <voice>1</voice>
        <type>eighth</type>
        <stem>up</stem>
        <beam number="1">continue</beam>
        <lyric number="1">
          <syllabic>single</syllabic>
          <text>all</text>
          </lyric>
        <lyric number="2">
          <syllabic>single</syllabic>
          <text>Son</text>
          </lyric>
        <lyric number="3">
          <syllabic>single</syllabic>
          <text>let</text>
          </lyric>
        <lyric number="4">
          <syllabic>single</syllabic>
          <text>guilt</text>
          </lyric>
        <lyric number="5">
          <syllabic>single</syllabic>
          <text>all</text>
          </lyric>
        <lyric number="6">
          <syllabic>single</syllabic>
          <text>Christ</text>
          </lyric>
        </note>
      <note default-x="270.23" default-y="-20.00">
        <chord/>
        <pitch>
          <step>B</step>
          <alter>-1</alter>
          <octave>4</octave>
          </pitch>
        <duration>1</duration>
        <voice>1</voice>
        <type>eighth</type>
        <stem>up</stem>
        </note>
      <note default-x="330.90" default-y="-40.00">
        <pitch>
          <step>E</step>
          <alter>-1</alter>
          <octave>4</octave>
          </pitch>
        <duration>1</duration>
        <voice>1</voice>
        <type>eighth</type>
        <stem>up</stem>
        <beam number="1">end</beam>
        <lyric number="1">
          <syllabic>single</syllabic>
          <text>your</text>
          </lyric>
        <lyric number="2">
          <syllabic>single</syllabic>
          <text>has</text>
          </lyric>
        <lyric number="3">
          <syllabic>single</syllabic>
          <text>the</text>
          </lyric>
        <lyric number="4">
          <syllabic>single</syllabic>
          <text>is</text>
          </lyric>
        <lyric number="5">
          <syllabic>single</syllabic>
          <text>his</text>
          </lyric>
        <lyric number="6">
          <syllabic>single</syllabic>
          <text>is</text>
          </lyric>
        </note>
      <note default-x="330.90" default-y="-30.00">
        <chord/>
        <pitch>
          <step>G</step>
          <octave>4</octave>
          </pitch>
        <duration>1</duration>
        <voice>1</voice>
        <type>eighth</type>
        <stem>up</stem>
        </note>
      <note default-x="391.56" default-y="-35.00">
        <pitch>
          <step>F</step>
          <octave>4</octave>
          </pitch>
        <duration>2</duration>
        <voice>1</voice>
        <type>quarter</type>
        <stem>up</stem>
        <lyric number="1">
          <syllabic>begin</syllabic>
          <text>prais</text>
          </lyric>
        <lyric number="2">
          <syllabic>begin</syllabic>
          <text>ris</text>
          </lyric>
        <lyric number="3">
          <syllabic>single</syllabic>
          <text>voice</text>
          </lyric>
        <lyric number="4">
          <syllabic>single</syllabic>
          <text>nailed</text>
          </lyric>
        <lyric number="5">
          <syllabic>begin</syllabic>
          <text>min</text>
          </lyric>
        <lyric number="6">
          <syllabic>begin</syllabic>
          <text>ris</text>
          </lyric>
        </note>
      <note default-x="391.56" default-y="-25.00">
        <chord/>
        <pitch>
          <step>A</step>
          <alter>-1</alter>
          <octave>4</octave>
          </pitch>
        <duration>2</duration>
        <voice>1</voice>
        <type>quarter</type>
        <stem>up</stem>
        </note>
      <note default-x="488.63" default-y="-40.00">
        <pitch>
          <step>E</step>
          <alter>-1</alter>
          <octave>4</octave>
          </pitch>
        <duration>2</duration>
        <voice>1</voice>
        <type>quarter</type>
        <stem>up</stem>
        <lyric number="1">
          <syllabic>end</syllabic>
          <text>es</text>
          </lyric>
        <lyric number="2">
          <syllabic>end</syllabic>
          <text>en</text>
          </lyric>
        <lyric number="3">
          <syllabic>single</syllabic>
          <text>of</text>
          </lyric>
        <lyric number="4">
          <syllabic>begin</syllabic>
          <text>un</text>
          </lyric>
        <lyric number="5">
          <syllabic>end</syllabic>
          <text>ions</text>
          </lyric>
        <lyric number="6">
          <syllabic>end</syllabic>
          <text>en!</text>
          </lyric>
        </note>
      <note default-x="488.63" default-y="-30.00">
        <chord/>
        <pitch>
          <step>G</step>
          <octave>4</octave>
          </pitch>
        <duration>2</duration>
        <voice>1</voice>
        <type>quarter</type>
        <stem>up</stem>
        </note>
      </measure>
    <measure number="2" width="277.65">
      <note default-x="25.01" default-y="-45.00">
        <pitch>
          <step>D</step>
          <octave>4</octave>
          </pitch>
        <duration>2</duration>
        <voice>1</voice>
        <type>quarter</type>
        <stem>up</stem>
        <lyric number="1">
          <syllabic>single</syllabic>
          <text>to</text>
          </lyric>
        <lyric number="2">
          <syllabic>single</syllabic>
          <text>on</text>
          </lyric>
        <lyric number="3">
          <syllabic>begin</syllabic>
          <text>vic</text>
          </lyric>
        <lyric number="4">
          <syllabic>end</syllabic>
          <text>to</text>
          </lyric>
        <lyric number="5">
          <syllabic>single</syllabic>
          <text>turn</text>
          </lyric>
        <lyric number="6">
          <syllabic>single</syllabic>
          <text>We</text>
          </lyric>
        </note>
      <note default-x="25.01" default-y="-35.00">
        <chord/>
        <pitch>
          <step>F</step>
          <octave>4</octave>
          </pitch>
        <duration>2</duration>
        <voice>1</voice>
        <type>quarter</type>
        <stem>up</stem>
        </note>
      <note default-x="94.74" default-y="-50.00">
        <pitch>
          <step>C</step>
          <octave>4</octave>
          </pitch>
        <duration>2</duration>
        <voice>1</voice>
        <type>quarter</type>
        <stem>up</stem>
        <lyric number="1">
          <syllabic>single</syllabic>
          <text>the</text>
          </lyric>
        <lyric number="2">
          <syllabic>single</syllabic>
          <text>His</text>
          </lyric>
        <lyric number="3">
          <syllabic>middle</syllabic>
          <text>tor</text>
          </lyric>
        <lyric number="4">
          <syllabic>single</syllabic>
          <text>the</text>
          </lyric>
        <lyric number="5">
          <syllabic>single</syllabic>
          <text>to</text>
          </lyric>
        <lyric number="6">
          <syllabic>single</syllabic>
          <text>are</text>
          </lyric>
        </note>
      <note default-x="94.74" default-y="-30.00">
        <chord/>
        <pitch>
          <step>G</step>
          <octave>4</octave>
          </pitch>
        <duration>2</duration>
        <voice>1</voice>
        <type>quarter</type>
        <stem>up</stem>
        </note>
      <note default-x="164.11" default-y="-50.00">
        <pitch>
          <step>C</step>
          <octave>4</octave>
          </pitch>
        <duration>4</duration>
        <voice>1</voice>
        <type>half</type>
        <stem>up</stem>
        <lyric number="1">
          <syllabic>single</syllabic>
          <text>Lord!</text>
          </lyric>
        <lyric number="2">
          <syllabic>single</syllabic>
          <text>day</text>
          </lyric>
        <lyric number="3">
          <syllabic>end</syllabic>
          <text>y</text>
          </lyric>
        <lyric number="4">
          <syllabic>single</syllabic>
          <text>tree</text>
          </lyric>
        <lyric number="5">
          <syllabic>single</syllabic>
          <text>flee!</text>
          </lyric>
        <lyric number="6">
          <syllabic>single</syllabic>
          <text>free!</text>
          </lyric>
        </note>
      <note default-x="164.11" default-y="-40.00">
        <chord/>
        <pitch>
          <step>E</step>
          <alter>-1</alter>
          <octave>4</octave>
          </pitch>
        <duration>4</duration>
        <voice>1</voice>
        <type>half</type>
        <stem>up</stem>
        </note>
      </measure>
    <measure number="3" width="443.01">
      <note default-x="26.89" default-y="-50.00">
        <pitch>
          <step>C</step>
          <octave>4</octave>
          </pitch>
        <duration>1</duration>
        <voice>1</voice>
        <type>eighth</type>
        <stem>up</stem>
        <beam number="1">begin</beam>
        <lyric number="1">
          <syllabic>single</syllabic>
          <text>Sing</text>
          </lyric>
        <lyric number="2">
          <syllabic>single</syllabic>
          <text>And</text>
          </lyric>
        <lyric number="3">
          <syllabic>single</syllabic>
          <text>Be</text>
          </lyric>
        <lyric number="4">
          <syllabic>single</syllabic>
          <text>And</text>
          </lyric>
        <lyric number="5">
          <syllabic>single</syllabic>
          <text>Sing</text>
          </lyric>
        <lyric number="6">
          <syllabic>single</syllabic>
          <text>Sing</text>
          </lyric>
        </note>
      <note default-x="26.89" default-y="-30.00">
        <chord/>
        <pitch>
          <step>G</step>
          <octave>4</octave>
          </pitch>
        <duration>1</duration>
        <voice>1</voice>
        <type>eighth</type>
        <stem>up</stem>
        </note>
      <note default-x="84.47" default-y="-45.00">
        <pitch>
          <step>D</step>
          <octave>4</octave>
          </pitch>
        <duration>1</duration>
        <voice>1</voice>
        <type>eighth</type>
        <stem>up</stem>
        <beam number="1">continue</beam>
        <lyric number="1">
          <syllabic>single</syllabic>
          <text>out</text>
          </lyric>
        <lyric number="2">
          <syllabic>single</syllabic>
          <text>the</text>
          </lyric>
        <lyric number="3">
          <syllabic>begin</syllabic>
          <text>mut</text>
          </lyric>
        <lyric number="4">
          <syllabic>single</syllabic>
          <text>your</text>
          </lyric>
        <lyric number="5">
          <syllabic>single</syllabic>
          <text>out</text>
          </lyric>
        <lyric number="6">
          <syllabic>single</syllabic>
          <text>out</text>
          </lyric>
        </note>
      <note default-x="84.47" default-y="-20.00">
        <chord/>
        <pitch>
          <step>B</step>
          <alter>-1</alter>
          <octave>4</octave>
          </pitch>
        <duration>1</duration>
        <voice>1</voice>
        <type>eighth</type>
        <stem>up</stem>
        </note>
      <note default-x="142.04" default-y="-40.00">
        <pitch>
          <step>E</step>
          <alter>-1</alter>
          <octave>4</octave>
          </pitch>
        <duration>1</duration>
        <voice>1</voice>
        <type>eighth</type>
        <stem>up</stem>
        <beam number="1">continue</beam>
        <lyric number="1">
          <syllabic>single</syllabic>
          <text>all</text>
          </lyric>
        <lyric number="2">
          <syllabic>single</syllabic>
          <text>night</text>
          </lyric>
        <lyric number="3">
          <syllabic>end</syllabic>
          <text>ed</text>
          </lyric>
        <lyric number="4">
          <syllabic>single</syllabic>
          <text>sin</text>
          </lyric>
        <lyric number="5">
          <syllabic>single</syllabic>
          <text>all</text>
          </lyric>
        <lyric number="6">
          <syllabic>single</syllabic>
          <text>all</text>
          </lyric>
        </note>
      <note default-x="142.04" default-y="-20.00">
        <chord/>
        <pitch>
          <step>B</step>
          <alter>-1</alter>
          <octave>4</octave>
          </pitch>
        <duration>1</duration>
        <voice>1</voice>
        <type>eighth</type>
        <stem>up</stem>
        </note>
      <note default-x="199.61" default-y="-40.00">
        <pitch>
          <step>E</step>
          <alter>-1</alter>
          <octave>4</octave>
          </pitch>
        <duration>1</duration>
        <voice>1</voice>
        <type>eighth</type>
        <stem>up</stem>
        <beam number="1">end</beam>
        <lyric number="1">
          <syllabic>single</syllabic>
          <text>your</text>
          </lyric>
        <lyric number="2">
          <syllabic>single</syllabic>
          <text>is</text>
          </lyric>
        <lyric number="3">
          <syllabic>begin</syllabic>
          <text>with</text>
          </lyric>
        <lyric number="4">
          <syllabic>begin</syllabic>
          <text>un</text>
          </lyric>
        <lyric number="5">
          <syllabic>single</syllabic>
          <text>your</text>
          </lyric>
        <lyric number="6">
          <syllabic>single</syllabic>
          <text>your</text>
          </lyric>
        </note>
      <note default-x="199.61" default-y="-30.00">
        <chord/>
        <pitch>
          <step>G</step>
          <octave>4</octave>
          </pitch>
        <duration>1</duration>
        <voice>1</voice>
        <type>eighth</type>
        <stem>up</stem>
        </note>
      <note default-x="257.18" default-y="-35.00">
        <pitch>
          <step>F</step>
          <octave>4</octave>
          </pitch>
        <duration>2</duration>
        <voice>1</voice>
        <type>quarter</type>
        <stem>up</stem>
        <lyric number="1">
          <syllabic>single</syllabic>
          <text>praise</text>
          </lyric>
        <lyric number="2">
          <syllabic>begin</syllabic>
          <text>driv</text>
          </lyric>
        <lyric number="3">
          <syllabic>end</syllabic>
          <text>in</text>
          </lyric>
        <lyric number="4">
          <syllabic>end</syllabic>
          <text>to</text>
          </lyric>
        <lyric number="5">
          <syllabic>single</syllabic>
          <text>praise</text>
          </lyric>
        <lyric number="6">
          <syllabic>single</syllabic>
          <text>praise</text>
          </lyric>
        </note>
      <note default-x="257.18" default-y="-25.00">
        <chord/>
        <pitch>
          <step>A</step>
          <alter>-1</alter>
          <octave>4</octave>
          </pitch>
        <duration>2</duration>
        <voice>1</voice>
        <type>quarter</type>
        <stem>up</stem>
        </note>
      <note default-x="349.30" default-y="-40.00">
        <pitch>
          <step>E</step>
          <alter>-1</alter>
          <octave>4</octave>
          </pitch>
        <duration>2</duration>
        <voice>1</voice>
        <type>quarter</type>
        <stem>up</stem>
        <lyric number="1">
          <syllabic>single</syllabic>
          <text>to</text>
          </lyric>
        <lyric number="2">
          <syllabic>end</syllabic>
          <text>en</text>
          </lyric>
        <lyric number="3">
          <syllabic>single</syllabic>
          <text>your</text>
          </lyric>
        <lyric number="4">
          <syllabic>single</syllabic>
          <text>the</text>
          </lyric>
        <lyric number="5">
          <syllabic>single</syllabic>
          <text>to</text>
          </lyric>
        <lyric number="6">
          <syllabic>single</syllabic>
          <text>to</text>
          </lyric>
        </note>
      <note default-x="349.30" default-y="-30.00">
        <chord/>
        <pitch>
          <step>G</step>
          <octave>4</octave>
          </pitch>
        <duration>2</duration>
        <voice>1</voice>
        <type>quarter</type>
        <stem>up</stem>
        </note>
      </measure>
    <measure number="4" width="198.96">
      <note default-x="27.98" default-y="-45.00">
        <pitch>
          <step>D</step>
          <octave>4</octave>
          </pitch>
        <duration>8</duration>
        <voice>1</voice>
        <type>whole</type>
        <lyric number="1">
          <syllabic>single</syllabic>
          <text>God!</text>
          </lyric>
        <lyric number="2">
          <syllabic>single</syllabic>
          <text>out!</text>
          </lyric>
        <lyric number="3">
          <syllabic>single</syllabic>
          <text>heart!</text>
          </lyric>
        <lyric number="4">
          <syllabic>single</syllabic>
          <text>cross!</text>
          </lyric>
        <lyric number="5">
          <syllabic>single</syllabic>
          <text>God!</text>
          </lyric>
        <lyric number="6">
          <syllabic>single</syllabic>
          <text>God!</text>
          </lyric>
        </note>
      <note default-x="27.98" default-y="-35.00">
        <chord/>
        <pitch>
          <step>F</step>
          <octave>4</octave>
          </pitch>
        <duration>8</duration>
        <voice>1</voice>
        <type>whole</type>
        </note>
      </measure>
    <measure number="5" width="488.03">
      <print new-system="yes">
        <system-layout>
          <system-margins>
            <left-margin>0.00</left-margin>
            <right-margin>0.00</right-margin>
            </system-margins>
          <system-distance>100.00</system-distance>
          </system-layout>
        </print>
      <note default-x="101.71" default-y="-50.00">
        <pitch>
          <step>C</step>
          <octave>4</octave>
          </pitch>
        <duration>2</duration>
        <voice>1</voice>
        <type>quarter</type>
        <stem>up</stem>
        <lyric number="1">
          <syllabic>single</syllabic>
          <text>Lift</text>
          </lyric>
        <lyric number="2">
          <syllabic>single</syllabic>
          <text>Lift</text>
          </lyric>
        <lyric number="3">
          <syllabic>single</syllabic>
          <text>Lift</text>
          </lyric>
        <lyric number="4">
          <syllabic>single</syllabic>
          <text>No</text>
          </lyric>
        <lyric number="5">
          <syllabic>single</syllabic>
          <text>Lift</text>
          </lyric>
        <lyric number="6">
          <syllabic>single</syllabic>
          <text>Guilt</text>
          </lyric>
        </note>
      <note default-x="101.71" default-y="-15.00">
        <chord/>
        <pitch>
          <step>C</step>
          <octave>5</octave>
          </pitch>
        <duration>2</duration>
        <voice>1</voice>
        <type>quarter</type>
        <stem>up</stem>
        </note>
      <note default-x="191.50" default-y="-45.00">
        <pitch>
          <step>D</step>
          <octave>4</octave>
          </pitch>
        <duration>1</duration>
        <voice>1</voice>
        <type>eighth</type>
        <stem>up</stem>
        <beam number="1">begin</beam>
        <lyric number="1">
          <syllabic>single</syllabic>
          <text>up</text>
          </lyric>
        <lyric number="2">
          <syllabic>begin</syllabic>
          <text>your</text>
          </lyric>
        <lyric number="3">
          <syllabic>begin</syllabic>
          <text>shout</text>
          </lyric>
        <lyric number="4">
          <syllabic>single</syllabic>
          <text>more</text>
          </lyric>
        <lyric number="5">
          <syllabic>single</syllabic>
          <text>up</text>
          </lyric>
        <lyric number="6">
          <syllabic>single</syllabic>
          <text>is</text>
          </lyric>
        </note>
      <note default-x="191.50" default-y="-10.00">
        <chord/>
        <pitch>
          <step>D</step>
          <octave>5</octave>
          </pitch>
        <duration>1</duration>
        <voice>1</voice>
        <type>eighth</type>
        <stem>up</stem>
        </note>
      <note default-x="250.05" default-y="-40.00">
        <pitch>
          <step>E</step>
          <alter>-1</alter>
          <octave>4</octave>
          </pitch>
        <duration>1</duration>
        <voice>1</voice>
        <type>eighth</type>
        <stem>up</stem>
        <beam number="1">end</beam>
        <lyric number="1">
          <syllabic>single</syllabic>
          <text>your</text>
          </lyric>
        <lyric number="2">
          <syllabic>end</syllabic>
          <text>selves</text>
          </lyric>
        <lyric number="3">
          <syllabic>end</syllabic>
          <text>ing</text>
          </lyric>
        <lyric number="4">
          <syllabic>single</syllabic>
          <text>let</text>
          </lyric>
        <lyric number="5">
          <syllabic>single</syllabic>
          <text>your</text>
          </lyric>
        <lyric number="6">
          <syllabic>begin</syllabic>
          <text>for</text>
          </lyric>
        </note>
      <note default-x="250.05" default-y="-5.00">
        <chord/>
        <pitch>
          <step>E</step>
          <alter>-1</alter>
          <octave>5</octave>
          </pitch>
        <duration>1</duration>
        <voice>1</voice>
        <type>eighth</type>
        <stem>up</stem>
        </note>
      <note default-x="306.86" default-y="-35.00">
        <pitch>
          <step>F</step>
          <octave>4</octave>
          </pitch>
        <duration>2</duration>
        <voice>1</voice>
        <type>quarter</type>
        <stem>up</stem>
        <lyric number="1">
          <syllabic>begin</syllabic>
          <text>voic</text>
          </lyric>
        <lyric number="2">
          <syllabic>single</syllabic>
          <text>from</text>
          </lyric>
        <lyric number="3">
          <syllabic>begin</syllabic>
          <text>prais</text>
          </lyric>
        <lyric number="4">
          <syllabic>begin</syllabic>
          <text>de</text>
          </lyric>
        <lyric number="5">
          <syllabic>begin</syllabic>
          <text>voic</text>
          </lyric>
        <lyric number="6">
          <syllabic>middle</syllabic>
          <text>giv</text>
          </lyric>
        </note>
      <note default-x="306.86" default-y="-20.00">
        <chord/>
        <pitch>
          <step>B</step>
          <alter>-1</alter>
          <octave>4</octave>
          </pitch>
        <duration>2</duration>
        <voice>1</voice>
        <type>quarter</type>
        <stem>up</stem>
        </note>
      <note default-x="396.64" default-y="-45.00">
        <pitch>
          <step>D</step>
          <octave>4</octave>
          </pitch>
        <duration>2</duration>
        <voice>1</voice>
        <type>quarter</type>
        <stem>up</stem>
        <lyric number="1">
          <syllabic>end</syllabic>
          <text>es</text>
          </lyric>
        <lyric number="2">
          <syllabic>single</syllabic>
          <text>that</text>
          </lyric>
        <lyric number="3">
          <syllabic>end</syllabic>
          <text>es</text>
          </lyric>
        <lyric number="4">
          <syllabic>end</syllabic>
          <text>mon</text>
          </lyric>
        <lyric number="5">
          <syllabic>end</syllabic>
          <text>es</text>
          </lyric>
        <lyric number="6">
          <syllabic>end</syllabic>
          <text>en,</text>
          </lyric>
        </note>
      <note default-x="396.64" default-y="-30.00">
        <chord/>
        <pitch>
          <step>G</step>
          <octave>4</octave>
          </pitch>
        <duration>2</duration>
        <voice>1</voice>
        <type>quarter</type>
        <stem>up</stem>
        </note>
      </measure>
    <measure number="6" width="412.10">
      <note default-x="36.01" default-y="-40.00">
        <pitch>
          <step>E</step>
          <alter>-1</alter>
          <octave>4</octave>
          </pitch>
        <duration>2</duration>
        <voice>1</voice>
        <type>quarter</type>
        <stem>up</stem>
        <lyric number="1">
          <syllabic>single</syllabic>
          <text>in</text>
          </lyric>
        <lyric number="2">
          <syllabic>single</syllabic>
          <text>slew</text>
          </lyric>
        <lyric number="3">
          <syllabic>begin</syllabic>
          <text>un</text>
          </lyric>
        <lyric number="4">
          <syllabic>single</syllabic>
          <text>chains</text>
          </lyric>
        <lyric number="5">
          <syllabic>single</syllabic>
          <text>in</text>
          </lyric>
        <lyric number="6">
          <syllabic>single</syllabic>
          <text>sin</text>
          </lyric>
        </note>
      <note default-x="36.01" default-y="-25.00">
        <chord/>
        <pitch>
          <step>A</step>
          <alter>-1</alter>
          <octave>4</octave>
          </pitch>
        <duration>2</duration>
        <voice>1</voice>
        <type>quarter</type>
        <stem>up</stem>
        </note>
      <note default-x="136.17" default-y="-35.00">
        <pitch>
          <step>F</step>
          <octave>4</octave>
          </pitch>
        <duration>1</duration>
        <voice>1</voice>
        <type>eighth</type>
        <stem>up</stem>
        <beam number="1">begin</beam>
        <lyric number="1">
          <syllabic>begin</syllabic>
          <text>joy</text>
          </lyric>
        <lyric number="2">
          <syllabic>single</syllabic>
          <text>of</text>
          </lyric>
        <lyric number="3">
          <syllabic>end</syllabic>
          <text>to</text>
          </lyric>
        <lyric number="4">
          <syllabic>begin</syllabic>
          <text>cum</text>
          </lyric>
        <lyric number="5">
          <syllabic>begin</syllabic>
          <text>vic</text>
          </lyric>
        <lyric number="6">
          <syllabic>single</syllabic>
          <text>is</text>
          </lyric>
        </note>
      <note default-x="136.17" default-y="-20.00">
        <chord/>
        <pitch>
          <step>B</step>
          <alter>-1</alter>
          <octave>4</octave>
          </pitch>
        <duration>1</duration>
        <voice>1</voice>
        <type>eighth</type>
        <stem>up</stem>
        </note>
      <note default-x="198.77" default-y="-30.00">
        <pitch>
          <step>G</step>
          <octave>4</octave>
          </pitch>
        <duration>1</duration>
        <voice>1</voice>
        <type>eighth</type>
        <stem>up</stem>
        <beam number="1">end</beam>
        <lyric number="1">
          <syllabic>end</syllabic>
          <text>ous</text>
          </lyric>
        <lyric number="2">
          <syllabic>begin</syllabic>
          <text>des</text>
          </lyric>
        <lyric number="3">
          <syllabic>single</syllabic>
          <text>the</text>
          </lyric>
        <lyric number="4">
          <syllabic>end</syllabic>
          <text>ber</text>
          </lyric>
        <lyric number="5">
          <syllabic>middle</syllabic>
          <text>tor</text>
          </lyric>
        <lyric number="6">
          <syllabic>single</syllabic>
          <text>washed</text>
          </lyric>
        </note>
      <note default-x="198.77" default-y="-15.00">
        <chord/>
        <pitch>
          <step>C</step>
          <octave>5</octave>
          </pitch>
        <duration>1</duration>
        <voice>1</voice>
        <type>eighth</type>
        <stem>up</stem>
        </note>
      <note default-x="272.42" default-y="-50.00">
        <pitch>
          <step>C</step>
          <octave>4</octave>
          </pitch>
        <duration>4</duration>
        <voice>1</voice>
        <type>half</type>
        <stem>up</stem>
        <lyric number="1">
          <syllabic>single</syllabic>
          <text>psalms!</text>
          </lyric>
        <lyric number="2">
          <syllabic>end</syllabic>
          <text>pond!</text>
          </lyric>
        <lyric number="3">
          <syllabic>single</syllabic>
          <text>King!</text>
          </lyric>
        <lyric number="4">
          <syllabic>single</syllabic>
          <text>thee;</text>
          </lyric>
        <lyric number="5">
          <syllabic>end</syllabic>
          <text>y!</text>
          </lyric>
        <lyric number="6">
          <syllabic>single</syllabic>
          <text>clean!</text>
          </lyric>
        </note>
      <note default-x="272.42" default-y="-35.00">
        <chord/>
        <pitch>
          <step>F</step>
          <octave>4</octave>
          </pitch>
        <duration>4</duration>
        <voice>1</voice>
        <type>half</type>
        <stem>up</stem>
        </note>
      </measure>
    <measure number="7" width="392.11">
      <note default-x="26.89" default-y="-60.00">
        <pitch>
          <step>A</step>
          <alter>-1</alter>
          <octave>3</octave>
          </pitch>
        <duration>1</duration>
        <voice>1</voice>
        <type>eighth</type>
        <stem>up</stem>
        <beam number="1">begin</beam>
        <lyric number="1">
          <syllabic>single</syllabic>
          <text>Sing</text>
          </lyric>
        <lyric number="2">
          <syllabic>single</syllabic>
          <text>Sing</text>
          </lyric>
        <lyric number="3">
          <syllabic>single</syllabic>
          <text>Sing</text>
          </lyric>
        <lyric number="4">
          <syllabic>single</syllabic>
          <text>Sing</text>
          </lyric>
        <lyric number="5">
          <syllabic>single</syllabic>
          <text>Sing</text>
          </lyric>
        <lyric number="6">
          <syllabic>single</syllabic>
          <text>Sing</text>
          </lyric>
        </note>
      <note default-x="26.89" default-y="-35.00">
        <chord/>
        <pitch>
          <step>F</step>
          <octave>4</octave>
          </pitch>
        <duration>1</duration>
        <voice>1</voice>
        <type>eighth</type>
        <stem>up</stem>
        </note>
      <note default-x="76.71" default-y="-55.00">
        <pitch>
          <step>B</step>
          <alter>-1</alter>
          <octave>3</octave>
          </pitch>
        <duration>1</duration>
        <voice>1</voice>
        <type>eighth</type>
        <stem>up</stem>
        <beam number="1">continue</beam>
        <lyric number="1">
          <syllabic>single</syllabic>
          <text>out</text>
          </lyric>
        <lyric number="2">
          <syllabic>single</syllabic>
          <text>out</text>
          </lyric>
        <lyric number="3">
          <syllabic>single</syllabic>
          <text>out</text>
          </lyric>
        <lyric number="4">
          <syllabic>single</syllabic>
          <text>out</text>
          </lyric>
        <lyric number="5">
          <syllabic>single</syllabic>
          <text>out</text>
          </lyric>
        <lyric number="6">
          <syllabic>single</syllabic>
          <text>out</text>
          </lyric>
        </note>
      <note default-x="76.71" default-y="-25.00">
        <chord/>
        <pitch>
          <step>A</step>
          <alter>-1</alter>
          <octave>4</octave>
          </pitch>
        <duration>1</duration>
        <voice>1</voice>
        <type>eighth</type>
        <stem>up</stem>
        </note>
      <note default-x="126.52" default-y="-50.00">
        <pitch>
          <step>C</step>
          <octave>4</octave>
          </pitch>
        <duration>1</duration>
        <voice>1</voice>
        <type>eighth</type>
        <stem>up</stem>
        <beam number="1">continue</beam>
        <lyric number="1">
          <syllabic>single</syllabic>
          <text>all</text>
          </lyric>
        <lyric number="2">
          <syllabic>single</syllabic>
          <text>all</text>
          </lyric>
        <lyric number="3">
          <syllabic>single</syllabic>
          <text>all</text>
          </lyric>
        <lyric number="4">
          <syllabic>single</syllabic>
          <text>all</text>
          </lyric>
        <lyric number="5">
          <syllabic>single</syllabic>
          <text>all</text>
          </lyric>
        <lyric number="6">
          <syllabic>single</syllabic>
          <text>all</text>
          </lyric>
        </note>
      <note default-x="126.52" default-y="-30.00">
        <chord/>
        <pitch>
          <step>G</step>
          <octave>4</octave>
          </pitch>
        <duration>1</duration>
        <voice>1</voice>
        <type>eighth</type>
        <stem>up</stem>
        </note>
      <note default-x="176.33" default-y="-45.00">
        <pitch>
          <step>D</step>
          <octave>4</octave>
          </pitch>
        <duration>1</duration>
        <voice>1</voice>
        <type>eighth</type>
        <stem>up</stem>
        <beam number="1">end</beam>
        <lyric number="1">
          <syllabic>single</syllabic>
          <text>your</text>
          </lyric>
        <lyric number="2">
          <syllabic>single</syllabic>
          <text>your</text>
          </lyric>
        <lyric number="3">
          <syllabic>single</syllabic>
          <text>your</text>
          </lyric>
        <lyric number="4">
          <syllabic>single</syllabic>
          <text>your</text>
          </lyric>
        <lyric number="5">
          <syllabic>single</syllabic>
          <text>your</text>
          </lyric>
        <lyric number="6">
          <syllabic>single</syllabic>
          <text>your</text>
          </lyric>
        </note>
      <note default-x="176.33" default-y="-35.00">
        <chord/>
        <pitch>
          <step>F</step>
          <octave>4</octave>
          </pitch>
        <duration>1</duration>
        <voice>1</voice>
        <type>eighth</type>
        <stem>up</stem>
        </note>
      <note default-x="231.11" default-y="-40.00">
        <pitch>
          <step>E</step>
          <alter>-1</alter>
          <octave>4</octave>
          </pitch>
        <duration>2</duration>
        <voice>1</voice>
        <type>quarter</type>
        <stem>up</stem>
        <lyric number="1">
          <syllabic>single</syllabic>
          <text>praise</text>
          </lyric>
        <lyric number="2">
          <syllabic>single</syllabic>
          <text>praise</text>
          </lyric>
        <lyric number="3">
          <syllabic>single</syllabic>
          <text>praise</text>
          </lyric>
        <lyric number="4">
          <syllabic>single</syllabic>
          <text>praise</text>
          </lyric>
        <lyric number="5">
          <syllabic>single</syllabic>
          <text>praise</text>
          </lyric>
        <lyric number="6">
          <syllabic>single</syllabic>
          <text>praise</text>
          </lyric>
        </note>
      <note default-x="231.11" default-y="-30.00">
        <chord/>
        <pitch>
          <step>G</step>
          <octave>4</octave>
          </pitch>
        <duration>2</duration>
        <voice>1</voice>
        <type>quarter</type>
        <stem>up</stem>
        </note>
      <note default-x="310.81" default-y="-45.00">
        <pitch>
          <step>D</step>
          <octave>4</octave>
          </pitch>
        <duration>2</duration>
        <voice>1</voice>
        <type>quarter</type>
        <stem>up</stem>
        <lyric number="1">
          <syllabic>single</syllabic>
          <text>to</text>
          </lyric>
        <lyric number="2">
          <syllabic>single</syllabic>
          <text>to</text>
          </lyric>
        <lyric number="3">
          <syllabic>single</syllabic>
          <text>to</text>
          </lyric>
        <lyric number="4">
          <syllabic>single</syllabic>
          <text>to</text>
          </lyric>
        <lyric number="5">
          <syllabic>single</syllabic>
          <text>to</text>
          </lyric>
        <lyric number="6">
          <syllabic>single</syllabic>
          <text>to</text>
          </lyric>
        </note>
      <note default-x="310.81" default-y="-35.00">
        <chord/>
        <pitch>
          <step>F</step>
          <octave>4</octave>
          </pitch>
        <duration>2</duration>
        <voice>1</voice>
        <type>quarter</type>
        <stem>up</stem>
        </note>
      </measure>
    <measure number="8" width="214.68">
      <note default-x="24.32" default-y="-40.00">
        <pitch>
          <step>E</step>
          <alter>-1</alter>
          <octave>4</octave>
          </pitch>
        <duration>8</duration>
        <voice>1</voice>
        <type>whole</type>
        <lyric number="1">
          <syllabic>single</syllabic>
          <text>God!</text>
          </lyric>
        <lyric number="2">
          <syllabic>single</syllabic>
          <text>God!</text>
          </lyric>
        <lyric number="3">
          <syllabic>single</syllabic>
          <text>God!</text>
          </lyric>
        <lyric number="4">
          <syllabic>single</syllabic>
          <text>God!</text>
          </lyric>
        <lyric number="5">
          <syllabic>single</syllabic>
          <text>God!</text>
          </lyric>
        <lyric number="6">
          <syllabic>single</syllabic>
          <text>God!</text>
          </lyric>
        </note>
      <backup>
        <duration>8</duration>
        </backup>
      <note default-x="47.12" default-y="-40.00">
        <pitch>
          <step>E</step>
          <alter>-1</alter>
          <octave>4</octave>
          </pitch>
        <duration>8</duration>
        <voice>2</voice>
        <type>whole</type>
        </note>
      <barline location="right">
        <bar-style>light-heavy</bar-style>
        </barline>
      </measure>
    </part>
  <part id="P2">
    <measure number="1" width="587.30">
      <print>
        <staff-layout number="1">
          <staff-distance>231.28</staff-distance>
          </staff-layout>
        </print>
      <attributes>
        <divisions>2</divisions>
        <key>
          <fifths>-3</fifths>
          </key>
        <time>
          <beats>4</beats>
          <beat-type>4</beat-type>
          </time>
        <clef>
          <sign>F</sign>
          <line>4</line>
          </clef>
        </attributes>
      <note default-x="129.06" default-y="-296.28">
        <pitch>
          <step>C</step>
          <octave>3</octave>
          </pitch>
        <duration>1</duration>
        <voice>1</voice>
        <type>eighth</type>
        <stem>down</stem>
        <beam number="1">begin</beam>
        </note>
      <note default-x="129.06" default-y="-276.28">
        <chord/>
        <pitch>
          <step>G</step>
          <octave>3</octave>
          </pitch>
        <duration>1</duration>
        <voice>1</voice>
        <type>eighth</type>
        <stem>down</stem>
        </note>
      <note default-x="209.56" default-y="-301.28">
        <pitch>
          <step>B</step>
          <alter>-1</alter>
          <octave>2</octave>
          </pitch>
        <duration>1</duration>
        <voice>1</voice>
        <type>eighth</type>
        <stem>down</stem>
        <beam number="1">continue</beam>
        </note>
      <note default-x="209.56" default-y="-276.28">
        <chord/>
        <pitch>
          <step>G</step>
          <octave>3</octave>
          </pitch>
        <duration>1</duration>
        <voice>1</voice>
        <type>eighth</type>
        <stem>down</stem>
        </note>
      <note default-x="270.23" default-y="-296.28">
        <pitch>
          <step>C</step>
          <octave>3</octave>
          </pitch>
        <duration>1</duration>
        <voice>1</voice>
        <type>eighth</type>
        <stem>down</stem>
        <beam number="1">continue</beam>
        </note>
      <note default-x="270.23" default-y="-276.28">
        <chord/>
        <pitch>
          <step>G</step>
          <octave>3</octave>
          </pitch>
        <duration>1</duration>
        <voice>1</voice>
        <type>eighth</type>
        <stem>down</stem>
        </note>
      <note default-x="330.90" default-y="-296.28">
        <pitch>
          <step>C</step>
          <octave>3</octave>
          </pitch>
        <duration>1</duration>
        <voice>1</voice>
        <type>eighth</type>
        <stem>down</stem>
        <beam number="1">end</beam>
        </note>
      <note default-x="330.90" default-y="-276.28">
        <chord/>
        <pitch>
          <step>G</step>
          <octave>3</octave>
          </pitch>
        <duration>1</duration>
        <voice>1</voice>
        <type>eighth</type>
        <stem>down</stem>
        </note>
      <note default-x="391.56" default-y="-291.28">
        <pitch>
          <step>D</step>
          <octave>3</octave>
          </pitch>
        <duration>2</duration>
        <voice>1</voice>
        <type>quarter</type>
        <stem>down</stem>
        </note>
      <note default-x="391.56" default-y="-271.28">
        <chord/>
        <pitch>
          <step>A</step>
          <alter>-1</alter>
          <octave>3</octave>
          </pitch>
        <duration>2</duration>
        <voice>1</voice>
        <type>quarter</type>
        <stem>down</stem>
        </note>
      <note default-x="488.63" default-y="-286.28">
        <pitch>
          <step>E</step>
          <alter>-1</alter>
          <octave>3</octave>
          </pitch>
        <duration>2</duration>
        <voice>1</voice>
        <type>quarter</type>
        <stem>down</stem>
        </note>
      <note default-x="488.63" default-y="-266.28">
        <chord/>
        <pitch>
          <step>B</step>
          <alter>-1</alter>
          <octave>3</octave>
          </pitch>
        <duration>2</duration>
        <voice>1</voice>
        <type>quarter</type>
        <stem>down</stem>
        </note>
      </measure>
    <measure number="2" width="277.65">
      <note default-x="25.01" default-y="-291.28">
        <pitch>
          <step>D</step>
          <octave>3</octave>
          </pitch>
        <duration>2</duration>
        <voice>1</voice>
        <type>quarter</type>
        <stem>down</stem>
        </note>
      <note default-x="25.01" default-y="-271.28">
        <chord/>
        <pitch>
          <step>A</step>
          <alter>-1</alter>
          <octave>3</octave>
          </pitch>
        <duration>2</duration>
        <voice>1</voice>
        <type>quarter</type>
        <stem>down</stem>
        </note>
      <note default-x="94.74" default-y="-286.28">
        <pitch>
          <step>E</step>
          <alter>-1</alter>
          <octave>3</octave>
          </pitch>
        <duration>2</duration>
        <voice>1</voice>
        <type>quarter</type>
        <stem>down</stem>
        </note>
      <note default-x="94.74" default-y="-276.28">
        <chord/>
        <pitch>
          <step>G</step>
          <octave>3</octave>
          </pitch>
        <duration>2</duration>
        <voice>1</voice>
        <type>quarter</type>
        <stem>down</stem>
        </note>
      <note default-x="164.11" default-y="-286.28">
        <pitch>
          <step>E</step>
          <alter>-1</alter>
          <octave>3</octave>
          </pitch>
        <duration>4</duration>
        <voice>1</voice>
        <type>half</type>
        <stem>down</stem>
        </note>
      <note default-x="164.11" default-y="-271.28">
        <chord/>
        <pitch>
          <step>A</step>
          <alter>-1</alter>
          <octave>3</octave>
          </pitch>
        <duration>4</duration>
        <voice>1</voice>
        <type>half</type>
        <stem>down</stem>
        </note>
      </measure>
    <measure number="3" width="443.01">
      <note default-x="26.89" default-y="-286.28">
        <pitch>
          <step>E</step>
          <alter>-1</alter>
          <octave>3</octave>
          </pitch>
        <duration>1</duration>
        <voice>1</voice>
        <type>eighth</type>
        <stem>down</stem>
        <beam number="1">begin</beam>
        </note>
      <note default-x="26.89" default-y="-276.28">
        <chord/>
        <pitch>
          <step>G</step>
          <octave>3</octave>
          </pitch>
        <duration>1</duration>
        <voice>1</voice>
        <type>eighth</type>
        <stem>down</stem>
        </note>
      <note default-x="84.47" default-y="-281.28">
        <pitch>
          <step>F</step>
          <octave>3</octave>
          </pitch>
        <duration>1</duration>
        <voice>1</voice>
        <type>eighth</type>
        <stem>down</stem>
        <beam number="1">continue</beam>
        </note>
      <note default-x="84.47" default-y="-266.28">
        <chord/>
        <pitch>
          <step>B</step>
          <alter>-1</alter>
          <octave>3</octave>
          </pitch>
        <duration>1</duration>
        <voice>1</voice>
        <type>eighth</type>
        <stem>down</stem>
        </note>
      <note default-x="142.04" default-y="-276.28">
        <pitch>
          <step>G</step>
          <octave>3</octave>
          </pitch>
        <duration>1</duration>
        <voice>1</voice>
        <type>eighth</type>
        <stem>down</stem>
        <beam number="1">continue</beam>
        </note>
      <note default-x="142.04" default-y="-266.28">
        <chord/>
        <pitch>
          <step>B</step>
          <alter>-1</alter>
          <octave>3</octave>
          </pitch>
        <duration>1</duration>
        <voice>1</voice>
        <type>eighth</type>
        <stem>down</stem>
        </note>
      <note default-x="199.61" default-y="-276.28">
        <pitch>
          <step>G</step>
          <octave>3</octave>
          </pitch>
        <duration>1</duration>
        <voice>1</voice>
        <type>eighth</type>
        <stem>down</stem>
        <beam number="1">end</beam>
        </note>
      <note default-x="199.61" default-y="-261.28">
        <chord/>
        <pitch>
          <step>C</step>
          <octave>4</octave>
          </pitch>
        <duration>1</duration>
        <voice>1</voice>
        <type>eighth</type>
        <stem>down</stem>
        </note>
      <note default-x="257.18" default-y="-271.28">
        <pitch>
          <step>A</step>
          <alter>-1</alter>
          <octave>3</octave>
          </pitch>
        <duration>2</duration>
        <voice>1</voice>
        <type>quarter</type>
        <stem>down</stem>
        </note>
      <note default-x="257.18" default-y="-256.28">
        <chord/>
        <pitch>
          <step>D</step>
          <octave>4</octave>
          </pitch>
        <duration>2</duration>
        <voice>1</voice>
        <type>quarter</type>
        <stem>down</stem>
        </note>
      <note default-x="349.30" default-y="-276.28">
        <pitch>
          <step>G</step>
          <octave>3</octave>
          </pitch>
        <duration>2</duration>
        <voice>1</voice>
        <type>quarter</type>
        <stem>down</stem>
        </note>
      <note default-x="349.30" default-y="-261.28">
        <chord/>
        <pitch>
          <step>C</step>
          <octave>4</octave>
          </pitch>
        <duration>2</duration>
        <voice>1</voice>
        <type>quarter</type>
        <stem>down</stem>
        </note>
      </measure>
    <measure number="4" width="198.96">
      <note default-x="27.98" default-y="-281.28">
        <pitch>
          <step>F</step>
          <octave>3</octave>
          </pitch>
        <duration>8</duration>
        <voice>1</voice>
        <type>whole</type>
        </note>
      <note default-x="27.98" default-y="-266.28">
        <chord/>
        <pitch>
          <step>B</step>
          <alter>-1</alter>
          <octave>3</octave>
          </pitch>
        <duration>8</duration>
        <voice>1</voice>
        <type>whole</type>
        </note>
      </measure>
    <measure number="5" width="488.03">
      <print new-system="yes">
        <staff-layout number="1">
          <staff-distance>231.28</staff-distance>
          </staff-layout>
        </print>
      <note default-x="101.71" default-y="-306.28">
        <pitch>
          <step>A</step>
          <alter>-1</alter>
          <octave>2</octave>
          </pitch>
        <duration>2</duration>
        <voice>1</voice>
        <type>quarter</type>
        <stem>down</stem>
        </note>
      <note default-x="101.71" default-y="-281.28">
        <chord/>
        <pitch>
          <step>F</step>
          <octave>3</octave>
          </pitch>
        <duration>2</duration>
        <voice>1</voice>
        <type>quarter</type>
        <stem>down</stem>
        </note>
      <note default-x="191.50" default-y="-306.28">
        <pitch>
          <step>A</step>
          <alter>-1</alter>
          <octave>2</octave>
          </pitch>
        <duration>1</duration>
        <voice>1</voice>
        <type>eighth</type>
        <stem>down</stem>
        <beam number="1">begin</beam>
        </note>
      <note default-x="191.50" default-y="-281.28">
        <chord/>
        <pitch>
          <step>F</step>
          <octave>3</octave>
          </pitch>
        <duration>1</duration>
        <voice>1</voice>
        <type>eighth</type>
        <stem>down</stem>
        </note>
      <note default-x="250.05" default-y="-301.28">
        <pitch>
          <step>B</step>
          <alter>-1</alter>
          <octave>2</octave>
          </pitch>
        <duration>1</duration>
        <voice>1</voice>
        <type>eighth</type>
        <stem>down</stem>
        <beam number="1">end</beam>
        </note>
      <note default-x="250.05" default-y="-276.28">
        <chord/>
        <pitch>
          <step>G</step>
          <octave>3</octave>
          </pitch>
        <duration>1</duration>
        <voice>1</voice>
        <type>eighth</type>
        <stem>down</stem>
        </note>
      <note default-x="306.86" default-y="-291.28">
        <pitch>
          <step>D</step>
          <octave>3</octave>
          </pitch>
        <duration>2</duration>
        <voice>1</voice>
        <type>quarter</type>
        <stem>down</stem>
        </note>
      <note default-x="306.86" default-y="-266.28">
        <chord/>
        <pitch>
          <step>B</step>
          <alter>-1</alter>
          <octave>3</octave>
          </pitch>
        <duration>2</duration>
        <voice>1</voice>
        <type>quarter</type>
        <stem>down</stem>
        </note>
      <note default-x="396.64" default-y="-276.28">
        <pitch>
          <step>G</step>
          <octave>3</octave>
          </pitch>
        <duration>2</duration>
        <voice>1</voice>
        <type>quarter</type>
        <stem>down</stem>
        </note>
      <note default-x="396.64" default-y="-266.28">
        <chord/>
        <pitch>
          <step>B</step>
          <alter>-1</alter>
          <octave>3</octave>
          </pitch>
        <duration>2</duration>
        <voice>1</voice>
        <type>quarter</type>
        <stem>down</stem>
        </note>
      </measure>
    <measure number="6" width="412.10">
      <note default-x="36.01" default-y="-271.28">
        <pitch>
          <step>A</step>
          <alter>-1</alter>
          <octave>3</octave>
          </pitch>
        <duration>2</duration>
        <voice>1</voice>
        <type>quarter</type>
        <stem>down</stem>
        </note>
      <note default-x="36.01" default-y="-261.28">
        <chord/>
        <pitch>
          <step>C</step>
          <octave>4</octave>
          </pitch>
        <duration>2</duration>
        <voice>1</voice>
        <type>quarter</type>
        <stem>down</stem>
        </note>
      <note default-x="136.17" default-y="-291.28">
        <pitch>
          <step>D</step>
          <octave>3</octave>
          </pitch>
        <duration>1</duration>
        <voice>1</voice>
        <type>eighth</type>
        <stem>down</stem>
        <beam number="1">begin</beam>
        </note>
      <note default-x="136.17" default-y="-266.28">
        <chord/>
        <pitch>
          <step>B</step>
          <alter>-1</alter>
          <octave>3</octave>
          </pitch>
        <duration>1</duration>
        <voice>1</voice>
        <type>eighth</type>
        <stem>down</stem>
        </note>
      <note default-x="198.77" default-y="-286.28">
        <pitch>
          <step>E</step>
          <alter>-1</alter>
          <octave>3</octave>
          </pitch>
        <duration>1</duration>
        <voice>1</voice>
        <type>eighth</type>
        <stem>down</stem>
        <beam number="1">end</beam>
        </note>
      <note default-x="198.77" default-y="-261.28">
        <chord/>
        <pitch>
          <step>C</step>
          <octave>4</octave>
          </pitch>
        <duration>1</duration>
        <voice>1</voice>
        <type>eighth</type>
        <stem>down</stem>
        </note>
      <note default-x="272.42" default-y="-281.28">
        <pitch>
          <step>F</step>
          <octave>3</octave>
          </pitch>
        <duration>4</duration>
        <voice>1</voice>
        <type>half</type>
        <stem>down</stem>
        </note>
      <note default-x="272.42" default-y="-271.28">
        <chord/>
        <pitch>
          <step>A</step>
          <alter>-1</alter>
          <octave>3</octave>
          </pitch>
        <duration>4</duration>
        <voice>1</voice>
        <type>half</type>
        <stem>down</stem>
        </note>
      </measure>
    <measure number="7" width="392.11">
      <note default-x="26.89" default-y="-296.28">
        <pitch>
          <step>C</step>
          <octave>3</octave>
          </pitch>
        <duration>1</duration>
        <voice>1</voice>
        <type>eighth</type>
        <stem>down</stem>
        <beam number="1">begin</beam>
        </note>
      <note default-x="26.89" default-y="-281.28">
        <chord/>
        <pitch>
          <step>F</step>
          <octave>3</octave>
          </pitch>
        <duration>1</duration>
        <voice>1</voice>
        <type>eighth</type>
        <stem>down</stem>
        </note>
      <note default-x="76.71" default-y="-291.28">
        <pitch>
          <step>D</step>
          <octave>3</octave>
          </pitch>
        <duration>1</duration>
        <voice>1</voice>
        <type>eighth</type>
        <stem>down</stem>
        <beam number="1">continue</beam>
        </note>
      <note default-x="76.71" default-y="-281.28">
        <chord/>
        <pitch>
          <step>F</step>
          <octave>3</octave>
          </pitch>
        <duration>1</duration>
        <voice>1</voice>
        <type>eighth</type>
        <stem>down</stem>
        </note>
      <note default-x="126.52" default-y="-286.28">
        <pitch>
          <step>E</step>
          <alter>-1</alter>
          <octave>3</octave>
          </pitch>
        <duration>1</duration>
        <voice>1</voice>
        <type>eighth</type>
        <stem>down</stem>
        <beam number="1">continue</beam>
        </note>
      <note default-x="126.52" default-y="-276.28">
        <chord/>
        <pitch>
          <step>G</step>
          <octave>3</octave>
          </pitch>
        <duration>1</duration>
        <voice>1</voice>
        <type>eighth</type>
        <stem>down</stem>
        </note>
      <note default-x="176.33" default-y="-281.28">
        <pitch>
          <step>F</step>
          <octave>3</octave>
          </pitch>
        <duration>1</duration>
        <voice>1</voice>
        <type>eighth</type>
        <stem>down</stem>
        <beam number="1">end</beam>
        </note>
      <note default-x="176.33" default-y="-271.28">
        <chord/>
        <pitch>
          <step>A</step>
          <alter>-1</alter>
          <octave>3</octave>
          </pitch>
        <duration>1</duration>
        <voice>1</voice>
        <type>eighth</type>
        <stem>down</stem>
        </note>
      <note default-x="231.11" default-y="-276.28">
        <pitch>
          <step>G</step>
          <octave>3</octave>
          </pitch>
        <duration>2</duration>
        <voice>1</voice>
        <type>quarter</type>
        <stem>down</stem>
        </note>
      <note default-x="231.11" default-y="-266.28">
        <chord/>
        <pitch>
          <step>B</step>
          <alter>-1</alter>
          <octave>3</octave>
          </pitch>
        <duration>2</duration>
        <voice>1</voice>
        <type>quarter</type>
        <stem>down</stem>
        </note>
      <note default-x="310.81" default-y="-281.28">
        <pitch>
          <step>F</step>
          <octave>3</octave>
          </pitch>
        <duration>2</duration>
        <voice>1</voice>
        <type>quarter</type>
        <stem>down</stem>
        </note>
      <note default-x="310.81" default-y="-266.28">
        <chord/>
        <pitch>
          <step>B</step>
          <alter>-1</alter>
          <octave>3</octave>
          </pitch>
        <duration>2</duration>
        <voice>1</voice>
        <type>quarter</type>
        <stem>down</stem>
        </note>
      </measure>
    <measure number="8" width="214.68">
      <note default-x="24.32" default-y="-276.28">
        <pitch>
          <step>G</step>
          <octave>3</octave>
          </pitch>
        <duration>8</duration>
        <voice>1</voice>
        <type>whole</type>
        </note>
      <note default-x="24.32" default-y="-266.28">
        <chord/>
        <pitch>
          <step>B</step>
          <alter>-1</alter>
          <octave>3</octave>
          </pitch>
        <duration>8</duration>
        <voice>1</voice>
        <type>whole</type>
        </note>
      <barline location="right">
        <bar-style>light-heavy</bar-style>
        </barline>
      </measure>
    </part>
  </score-partwise>
