<?xml version="1.0" encoding="UTF-8"?>
<!DOCTYPE score-partwise PUBLIC "-//Recordare//DTD MusicXML 3.0 Partwise//EN" "http://www.musicxml.org/dtds/partwise.dtd">
<score-partwise>
  <work>
    <work-title>Mr Bojangles</work-title>
    </work>
  <identification>
    <creator type="composer">Jerry Jeff Walker</creator>
    <creator type="lyricist">Jerry Jeff Walker</creator>
    <rights>1968</rights>
    <encoding>
      <software>MuseScore 2.0.3.1</software>
      <encoding-date>2017-05-01</encoding-date>
      <supports element="accidental" type="yes"/>
      <supports element="beam" type="yes"/>
      <supports element="print" attribute="new-page" type="yes" value="yes"/>
      <supports element="print" attribute="new-system" type="yes" value="yes"/>
      <supports element="stem" type="yes"/>
      </encoding>
    </identification>
  <defaults>
    <scaling>
      <millimeters>7.05556</millimeters>
      <tenths>40</tenths>
      </scaling>
    <page-layout>
      <page-height>1683.36</page-height>
      <page-width>1190.88</page-width>
      <page-margins type="even">
        <left-margin>56.6929</left-margin>
        <right-margin>57.0217</right-margin>
        <top-margin>56.6929</top-margin>
        <bottom-margin>113.386</bottom-margin>
        </page-margins>
      <page-margins type="odd">
        <left-margin>56.6929</left-margin>
        <right-margin>57.0217</right-margin>
        <top-margin>56.6929</top-margin>
        <bottom-margin>113.386</bottom-margin>
        </page-margins>
      </page-layout>
    <word-font font-family="FreeSerif" font-size="10"/>
    <lyric-font font-family="FreeSerif" font-size="11"/>
    </defaults>
  <credit page="1">
    <credit-words default-x="595.44" default-y="1626.67" justify="center" valign="top" font-size="24">Mr Bojangles</credit-words>
    </credit>
  <credit page="1">
    <credit-words default-x="1133.86" default-y="1526.67" justify="right" valign="bottom" font-size="12">Jerry Jeff Walker</credit-words>
    </credit>
  <credit page="1">
    <credit-words default-x="56.6929" default-y="1526.67" justify="left" valign="bottom" font-size="12">Jerry Jeff Walker</credit-words>
    </credit>
  <credit page="1">
    <credit-words default-x="595.44" default-y="113.386" justify="center" valign="bottom" font-size="8">1968</credit-words>
    </credit>
  <part-list>
    <score-part id="P1">
      <part-name>Piano</part-name>
      <part-abbreviation>Pno.</part-abbreviation>
      <score-instrument id="P1-I1">
        <instrument-name>Piano</instrument-name>
        </score-instrument>
      <midi-device id="P1-I1" port="1"></midi-device>
      <midi-instrument id="P1-I1">
        <midi-channel>1</midi-channel>
        <midi-program>1</midi-program>
        <volume>78.7402</volume>
        <pan>0</pan>
        </midi-instrument>
      </score-part>
    </part-list>
  <part id="P1">
    <measure number="0" implicit="yes" width="142.91">
      <print>
        <system-layout>
          <system-margins>
            <left-margin>0.00</left-margin>
            <right-margin>0.00</right-margin>
            </system-margins>
          <top-system-distance>170.00</top-system-distance>
          </system-layout>
        </print>
      <attributes>
        <divisions>2</divisions>
        <key>
          <fifths>1</fifths>
          </key>
        <time>
          <beats>3</beats>
          <beat-type>4</beat-type>
          </time>
        <clef>
          <sign>G</sign>
          <line>2</line>
          </clef>
        </attributes>
      <note default-x="92.33" default-y="-45.00">
        <pitch>
          <step>D</step>
          <octave>4</octave>
          </pitch>
        <duration>1</duration>
        <voice>1</voice>
        <type>eighth</type>
        <stem>up</stem>
        <lyric number="1">
          <syllabic>single</syllabic>
          <text>I</text>
          </lyric>
        <lyric number="2">
          <syllabic>single</syllabic>
          <text>I</text>
          </lyric>
        <lyric number="3">
          <syllabic>single</syllabic>
          <text>He</text>
          </lyric>
        <lyric number="4">
          <syllabic>single</syllabic>
          <text>He</text>
          </lyric>
        <lyric number="5">
          <syllabic>single</syllabic>
          <text>He</text>
          </lyric>
        </note>
      </measure>
    <measure number="1" width="350.30">
      <harmony print-frame="no">
        <root>
          <root-step>G</root-step>
          </root>
        <kind>major</kind>
        </harmony>
      <note default-x="36.29" default-y="-20.00">
        <pitch>
          <step>B</step>
          <octave>4</octave>
          </pitch>
        <duration>1</duration>
        <voice>1</voice>
        <type>eighth</type>
        <stem>up</stem>
        <beam number="1">begin</beam>
        <lyric number="1">
          <syllabic>single</syllabic>
          <text>knew</text>
          </lyric>
        <lyric number="2">
          <syllabic>single</syllabic>
          <text>met</text>
          </lyric>
        <lyric number="3">
          <syllabic>single</syllabic>
          <text>said</text>
          </lyric>
        <lyric number="4">
          <syllabic>single</syllabic>
          <text>danced</text>
          </lyric>
        <lyric number="5">
          <syllabic>single</syllabic>
          <text>said,</text>
          </lyric>
        </note>
      <note default-x="92.08" default-y="-25.00">
        <pitch>
          <step>A</step>
          <octave>4</octave>
          </pitch>
        <duration>1</duration>
        <voice>1</voice>
        <type>eighth</type>
        <stem>up</stem>
        <beam number="1">end</beam>
        <lyric number="1">
          <syllabic>single</syllabic>
          <text>a</text>
          </lyric>
        <lyric number="2">
          <syllabic>single</syllabic>
          <text>him</text>
          </lyric>
        <lyric number="3">
          <syllabic>single</syllabic>
          <text>the</text>
          </lyric>
        <lyric number="4">
          <syllabic>single</syllabic>
          <text>for</text>
          </lyric>
        <lyric number="5">
          <syllabic>single</syllabic>
          <text>I</text>
          </lyric>
        </note>
      <note default-x="147.87" default-y="-20.00">
        <pitch>
          <step>B</step>
          <octave>4</octave>
          </pitch>
        <duration>2</duration>
        <voice>1</voice>
        <type>quarter</type>
        <stem>down</stem>
        <lyric number="1">
          <syllabic>single</syllabic>
          <text>man</text>
          </lyric>
        <lyric number="2">
          <syllabic>single</syllabic>
          <text>in</text>
          </lyric>
        <lyric number="3">
          <syllabic>single</syllabic>
          <text>name</text>
          </lyric>
        <lyric number="4">
          <syllabic>single</syllabic>
          <text>those</text>
          </lyric>
        <lyric number="5">
          <syllabic>single</syllabic>
          <text>dance</text>
          </lyric>
        </note>
      <note default-x="237.12" default-y="-25.00">
        <pitch>
          <step>A</step>
          <octave>4</octave>
          </pitch>
        <duration>1</duration>
        <voice>1</voice>
        <type>eighth</type>
        <stem>up</stem>
        <beam number="1">begin</beam>
        <lyric number="1">
          <syllabic>begin</syllabic>
          <text>Bo</text>
          </lyric>
        <lyric number="2">
          <syllabic>single</syllabic>
          <text>a</text>
          </lyric>
        <lyric number="3">
          <syllabic>begin</syllabic>
          <text>Bo</text>
          </lyric>
        <lyric number="4">
          <syllabic>single</syllabic>
          <text>at</text>
          </lyric>
        <lyric number="5">
          <syllabic>single</syllabic>
          <text>now</text>
          </lyric>
        </note>
      <note default-x="292.91" default-y="-20.00">
        <pitch>
          <step>B</step>
          <octave>4</octave>
          </pitch>
        <duration>1</duration>
        <tie type="start"/>
        <voice>1</voice>
        <type>eighth</type>
        <stem>up</stem>
        <beam number="1">end</beam>
        <notations>
          <tied type="start"/>
          </notations>
        <lyric number="1">
          <syllabic>middle</syllabic>
          <text>jan</text>
          </lyric>
        <lyric number="2">
          <syllabic>single</syllabic>
          <text>cell</text>
          <extend/>
          </lyric>
        <lyric number="3">
          <syllabic>middle</syllabic>
          <text>jan</text>
          </lyric>
        <lyric number="4">
          <syllabic>middle</syllabic>
          <text>Min</text>
          </lyric>
        <lyric number="5">
          <syllabic>single</syllabic>
          <text>at</text>
          </lyric>
        </note>
      </measure>
    <measure number="2" width="346.45">
      <note default-x="15.43" default-y="-20.00">
        <pitch>
          <step>B</step>
          <octave>4</octave>
          </pitch>
        <duration>1</duration>
        <tie type="stop"/>
        <voice>1</voice>
        <type>eighth</type>
        <stem>up</stem>
        <beam number="1">begin</beam>
        <notations>
          <tied type="stop"/>
          </notations>
        <lyric number="5">
          <syllabic>begin</syllabic>
          <text>ev</text>
          </lyric>
        </note>
      <note default-x="71.88" default-y="-25.00">
        <pitch>
          <step>A</step>
          <octave>4</octave>
          </pitch>
        <duration>1</duration>
        <voice>1</voice>
        <type>eighth</type>
        <stem>up</stem>
        <beam number="1">end</beam>
        <lyric number="1">
          <syllabic>end</syllabic>
          <text>gles</text>
          </lyric>
        <lyric number="2">
          <syllabic>single</syllabic>
          <text>in</text>
          </lyric>
        <lyric number="3">
          <syllabic>end</syllabic>
          <text>gles</text>
          </lyric>
        <lyric number="4">
          <syllabic>end</syllabic>
          <text>stral</text>
          </lyric>
        <lyric number="5">
          <syllabic>end</syllabic>
          <text>ry</text>
          </lyric>
        </note>
      <note default-x="128.33" default-y="-20.00">
        <pitch>
          <step>B</step>
          <octave>4</octave>
          </pitch>
        <duration>2</duration>
        <voice>1</voice>
        <type>quarter</type>
        <stem>down</stem>
        <lyric number="1">
          <syllabic>single</syllabic>
          <text>and</text>
          </lyric>
        <lyric number="2">
          <syllabic>single</syllabic>
          <text>New</text>
          </lyric>
        <lyric number="3">
          <syllabic>single</syllabic>
          <text>and</text>
          </lyric>
        <lyric number="4">
          <syllabic>single</syllabic>
          <text>shows</text>
          </lyric>
        <lyric number="5">
          <syllabic>single</syllabic>
          <text>chance</text>
          </lyric>
        </note>
      <note default-x="218.65" default-y="-25.00">
        <pitch>
          <step>A</step>
          <octave>4</octave>
          </pitch>
        <duration>1</duration>
        <voice>1</voice>
        <type>eighth</type>
        <stem>up</stem>
        <beam number="1">begin</beam>
        <lyric number="1">
          <syllabic>single</syllabic>
          <text>he</text>
          </lyric>
        <lyric number="2">
          <syllabic>begin</syllabic>
          <text>Or</text>
          </lyric>
        <lyric number="3">
          <syllabic>single</syllabic>
          <text>he</text>
          </lyric>
        <lyric number="4">
          <syllabic>single</syllabic>
          <text>and</text>
          </lyric>
        <lyric number="5">
          <syllabic>single</syllabic>
          <text>in</text>
          </lyric>
        </note>
      <note default-x="275.10" default-y="-20.00">
        <pitch>
          <step>B</step>
          <octave>4</octave>
          </pitch>
        <duration>1</duration>
        <tie type="start"/>
        <voice>1</voice>
        <type>eighth</type>
        <stem>up</stem>
        <beam number="1">end</beam>
        <notations>
          <tied type="start"/>
          </notations>
        <lyric number="1">
          <syllabic>single</syllabic>
          <text>danced</text>
          <extend/>
          </lyric>
        <lyric number="2">
          <syllabic>end</syllabic>
          <text>leans</text>
          <extend/>
          </lyric>
        <lyric number="3">
          <syllabic>single</syllabic>
          <text>danced</text>
          <extend/>
          </lyric>
        <lyric number="4">
          <syllabic>begin</syllabic>
          <text>coun</text>
          </lyric>
        <lyric number="5">
          <syllabic>begin</syllabic>
          <text>hon</text>
          </lyric>
        </note>
      </measure>
    <measure number="3" width="237.50">
      <note default-x="12.00" default-y="-20.00">
        <pitch>
          <step>B</step>
          <octave>4</octave>
          </pitch>
        <duration>2</duration>
        <tie type="stop"/>
        <voice>1</voice>
        <type>quarter</type>
        <stem>down</stem>
        <notations>
          <tied type="stop"/>
          </notations>
        </note>
      <note default-x="78.87" default-y="-25.00">
        <pitch>
          <step>A</step>
          <octave>4</octave>
          </pitch>
        <duration>1</duration>
        <voice>1</voice>
        <type>eighth</type>
        <stem>up</stem>
        <beam number="1">begin</beam>
        <lyric number="1">
          <syllabic>single</syllabic>
          <text>for</text>
          </lyric>
        <lyric number="2">
          <syllabic>single</syllabic>
          <text>I</text>
          </lyric>
        <lyric number="3">
          <syllabic>single</syllabic>
          <text>a</text>
          </lyric>
        <lyric number="4">
          <syllabic>end</syllabic>
          <text>ty</text>
          </lyric>
        <lyric number="5">
          <syllabic>end</syllabic>
          <text>ky</text>
          </lyric>
        </note>
      <note default-x="120.66" default-y="-30.00">
        <pitch>
          <step>G</step>
          <octave>4</octave>
          </pitch>
        <duration>1</duration>
        <tie type="start"/>
        <voice>1</voice>
        <type>eighth</type>
        <stem>up</stem>
        <beam number="1">end</beam>
        <notations>
          <tied type="start"/>
          </notations>
        <lyric number="1">
          <syllabic>single</syllabic>
          <text>you</text>
          <extend/>
          </lyric>
        <lyric number="2">
          <syllabic>single</syllabic>
          <text>was</text>
          <extend/>
          </lyric>
        <lyric number="3">
          <syllabic>single</syllabic>
          <text>step</text>
          <extend/>
          </lyric>
        <lyric number="4">
          <syllabic>single</syllabic>
          <text>fairs</text>
          <extend/>
          </lyric>
        <lyric number="5">
          <syllabic>single</syllabic>
          <text>tonks</text>
          <extend/>
          </lyric>
        </note>
      <note default-x="169.04" default-y="-30.00">
        <pitch>
          <step>G</step>
          <octave>4</octave>
          </pitch>
        <duration>2</duration>
        <tie type="stop"/>
        <tie type="start"/>
        <voice>1</voice>
        <type>quarter</type>
        <stem>up</stem>
        <notations>
          <tied type="stop"/>
          <tied type="start"/>
          </notations>
        </note>
      </measure>
    <measure number="4" width="270.27">
      <print new-system="yes">
        <system-layout>
          <system-margins>
            <left-margin>0.00</left-margin>
            <right-margin>0.00</right-margin>
            </system-margins>
          <system-distance>239.48</system-distance>
          </system-layout>
        </print>
      <note default-x="67.59" default-y="-30.00">
        <pitch>
          <step>G</step>
          <octave>4</octave>
          </pitch>
        <duration>2</duration>
        <tie type="stop"/>
        <voice>1</voice>
        <type>quarter</type>
        <stem>up</stem>
        <notations>
          <tied type="stop"/>
          </notations>
        </note>
      <note default-x="134.62" default-y="-65.00">
        <pitch>
          <step>G</step>
          <octave>3</octave>
          </pitch>
        <duration>2</duration>
        <voice>1</voice>
        <type>quarter</type>
        <stem>up</stem>
        </note>
      <note default-x="201.64" default-y="-60.00">
        <pitch>
          <step>A</step>
          <octave>3</octave>
          </pitch>
        <duration>2</duration>
        <voice>1</voice>
        <type>quarter</type>
        <stem>up</stem>
        </note>
      </measure>
    <measure number="5" width="299.56">
      <harmony print-frame="no">
        <root>
          <root-step>C</root-step>
          </root>
        <kind>major</kind>
        </harmony>
      <note default-x="12.00" default-y="-55.00">
        <pitch>
          <step>B</step>
          <octave>3</octave>
          </pitch>
        <duration>2</duration>
        <voice>1</voice>
        <type>quarter</type>
        <stem>up</stem>
        </note>
      <note default-x="99.99" default-y="-50.00">
        <pitch>
          <step>C</step>
          <octave>4</octave>
          </pitch>
        <duration>2</duration>
        <voice>1</voice>
        <type>quarter</type>
        <stem>up</stem>
        </note>
      <note>
        <rest/>
        <duration>1</duration>
        <voice>1</voice>
        <type>eighth</type>
        </note>
      <note default-x="242.97" default-y="-45.00">
        <pitch>
          <step>D</step>
          <octave>4</octave>
          </pitch>
        <duration>1</duration>
        <voice>1</voice>
        <type>eighth</type>
        <stem>up</stem>
        <lyric number="1">
          <syllabic>single</syllabic>
          <text>In</text>
          </lyric>
        <lyric number="2">
          <syllabic>single</syllabic>
          <text>Down</text>
          </lyric>
        <lyric number="3">
          <syllabic>single</syllabic>
          <text>Across</text>
          </lyric>
        <lyric number="4">
          <syllabic>begin</syllabic>
          <text>Through</text>
          </lyric>
        <lyric number="5">
          <syllabic>single</syllabic>
          <text>For</text>
          </lyric>
        </note>
      </measure>
    <measure number="6" width="292.35">
      <note default-x="32.78" default-y="-5.00">
        <pitch>
          <step>E</step>
          <octave>5</octave>
          </pitch>
        <duration>1</duration>
        <voice>1</voice>
        <type>eighth</type>
        <stem>down</stem>
        <beam number="1">begin</beam>
        <notations>
          <slur type="start" number="1"/>
          </notations>
        <lyric number="1">
          <syllabic>single</syllabic>
          <text>worn</text>
          </lyric>
        <lyric number="2">
          <syllabic>single</syllabic>
          <text>and</text>
          </lyric>
        <lyric number="3">
          <syllabic>single</syllabic>
          <text>the</text>
          </lyric>
        <lyric number="4">
          <syllabic>end</syllabic>
          <text>out</text>
          </lyric>
        <lyric number="5">
          <syllabic>single</syllabic>
          <text>drinks</text>
          </lyric>
        </note>
      <note default-x="94.20" default-y="-5.00">
        <pitch>
          <step>E</step>
          <octave>5</octave>
          </pitch>
        <duration>1</duration>
        <voice>1</voice>
        <type>eighth</type>
        <stem>down</stem>
        <beam number="1">end</beam>
        <notations>
          <slur type="stop" number="1"/>
          </notations>
        <lyric number="5">
          <syllabic>single</syllabic>
          <text>and</text>
          </lyric>
        </note>
      <note default-x="155.26" default-y="-10.00">
        <pitch>
          <step>D</step>
          <octave>5</octave>
          </pitch>
        <duration>4</duration>
        <voice>1</voice>
        <type>half</type>
        <stem>down</stem>
        <notations>
          <slur type="start" number="1"/>
          </notations>
        <lyric number="1">
          <syllabic>single</syllabic>
          <text>out</text>
          </lyric>
        <lyric number="2">
          <syllabic>single</syllabic>
          <text>out</text>
          <extend/>
          </lyric>
        <lyric number="3">
          <syllabic>single</syllabic>
          <text>cell</text>
          <extend/>
          </lyric>
        <lyric number="4">
          <syllabic>single</syllabic>
          <text>the</text>
          </lyric>
        <lyric number="5">
          <syllabic>single</syllabic>
          <text>tips</text>
          <extend/>
          </lyric>
        </note>
      </measure>
    <measure number="7" width="214.99">
      <harmony print-frame="no">
        <root>
          <root-step>D</root-step>
          </root>
        <kind>major</kind>
        </harmony>
      <note default-x="30.21" default-y="-10.00">
        <pitch>
          <step>D</step>
          <octave>5</octave>
          </pitch>
        <duration>6</duration>
        <voice>1</voice>
        <type>half</type>
        <dot/>
        <stem>down</stem>
        <notations>
          <slur type="stop" number="1"/>
          </notations>
        <lyric number="1">
          <syllabic>single</syllabic>
          <text>shoes</text>
          </lyric>
        <lyric number="4">
          <syllabic>single</syllabic>
          <text>South</text>
          </lyric>
        </note>
      </measure>
    <measure number="8" width="210.16">
      <print new-system="yes">
        <system-layout>
          <system-margins>
            <left-margin>0.00</left-margin>
            <right-margin>0.00</right-margin>
            </system-margins>
          <system-distance>239.48</system-distance>
          </system-layout>
        </print>
      <note>
        <rest/>
        <duration>4</duration>
        <voice>1</voice>
        <type>half</type>
        </note>
      <note>
        <rest/>
        <duration>1</duration>
        <voice>1</voice>
        <type>eighth</type>
        </note>
      <note default-x="169.95" default-y="-45.00">
        <pitch>
          <step>D</step>
          <octave>4</octave>
          </pitch>
        <duration>1</duration>
        <voice>1</voice>
        <type>eighth</type>
        <stem>up</stem>
        <lyric number="1">
          <syllabic>single</syllabic>
          <text>With</text>
          </lyric>
        <lyric number="2">
          <syllabic>single</syllabic>
          <text>He</text>
          </lyric>
        <lyric number="3">
          <syllabic>single</syllabic>
          <text>He</text>
          </lyric>
        <lyric number="4">
          <syllabic>single</syllabic>
          <text>He</text>
          </lyric>
        <lyric number="5">
          <syllabic>single</syllabic>
          <text>But</text>
          </lyric>
        </note>
      </measure>
    <measure number="9" width="322.83">
      <harmony print-frame="no">
        <root>
          <root-step>G</root-step>
          </root>
        <kind>major</kind>
        </harmony>
      <note default-x="40.46" default-y="-20.00">
        <pitch>
          <step>B</step>
          <octave>4</octave>
          </pitch>
        <duration>1</duration>
        <voice>1</voice>
        <type>eighth</type>
        <stem>up</stem>
        <beam number="1">begin</beam>
        <lyric number="1">
          <syllabic>begin</syllabic>
          <text>sil</text>
          </lyric>
        <lyric number="2">
          <syllabic>single</syllabic>
          <text>looked</text>
          </lyric>
        <lyric number="3">
          <syllabic>single</syllabic>
          <text>grabbed</text>
          </lyric>
        <lyric number="4">
          <syllabic>single</syllabic>
          <text>spoke</text>
          </lyric>
        <lyric number="5">
          <syllabic>single</syllabic>
          <text>most</text>
          </lyric>
        </note>
      <note default-x="97.14" default-y="-25.00">
        <pitch>
          <step>A</step>
          <octave>4</octave>
          </pitch>
        <duration>1</duration>
        <voice>1</voice>
        <type>eighth</type>
        <stem>up</stem>
        <beam number="1">end</beam>
        <lyric number="1">
          <syllabic>end</syllabic>
          <text>ver</text>
          </lyric>
        <lyric number="2">
          <syllabic>single</syllabic>
          <text>to</text>
          </lyric>
        <lyric number="3">
          <syllabic>single</syllabic>
          <text>his</text>
          </lyric>
        <lyric number="4">
          <syllabic>single</syllabic>
          <text>with</text>
          </lyric>
        <lyric number="5">
          <syllabic>single</syllabic>
          <text>the</text>
          </lyric>
        </note>
      <note default-x="144.81" default-y="-20.00">
        <pitch>
          <step>B</step>
          <octave>4</octave>
          </pitch>
        <duration>2</duration>
        <voice>1</voice>
        <type>quarter</type>
        <stem>down</stem>
        <lyric number="1">
          <syllabic>single</syllabic>
          <text>hair</text>
          </lyric>
        <lyric number="2">
          <syllabic>single</syllabic>
          <text>me</text>
          </lyric>
        <lyric number="3">
          <syllabic>single</syllabic>
          <text>pants</text>
          </lyric>
        <lyric number="4">
          <syllabic>single</syllabic>
          <text>thears</text>
          </lyric>
        <lyric number="5">
          <syllabic>single</syllabic>
          <text>time</text>
          </lyric>
        </note>
      <note default-x="217.36" default-y="-25.00">
        <pitch>
          <step>A</step>
          <octave>4</octave>
          </pitch>
        <duration>1</duration>
        <voice>1</voice>
        <type>eighth</type>
        <stem>up</stem>
        <beam number="1">begin</beam>
        <lyric number="1">
          <syllabic>single</syllabic>
          <text>a</text>
          </lyric>
        <lyric number="2">
          <syllabic>single</syllabic>
          <text>to</text>
          </lyric>
        <lyric number="3">
          <syllabic>single</syllabic>
          <text>a</text>
          </lyric>
        <lyric number="4">
          <syllabic>single</syllabic>
          <text>of</text>
          </lyric>
        <lyric number="5">
          <syllabic>single</syllabic>
          <text>I</text>
          </lyric>
        </note>
      <note default-x="262.70" default-y="-20.00">
        <pitch>
          <step>B</step>
          <octave>4</octave>
          </pitch>
        <duration>1</duration>
        <tie type="start"/>
        <voice>1</voice>
        <type>eighth</type>
        <stem>up</stem>
        <beam number="1">end</beam>
        <notations>
          <tied type="start"/>
          </notations>
        <lyric number="1">
          <syllabic>begin</syllabic>
          <text>rag</text>
          </lyric>
        <lyric number="2">
          <syllabic>single</syllabic>
          <text>be</text>
          <extend/>
          </lyric>
        <lyric number="3">
          <syllabic>begin</syllabic>
          <text>bet</text>
          </lyric>
        <lyric number="4">
          <syllabic>begin</syllabic>
          <text>fif</text>
          </lyric>
        <lyric number="5">
          <syllabic>single</syllabic>
          <text>spend</text>
          <extend/>
          </lyric>
        </note>
      </measure>
    <measure number="10" width="295.73">
      <note default-x="12.00" default-y="-20.00">
        <pitch>
          <step>B</step>
          <octave>4</octave>
          </pitch>
        <duration>1</duration>
        <tie type="stop"/>
        <voice>1</voice>
        <type>eighth</type>
        <stem>up</stem>
        <beam number="1">begin</beam>
        <notations>
          <tied type="stop"/>
          </notations>
        </note>
      <note default-x="62.38" default-y="-25.00">
        <pitch>
          <step>A</step>
          <octave>4</octave>
          </pitch>
        <duration>1</duration>
        <voice>1</voice>
        <type>eighth</type>
        <stem>up</stem>
        <beam number="1">end</beam>
        <lyric number="1">
          <syllabic>end</syllabic>
          <text>ed</text>
          </lyric>
        <lyric number="2">
          <syllabic>single</syllabic>
          <text>the</text>
          </lyric>
        <lyric number="3">
          <syllabic>end</syllabic>
          <text>ter</text>
          </lyric>
        <lyric number="4">
          <syllabic>end</syllabic>
          <text>teen</text>
          </lyric>
        <lyric number="5">
          <syllabic>begin</syllabic>
          <text>be</text>
          </lyric>
        </note>
      <note default-x="112.76" default-y="-20.00">
        <pitch>
          <step>B</step>
          <octave>4</octave>
          </pitch>
        <duration>2</duration>
        <voice>1</voice>
        <type>quarter</type>
        <stem>down</stem>
        <lyric number="1">
          <syllabic>single</syllabic>
          <text>shirt</text>
          </lyric>
        <lyric number="2">
          <syllabic>single</syllabic>
          <text>eyes</text>
          </lyric>
        <lyric number="3">
          <syllabic>single</syllabic>
          <text>stance</text>
          </lyric>
        <lyric number="4">
          <syllabic>single</syllabic>
          <text>years</text>
          </lyric>
        <lyric number="5">
          <syllabic>end</syllabic>
          <text>hind</text>
          </lyric>
        </note>
      <note default-x="193.37" default-y="-25.00">
        <pitch>
          <step>A</step>
          <octave>4</octave>
          </pitch>
        <duration>1</duration>
        <voice>1</voice>
        <type>eighth</type>
        <stem>up</stem>
        <beam number="1">begin</beam>
        <lyric number="1">
          <syllabic>single</syllabic>
          <text>and</text>
          </lyric>
        <lyric number="2">
          <syllabic>single</syllabic>
          <text>of</text>
          </lyric>
        <lyric number="3">
          <syllabic>single</syllabic>
          <text>Oh</text>
          </lyric>
        <lyric number="4">
          <syllabic>single</syllabic>
          <text>how</text>
          </lyric>
        <lyric number="5">
          <syllabic>single</syllabic>
          <text>these</text>
          </lyric>
        </note>
      <note default-x="243.75" default-y="-20.00">
        <pitch>
          <step>B</step>
          <octave>4</octave>
          </pitch>
        <duration>1</duration>
        <tie type="start"/>
        <voice>1</voice>
        <type>eighth</type>
        <stem>up</stem>
        <beam number="1">end</beam>
        <notations>
          <tied type="start"/>
          </notations>
        <lyric number="1">
          <syllabic>begin</syllabic>
          <text>bag</text>
          </lyric>
        <lyric number="2">
          <syllabic>single</syllabic>
          <text>age</text>
          <extend/>
          </lyric>
        <lyric number="3">
          <syllabic>single</syllabic>
          <text>he</text>
          </lyric>
        <lyric number="4">
          <syllabic>single</syllabic>
          <text>his</text>
          </lyric>
        <lyric number="5">
          <syllabic>begin</syllabic>
          <text>coun</text>
          </lyric>
        </note>
      </measure>
    <measure number="11" width="248.44">
      <note default-x="39.03" default-y="-20.00">
        <pitch>
          <step>B</step>
          <octave>4</octave>
          </pitch>
        <duration>2</duration>
        <tie type="stop"/>
        <voice>1</voice>
        <type>quarter</type>
        <stem>down</stem>
        <notations>
          <tied type="stop"/>
          </notations>
        <lyric number="3">
          <syllabic>single</syllabic>
          <text>jumped</text>
          </lyric>
        <lyric number="4">
          <syllabic>single</syllabic>
          <text>dog</text>
          </lyric>
        </note>
      <note default-x="100.33" default-y="-25.00">
        <pitch>
          <step>A</step>
          <octave>4</octave>
          </pitch>
        <duration>1</duration>
        <voice>1</voice>
        <type>eighth</type>
        <stem>up</stem>
        <beam number="1">begin</beam>
        <lyric number="1">
          <syllabic>end</syllabic>
          <text>gy</text>
          </lyric>
        <lyric number="2">
          <syllabic>single</syllabic>
          <text>as</text>
          </lyric>
        <lyric number="3">
          <syllabic>single</syllabic>
          <text>so</text>
          </lyric>
        <lyric number="4">
          <syllabic>single</syllabic>
          <text>and</text>
          </lyric>
        <lyric number="5">
          <syllabic>end</syllabic>
          <text>ty</text>
          </lyric>
        </note>
      <note default-x="138.65" default-y="-30.00">
        <pitch>
          <step>G</step>
          <octave>4</octave>
          </pitch>
        <duration>1</duration>
        <tie type="start"/>
        <voice>1</voice>
        <type>eighth</type>
        <stem>up</stem>
        <beam number="1">end</beam>
        <notations>
          <tied type="start"/>
          </notations>
        <lyric number="1">
          <syllabic>single</syllabic>
          <text>pants</text>
          <extend/>
          </lyric>
        <lyric number="2">
          <syllabic>single</syllabic>
          <text>he</text>
          <extend/>
          </lyric>
        <lyric number="3">
          <syllabic>single</syllabic>
          <text>high</text>
          <extend/>
          </lyric>
        <lyric number="4">
          <syllabic>single</syllabic>
          <text>him</text>
          <extend/>
          </lyric>
        <lyric number="5">
          <syllabic>single</syllabic>
          <text>bars</text>
          <extend/>
          </lyric>
        </note>
      <note default-x="185.53" default-y="-30.00">
        <pitch>
          <step>G</step>
          <octave>4</octave>
          </pitch>
        <duration>2</duration>
        <tie type="stop"/>
        <tie type="start"/>
        <voice>1</voice>
        <type>quarter</type>
        <stem>up</stem>
        <notations>
          <tied type="stop"/>
          <tied type="start"/>
          </notations>
        </note>
      </measure>
    <measure number="12" width="272.85">
      <print new-system="yes">
        <system-layout>
          <system-margins>
            <left-margin>0.00</left-margin>
            <right-margin>0.00</right-margin>
            </system-margins>
          <system-distance>239.48</system-distance>
          </system-layout>
        </print>
      <note default-x="67.59" default-y="-30.00">
        <pitch>
          <step>G</step>
          <octave>4</octave>
          </pitch>
        <duration>2</duration>
        <tie type="stop"/>
        <voice>1</voice>
        <type>quarter</type>
        <stem>up</stem>
        <notations>
          <tied type="stop"/>
          </notations>
        </note>
      <note default-x="135.48" default-y="-65.00">
        <pitch>
          <step>G</step>
          <octave>3</octave>
          </pitch>
        <duration>2</duration>
        <voice>1</voice>
        <type>quarter</type>
        <stem>up</stem>
        </note>
      <note default-x="203.36" default-y="-60.00">
        <pitch>
          <step>A</step>
          <octave>3</octave>
          </pitch>
        <duration>2</duration>
        <voice>1</voice>
        <type>quarter</type>
        <stem>up</stem>
        </note>
      </measure>
    <measure number="13" width="284.83">
      <harmony print-frame="no">
        <root>
          <root-step>C</root-step>
          </root>
        <kind>major</kind>
        </harmony>
      <note default-x="12.00" default-y="-55.00">
        <pitch>
          <step>B</step>
          <octave>3</octave>
          </pitch>
        <duration>2</duration>
        <voice>1</voice>
        <type>quarter</type>
        <stem>up</stem>
        </note>
      <note default-x="95.46" default-y="-50.00">
        <pitch>
          <step>C</step>
          <octave>4</octave>
          </pitch>
        <duration>2</duration>
        <voice>1</voice>
        <type>quarter</type>
        <stem>up</stem>
        </note>
      <note>
        <rest/>
        <duration>1</duration>
        <voice>1</voice>
        <type>eighth</type>
        </note>
      <note default-x="231.07" default-y="-45.00">
        <pitch>
          <step>D</step>
          <octave>4</octave>
          </pitch>
        <duration>1</duration>
        <voice>1</voice>
        <type>eighth</type>
        <stem>up</stem>
        <lyric number="1">
          <syllabic>single</syllabic>
          <text>The</text>
          </lyric>
        <lyric number="2">
          <syllabic>single</syllabic>
          <text>spoke</text>
          </lyric>
        <lyric number="3">
          <syllabic>single</syllabic>
          <text>Then</text>
          </lyric>
        <lyric number="4">
          <syllabic>begin</syllabic>
          <text>Trav</text>
          </lyric>
        <lyric number="5">
          <syllabic>single</syllabic>
          <text>'Cause</text>
          </lyric>
        </note>
      </measure>
    <measure number="14" width="301.67">
      <note default-x="25.95" default-y="-5.00">
        <pitch>
          <step>E</step>
          <octave>5</octave>
          </pitch>
        <duration>2</duration>
        <voice>1</voice>
        <type>quarter</type>
        <stem>down</stem>
        <lyric number="1">
          <syllabic>single</syllabic>
          <text>old</text>
          </lyric>
        <lyric number="2">
          <syllabic>single</syllabic>
          <text>right</text>
          </lyric>
        <lyric number="3">
          <syllabic>single</syllabic>
          <text>he</text>
          </lyric>
        <lyric number="4">
          <syllabic>end</syllabic>
          <text>eled</text>
          </lyric>
        <lyric number="5">
          <syllabic>single</syllabic>
          <text>I</text>
          </lyric>
        </note>
      <note default-x="117.32" default-y="-10.00">
        <pitch>
          <step>D</step>
          <octave>5</octave>
          </pitch>
        <duration>2</duration>
        <voice>1</voice>
        <type>quarter</type>
        <stem>down</stem>
        <notations>
          <slur type="start" number="1"/>
          </notations>
        <lyric number="1">
          <syllabic>single</syllabic>
          <text>soft</text>
          </lyric>
        <lyric number="2">
          <syllabic>single</syllabic>
          <text>out</text>
          <extend/>
          </lyric>
        <lyric number="3">
          <syllabic>single</syllabic>
          <text>clicked</text>
          </lyric>
        <lyric number="4">
          <syllabic>begin</syllabic>
          <text>a</text>
          </lyric>
        <lyric number="5">
          <syllabic>single</syllabic>
          <text>drinks</text>
          </lyric>
        </note>
      <note default-x="208.69" default-y="-10.00">
        <pitch>
          <step>D</step>
          <octave>5</octave>
          </pitch>
        <duration>2</duration>
        <voice>1</voice>
        <type>quarter</type>
        <stem>down</stem>
        <notations>
          <slur type="stop" number="1"/>
          </notations>
        <lyric number="3">
          <syllabic>single</syllabic>
          <text>his</text>
          </lyric>
        <lyric number="5">
          <syllabic>single</syllabic>
          <text>a</text>
          </lyric>
        </note>
      </measure>
    <measure number="15" width="217.82">
      <harmony print-frame="no">
        <root>
          <root-step>D</root-step>
          </root>
        <kind>major</kind>
        </harmony>
      <note default-x="13.64" default-y="-10.00">
        <pitch>
          <step>D</step>
          <octave>5</octave>
          </pitch>
        <duration>6</duration>
        <tie type="start"/>
        <voice>1</voice>
        <type>half</type>
        <dot/>
        <stem>down</stem>
        <notations>
          <tied type="start"/>
          </notations>
        <lyric number="1">
          <syllabic>single</syllabic>
          <text>shoe</text>
          <extend/>
          </lyric>
        <lyric number="3">
          <syllabic>single</syllabic>
          <text>heels</text>
          <extend/>
          </lyric>
        <lyric number="4">
          <syllabic>end</syllabic>
          <text>bout</text>
          <extend/>
          </lyric>
        <lyric number="5">
          <syllabic>single</syllabic>
          <text>bit</text>
          <extend/>
          </lyric>
        </note>
      </measure>
    <measure number="16" width="267.07">
      <print new-system="yes">
        <system-layout>
          <system-margins>
            <left-margin>0.00</left-margin>
            <right-margin>0.00</right-margin>
            </system-margins>
          <system-distance>239.48</system-distance>
          </system-layout>
        </print>
      <note default-x="67.59" default-y="-10.00">
        <pitch>
          <step>D</step>
          <octave>5</octave>
          </pitch>
        <duration>4</duration>
        <tie type="stop"/>
        <voice>1</voice>
        <type>half</type>
        <stem>down</stem>
        <notations>
          <tied type="stop"/>
          </notations>
        </note>
      <note>
        <rest/>
        <duration>2</duration>
        <voice>1</voice>
        <type>quarter</type>
        </note>
      </measure>
    <measure number="17" width="258.20">
      <harmony print-frame="no">
        <root>
          <root-step>C</root-step>
          </root>
        <kind>major</kind>
        </harmony>
      <note>
        <rest/>
        <duration>4</duration>
        <voice>1</voice>
        <type>half</type>
        </note>
      <note>
        <rest/>
        <duration>1</duration>
        <voice>1</voice>
        <type>eighth</type>
        </note>
      <note default-x="198.36" default-y="-45.00">
        <pitch>
          <step>D</step>
          <octave>4</octave>
          </pitch>
        <duration>1</duration>
        <voice>1</voice>
        <type>eighth</type>
        <stem>up</stem>
        <lyric number="1">
          <syllabic>single</syllabic>
          <text>He</text>
          </lyric>
        <lyric number="2">
          <syllabic>single</syllabic>
          <text>He</text>
          </lyric>
        <lyric number="3">
          <syllabic>single</syllabic>
          <text>He</text>
          </lyric>
        <lyric number="4">
          <syllabic>single</syllabic>
          <text>Hid</text>
          </lyric>
        <lyric number="5">
          <syllabic>single</syllabic>
          <text>He</text>
          </lyric>
        </note>
      </measure>
    <measure number="18" width="317.81">
      <note default-x="39.03" default-y="-5.00">
        <pitch>
          <step>E</step>
          <octave>5</octave>
          </pitch>
        <duration>2</duration>
        <voice>1</voice>
        <type>quarter</type>
        <stem>down</stem>
        <lyric number="1">
          <syllabic>single</syllabic>
          <text>jumped</text>
          </lyric>
        <lyric number="2">
          <syllabic>single</syllabic>
          <text>talked</text>
          </lyric>
        <lyric number="3">
          <syllabic>single</syllabic>
          <text>let</text>
          </lyric>
        <lyric number="4">
          <syllabic>single</syllabic>
          <text>dog</text>
          </lyric>
        <lyric number="5">
          <syllabic>single</syllabic>
          <text>shook</text>
          </lyric>
        </note>
      <note default-x="131.42" default-y="0.00">
        <pitch>
          <step>F</step>
          <alter>1</alter>
          <octave>5</octave>
          </pitch>
        <duration>2</duration>
        <voice>1</voice>
        <type>quarter</type>
        <stem>down</stem>
        <notations>
          <slur type="start" number="1"/>
          </notations>
        <lyric number="1">
          <syllabic>single</syllabic>
          <text>so</text>
          <extend/>
          </lyric>
        <lyric number="2">
          <syllabic>single</syllabic>
          <text>of</text>
          <extend/>
          </lyric>
        <lyric number="3">
          <syllabic>single</syllabic>
          <text>go</text>
          </lyric>
        <lyric number="4">
          <syllabic>single</syllabic>
          <text>up</text>
          </lyric>
        <lyric number="5">
          <syllabic>single</syllabic>
          <text>his</text>
          <extend/>
          </lyric>
        </note>
      <note default-x="223.82" default-y="0.00">
        <pitch>
          <step>F</step>
          <alter>1</alter>
          <octave>5</octave>
          </pitch>
        <duration>2</duration>
        <voice>1</voice>
        <type>quarter</type>
        <stem>down</stem>
        <notations>
          <slur type="stop" number="1"/>
          </notations>
        <lyric number="3">
          <syllabic>single</syllabic>
          <text>a</text>
          </lyric>
        <lyric number="4">
          <syllabic>single</syllabic>
          <text>and</text>
          </lyric>
        </note>
      </measure>
    <measure number="19" width="234.08">
      <harmony print-frame="no">
        <root>
          <root-step>G</root-step>
          </root>
        <kind>major</kind>
        </harmony>
      <note default-x="28.63" default-y="-10.00">
        <pitch>
          <step>D</step>
          <octave>5</octave>
          </pitch>
        <duration>6</duration>
        <voice>1</voice>
        <type>half</type>
        <dot/>
        <stem>down</stem>
        <lyric number="1">
          <syllabic>single</syllabic>
          <text>high</text>
          </lyric>
        <lyric number="2">
          <syllabic>single</syllabic>
          <text>life</text>
          </lyric>
        <lyric number="3">
          <syllabic>single</syllabic>
          <text>laugh</text>
          </lyric>
        <lyric number="4">
          <syllabic>single</syllabic>
          <text>died</text>
          </lyric>
        <lyric number="5">
          <syllabic>single</syllabic>
          <text>head</text>
          </lyric>
        </note>
      </measure>
    <measure number="20" width="395.26">
      <print new-page="yes">
        <system-layout>
          <system-margins>
            <left-margin>0.00</left-margin>
            <right-margin>0.00</right-margin>
            </system-margins>
          <top-system-distance>70.00</top-system-distance>
          </system-layout>
        </print>
      <harmony print-frame="no">
        <root>
          <root-step>B</root-step>
          </root>
        <kind>major</kind>
        </harmony>
      <note>
        <rest/>
        <duration>2</duration>
        <voice>1</voice>
        <type>quarter</type>
        </note>
      <note default-x="154.94" default-y="-20.00">
        <pitch>
          <step>B</step>
          <octave>4</octave>
          </pitch>
        <duration>1</duration>
        <voice>1</voice>
        <type>eighth</type>
        <stem>down</stem>
        <beam number="1">begin</beam>
        <lyric number="1">
          <syllabic>single</syllabic>
          <text>jumped</text>
          <extend/>
          </lyric>
        <lyric number="2">
          <syllabic>single</syllabic>
          <text>talked</text>
          <extend/>
          </lyric>
        <lyric number="3">
          <syllabic>single</syllabic>
          <text>let</text>
          </lyric>
        <lyric number="4">
          <syllabic>single</syllabic>
          <text>he</text>
          </lyric>
        <lyric number="5">
          <syllabic>single</syllabic>
          <text>As</text>
          </lyric>
        </note>
      <note default-x="226.95" default-y="-20.00">
        <pitch>
          <step>B</step>
          <octave>4</octave>
          </pitch>
        <duration>1</duration>
        <voice>1</voice>
        <type>eighth</type>
        <stem>down</stem>
        <beam number="1">end</beam>
        <lyric number="3">
          <syllabic>single</syllabic>
          <text>go</text>
          </lyric>
        <lyric number="4">
          <syllabic>single</syllabic>
          <text>up</text>
          </lyric>
        <lyric number="5">
          <syllabic>single</syllabic>
          <text>he</text>
          </lyric>
        </note>
      <note default-x="282.52" default-y="-25.00">
        <pitch>
          <step>A</step>
          <octave>4</octave>
          </pitch>
        <duration>1</duration>
        <voice>1</voice>
        <type>eighth</type>
        <stem>up</stem>
        <beam number="1">begin</beam>
        <notations>
          <slur type="start" number="1"/>
          </notations>
        <lyric number="1">
          <syllabic>single</syllabic>
          <text>so</text>
          <extend/>
          </lyric>
        <lyric number="2">
          <syllabic>single</syllabic>
          <text>of</text>
          <extend/>
          </lyric>
        <lyric number="3">
          <syllabic>single</syllabic>
          <text>a</text>
          <extend/>
          </lyric>
        <lyric number="4">
          <syllabic>single</syllabic>
          <text>and</text>
          <extend/>
          </lyric>
        <lyric number="5">
          <syllabic>single</syllabic>
          <text>shook</text>
          </lyric>
        </note>
      <note default-x="338.09" default-y="-25.00">
        <pitch>
          <step>A</step>
          <octave>4</octave>
          </pitch>
        <duration>1</duration>
        <voice>1</voice>
        <type>eighth</type>
        <stem>up</stem>
        <beam number="1">end</beam>
        <notations>
          <slur type="stop" number="1"/>
          </notations>
        <lyric number="5">
          <syllabic>single</syllabic>
          <text>his</text>
          </lyric>
        </note>
      </measure>
    <measure number="21" width="205.79">
      <harmony print-frame="no">
        <root>
          <root-step>E</root-step>
          </root>
        <kind text="m">minor</kind>
        </harmony>
      <note default-x="13.64" default-y="-30.00">
        <pitch>
          <step>G</step>
          <octave>4</octave>
          </pitch>
        <duration>6</duration>
        <tie type="start"/>
        <voice>1</voice>
        <type>half</type>
        <dot/>
        <stem>up</stem>
        <notations>
          <tied type="start"/>
          </notations>
        <lyric number="1">
          <syllabic>single</syllabic>
          <text>high</text>
          <extend/>
          </lyric>
        <lyric number="2">
          <syllabic>single</syllabic>
          <text>life</text>
          <extend/>
          </lyric>
        <lyric number="3">
          <syllabic>single</syllabic>
          <text>laugh</text>
          <extend/>
          </lyric>
        <lyric number="4">
          <syllabic>single</syllabic>
          <text>died</text>
          <extend/>
          </lyric>
        <lyric number="5">
          <syllabic>single</syllabic>
          <text>head</text>
          <extend/>
          </lyric>
        </note>
      </measure>
    <measure number="22" width="191.30">
      <note default-x="12.00" default-y="-30.00">
        <pitch>
          <step>G</step>
          <octave>4</octave>
          </pitch>
        <duration>2</duration>
        <tie type="stop"/>
        <voice>1</voice>
        <type>quarter</type>
        <stem>up</stem>
        <notations>
          <tied type="stop"/>
          </notations>
        </note>
      <note>
        <rest/>
        <duration>4</duration>
        <voice>1</voice>
        <type>half</type>
        </note>
      </measure>
    <measure number="23" width="284.82">
      <note>
        <rest/>
        <duration>4</duration>
        <voice>1</voice>
        <type>half</type>
        </note>
      <harmony print-frame="no">
        <root>
          <root-step>A</root-step>
          </root>
        <kind>major</kind>
        </harmony>
      <note default-x="154.07" default-y="-20.00">
        <pitch>
          <step>B</step>
          <octave>4</octave>
          </pitch>
        <duration>1</duration>
        <voice>1</voice>
        <type>eighth</type>
        <stem>down</stem>
        <beam number="1">begin</beam>
        <lyric number="1">
          <syllabic>single</syllabic>
          <text>Then</text>
          </lyric>
        <lyric number="2">
          <syllabic>single</syllabic>
          <text>Then</text>
          </lyric>
        <lyric number="3">
          <syllabic>single</syllabic>
          <text>Shook</text>
          </lyric>
        <lyric number="4">
          <syllabic>begin</syllabic>
          <text>af</text>
          </lyric>
        <lyric number="5">
          <syllabic>single</syllabic>
          <text>I</text>
          </lyric>
        </note>
      <note default-x="218.64" default-y="-20.00">
        <pitch>
          <step>B</step>
          <octave>4</octave>
          </pitch>
        <duration>1</duration>
        <voice>1</voice>
        <type>eighth</type>
        <stem>down</stem>
        <beam number="1">end</beam>
        <lyric number="1">
          <syllabic>single</syllabic>
          <text>he</text>
          </lyric>
        <lyric number="2">
          <syllabic>single</syllabic>
          <text>he</text>
          </lyric>
        <lyric number="3">
          <syllabic>single</syllabic>
          <text>back</text>
          </lyric>
        <lyric number="4">
          <syllabic>end</syllabic>
          <text>ter</text>
          </lyric>
        <lyric number="5">
          <syllabic>single</syllabic>
          <text>heard</text>
          </lyric>
        </note>
      </measure>
    <measure number="24" width="500.94">
      <print new-system="yes">
        <system-layout>
          <system-margins>
            <left-margin>0.00</left-margin>
            <right-margin>0.00</right-margin>
            </system-margins>
          <system-distance>185.37</system-distance>
          </system-layout>
        </print>
      <note default-x="92.45" default-y="-20.00">
        <pitch>
          <step>B</step>
          <octave>4</octave>
          </pitch>
        <duration>2</duration>
        <voice>1</voice>
        <type>quarter</type>
        <stem>down</stem>
        <lyric number="1">
          <syllabic>begin</syllabic>
          <text>light</text>
          </lyric>
        <lyric number="2">
          <syllabic>single</syllabic>
          <text>laughed</text>
          </lyric>
        <lyric number="3">
          <syllabic>single</syllabic>
          <text>his</text>
          </lyric>
        <lyric number="4">
          <syllabic>begin</syllabic>
          <text>twen</text>
          </lyric>
        <lyric number="5">
          <syllabic>begin</syllabic>
          <text>some</text>
          </lyric>
        </note>
      <note default-x="207.57" default-y="-25.00">
        <pitch>
          <step>A</step>
          <octave>4</octave>
          </pitch>
        <duration>1</duration>
        <voice>1</voice>
        <type>eighth</type>
        <stem>up</stem>
        <beam number="1">begin</beam>
        <lyric number="1">
          <syllabic>end</syllabic>
          <text>ly</text>
          </lyric>
        <lyric number="2">
          <syllabic>single</syllabic>
          <text>slaped</text>
          </lyric>
        <lyric number="3">
          <syllabic>single</syllabic>
          <text>cloths</text>
          </lyric>
        <lyric number="4">
          <syllabic>end</syllabic>
          <text>ty</text>
          </lyric>
        <lyric number="5">
          <syllabic>end</syllabic>
          <text>one</text>
          </lyric>
        </note>
      <note default-x="279.53" default-y="-30.00">
        <pitch>
          <step>G</step>
          <octave>4</octave>
          </pitch>
        <duration>1</duration>
        <tie type="start"/>
        <voice>1</voice>
        <type>eighth</type>
        <stem>up</stem>
        <beam number="1">end</beam>
        <notations>
          <tied type="start"/>
          </notations>
        <lyric number="1">
          <syllabic>single</syllabic>
          <text>touched</text>
          <extend/>
          </lyric>
        <lyric number="2">
          <syllabic>single</syllabic>
          <text>his</text>
          </lyric>
        <lyric number="3">
          <syllabic>single</syllabic>
          <text>all</text>
          <extend/>
          </lyric>
        <lyric number="4">
          <syllabic>single</syllabic>
          <text>years</text>
          </lyric>
        <lyric number="5">
          <syllabic>single</syllabic>
          <text>ask</text>
          <extend/>
          </lyric>
        </note>
      <note default-x="355.43" default-y="-30.00">
        <pitch>
          <step>G</step>
          <octave>4</octave>
          </pitch>
        <duration>1</duration>
        <tie type="stop"/>
        <voice>1</voice>
        <type>eighth</type>
        <stem>up</stem>
        <beam number="1">begin</beam>
        <notations>
          <tied type="stop"/>
          </notations>
        <lyric number="2">
          <syllabic>single</syllabic>
          <text>leg</text>
          </lyric>
        <lyric number="4">
          <syllabic>single</syllabic>
          <text>he</text>
          </lyric>
        </note>
      <harmony print-frame="no">
        <root>
          <root-step>D</root-step>
          </root>
        <kind>major</kind>
        </harmony>
      <note default-x="427.38" default-y="-25.00">
        <pitch>
          <step>A</step>
          <octave>4</octave>
          </pitch>
        <duration>1</duration>
        <tie type="start"/>
        <voice>1</voice>
        <type>eighth</type>
        <stem>up</stem>
        <beam number="1">end</beam>
        <notations>
          <tied type="start"/>
          </notations>
        <lyric number="1">
          <syllabic>single</syllabic>
          <text>down</text>
          <extend/>
          </lyric>
        <lyric number="2">
          <syllabic>single</syllabic>
          <text>a</text>
          </lyric>
        <lyric number="3">
          <syllabic>begin</syllabic>
          <text>a</text>
          </lyric>
        <lyric number="4">
          <syllabic>single</syllabic>
          <text>still</text>
          </lyric>
        <lyric number="5">
          <syllabic>single</syllabic>
          <text>please</text>
          <extend/>
          </lyric>
        </note>
      </measure>
    <measure number="25" width="223.64">
      <note default-x="30.46" default-y="-25.00">
        <pitch>
          <step>A</step>
          <octave>4</octave>
          </pitch>
        <duration>6</duration>
        <tie type="stop"/>
        <tie type="start"/>
        <voice>1</voice>
        <type>half</type>
        <dot/>
        <stem>up</stem>
        <notations>
          <tied type="stop"/>
          <tied type="start"/>
          </notations>
        <lyric number="2">
          <syllabic>single</syllabic>
          <text>step</text>
          <extend/>
          </lyric>
        <lyric number="3">
          <syllabic>end</syllabic>
          <text>round</text>
          </lyric>
        <lyric number="4">
          <syllabic>single</syllabic>
          <text>grieves</text>
          <extend/>
          </lyric>
        </note>
      </measure>
    <measure number="26" width="184.13">
      <note default-x="12.00" default-y="-25.00">
        <pitch>
          <step>A</step>
          <octave>4</octave>
          </pitch>
        <duration>2</duration>
        <tie type="stop"/>
        <voice>1</voice>
        <type>quarter</type>
        <stem>up</stem>
        <notations>
          <tied type="stop"/>
          </notations>
        </note>
      <note>
        <rest/>
        <duration>4</duration>
        <voice>1</voice>
        <type>half</type>
        </note>
      </measure>
    <measure number="27" width="168.46">
      <direction placement="below">
        <direction-type>
          <words>can modulate to D7
</words>
          <words> and repeart &quot;Please&quot;
</words>
          <words> on verse 5</words>
          </direction-type>
        </direction>
      <note>
        <rest/>
        <duration>6</duration>
        <voice>1</voice>
        </note>
      </measure>
    <measure number="28" width="284.80">
      <print new-system="yes">
        <system-layout>
          <system-margins>
            <left-margin>0.00</left-margin>
            <right-margin>0.00</right-margin>
            </system-margins>
          <system-distance>185.37</system-distance>
          </system-layout>
        </print>
      <barline location="left">
        <ending number="1, 0, 5" type="start"/>
        </barline>
      <note>
        <rest/>
        <duration>6</duration>
        <voice>1</voice>
        </note>
      <barline location="right">
        <bar-style>light-light</bar-style>
        <ending number="1, 0, 5" type="stop"/>
        </barline>
      </measure>
    <measure number="29" width="253.04">
      <barline location="left">
        <ending number="2" type="start"/>
        </barline>
      <note>
        <rest/>
        <duration>6</duration>
        <voice>1</voice>
        </note>
      <barline location="right">
        <bar-style>light-heavy</bar-style>
        <ending number="2" type="stop"/>
        <repeat direction="backward"/>
        </barline>
      </measure>
    <measure number="30" width="240.51">
      <harmony print-frame="no">
        <root>
          <root-step>E</root-step>
          </root>
        <kind text="m">minor</kind>
        </harmony>
      <note>
        <rest/>
        <duration>6</duration>
        <voice>1</voice>
        </note>
      </measure>
    <measure number="31" width="298.82">
      <note default-x="22.18" default-y="-5.00">
        <pitch>
          <step>E</step>
          <octave>5</octave>
          </pitch>
        <duration>1</duration>
        <voice>1</voice>
        <type>eighth</type>
        <stem>down</stem>
        <beam number="1">begin</beam>
        <lyric number="1">
          <syllabic>begin</syllabic>
          <text>Mis</text>
          </lyric>
        </note>
      <note default-x="87.67" default-y="-5.00">
        <pitch>
          <step>E</step>
          <octave>5</octave>
          </pitch>
        <duration>1</duration>
        <voice>1</voice>
        <type>eighth</type>
        <stem>down</stem>
        <beam number="1">end</beam>
        <lyric number="1">
          <syllabic>end</syllabic>
          <text>ter</text>
          </lyric>
        </note>
      <note default-x="152.79" default-y="0.00">
        <pitch>
          <step>F</step>
          <alter>1</alter>
          <octave>5</octave>
          </pitch>
        <duration>4</duration>
        <voice>1</voice>
        <type>half</type>
        <stem>down</stem>
        <lyric number="1">
          <syllabic>begin</syllabic>
          <text>Bo</text>
          </lyric>
        </note>
      </measure>
    <measure number="32" width="243.71">
      <print new-system="yes">
        <system-layout>
          <system-margins>
            <left-margin>0.00</left-margin>
            <right-margin>0.00</right-margin>
            </system-margins>
          <system-distance>150.00</system-distance>
          </system-layout>
        </print>
      <harmony print-frame="no">
        <root>
          <root-step>D</root-step>
          </root>
        <kind>major</kind>
        </harmony>
      <note default-x="67.09" default-y="-10.00">
        <pitch>
          <step>D</step>
          <octave>5</octave>
          </pitch>
        <duration>1</duration>
        <voice>1</voice>
        <type>eighth</type>
        <stem>down</stem>
        <beam number="1">begin</beam>
        <lyric number="1">
          <syllabic>middle</syllabic>
          <text>jan</text>
          </lyric>
        </note>
      <note default-x="108.76" default-y="-20.00">
        <pitch>
          <step>B</step>
          <octave>4</octave>
          </pitch>
        <duration>1</duration>
        <voice>1</voice>
        <type>eighth</type>
        <stem>down</stem>
        <beam number="1">end</beam>
        </note>
      <note default-x="150.07" default-y="-25.00">
        <pitch>
          <step>A</step>
          <octave>4</octave>
          </pitch>
        <duration>4</duration>
        <tie type="start"/>
        <voice>1</voice>
        <type>half</type>
        <stem>up</stem>
        <notations>
          <tied type="start"/>
          </notations>
        <lyric number="1">
          <syllabic>end</syllabic>
          <text>gles</text>
          <extend/>
          </lyric>
        </note>
      </measure>
    <measure number="33" width="149.86">
      <note default-x="12.00" default-y="-25.00">
        <pitch>
          <step>A</step>
          <octave>4</octave>
          </pitch>
        <duration>2</duration>
        <tie type="stop"/>
        <voice>1</voice>
        <type>quarter</type>
        <stem>up</stem>
        <notations>
          <tied type="stop"/>
          </notations>
        </note>
      <note>
        <rest/>
        <duration>4</duration>
        <voice>1</voice>
        <type>half</type>
        </note>
      </measure>
    <measure number="34" width="139.20">
      <harmony print-frame="no">
        <root>
          <root-step>E</root-step>
          </root>
        <kind text="m">minor</kind>
        </harmony>
      <note>
        <rest/>
        <duration>6</duration>
        <voice>1</voice>
        </note>
      </measure>
    <measure number="35" width="197.52">
      <note default-x="22.18" default-y="-5.00">
        <pitch>
          <step>E</step>
          <octave>5</octave>
          </pitch>
        <duration>1</duration>
        <voice>1</voice>
        <type>eighth</type>
        <stem>down</stem>
        <beam number="1">begin</beam>
        <lyric number="1">
          <syllabic>begin</syllabic>
          <text>Mis</text>
          </lyric>
        </note>
      <note default-x="63.55" default-y="-5.00">
        <pitch>
          <step>E</step>
          <octave>5</octave>
          </pitch>
        <duration>1</duration>
        <voice>1</voice>
        <type>eighth</type>
        <stem>down</stem>
        <beam number="1">end</beam>
        <lyric number="1">
          <syllabic>end</syllabic>
          <text>ter</text>
          </lyric>
        </note>
      <note default-x="104.55" default-y="0.00">
        <pitch>
          <step>F</step>
          <alter>1</alter>
          <octave>5</octave>
          </pitch>
        <duration>4</duration>
        <voice>1</voice>
        <type>half</type>
        <stem>down</stem>
        <lyric number="1">
          <syllabic>begin</syllabic>
          <text>Bo</text>
          </lyric>
        </note>
      </measure>
    <measure number="36" width="197.02">
      <harmony print-frame="no">
        <root>
          <root-step>D</root-step>
          </root>
        <kind>major</kind>
        </harmony>
      <note default-x="14.00" default-y="-10.00">
        <pitch>
          <step>D</step>
          <octave>5</octave>
          </pitch>
        <duration>1</duration>
        <voice>1</voice>
        <type>eighth</type>
        <stem>down</stem>
        <beam number="1">begin</beam>
        <lyric number="1">
          <syllabic>middle</syllabic>
          <text>jan</text>
          </lyric>
        </note>
      <note default-x="57.19" default-y="-20.00">
        <pitch>
          <step>B</step>
          <octave>4</octave>
          </pitch>
        <duration>1</duration>
        <voice>1</voice>
        <type>eighth</type>
        <stem>down</stem>
        <beam number="1">end</beam>
        </note>
      <note default-x="100.03" default-y="-25.00">
        <pitch>
          <step>A</step>
          <octave>4</octave>
          </pitch>
        <duration>4</duration>
        <tie type="start"/>
        <voice>1</voice>
        <type>half</type>
        <stem>up</stem>
        <notations>
          <tied type="start"/>
          </notations>
        <lyric number="1">
          <syllabic>end</syllabic>
          <text>gles</text>
          <extend/>
          </lyric>
        </note>
      </measure>
    <measure number="37" width="149.86">
      <note default-x="12.00" default-y="-25.00">
        <pitch>
          <step>A</step>
          <octave>4</octave>
          </pitch>
        <duration>2</duration>
        <tie type="stop"/>
        <voice>1</voice>
        <type>quarter</type>
        <stem>up</stem>
        <notations>
          <tied type="stop"/>
          </notations>
        </note>
      <note>
        <rest/>
        <duration>4</duration>
        <voice>1</voice>
        <type>half</type>
        </note>
      </measure>
    <measure number="38" width="271.11">
      <print new-system="yes">
        <system-layout>
          <system-margins>
            <left-margin>0.00</left-margin>
            <right-margin>0.00</right-margin>
            </system-margins>
          <system-distance>150.00</system-distance>
          </system-layout>
        </print>
      <harmony print-frame="no">
        <root>
          <root-step>E</root-step>
          </root>
        <kind text="m">minor</kind>
        </harmony>
      <note>
        <rest/>
        <duration>6</duration>
        <voice>1</voice>
        </note>
      </measure>
    <measure number="39" width="284.74">
      <note default-x="22.18" default-y="-5.00">
        <pitch>
          <step>E</step>
          <octave>5</octave>
          </pitch>
        <duration>1</duration>
        <voice>1</voice>
        <type>eighth</type>
        <stem>down</stem>
        <beam number="1">begin</beam>
        <lyric number="1">
          <syllabic>begin</syllabic>
          <text>Mis</text>
          </lyric>
        </note>
      <note default-x="84.31" default-y="-5.00">
        <pitch>
          <step>E</step>
          <octave>5</octave>
          </pitch>
        <duration>1</duration>
        <voice>1</voice>
        <type>eighth</type>
        <stem>down</stem>
        <beam number="1">end</beam>
        <lyric number="1">
          <syllabic>end</syllabic>
          <text>ter</text>
          </lyric>
        </note>
      <note default-x="146.09" default-y="0.00">
        <pitch>
          <step>F</step>
          <alter>1</alter>
          <octave>5</octave>
          </pitch>
        <duration>4</duration>
        <voice>1</voice>
        <type>half</type>
        <stem>down</stem>
        <lyric number="1">
          <syllabic>begin</syllabic>
          <text>Bo</text>
          </lyric>
        </note>
      </measure>
    <measure number="40" width="284.24">
      <harmony print-frame="no">
        <root>
          <root-step>D</root-step>
          </root>
        <kind>major</kind>
        </harmony>
      <note default-x="14.00" default-y="-10.00">
        <pitch>
          <step>D</step>
          <octave>5</octave>
          </pitch>
        <duration>1</duration>
        <voice>1</voice>
        <type>eighth</type>
        <stem>down</stem>
        <beam number="1">begin</beam>
        <lyric number="1">
          <syllabic>middle</syllabic>
          <text>jan</text>
          </lyric>
        </note>
      <note default-x="77.96" default-y="-20.00">
        <pitch>
          <step>B</step>
          <octave>4</octave>
          </pitch>
        <duration>1</duration>
        <voice>1</voice>
        <type>eighth</type>
        <stem>down</stem>
        <beam number="1">end</beam>
        </note>
      <note default-x="141.56" default-y="-25.00">
        <pitch>
          <step>A</step>
          <octave>4</octave>
          </pitch>
        <duration>4</duration>
        <tie type="start"/>
        <voice>1</voice>
        <type>half</type>
        <stem>up</stem>
        <notations>
          <tied type="start"/>
          </notations>
        <lyric number="1">
          <syllabic>end</syllabic>
          <text>gles</text>
          <extend/>
          </lyric>
        </note>
      </measure>
    <measure number="41" width="237.08">
      <note default-x="12.00" default-y="-25.00">
        <pitch>
          <step>A</step>
          <octave>4</octave>
          </pitch>
        <duration>2</duration>
        <tie type="stop"/>
        <voice>1</voice>
        <type>quarter</type>
        <stem>up</stem>
        <notations>
          <tied type="stop"/>
          </notations>
        </note>
      <note>
        <rest/>
        <duration>4</duration>
        <voice>1</voice>
        <type>half</type>
        </note>
      </measure>
    <measure number="42" width="261.74">
      <print new-system="yes">
        <system-layout>
          <system-margins>
            <left-margin>0.00</left-margin>
            <right-margin>0.00</right-margin>
            </system-margins>
          <system-distance>150.00</system-distance>
          </system-layout>
        </print>
      <harmony print-frame="no">
        <root>
          <root-step>G</root-step>
          </root>
        <kind>major</kind>
        </harmony>
      <note default-x="66.73" default-y="-30.00">
        <pitch>
          <step>G</step>
          <octave>4</octave>
          </pitch>
        <duration>6</duration>
        <tie type="start"/>
        <voice>1</voice>
        <type>half</type>
        <dot/>
        <stem>up</stem>
        <notations>
          <tied type="start"/>
          </notations>
        <lyric number="1">
          <syllabic>single</syllabic>
          <text>dance</text>
          <extend/>
          </lyric>
        </note>
      </measure>
    <measure number="43" width="196.93">
      <note default-x="12.00" default-y="-30.00">
        <pitch>
          <step>G</step>
          <octave>4</octave>
          </pitch>
        <duration>2</duration>
        <tie type="stop"/>
        <voice>1</voice>
        <type>quarter</type>
        <stem>up</stem>
        <notations>
          <tied type="stop"/>
          </notations>
        </note>
      <note>
        <rest/>
        <duration>4</duration>
        <voice>1</voice>
        <type>half</type>
        </note>
      </measure>
    <measure number="44" width="181.27">
      <note>
        <rest/>
        <duration>6</duration>
        <voice>1</voice>
        </note>
      </measure>
    <measure number="45" width="246.96">
      <barline location="left">
        <ending number="1" type="start"/>
        </barline>
      <note>
        <rest/>
        <duration>4</duration>
        <voice>1</voice>
        <type>half</type>
        </note>
      <note>
        <rest/>
        <duration>2</duration>
        <voice>1</voice>
        <type>quarter</type>
        </note>
      <note>
        <rest/>
        <duration>1</duration>
        <voice>1</voice>
        <type>eighth</type>
        </note>
      <barline location="right">
        <bar-style>light-heavy</bar-style>
        <ending number="1" type="stop"/>
        <repeat direction="backward"/>
        </barline>
      </measure>
    <measure number="46" width="190.27">
      <barline location="left">
        <ending number="2" type="start"/>
        </barline>
      <note>
        <rest/>
        <duration>6</duration>
        <voice>1</voice>
        </note>
      <barline location="right">
        <bar-style>light-heavy</bar-style>
        <ending number="2" type="stop"/>
        </barline>
      </measure>
    </part>
  </score-partwise>
