<?xml version="1.0" encoding="UTF-8" standalone="no"?>
<!DOCTYPE score-partwise PUBLIC "-//Recordare//DTD MusicXML 3.1 Partwise//EN" "http://www.musicxml.org/dtds/partwise.dtd">
<score-partwise version="3.1">
  <movement-title>Albumblätter</movement-title>
  <identification>
    <creator type="composer">Carl Bohm</creator>
    <creator type="arranger">Prénom Nom</creator>
    <rights>www.antescofo.com</rights>
    <encoding>
      <software>Finale v25 for Mac</software>
      <encoding-date>2019-09-25</encoding-date>
      <supports attribute="new-system" element="print" type="yes" value="yes"/>
      <supports attribute="new-page" element="print" type="yes" value="yes"/>
      <supports element="accidental" type="yes"/>
      <supports element="beam" type="yes"/>
      <supports element="stem" type="yes"/>
    </encoding>
  </identification>
  <defaults>
    <scaling>
      <millimeters>6.096</millimeters>
      <tenths>40</tenths>
    </scaling>
    <page-layout>
      <page-height>1949</page-height>
      <page-width>1378</page-width>
      <page-margins type="both">
        <left-margin>98</left-margin>
        <right-margin>98</right-margin>
        <top-margin>98</top-margin>
        <bottom-margin>98</bottom-margin>
      </page-margins>
    </page-layout>
    <system-layout>
      <system-margins>
        <left-margin>0</left-margin>
        <right-margin>0</right-margin>
      </system-margins>
      <system-distance>118</system-distance>
      <top-system-distance>65</top-system-distance>
    </system-layout>
    <appearance>
      <line-width type="stem">0.7487</line-width>
      <line-width type="beam">5</line-width>
      <line-width type="staff">0.7487</line-width>
      <line-width type="light barline">0.7487</line-width>
      <line-width type="heavy barline">5</line-width>
      <line-width type="leger">0.7487</line-width>
      <line-width type="ending">0.7487</line-width>
      <line-width type="wedge">0.7487</line-width>
      <line-width type="enclosure">0.7487</line-width>
      <line-width type="tuplet bracket">0.7487</line-width>
      <note-size type="grace">60</note-size>
      <note-size type="cue">60</note-size>
      <distance type="hyphen">120</distance>
      <distance type="beam">8</distance>
    </appearance>
    <music-font font-family="Maestro,engraved" font-size="17.3"/>
    <word-font font-family="Times New Roman" font-size="8.6"/>
  </defaults>
  <credit page="1">
    <credit-words default-x="689" default-y="65" font-size="12" font-style="italic" justify="center" valign="bottom">www.antescofo.com</credit-words>
  </credit>
  <credit page="1">
    <credit-words default-x="689" default-y="1895" font-size="24" font-weight="bold" justify="center" valign="top" xml:lang="de">Albumblätter</credit-words>
  </credit>
  <credit page="1">
    <credit-words default-x="1280" default-y="1800" font-size="14" font-weight="bold" justify="right" valign="top">Carl Bohm</credit-words>
  </credit>
  <credit page="1">
    <credit-words default-x="689" default-y="1836" font-size="14" font-weight="bold" justify="center" valign="top">3. Sarabande</credit-words>
  </credit>
  <part-list>
    <score-part id="P1">
      <part-name print-object="no">MusicXML Part</part-name>
      <score-instrument id="P1-I1">
        <instrument-name>ARIA Player</instrument-name>
        <instrument-sound>keyboard.piano</instrument-sound>
        <virtual-instrument/>
      </score-instrument>
      <midi-device>Bank 1</midi-device>
      <midi-instrument id="P1-I1">
        <midi-channel>2</midi-channel>
        <midi-program>1</midi-program>
        <volume>80</volume>
        <pan>-18</pan>
      </midi-instrument>
    </score-part>
  </part-list>
  <!--=========================================================-->
  <part id="P1">
    <measure number="1" width="602">
      <print>
        <system-layout>
          <system-margins>
            <left-margin>81</left-margin>
            <right-margin>0</right-margin>
          </system-margins>
          <top-system-distance>163</top-system-distance>
        </system-layout>
        <measure-numbering>system</measure-numbering>
      </print>
      <attributes>
        <divisions>48</divisions>
        <key>
          <fifths>-2</fifths>
          <mode>minor</mode>
        </key>
        <time>
          <beats>3</beats>
          <beat-type>4</beat-type>
        </time>
        <clef>
          <sign>F</sign>
          <line>4</line>
        </clef>
        <staff-details>
          <staff-size>95</staff-size>
        </staff-details>
      </attributes>
      <sound tempo="120"/>
      <direction placement="above">
        <direction-type>
          <dynamics default-y="17" halign="left">
            <p/>
          </dynamics>
        </direction-type>
        <sound dynamics="54"/>
      </direction>
      <note default-x="119">
        <pitch>
          <step>D</step>
          <octave>1</octave>
        </pitch>
        <duration>72</duration>
        <voice>1</voice>
        <type>half</type>
        <dot/>
        <time-modification>
          <actual-notes>2</actual-notes>
          <normal-notes>1</normal-notes>
        </time-modification>
        <stem default-y="-126">down</stem>
        <beam number="1">begin</beam>
        <beam number="2">begin</beam>
        <beam number="3">begin</beam>
        <notations>
          <ornaments>
            <tremolo type="start">0</tremolo>
          </ornaments>
        </notations>
      </note>
      <note default-x="360">
        <pitch>
          <step>D</step>
          <octave>2</octave>
        </pitch>
        <duration>72</duration>
        <voice>1</voice>
        <type>half</type>
        <dot/>
        <time-modification>
          <actual-notes>2</actual-notes>
          <normal-notes>1</normal-notes>
        </time-modification>
        <stem default-y="-121">down</stem>
        <beam number="1">end</beam>
        <beam number="2">end</beam>
        <beam number="3">end</beam>
        <notations>
          <ornaments>
            <tremolo type="stop">0</tremolo>
          </ornaments>
        </notations>
      </note>
    </measure>
    <!--=======================================================-->
    <measure number="2" width="498">
      <note default-x="16">
        <pitch>
          <step>D</step>
          <octave>1</octave>
        </pitch>
        <duration>72</duration>
        <voice>1</voice>
        <type>half</type>
        <dot/>
        <time-modification>
          <actual-notes>2</actual-notes>
          <normal-notes>1</normal-notes>
        </time-modification>
        <stem default-y="-16.5">up</stem>
        <beam number="1">begin</beam>
        <beam number="2">begin</beam>
        <beam number="3">begin</beam>
        <notations>
          <ornaments>
            <tremolo type="start">0</tremolo>
          </ornaments>
        </notations>
      </note>
      <note default-x="258">
        <pitch>
          <step>D</step>
          <octave>2</octave>
        </pitch>
        <duration>72</duration>
        <voice>1</voice>
        <type>half</type>
        <dot/>
        <time-modification>
          <actual-notes>2</actual-notes>
          <normal-notes>1</normal-notes>
        </time-modification>
        <stem default-y="-12">up</stem>
        <beam number="1">end</beam>
        <beam number="2">end</beam>
        <beam number="3">end</beam>
        <notations>
          <ornaments>
            <tremolo type="stop">0</tremolo>
          </ornaments>
        </notations>
      </note>
    </measure>
    <!--=======================================================-->
    <measure number="3" width="469">
      <print new-system="yes">
        <system-layout>
          <system-distance>193</system-distance>
        </system-layout>
      </print>
      <note default-x="87">
        <pitch>
          <step>D</step>
          <octave>4</octave>
        </pitch>
        <duration>24</duration>
        <voice>1</voice>
        <type>eighth</type>
        <stem default-y="-19.5">down</stem>
      </note>
      <note default-x="160">
        <rest/>
        <duration>24</duration>
        <voice>1</voice>
        <type>eighth</type>
      </note>
      <note default-x="234">
        <rest/>
        <duration>48</duration>
        <voice>1</voice>
        <type>quarter</type>
      </note>
      <note default-x="351">
        <rest/>
        <duration>48</duration>
        <voice>1</voice>
        <type>quarter</type>
      </note>
    </measure>
    <!--=======================================================-->
    <measure number="4" width="334">
      <note default-x="17">
        <pitch>
          <step>D</step>
          <octave>2</octave>
        </pitch>
        <duration>72</duration>
        <voice>1</voice>
        <type>half</type>
        <dot/>
        <time-modification>
          <actual-notes>2</actual-notes>
          <normal-notes>1</normal-notes>
        </time-modification>
        <stem default-y="26">up</stem>
        <beam number="1">begin</beam>
        <beam number="2">begin</beam>
        <beam number="3">begin</beam>
        <notations>
          <ornaments>
            <tremolo type="start">0</tremolo>
          </ornaments>
        </notations>
      </note>
      <note default-x="17">
        <chord/>
        <pitch>
          <step>A</step>
          <octave>2</octave>
        </pitch>
        <duration>72</duration>
        <voice>1</voice>
        <type>half</type>
        <dot/>
        <time-modification>
          <actual-notes>2</actual-notes>
          <normal-notes>1</normal-notes>
        </time-modification>
        <stem>up</stem>
      </note>
      <note default-x="175">
        <pitch>
          <step>D</step>
          <octave>3</octave>
        </pitch>
        <duration>72</duration>
        <voice>1</voice>
        <type>half</type>
        <dot/>
        <time-modification>
          <actual-notes>2</actual-notes>
          <normal-notes>1</normal-notes>
        </time-modification>
        <stem default-y="31">up</stem>
        <beam number="1">end</beam>
        <beam number="2">end</beam>
        <beam number="3">end</beam>
        <notations>
          <ornaments>
            <tremolo type="stop">0</tremolo>
          </ornaments>
        </notations>
      </note>
      <note default-x="175">
        <chord/>
        <pitch>
          <step>F</step>
          <octave>3</octave>
        </pitch>
        <duration>72</duration>
        <voice>1</voice>
        <type>half</type>
        <dot/>
        <time-modification>
          <actual-notes>2</actual-notes>
          <normal-notes>1</normal-notes>
        </time-modification>
        <stem>up</stem>
      </note>
    </measure>
    <!--=======================================================-->
    <measure number="5" width="378">
      <note default-x="25">
        <pitch>
          <step>D</step>
          <octave>2</octave>
        </pitch>
        <duration>72</duration>
        <voice>1</voice>
        <type>half</type>
        <dot/>
        <time-modification>
          <actual-notes>2</actual-notes>
          <normal-notes>1</normal-notes>
        </time-modification>
        <stem default-y="35.5">up</stem>
        <beam number="1">begin</beam>
        <beam number="2">begin</beam>
        <beam number="3">begin</beam>
        <notations>
          <ornaments>
            <tremolo type="start">0</tremolo>
          </ornaments>
        </notations>
      </note>
      <note default-x="37">
        <chord/>
        <pitch>
          <step>E</step>
          <octave>2</octave>
        </pitch>
        <duration>72</duration>
        <voice>1</voice>
        <type>half</type>
        <dot/>
        <accidental>natural</accidental>
        <time-modification>
          <actual-notes>2</actual-notes>
          <normal-notes>1</normal-notes>
        </time-modification>
        <stem>up</stem>
      </note>
      <note default-x="25">
        <chord/>
        <pitch>
          <step>B</step>
          <alter>-1</alter>
          <octave>2</octave>
        </pitch>
        <duration>72</duration>
        <voice>1</voice>
        <type>half</type>
        <dot/>
        <time-modification>
          <actual-notes>2</actual-notes>
          <normal-notes>1</normal-notes>
        </time-modification>
        <stem>up</stem>
      </note>
      <note default-x="201">
        <pitch>
          <step>C</step>
          <alter>1</alter>
          <octave>3</octave>
        </pitch>
        <duration>72</duration>
        <voice>1</voice>
        <type>half</type>
        <dot/>
        <accidental>sharp</accidental>
        <time-modification>
          <actual-notes>2</actual-notes>
          <normal-notes>1</normal-notes>
        </time-modification>
        <stem default-y="41">up</stem>
        <beam number="1">end</beam>
        <beam number="2">end</beam>
        <beam number="3">end</beam>
        <notations>
          <ornaments>
            <tremolo type="stop">0</tremolo>
          </ornaments>
        </notations>
      </note>
      <note default-x="213">
        <chord/>
        <pitch>
          <step>D</step>
          <octave>3</octave>
        </pitch>
        <duration>72</duration>
        <voice>1</voice>
        <type>half</type>
        <dot/>
        <time-modification>
          <actual-notes>2</actual-notes>
          <normal-notes>1</normal-notes>
        </time-modification>
        <stem>up</stem>
      </note>
      <note default-x="201">
        <chord/>
        <pitch>
          <step>A</step>
          <octave>3</octave>
        </pitch>
        <duration>72</duration>
        <voice>1</voice>
        <type>half</type>
        <dot/>
        <time-modification>
          <actual-notes>2</actual-notes>
          <normal-notes>1</normal-notes>
        </time-modification>
        <stem>up</stem>
      </note>
    </measure>
    <!--=======================================================-->
    <measure number="6" width="388">
      <print new-system="yes">
        <system-layout>
          <system-distance>195</system-distance>
        </system-layout>
      </print>
      <note default-x="87">
        <pitch>
          <step>D</step>
          <octave>2</octave>
        </pitch>
        <duration>72</duration>
        <voice>1</voice>
        <type>half</type>
        <dot/>
        <time-modification>
          <actual-notes>2</actual-notes>
          <normal-notes>1</normal-notes>
        </time-modification>
        <stem default-y="36">up</stem>
        <beam number="1">begin</beam>
        <beam number="2">begin</beam>
        <beam number="3">begin</beam>
        <notations>
          <ornaments>
            <tremolo type="start">0</tremolo>
          </ornaments>
        </notations>
      </note>
      <note default-x="87">
        <chord/>
        <pitch>
          <step>F</step>
          <octave>2</octave>
        </pitch>
        <duration>72</duration>
        <voice>1</voice>
        <type>half</type>
        <dot/>
        <time-modification>
          <actual-notes>2</actual-notes>
          <normal-notes>1</normal-notes>
        </time-modification>
        <stem>up</stem>
      </note>
      <note default-x="87">
        <chord/>
        <pitch>
          <step>A</step>
          <octave>2</octave>
        </pitch>
        <duration>72</duration>
        <voice>1</voice>
        <type>half</type>
        <dot/>
        <time-modification>
          <actual-notes>2</actual-notes>
          <normal-notes>1</normal-notes>
        </time-modification>
        <stem>up</stem>
      </note>
      <note default-x="237">
        <pitch>
          <step>D</step>
          <octave>3</octave>
        </pitch>
        <duration>72</duration>
        <voice>1</voice>
        <type>half</type>
        <dot/>
        <time-modification>
          <actual-notes>2</actual-notes>
          <normal-notes>1</normal-notes>
        </time-modification>
        <stem default-y="40">up</stem>
        <beam number="1">end</beam>
        <beam number="2">end</beam>
        <beam number="3">end</beam>
        <notations>
          <ornaments>
            <tremolo type="stop">0</tremolo>
          </ornaments>
        </notations>
      </note>
      <note default-x="237">
        <chord/>
        <pitch>
          <step>F</step>
          <octave>3</octave>
        </pitch>
        <duration>72</duration>
        <voice>1</voice>
        <type>half</type>
        <dot/>
        <time-modification>
          <actual-notes>2</actual-notes>
          <normal-notes>1</normal-notes>
        </time-modification>
        <stem>up</stem>
      </note>
      <note default-x="237">
        <chord/>
        <pitch>
          <step>A</step>
          <octave>3</octave>
        </pitch>
        <duration>72</duration>
        <voice>1</voice>
        <type>half</type>
        <dot/>
        <time-modification>
          <actual-notes>2</actual-notes>
          <normal-notes>1</normal-notes>
        </time-modification>
        <stem>up</stem>
      </note>
    </measure>
    <!--=======================================================-->
    <measure number="7" width="477">
      <note default-x="52">
        <pitch>
          <step>D</step>
          <alter>1</alter>
          <octave>2</octave>
        </pitch>
        <duration>72</duration>
        <voice>1</voice>
        <type>half</type>
        <dot/>
        <accidental>sharp</accidental>
        <time-modification>
          <actual-notes>2</actual-notes>
          <normal-notes>1</normal-notes>
        </time-modification>
        <stem default-y="36">up</stem>
        <beam number="1">begin</beam>
        <beam number="2">begin</beam>
        <beam number="3">begin</beam>
        <notations>
          <ornaments>
            <tremolo type="start">0</tremolo>
          </ornaments>
        </notations>
      </note>
      <note default-x="52">
        <chord/>
        <pitch>
          <step>F</step>
          <alter>1</alter>
          <octave>2</octave>
        </pitch>
        <duration>72</duration>
        <voice>1</voice>
        <type>half</type>
        <dot/>
        <accidental>sharp</accidental>
        <time-modification>
          <actual-notes>2</actual-notes>
          <normal-notes>1</normal-notes>
        </time-modification>
        <stem>up</stem>
      </note>
      <note default-x="52">
        <chord/>
        <pitch>
          <step>A</step>
          <alter>1</alter>
          <octave>2</octave>
        </pitch>
        <duration>72</duration>
        <voice>1</voice>
        <type>half</type>
        <dot/>
        <accidental>sharp</accidental>
        <time-modification>
          <actual-notes>2</actual-notes>
          <normal-notes>1</normal-notes>
        </time-modification>
        <stem>up</stem>
      </note>
      <note default-x="264">
        <pitch>
          <step>D</step>
          <alter>1</alter>
          <octave>3</octave>
        </pitch>
        <duration>72</duration>
        <voice>1</voice>
        <type>half</type>
        <dot/>
        <accidental>sharp</accidental>
        <time-modification>
          <actual-notes>2</actual-notes>
          <normal-notes>1</normal-notes>
        </time-modification>
        <stem default-y="40">up</stem>
        <beam number="1">end</beam>
        <beam number="2">end</beam>
        <beam number="3">end</beam>
        <notations>
          <ornaments>
            <tremolo type="stop">0</tremolo>
          </ornaments>
        </notations>
      </note>
      <note default-x="264">
        <chord/>
        <pitch>
          <step>F</step>
          <alter>1</alter>
          <octave>3</octave>
        </pitch>
        <duration>72</duration>
        <voice>1</voice>
        <type>half</type>
        <dot/>
        <accidental>sharp</accidental>
        <time-modification>
          <actual-notes>2</actual-notes>
          <normal-notes>1</normal-notes>
        </time-modification>
        <stem>up</stem>
      </note>
      <note default-x="264">
        <chord/>
        <pitch>
          <step>A</step>
          <alter>1</alter>
          <octave>3</octave>
        </pitch>
        <duration>72</duration>
        <voice>1</voice>
        <type>half</type>
        <dot/>
        <accidental>sharp</accidental>
        <time-modification>
          <actual-notes>2</actual-notes>
          <normal-notes>1</normal-notes>
        </time-modification>
        <stem>up</stem>
      </note>
    </measure>
    <!--=======================================================-->
    <measure number="8" width="317">
      <note default-x="16">
        <pitch>
          <step>D</step>
          <octave>2</octave>
        </pitch>
        <duration>72</duration>
        <voice>1</voice>
        <type>half</type>
        <dot/>
        <time-modification>
          <actual-notes>2</actual-notes>
          <normal-notes>1</normal-notes>
        </time-modification>
        <stem default-y="9.5">up</stem>
        <beam number="1">begin</beam>
        <beam number="2">begin</beam>
        <notations>
          <ornaments>
            <tremolo type="start">0</tremolo>
          </ornaments>
        </notations>
      </note>
      <note default-x="167">
        <pitch>
          <step>D</step>
          <octave>3</octave>
        </pitch>
        <duration>72</duration>
        <voice>1</voice>
        <type>half</type>
        <dot/>
        <time-modification>
          <actual-notes>2</actual-notes>
          <normal-notes>1</normal-notes>
        </time-modification>
        <stem default-y="14">up</stem>
        <beam number="1">end</beam>
        <beam number="2">end</beam>
        <notations>
          <ornaments>
            <tremolo type="stop">0</tremolo>
          </ornaments>
        </notations>
      </note>
    </measure>
    <!--=======================================================-->
    <measure number="9" width="367">
      <print new-system="yes">
        <system-layout>
          <system-distance>220</system-distance>
        </system-layout>
      </print>
      <attributes>
        <staff-details>
          <staff-size>100</staff-size>
        </staff-details>
      </attributes>
      <note default-x="90">
        <pitch>
          <step>D</step>
          <octave>2</octave>
        </pitch>
        <duration>72</duration>
        <voice>1</voice>
        <type>half</type>
        <dot/>
        <time-modification>
          <actual-notes>2</actual-notes>
          <normal-notes>1</normal-notes>
        </time-modification>
        <stem default-y="10">up</stem>
        <beam number="1">begin</beam>
        <notations>
          <ornaments>
            <tremolo type="start">0</tremolo>
          </ornaments>
        </notations>
      </note>
      <note default-x="229">
        <pitch>
          <step>D</step>
          <octave>3</octave>
        </pitch>
        <duration>72</duration>
        <voice>1</voice>
        <type>half</type>
        <dot/>
        <time-modification>
          <actual-notes>2</actual-notes>
          <normal-notes>1</normal-notes>
        </time-modification>
        <stem default-y="15">up</stem>
        <beam number="1">end</beam>
        <notations>
          <ornaments>
            <tremolo type="stop">0</tremolo>
          </ornaments>
        </notations>
      </note>
    </measure>
    <!--=======================================================-->
    <measure number="10" width="388">
      <note default-x="16">
        <pitch>
          <step>D</step>
          <octave>2</octave>
        </pitch>
        <duration>24</duration>
        <voice>1</voice>
        <type>eighth</type>
        <stem default-y="-19">up</stem>
      </note>
      <note default-x="83">
        <rest/>
        <duration>24</duration>
        <voice>1</voice>
        <type>eighth</type>
      </note>
      <note default-x="148">
        <pitch>
          <step>A</step>
          <octave>2</octave>
        </pitch>
        <duration>24</duration>
        <voice>1</voice>
        <type>quarter</type>
        <time-modification>
          <actual-notes>2</actual-notes>
          <normal-notes>1</normal-notes>
        </time-modification>
        <stem default-y="-77">down</stem>
        <notations>
          <ornaments>
            <tremolo type="start">3</tremolo>
          </ornaments>
        </notations>
      </note>
      <note default-x="148">
        <chord/>
        <pitch>
          <step>D</step>
          <octave>3</octave>
        </pitch>
        <duration>24</duration>
        <voice>1</voice>
        <type>quarter</type>
        <time-modification>
          <actual-notes>2</actual-notes>
          <normal-notes>1</normal-notes>
        </time-modification>
        <stem>down</stem>
      </note>
      <note default-x="215">
        <pitch>
          <step>A</step>
          <octave>3</octave>
        </pitch>
        <duration>24</duration>
        <voice>1</voice>
        <type>quarter</type>
        <time-modification>
          <actual-notes>2</actual-notes>
          <normal-notes>1</normal-notes>
        </time-modification>
        <stem default-y="-72.5">down</stem>
        <notations>
          <ornaments>
            <tremolo type="stop">3</tremolo>
          </ornaments>
        </notations>
      </note>
      <note default-x="215">
        <chord/>
        <pitch>
          <step>D</step>
          <octave>4</octave>
        </pitch>
        <duration>24</duration>
        <voice>1</voice>
        <type>quarter</type>
        <time-modification>
          <actual-notes>2</actual-notes>
          <normal-notes>1</normal-notes>
        </time-modification>
        <stem>down</stem>
      </note>
      <note default-x="281">
        <pitch>
          <step>D</step>
          <octave>3</octave>
        </pitch>
        <duration>48</duration>
        <voice>1</voice>
        <type>quarter</type>
        <stem default-y="-55">down</stem>
        <notations>
          <articulations>
            <staccato default-x="3" default-y="-7" placement="above"/>
          </articulations>
        </notations>
      </note>
    </measure>
    <!--=======================================================-->
    <measure number="11" width="425">
      <note default-x="13">
        <pitch>
          <step>D</step>
          <octave>3</octave>
        </pitch>
        <duration>24</duration>
        <voice>1</voice>
        <type>eighth</type>
        <stem default-y="15">up</stem>
      </note>
      <note default-x="90">
        <rest>
          <display-step>C</display-step>
          <display-octave>4</display-octave>
        </rest>
        <duration>24</duration>
        <voice>1</voice>
        <type>eighth</type>
      </note>
      <note default-x="166">
        <pitch>
          <step>A</step>
          <octave>3</octave>
        </pitch>
        <duration>24</duration>
        <voice>1</voice>
        <type>quarter</type>
        <time-modification>
          <actual-notes>2</actual-notes>
          <normal-notes>1</normal-notes>
        </time-modification>
        <stem default-y="88">up</stem>
        <notations>
          <ornaments>
            <tremolo type="start">3</tremolo>
          </ornaments>
        </notations>
      </note>
      <note default-x="166">
        <chord/>
        <pitch>
          <step>D</step>
          <octave>4</octave>
        </pitch>
        <duration>24</duration>
        <voice>1</voice>
        <type>quarter</type>
        <time-modification>
          <actual-notes>2</actual-notes>
          <normal-notes>1</normal-notes>
        </time-modification>
        <stem>up</stem>
      </note>
      <note default-x="238">
        <pitch>
          <step>A</step>
          <octave>4</octave>
        </pitch>
        <duration>24</duration>
        <voice>1</voice>
        <type>quarter</type>
        <time-modification>
          <actual-notes>2</actual-notes>
          <normal-notes>1</normal-notes>
        </time-modification>
        <stem default-y="93">up</stem>
        <notations>
          <ornaments>
            <tremolo type="stop">3</tremolo>
          </ornaments>
        </notations>
      </note>
      <note default-x="238">
        <chord/>
        <pitch>
          <step>D</step>
          <octave>5</octave>
        </pitch>
        <duration>24</duration>
        <voice>1</voice>
        <type>quarter</type>
        <time-modification>
          <actual-notes>2</actual-notes>
          <normal-notes>1</normal-notes>
        </time-modification>
        <stem>up</stem>
      </note>
      <note default-x="306">
        <pitch>
          <step>D</step>
          <octave>4</octave>
        </pitch>
        <duration>48</duration>
        <voice>1</voice>
        <type>quarter</type>
        <stem default-y="44">up</stem>
        <notations>
          <articulations>
            <staccato default-x="3" default-y="49" placement="above"/>
          </articulations>
        </notations>
      </note>
      <backup>
        <duration>144</duration>
      </backup>
      <note default-x="13">
        <rest>
          <display-step>E</display-step>
          <display-octave>2</display-octave>
        </rest>
        <duration>16</duration>
        <voice>2</voice>
        <type>eighth</type>
        <time-modification>
          <actual-notes>3</actual-notes>
          <normal-notes>2</normal-notes>
        </time-modification>
        <notations>
          <tuplet bracket="yes" number="1" type="start"/>
        </notations>
      </note>
      <note default-x="64">
        <pitch>
          <step>A</step>
          <octave>2</octave>
        </pitch>
        <duration>16</duration>
        <voice>2</voice>
        <type>eighth</type>
        <time-modification>
          <actual-notes>3</actual-notes>
          <normal-notes>2</normal-notes>
        </time-modification>
        <stem default-y="-70">down</stem>
        <beam number="1">begin</beam>
      </note>
      <note default-x="115">
        <pitch>
          <step>G</step>
          <octave>2</octave>
        </pitch>
        <duration>16</duration>
        <voice>2</voice>
        <type>eighth</type>
        <time-modification>
          <actual-notes>3</actual-notes>
          <normal-notes>2</normal-notes>
        </time-modification>
        <stem default-y="-75">down</stem>
        <beam number="1">end</beam>
        <notations>
          <tuplet number="1" type="stop"/>
        </notations>
      </note>
      <note default-x="166">
        <pitch>
          <step>F</step>
          <octave>2</octave>
        </pitch>
        <duration>16</duration>
        <voice>2</voice>
        <type>eighth</type>
        <time-modification>
          <actual-notes>3</actual-notes>
          <normal-notes>2</normal-notes>
        </time-modification>
        <stem default-y="-80">down</stem>
        <notations>
          <tuplet bracket="yes" number="1" type="start"/>
        </notations>
      </note>
      <note default-x="217">
        <pitch>
          <step>E</step>
          <alter>-1</alter>
          <octave>2</octave>
        </pitch>
        <duration>32</duration>
        <voice>2</voice>
        <type>quarter</type>
        <time-modification>
          <actual-notes>3</actual-notes>
          <normal-notes>2</normal-notes>
        </time-modification>
        <stem default-y="-78.5">down</stem>
        <notations>
          <tuplet number="1" type="stop"/>
        </notations>
      </note>
      <note default-x="306">
        <pitch>
          <step>D</step>
          <octave>2</octave>
        </pitch>
        <duration>48</duration>
        <voice>2</voice>
        <type>quarter</type>
        <stem default-y="-83.5">down</stem>
        <notations>
          <articulations>
            <staccato default-x="3" default-y="-92" placement="below"/>
          </articulations>
        </notations>
      </note>
      <barline location="right">
        <bar-style>light-heavy</bar-style>
      </barline>
    </measure>
  </part>
  <!--=========================================================-->
</score-partwise>
