<?xml version="1.0" encoding="UTF-8" standalone="no"?>
<!DOCTYPE score-partwise PUBLIC "-//Recordare//DTD MusicXML 2.0 Partwise//EN" "http://www.musicxml.org/dtds/partwise.dtd">
<score-partwise version="2.0">
 <work>
  <work-title>I Will Survive</work-title>
 </work>
 <identification>
  <creator type="composer">accel.</creator>
  <creator type="poet"></creator>
  <rights>Copyright 1978 Bibo Music Publication c/o Universal Music Publication France. This arrangement copyright Music Centre Sion&#x9088;</rights>
  <encoding>
   <software>Neuratron PhotoScore</software>
   <encoding-description>MusicXML 2.0</encoding-description>
  </encoding>
  <source>Scanned sheet music</source>
 </identification>
 <defaults>
  <scaling>
   <millimeters>69</millimeters>
   <tenths>400</tenths>
  </scaling>
  <page-layout>
   <page-height>1259</page-height>
   <page-width>1728</page-width>
  </page-layout>
 </defaults>
 <part-list>
  <score-part id="P1">
   <part-name></part-name>
   <part-abbreviation></part-abbreviation>
   <score-instrument id="P1-I1">
    <instrument-name></instrument-name>
   </score-instrument>
   <midi-instrument id="P1-I1">
    <midi-channel>1</midi-channel>
    <midi-program>1</midi-program>
   </midi-instrument>
  </score-part>
 </part-list>
 <part id="P1">
  <measure number="1">
   <attributes>
    <divisions>4</divisions>
    <key>
     <fifths>-1</fifths>
    </key>
    <time>
     <beats>4</beats>
     <beat-type>4</beat-type>
    </time>
    <clef number="1">
     <sign>G</sign>
     <line>2</line>
    </clef>
   </attributes>
   <direction placement="above">
    <direction-type>
     <metronome relative-y="32" relative-x="-52">
      <beat-unit>quarter</beat-unit>
      <per-minute>96</per-minute>
     </metronome>
    </direction-type>
   </direction>
   <direction placement="above">
    <direction-type>
     <dynamics relative-y="-66" relative-x="-40">
      <mf/>
     </dynamics>
    </direction-type>
    <offset>0</offset>
    <sound dynamics="83"/>
   </direction>
   <note>
    <pitch>
     <step>D</step>
     <octave>5</octave>
    </pitch>
    <duration>2</duration>
    <voice>1</voice>
    <type>eighth</type>
    <stem>down</stem>
    <beam number="1">begin</beam>
   </note>
   <note>
    <pitch>
     <step>D</step>
     <octave>5</octave>
    </pitch>
    <duration>2</duration>
    <voice>1</voice>
    <type>eighth</type>
    <stem>down</stem>
    <beam number="1">end</beam>
   </note>
   <note>
    <pitch>
     <step>D</step>
     <octave>5</octave>
    </pitch>
    <duration>2</duration>
    <voice>1</voice>
    <type>eighth</type>
    <stem>down</stem>
    <beam number="1">begin</beam>
   </note>
   <note>
    <pitch>
     <step>D</step>
     <octave>5</octave>
    </pitch>
    <duration>1</duration>
    <voice>1</voice>
    <type>16th</type>
    <stem>down</stem>
    <beam number="1">continue</beam>
    <beam number="2">continue</beam>
   </note>
   <note>
    <pitch>
     <step>D</step>
     <octave>5</octave>
    </pitch>
    <duration>1</duration>
    <tie type="start"/>
    <voice>1</voice>
    <type>16th</type>
    <stem>down</stem>
    <beam number="1">end</beam>
    <beam number="2">end</beam>
    <notations>
     <tied type="start"/>
    </notations>
   </note>
   <note>
    <pitch>
     <step>D</step>
     <octave>5</octave>
    </pitch>
    <duration>4</duration>
    <tie type="stop"/>
    <voice>1</voice>
    <type>quarter</type>
    <stem>down</stem>
    <notations>
     <tied type="stop"/>
    </notations>
   </note>
   <note>
    <pitch>
     <step>E</step>
     <octave>5</octave>
    </pitch>
    <duration>2</duration>
    <voice>1</voice>
    <type>eighth</type>
    <stem>down</stem>
    <beam number="1">begin</beam>
   </note>
   <note>
    <pitch>
     <step>F</step>
     <octave>5</octave>
    </pitch>
    <duration>2</duration>
    <voice>1</voice>
    <type>eighth</type>
    <stem>down</stem>
    <beam number="1">end</beam>
   </note>
  </measure>
  <measure number="2">
   <note>
    <pitch>
     <step>E</step>
     <octave>5</octave>
    </pitch>
    <duration>2</duration>
    <voice>1</voice>
    <type>eighth</type>
    <stem>down</stem>
    <beam number="1">begin</beam>
    <notations>
     <slur type="start" number="1"/>
    </notations>
   </note>
   <note>
    <pitch>
     <step>D</step>
     <octave>5</octave>
    </pitch>
    <duration>2</duration>
    <voice>1</voice>
    <type>eighth</type>
    <stem>down</stem>
    <beam number="1">end</beam>
    <notations>
     <slur type="stop" number="1"/>
    </notations>
   </note>
   <note>
    <pitch>
     <step>D</step>
     <octave>5</octave>
    </pitch>
    <duration>6</duration>
    <voice>1</voice>
    <type>quarter</type>
    <dot/>
    <stem>down</stem>
   </note>
   <note>
    <rest/>
    <duration>2</duration>
    <voice>1</voice>
    <type>eighth</type>
   </note>
   <note>
    <pitch>
     <step>D</step>
     <octave>5</octave>
    </pitch>
    <duration>2</duration>
    <voice>1</voice>
    <type>eighth</type>
    <stem>down</stem>
    <beam number="1">begin</beam>
   </note>
   <note>
    <pitch>
     <step>D</step>
     <octave>5</octave>
    </pitch>
    <duration>2</duration>
    <voice>1</voice>
    <type>eighth</type>
    <stem>down</stem>
    <beam number="1">end</beam>
   </note>
  </measure>
  <measure number="3">
   <note>
    <pitch>
     <step>D</step>
     <octave>5</octave>
    </pitch>
    <duration>2</duration>
    <voice>1</voice>
    <type>eighth</type>
    <stem>down</stem>
    <beam number="1">begin</beam>
   </note>
   <note>
    <pitch>
     <step>C</step>
     <octave>5</octave>
    </pitch>
    <duration>2</duration>
    <voice>1</voice>
    <type>eighth</type>
    <stem>down</stem>
    <beam number="1">end</beam>
   </note>
   <note>
    <pitch>
     <step>C</step>
     <octave>5</octave>
    </pitch>
    <duration>2</duration>
    <voice>1</voice>
    <type>eighth</type>
    <stem>down</stem>
    <beam number="1">begin</beam>
   </note>
   <note>
    <pitch>
     <step>C</step>
     <octave>5</octave>
    </pitch>
    <duration>1</duration>
    <voice>1</voice>
    <type>16th</type>
    <stem>down</stem>
    <beam number="1">continue</beam>
    <beam number="2">continue</beam>
   </note>
   <note>
    <pitch>
     <step>D</step>
     <octave>5</octave>
    </pitch>
    <duration>1</duration>
    <tie type="start"/>
    <voice>1</voice>
    <type>16th</type>
    <stem>down</stem>
    <beam number="1">end</beam>
    <beam number="2">end</beam>
    <notations>
     <tied type="start"/>
    </notations>
   </note>
   <note>
    <pitch>
     <step>D</step>
     <octave>5</octave>
    </pitch>
    <duration>2</duration>
    <tie type="stop"/>
    <voice>1</voice>
    <type>eighth</type>
    <stem>down</stem>
    <beam number="1">begin</beam>
    <notations>
     <tied type="stop"/>
    </notations>
   </note>
   <note>
    <pitch>
     <step>C</step>
     <octave>5</octave>
    </pitch>
    <duration>2</duration>
    <voice>1</voice>
    <type>eighth</type>
    <stem>down</stem>
    <beam number="1">continue</beam>
   </note>
   <note>
    <pitch>
     <step>C</step>
     <octave>5</octave>
    </pitch>
    <duration>2</duration>
    <voice>1</voice>
    <type>eighth</type>
    <stem>down</stem>
    <beam number="1">continue</beam>
   </note>
   <note>
    <pitch>
     <step>B</step>
     <alter>-1</alter>
     <octave>4</octave>
    </pitch>
    <duration>2</duration>
    <voice>1</voice>
    <type>eighth</type>
    <stem>down</stem>
    <beam number="1">end</beam>
   </note>
  </measure>
  <measure number="4">
   <note>
    <pitch>
     <step>B</step>
     <alter>-1</alter>
     <octave>4</octave>
    </pitch>
    <duration>2</duration>
    <voice>1</voice>
    <type>eighth</type>
    <stem>up</stem>
    <beam number="1">begin</beam>
   </note>
   <note>
    <pitch>
     <step>A</step>
     <octave>4</octave>
    </pitch>
    <duration>1</duration>
    <voice>1</voice>
    <type>16th</type>
    <stem>up</stem>
    <beam number="1">continue</beam>
    <beam number="2">continue</beam>
   </note>
   <note>
    <pitch>
     <step>A</step>
     <octave>4</octave>
    </pitch>
    <duration>1</duration>
    <tie type="start"/>
    <voice>1</voice>
    <type>16th</type>
    <stem>up</stem>
    <beam number="1">end</beam>
    <beam number="2">end</beam>
    <notations>
     <tied type="start"/>
    </notations>
   </note>
   <note>
    <pitch>
     <step>A</step>
     <octave>4</octave>
    </pitch>
    <duration>6</duration>
    <tie type="stop"/>
    <voice>1</voice>
    <type>quarter</type>
    <dot/>
    <stem>up</stem>
    <notations>
     <tied type="stop"/>
    </notations>
   </note>
   <note>
    <rest/>
    <duration>2</duration>
    <voice>1</voice>
    <type>eighth</type>
   </note>
   <note>
    <pitch>
     <step>A</step>
     <octave>4</octave>
    </pitch>
    <duration>2</duration>
    <voice>1</voice>
    <type>eighth</type>
    <stem>up</stem>
    <beam number="1">begin</beam>
   </note>
   <note>
    <pitch>
     <step>A</step>
     <octave>4</octave>
    </pitch>
    <duration>2</duration>
    <voice>1</voice>
    <type>eighth</type>
    <stem>up</stem>
    <beam number="1">end</beam>
   </note>
  </measure>
  <measure number="5">
   <note>
    <pitch>
     <step>B</step>
     <alter>-1</alter>
     <octave>4</octave>
    </pitch>
    <duration>2</duration>
    <voice>1</voice>
    <type>eighth</type>
    <stem>up</stem>
    <beam number="1">begin</beam>
   </note>
   <note>
    <pitch>
     <step>A</step>
     <octave>4</octave>
    </pitch>
    <duration>2</duration>
    <voice>1</voice>
    <type>eighth</type>
    <stem>up</stem>
    <beam number="1">end</beam>
   </note>
   <note>
    <pitch>
     <step>A</step>
     <octave>4</octave>
    </pitch>
    <duration>2</duration>
    <voice>1</voice>
    <type>eighth</type>
    <stem>up</stem>
    <beam number="1">begin</beam>
   </note>
   <note>
    <pitch>
     <step>A</step>
     <octave>4</octave>
    </pitch>
    <duration>1</duration>
    <voice>1</voice>
    <type>16th</type>
    <stem>up</stem>
    <beam number="1">continue</beam>
    <beam number="2">continue</beam>
   </note>
   <note>
    <pitch>
     <step>A</step>
     <octave>4</octave>
    </pitch>
    <duration>1</duration>
    <tie type="start"/>
    <voice>1</voice>
    <type>16th</type>
    <stem>up</stem>
    <beam number="1">end</beam>
    <beam number="2">end</beam>
    <notations>
     <tied type="start"/>
    </notations>
   </note>
   <note>
    <pitch>
     <step>A</step>
     <octave>4</octave>
    </pitch>
    <duration>4</duration>
    <tie type="stop"/>
    <voice>1</voice>
    <type>quarter</type>
    <stem>up</stem>
    <notations>
     <tied type="stop"/>
    </notations>
   </note>
   <note>
    <pitch>
     <step>A</step>
     <octave>4</octave>
    </pitch>
    <duration>2</duration>
    <voice>1</voice>
    <type>eighth</type>
    <stem>up</stem>
    <beam number="1">begin</beam>
   </note>
   <note>
    <pitch>
     <step>A</step>
     <octave>4</octave>
    </pitch>
    <duration>2</duration>
    <voice>1</voice>
    <type>eighth</type>
    <stem>up</stem>
    <beam number="1">end</beam>
   </note>
  </measure>
  <measure number="6">
   <note>
    <pitch>
     <step>A</step>
     <octave>4</octave>
    </pitch>
    <duration>2</duration>
    <voice>1</voice>
    <type>eighth</type>
    <stem>up</stem>
    <beam number="1">begin</beam>
    <notations>
     <slur type="start" number="1"/>
    </notations>
   </note>
   <note>
    <pitch>
     <step>G</step>
     <octave>4</octave>
    </pitch>
    <duration>2</duration>
    <voice>1</voice>
    <type>eighth</type>
    <stem>up</stem>
    <beam number="1">end</beam>
    <notations>
     <slur type="stop" number="1"/>
    </notations>
   </note>
   <note>
    <pitch>
     <step>G</step>
     <octave>4</octave>
    </pitch>
    <duration>2</duration>
    <voice>1</voice>
    <type>eighth</type>
    <stem>up</stem>
    <beam number="1">begin</beam>
   </note>
   <note>
    <pitch>
     <step>G</step>
     <octave>4</octave>
    </pitch>
    <duration>1</duration>
    <voice>1</voice>
    <type>16th</type>
    <stem>up</stem>
    <beam number="1">continue</beam>
    <beam number="2">continue</beam>
   </note>
   <note>
    <pitch>
     <step>G</step>
     <octave>4</octave>
    </pitch>
    <duration>1</duration>
    <tie type="start"/>
    <voice>1</voice>
    <type>16th</type>
    <stem>up</stem>
    <beam number="1">end</beam>
    <beam number="2">end</beam>
    <notations>
     <tied type="start"/>
    </notations>
   </note>
   <note>
    <pitch>
     <step>G</step>
     <octave>4</octave>
    </pitch>
    <duration>4</duration>
    <tie type="stop"/>
    <voice>1</voice>
    <type>quarter</type>
    <stem>up</stem>
    <notations>
     <tied type="stop"/>
    </notations>
   </note>
   <note>
    <pitch>
     <step>B</step>
     <alter>-1</alter>
     <octave>4</octave>
    </pitch>
    <duration>2</duration>
    <voice>1</voice>
    <type>eighth</type>
    <stem>down</stem>
    <beam number="1">begin</beam>
   </note>
   <note>
    <pitch>
     <step>B</step>
     <alter>-1</alter>
     <octave>4</octave>
    </pitch>
    <duration>2</duration>
    <voice>1</voice>
    <type>eighth</type>
    <stem>down</stem>
    <beam number="1">end</beam>
   </note>
  </measure>
  <measure number="7">
   <note>
    <pitch>
     <step>A</step>
     <octave>4</octave>
    </pitch>
    <duration>8</duration>
    <voice>1</voice>
    <type>half</type>
    <stem>up</stem>
   </note>
   <note>
    <rest/>
    <duration>2</duration>
    <voice>1</voice>
    <type>eighth</type>
   </note>
   <direction placement="above">
    <direction-type>
     <wedge type="crescendo" spread="0" relative-y="-66" relative-x="-34"/>
    </direction-type>
    <offset>0</offset>
   </direction>
   <note>
    <pitch>
     <step>A</step>
     <octave>4</octave>
    </pitch>
    <duration>2</duration>
    <voice>1</voice>
    <type>eighth</type>
    <stem>up</stem>
    <notations>
     <articulations>
      <tenuto/>
     </articulations>
    </notations>
   </note>
   <direction placement="above">
    <direction-type>
     <wedge type="stop" spread="11" relative-y="-66" relative-x="-34"/>
    </direction-type>
    <offset>0</offset>
   </direction>
   <note>
    <pitch>
     <step>A</step>
     <octave>4</octave>
    </pitch>
    <duration>2</duration>
    <voice>1</voice>
    <type>eighth</type>
    <stem>up</stem>
    <beam number="1">begin</beam>
    <notations>
     <articulations>
      <tenuto/>
     </articulations>
    </notations>
   </note>
   <note>
    <pitch>
     <step>A</step>
     <octave>4</octave>
    </pitch>
    <duration>2</duration>
    <voice>1</voice>
    <type>eighth</type>
    <stem>up</stem>
    <beam number="1">end</beam>
    <notations>
     <articulations>
      <staccato/>
     </articulations>
    </notations>
   </note>
  </measure>
  <measure number="8">
   <print new-system="yes"/>
   <note>
    <pitch>
     <step>C</step>
     <alter>1</alter>
     <octave>5</octave>
    </pitch>
    <duration>2</duration>
    <voice>1</voice>
    <type>eighth</type>
    <accidental>sharp</accidental>
    <stem>down</stem>
    <beam number="1">begin</beam>
   </note>
   <note>
    <pitch>
     <step>C</step>
     <alter>1</alter>
     <octave>5</octave>
    </pitch>
    <duration>2</duration>
    <voice>1</voice>
    <type>eighth</type>
    <stem>down</stem>
    <beam number="1">continue</beam>
   </note>
   <note>
    <pitch>
     <step>D</step>
     <octave>5</octave>
    </pitch>
    <duration>2</duration>
    <voice>1</voice>
    <type>eighth</type>
    <stem>down</stem>
    <beam number="1">continue</beam>
   </note>
   <note>
    <pitch>
     <step>E</step>
     <octave>5</octave>
    </pitch>
    <duration>2</duration>
    <tie type="start"/>
    <voice>1</voice>
    <type>eighth</type>
    <stem>down</stem>
    <beam number="1">end</beam>
    <notations>
     <tied type="start"/>
    </notations>
   </note>
   <note>
    <pitch>
     <step>E</step>
     <octave>5</octave>
    </pitch>
    <duration>2</duration>
    <tie type="stop"/>
    <voice>1</voice>
    <type>eighth</type>
    <stem>down</stem>
    <beam number="1">begin</beam>
    <notations>
     <articulations>
      <staccato/>
     </articulations>
     <tied type="stop"/>
    </notations>
   </note>
   <direction placement="above">
    <direction-type>
     <dynamics relative-y="-77" relative-x="-8">
      <f/>
     </dynamics>
    </direction-type>
    <offset>0</offset>
    <sound dynamics="98"/>
   </direction>
   <note>
    <pitch>
     <step>C</step>
     <alter>1</alter>
     <octave>5</octave>
    </pitch>
    <duration>2</duration>
    <voice>1</voice>
    <type>eighth</type>
    <stem>down</stem>
    <beam number="1">continue</beam>
    <notations>
     <articulations>
      <tenuto/>
     </articulations>
    </notations>
   </note>
   <note>
    <pitch>
     <step>C</step>
     <alter>1</alter>
     <octave>5</octave>
    </pitch>
    <duration>2</duration>
    <voice>1</voice>
    <type>eighth</type>
    <stem>down</stem>
    <beam number="1">continue</beam>
    <notations>
     <articulations>
      <tenuto/>
     </articulations>
    </notations>
   </note>
   <note>
    <pitch>
     <step>C</step>
     <alter>1</alter>
     <octave>5</octave>
    </pitch>
    <duration>2</duration>
    <voice>1</voice>
    <type>eighth</type>
    <stem>down</stem>
    <beam number="1">end</beam>
    <notations>
     <articulations>
      <tenuto/>
     </articulations>
    </notations>
   </note>
  </measure>
  <measure number="9">
   <barline location="left">
    <bar-style>heavy-light</bar-style>
    <repeat direction="forward"/>
   </barline>
   <direction placement="above">
    <direction-type>
     <metronome relative-y="32" relative-x="0">
      <beat-unit>quarter</beat-unit>
      <per-minute>124</per-minute>
     </metronome>
    </direction-type>
   </direction>
   <note>
    <pitch>
     <step>D</step>
     <octave>5</octave>
    </pitch>
    <duration>8</duration>
    <voice>1</voice>
    <type>half</type>
    <stem>down</stem>
   </note>
   <note>
    <rest/>
    <duration>2</duration>
    <voice>1</voice>
    <type>eighth</type>
   </note>
   <note>
    <pitch>
     <step>D</step>
     <octave>5</octave>
    </pitch>
    <duration>2</duration>
    <voice>1</voice>
    <type>eighth</type>
    <stem>down</stem>
   </note>
   <note>
    <pitch>
     <step>D</step>
     <octave>5</octave>
    </pitch>
    <duration>2</duration>
    <voice>1</voice>
    <type>eighth</type>
    <stem>down</stem>
    <beam number="1">begin</beam>
    <notations>
     <articulations>
      <staccato/>
     </articulations>
    </notations>
   </note>
   <note>
    <pitch>
     <step>D</step>
     <octave>5</octave>
    </pitch>
    <duration>1</duration>
    <voice>1</voice>
    <type>16th</type>
    <stem>down</stem>
    <beam number="1">continue</beam>
    <beam number="2">continue</beam>
    <notations>
     <articulations>
      <tenuto/>
     </articulations>
    </notations>
   </note>
   <note>
    <pitch>
     <step>D</step>
     <octave>5</octave>
    </pitch>
    <duration>1</duration>
    <tie type="start"/>
    <voice>1</voice>
    <type>16th</type>
    <stem>down</stem>
    <beam number="1">end</beam>
    <beam number="2">end</beam>
    <notations>
     <tied type="start"/>
    </notations>
   </note>
  </measure>
  <measure number="10">
   <note>
    <pitch>
     <step>D</step>
     <octave>5</octave>
    </pitch>
    <duration>8</duration>
    <tie type="stop"/>
    <voice>1</voice>
    <type>half</type>
    <stem>down</stem>
    <notations>
     <tied type="stop"/>
    </notations>
   </note>
   <note>
    <rest/>
    <duration>2</duration>
    <voice>1</voice>
    <type>eighth</type>
   </note>
   <note>
    <pitch>
     <step>D</step>
     <octave>5</octave>
    </pitch>
    <duration>2</duration>
    <voice>1</voice>
    <type>eighth</type>
    <stem>down</stem>
    <notations>
     <articulations>
      <tenuto/>
     </articulations>
    </notations>
   </note>
   <note>
    <pitch>
     <step>D</step>
     <octave>5</octave>
    </pitch>
    <duration>2</duration>
    <voice>1</voice>
    <type>eighth</type>
    <stem>down</stem>
    <beam number="1">begin</beam>
    <notations>
     <articulations>
      <tenuto/>
     </articulations>
    </notations>
   </note>
   <note>
    <pitch>
     <step>D</step>
     <octave>5</octave>
    </pitch>
    <duration>2</duration>
    <voice>1</voice>
    <type>eighth</type>
    <stem>down</stem>
    <beam number="1">end</beam>
    <notations>
     <articulations>
      <tenuto/>
     </articulations>
    </notations>
   </note>
  </measure>
  <measure number="11">
   <note>
    <pitch>
     <step>D</step>
     <octave>5</octave>
    </pitch>
    <duration>2</duration>
    <voice>1</voice>
    <type>eighth</type>
    <stem>down</stem>
    <beam number="1">begin</beam>
    <notations>
     <slur type="start" number="1"/>
    </notations>
   </note>
   <note>
    <pitch>
     <step>C</step>
     <octave>5</octave>
    </pitch>
    <duration>2</duration>
    <voice>1</voice>
    <type>eighth</type>
    <stem>down</stem>
    <beam number="1">end</beam>
    <notations>
     <articulations>
      <staccato/>
     </articulations>
     <slur type="stop" number="1"/>
    </notations>
   </note>
   <note>
    <pitch>
     <step>C</step>
     <octave>5</octave>
    </pitch>
    <duration>2</duration>
    <voice>1</voice>
    <type>eighth</type>
    <stem>down</stem>
    <beam number="1">begin</beam>
    <notations>
     <articulations>
      <staccato/>
     </articulations>
    </notations>
   </note>
   <note>
    <pitch>
     <step>C</step>
     <octave>5</octave>
    </pitch>
    <duration>1</duration>
    <voice>1</voice>
    <type>16th</type>
    <stem>down</stem>
    <beam number="1">continue</beam>
    <beam number="2">continue</beam>
    <notations>
     <articulations>
      <tenuto/>
     </articulations>
    </notations>
   </note>
   <note>
    <pitch>
     <step>D</step>
     <octave>5</octave>
    </pitch>
    <duration>1</duration>
    <tie type="start"/>
    <voice>1</voice>
    <type>16th</type>
    <stem>down</stem>
    <beam number="1">end</beam>
    <beam number="2">end</beam>
    <notations>
     <tied type="start"/>
    </notations>
   </note>
   <note>
    <pitch>
     <step>D</step>
     <octave>5</octave>
    </pitch>
    <duration>2</duration>
    <tie type="stop"/>
    <voice>1</voice>
    <type>eighth</type>
    <stem>down</stem>
    <beam number="1">begin</beam>
    <notations>
     <tied type="stop"/>
    </notations>
   </note>
   <note>
    <pitch>
     <step>C</step>
     <octave>5</octave>
    </pitch>
    <duration>2</duration>
    <voice>1</voice>
    <type>eighth</type>
    <stem>down</stem>
    <beam number="1">continue</beam>
   </note>
   <note>
    <pitch>
     <step>C</step>
     <octave>5</octave>
    </pitch>
    <duration>2</duration>
    <voice>1</voice>
    <type>eighth</type>
    <stem>down</stem>
    <beam number="1">continue</beam>
   </note>
   <note>
    <pitch>
     <step>C</step>
     <octave>5</octave>
    </pitch>
    <duration>2</duration>
    <voice>1</voice>
    <type>eighth</type>
    <stem>down</stem>
    <beam number="1">end</beam>
   </note>
  </measure>
  <measure number="12">
   <note>
    <pitch>
     <step>D</step>
     <octave>5</octave>
    </pitch>
    <duration>2</duration>
    <voice>1</voice>
    <type>eighth</type>
    <stem>down</stem>
    <beam number="1">begin</beam>
    <notations>
     <slur type="start" number="1"/>
    </notations>
   </note>
   <note>
    <pitch>
     <step>C</step>
     <octave>5</octave>
    </pitch>
    <duration>2</duration>
    <voice>1</voice>
    <type>eighth</type>
    <stem>down</stem>
    <beam number="1">end</beam>
    <notations>
     <articulations>
      <staccato/>
     </articulations>
     <slur type="stop" number="1"/>
    </notations>
   </note>
   <note>
    <pitch>
     <step>C</step>
     <octave>5</octave>
    </pitch>
    <duration>2</duration>
    <voice>1</voice>
    <type>eighth</type>
    <stem>down</stem>
    <beam number="1">begin</beam>
    <notations>
     <articulations>
      <staccato/>
     </articulations>
    </notations>
   </note>
   <note>
    <pitch>
     <step>C</step>
     <octave>5</octave>
    </pitch>
    <duration>1</duration>
    <voice>1</voice>
    <type>16th</type>
    <stem>down</stem>
    <beam number="1">continue</beam>
    <beam number="2">continue</beam>
    <notations>
     <articulations>
      <tenuto/>
     </articulations>
    </notations>
   </note>
   <note>
    <pitch>
     <step>C</step>
     <octave>5</octave>
    </pitch>
    <duration>1</duration>
    <tie type="start"/>
    <voice>1</voice>
    <type>16th</type>
    <stem>down</stem>
    <beam number="1">end</beam>
    <beam number="2">end</beam>
    <notations>
     <tied type="start"/>
    </notations>
   </note>
   <note>
    <pitch>
     <step>C</step>
     <octave>5</octave>
    </pitch>
    <duration>2</duration>
    <tie type="stop"/>
    <voice>1</voice>
    <type>eighth</type>
    <stem>down</stem>
    <notations>
     <tied type="stop"/>
    </notations>
   </note>
   <note>
    <rest/>
    <duration>2</duration>
    <voice>1</voice>
    <type>eighth</type>
   </note>
   <note>
    <pitch>
     <step>A</step>
     <octave>4</octave>
    </pitch>
    <duration>2</duration>
    <voice>1</voice>
    <type>eighth</type>
    <stem>up</stem>
    <beam number="1">begin</beam>
    <notations>
     <articulations>
      <tenuto/>
     </articulations>
    </notations>
   </note>
   <note>
    <pitch>
     <step>A</step>
     <octave>4</octave>
    </pitch>
    <duration>2</duration>
    <voice>1</voice>
    <type>eighth</type>
    <stem>up</stem>
    <beam number="1">end</beam>
    <notations>
     <articulations>
      <tenuto/>
     </articulations>
    </notations>
   </note>
  </measure>
  <measure number="13">
   <note>
    <pitch>
     <step>B</step>
     <alter>-1</alter>
     <octave>4</octave>
    </pitch>
    <duration>2</duration>
    <voice>1</voice>
    <type>eighth</type>
    <stem>up</stem>
    <beam number="1">begin</beam>
   </note>
   <note>
    <pitch>
     <step>A</step>
     <octave>4</octave>
    </pitch>
    <duration>2</duration>
    <voice>1</voice>
    <type>eighth</type>
    <stem>up</stem>
    <beam number="1">end</beam>
    <notations>
     <articulations>
      <staccato/>
     </articulations>
     <slur type="start" number="1"/>
    </notations>
   </note>
   <note>
    <pitch>
     <step>A</step>
     <octave>4</octave>
    </pitch>
    <duration>2</duration>
    <voice>1</voice>
    <type>eighth</type>
    <stem>up</stem>
    <beam number="1">begin</beam>
    <notations>
     <articulations>
      <staccato/>
     </articulations>
     <slur type="stop" number="1"/>
    </notations>
   </note>
   <note>
    <pitch>
     <step>A</step>
     <octave>4</octave>
    </pitch>
    <duration>1</duration>
    <voice>1</voice>
    <type>16th</type>
    <stem>up</stem>
    <beam number="1">continue</beam>
    <beam number="2">continue</beam>
    <notations>
     <articulations>
      <tenuto/>
     </articulations>
    </notations>
   </note>
   <note>
    <pitch>
     <step>A</step>
     <octave>4</octave>
    </pitch>
    <duration>1</duration>
    <tie type="start"/>
    <voice>1</voice>
    <type>16th</type>
    <stem>up</stem>
    <beam number="1">end</beam>
    <beam number="2">end</beam>
    <notations>
     <tied type="start"/>
    </notations>
   </note>
   <note>
    <pitch>
     <step>A</step>
     <octave>4</octave>
    </pitch>
    <duration>4</duration>
    <tie type="stop"/>
    <voice>1</voice>
    <type>quarter</type>
    <stem>up</stem>
    <notations>
     <tied type="stop"/>
    </notations>
   </note>
   <note>
    <pitch>
     <step>A</step>
     <octave>4</octave>
    </pitch>
    <duration>2</duration>
    <voice>1</voice>
    <type>eighth</type>
    <stem>up</stem>
    <beam number="1">begin</beam>
    <notations>
     <articulations>
      <tenuto/>
     </articulations>
    </notations>
   </note>
   <note>
    <pitch>
     <step>A</step>
     <octave>4</octave>
    </pitch>
    <duration>2</duration>
    <voice>1</voice>
    <type>eighth</type>
    <stem>up</stem>
    <beam number="1">end</beam>
    <notations>
     <articulations>
      <tenuto/>
     </articulations>
    </notations>
   </note>
  </measure>
  <measure number="14">
   <note>
    <pitch>
     <step>A</step>
     <octave>4</octave>
    </pitch>
    <duration>2</duration>
    <voice>1</voice>
    <type>eighth</type>
    <stem>up</stem>
    <beam number="1">begin</beam>
   </note>
   <note>
    <pitch>
     <step>G</step>
     <octave>4</octave>
    </pitch>
    <duration>2</duration>
    <voice>1</voice>
    <type>eighth</type>
    <stem>up</stem>
    <beam number="1">end</beam>
    <notations>
     <articulations>
      <staccato/>
     </articulations>
     <slur type="start" number="1"/>
    </notations>
   </note>
   <note>
    <pitch>
     <step>G</step>
     <octave>4</octave>
    </pitch>
    <duration>2</duration>
    <voice>1</voice>
    <type>eighth</type>
    <stem>up</stem>
    <beam number="1">begin</beam>
    <notations>
     <articulations>
      <staccato/>
     </articulations>
     <slur type="stop" number="1"/>
    </notations>
   </note>
   <note>
    <pitch>
     <step>G</step>
     <octave>4</octave>
    </pitch>
    <duration>1</duration>
    <voice>1</voice>
    <type>16th</type>
    <stem>up</stem>
    <beam number="1">continue</beam>
    <beam number="2">continue</beam>
    <notations>
     <articulations>
      <tenuto/>
     </articulations>
    </notations>
   </note>
   <note>
    <pitch>
     <step>G</step>
     <octave>4</octave>
    </pitch>
    <duration>1</duration>
    <tie type="start"/>
    <voice>1</voice>
    <type>16th</type>
    <stem>up</stem>
    <beam number="1">end</beam>
    <beam number="2">end</beam>
    <notations>
     <tied type="start"/>
    </notations>
   </note>
   <note>
    <pitch>
     <step>G</step>
     <octave>4</octave>
    </pitch>
    <duration>4</duration>
    <tie type="stop"/>
    <voice>1</voice>
    <type>quarter</type>
    <stem>up</stem>
    <notations>
     <tied type="stop"/>
    </notations>
   </note>
   <note>
    <pitch>
     <step>B</step>
     <alter>-1</alter>
     <octave>4</octave>
    </pitch>
    <duration>2</duration>
    <voice>1</voice>
    <type>eighth</type>
    <stem>down</stem>
    <beam number="1">begin</beam>
    <notations>
     <articulations>
      <tenuto/>
     </articulations>
    </notations>
   </note>
   <note>
    <pitch>
     <step>B</step>
     <alter>-1</alter>
     <octave>4</octave>
    </pitch>
    <duration>2</duration>
    <voice>1</voice>
    <type>eighth</type>
    <stem>down</stem>
    <beam number="1">end</beam>
    <notations>
     <articulations>
      <tenuto/>
     </articulations>
    </notations>
   </note>
  </measure>
  <measure number="15">
   <print new-system="yes"/>
   <note>
    <pitch>
     <step>A</step>
     <octave>4</octave>
    </pitch>
    <duration>8</duration>
    <voice>1</voice>
    <type>half</type>
    <stem>up</stem>
   </note>
   <note>
    <rest/>
    <duration>2</duration>
    <voice>1</voice>
    <type>eighth</type>
   </note>
   <note>
    <pitch>
     <step>A</step>
     <octave>4</octave>
    </pitch>
    <duration>2</duration>
    <voice>1</voice>
    <type>eighth</type>
    <stem>up</stem>
    <notations>
     <articulations>
      <tenuto/>
     </articulations>
    </notations>
   </note>
   <note>
    <pitch>
     <step>A</step>
     <octave>4</octave>
    </pitch>
    <duration>2</duration>
    <voice>1</voice>
    <type>eighth</type>
    <stem>up</stem>
    <beam number="1">begin</beam>
    <notations>
     <articulations>
      <tenuto/>
     </articulations>
    </notations>
   </note>
   <note>
    <pitch>
     <step>A</step>
     <octave>4</octave>
    </pitch>
    <duration>2</duration>
    <voice>1</voice>
    <type>eighth</type>
    <stem>up</stem>
    <beam number="1">end</beam>
    <notations>
     <articulations>
      <tenuto/>
     </articulations>
    </notations>
   </note>
  </measure>
  <measure number="16">
   <note>
    <pitch>
     <step>C</step>
     <alter>1</alter>
     <octave>5</octave>
    </pitch>
    <duration>2</duration>
    <voice>1</voice>
    <type>eighth</type>
    <accidental>sharp</accidental>
    <stem>down</stem>
    <beam number="1">begin</beam>
   </note>
   <note>
    <pitch>
     <step>C</step>
     <alter>1</alter>
     <octave>5</octave>
    </pitch>
    <duration>2</duration>
    <voice>1</voice>
    <type>eighth</type>
    <stem>down</stem>
    <beam number="1">continue</beam>
    <notations>
     <articulations>
      <tenuto/>
     </articulations>
    </notations>
   </note>
   <note>
    <pitch>
     <step>D</step>
     <octave>5</octave>
    </pitch>
    <duration>2</duration>
    <voice>1</voice>
    <type>eighth</type>
    <stem>down</stem>
    <beam number="1">continue</beam>
    <notations>
     <articulations>
      <tenuto/>
     </articulations>
    </notations>
   </note>
   <note>
    <pitch>
     <step>E</step>
     <octave>5</octave>
    </pitch>
    <duration>2</duration>
    <tie type="start"/>
    <voice>1</voice>
    <type>eighth</type>
    <stem>down</stem>
    <beam number="1">end</beam>
    <notations>
     <tied type="start"/>
    </notations>
   </note>
   <note>
    <pitch>
     <step>E</step>
     <octave>5</octave>
    </pitch>
    <duration>2</duration>
    <tie type="stop"/>
    <voice>1</voice>
    <type>eighth</type>
    <stem>down</stem>
    <notations>
     <tied type="stop"/>
    </notations>
   </note>
   <note>
    <rest/>
    <duration>2</duration>
    <voice>1</voice>
    <type>eighth</type>
   </note>
   <note>
    <pitch>
     <step>C</step>
     <alter>1</alter>
     <octave>5</octave>
    </pitch>
    <duration>2</duration>
    <voice>1</voice>
    <type>eighth</type>
    <stem>down</stem>
    <beam number="1">begin</beam>
    <notations>
     <articulations>
      <tenuto/>
     </articulations>
    </notations>
   </note>
   <note>
    <pitch>
     <step>C</step>
     <alter>1</alter>
     <octave>5</octave>
    </pitch>
    <duration>2</duration>
    <voice>1</voice>
    <type>eighth</type>
    <stem>down</stem>
    <beam number="1">end</beam>
    <notations>
     <articulations>
      <tenuto/>
     </articulations>
    </notations>
   </note>
   <barline location="right">
    <bar-style>light-heavy</bar-style>
    <repeat direction="backward"/>
   </barline>
  </measure>
  <measure number="17">
   <note>
    <pitch>
     <step>D</step>
     <octave>5</octave>
    </pitch>
    <duration>8</duration>
    <voice>1</voice>
    <type>half</type>
    <stem>down</stem>
   </note>
   <note>
    <rest/>
    <duration>2</duration>
    <voice>1</voice>
    <type>eighth</type>
   </note>
   <note>
    <pitch>
     <step>D</step>
     <octave>5</octave>
    </pitch>
    <duration>2</duration>
    <voice>1</voice>
    <type>eighth</type>
    <stem>down</stem>
    <notations>
     <articulations>
      <tenuto/>
     </articulations>
    </notations>
   </note>
   <note>
    <pitch>
     <step>E</step>
     <octave>5</octave>
    </pitch>
    <duration>2</duration>
    <voice>1</voice>
    <type>eighth</type>
    <stem>down</stem>
    <beam number="1">begin</beam>
    <notations>
     <articulations>
      <staccato/>
     </articulations>
    </notations>
   </note>
   <note>
    <pitch>
     <step>F</step>
     <octave>5</octave>
    </pitch>
    <duration>1</duration>
    <voice>1</voice>
    <type>16th</type>
    <stem>down</stem>
    <beam number="1">continue</beam>
    <beam number="2">continue</beam>
    <notations>
     <slur type="start" number="1"/>
    </notations>
   </note>
   <note>
    <pitch>
     <step>E</step>
     <octave>5</octave>
    </pitch>
    <duration>1</duration>
    <tie type="start"/>
    <voice>1</voice>
    <type>16th</type>
    <stem>down</stem>
    <beam number="1">end</beam>
    <beam number="2">end</beam>
    <notations>
     <tied type="start"/>
    </notations>
   </note>
  </measure>
  <measure number="18">
   <note>
    <pitch>
     <step>E</step>
     <octave>5</octave>
    </pitch>
    <duration>2</duration>
    <tie type="stop"/>
    <voice>1</voice>
    <type>eighth</type>
    <stem>down</stem>
    <beam number="1">begin</beam>
    <notations>
     <tied type="stop"/>
    </notations>
   </note>
   <note>
    <pitch>
     <step>D</step>
     <octave>5</octave>
    </pitch>
    <duration>2</duration>
    <tie type="start"/>
    <voice>1</voice>
    <type>eighth</type>
    <stem>down</stem>
    <beam number="1">end</beam>
    <notations>
     <tied type="start"/>
    </notations>
   </note>
   <note>
    <pitch>
     <step>D</step>
     <octave>5</octave>
    </pitch>
    <duration>6</duration>
    <tie type="stop"/>
    <voice>1</voice>
    <type>quarter</type>
    <dot/>
    <stem>down</stem>
    <notations>
     <slur type="stop" number="1"/>
     <tied type="stop"/>
    </notations>
   </note>
   <note>
    <rest/>
    <duration>2</duration>
    <voice>1</voice>
    <type>eighth</type>
   </note>
   <note>
    <pitch>
     <step>D</step>
     <octave>5</octave>
    </pitch>
    <duration>2</duration>
    <voice>1</voice>
    <type>eighth</type>
    <stem>down</stem>
    <beam number="1">begin</beam>
    <notations>
     <articulations>
      <tenuto/>
     </articulations>
    </notations>
   </note>
   <note>
    <pitch>
     <step>D</step>
     <octave>5</octave>
    </pitch>
    <duration>2</duration>
    <voice>1</voice>
    <type>eighth</type>
    <stem>down</stem>
    <beam number="1">end</beam>
    <notations>
     <articulations>
      <tenuto/>
     </articulations>
    </notations>
   </note>
  </measure>
  <measure number="19">
   <note>
    <pitch>
     <step>D</step>
     <octave>5</octave>
    </pitch>
    <duration>2</duration>
    <voice>1</voice>
    <type>eighth</type>
    <stem>down</stem>
    <beam number="1">begin</beam>
    <notations>
     <slur type="start" number="1"/>
    </notations>
   </note>
   <note>
    <pitch>
     <step>C</step>
     <octave>5</octave>
    </pitch>
    <duration>2</duration>
    <voice>1</voice>
    <type>eighth</type>
    <stem>down</stem>
    <beam number="1">end</beam>
    <notations>
     <articulations>
      <staccato/>
     </articulations>
     <slur type="stop" number="1"/>
    </notations>
   </note>
   <note>
    <pitch>
     <step>C</step>
     <octave>5</octave>
    </pitch>
    <duration>2</duration>
    <voice>1</voice>
    <type>eighth</type>
    <stem>down</stem>
    <beam number="1">begin</beam>
    <notations>
     <articulations>
      <staccato/>
     </articulations>
    </notations>
   </note>
   <note>
    <pitch>
     <step>C</step>
     <octave>5</octave>
    </pitch>
    <duration>1</duration>
    <voice>1</voice>
    <type>16th</type>
    <stem>down</stem>
    <beam number="1">continue</beam>
    <beam number="2">continue</beam>
    <notations>
     <articulations>
      <tenuto/>
     </articulations>
     <slur type="start" number="1"/>
    </notations>
   </note>
   <note>
    <pitch>
     <step>D</step>
     <octave>5</octave>
    </pitch>
    <duration>1</duration>
    <tie type="start"/>
    <voice>1</voice>
    <type>16th</type>
    <stem>down</stem>
    <beam number="1">end</beam>
    <beam number="2">end</beam>
    <notations>
     <tied type="start"/>
    </notations>
   </note>
   <note>
    <pitch>
     <step>D</step>
     <octave>5</octave>
    </pitch>
    <duration>2</duration>
    <tie type="stop"/>
    <voice>1</voice>
    <type>eighth</type>
    <stem>down</stem>
    <beam number="1">begin</beam>
    <notations>
     <tied type="stop"/>
    </notations>
   </note>
   <note>
    <pitch>
     <step>C</step>
     <octave>5</octave>
    </pitch>
    <duration>2</duration>
    <voice>1</voice>
    <type>eighth</type>
    <stem>down</stem>
    <beam number="1">end</beam>
    <notations>
     <slur type="stop" number="1"/>
    </notations>
   </note>
   <note>
    <pitch>
     <step>C</step>
     <octave>5</octave>
    </pitch>
    <duration>2</duration>
    <voice>1</voice>
    <type>eighth</type>
    <stem>down</stem>
    <beam number="1">begin</beam>
   </note>
   <note>
    <pitch>
     <step>C</step>
     <octave>5</octave>
    </pitch>
    <duration>1</duration>
    <voice>1</voice>
    <type>16th</type>
    <stem>down</stem>
    <beam number="1">continue</beam>
    <beam number="2">continue</beam>
   </note>
   <note>
    <pitch>
     <step>D</step>
     <octave>5</octave>
    </pitch>
    <duration>1</duration>
    <tie type="start"/>
    <voice>1</voice>
    <type>16th</type>
    <stem>down</stem>
    <beam number="1">end</beam>
    <beam number="2">end</beam>
    <notations>
     <slur type="start" number="1"/>
     <tied type="start"/>
    </notations>
   </note>
  </measure>
  <measure number="20">
   <note>
    <pitch>
     <step>D</step>
     <octave>5</octave>
    </pitch>
    <duration>2</duration>
    <tie type="stop"/>
    <voice>1</voice>
    <type>eighth</type>
    <stem>down</stem>
    <beam number="1">begin</beam>
    <notations>
     <tied type="stop"/>
    </notations>
   </note>
   <note>
    <pitch>
     <step>C</step>
     <octave>5</octave>
    </pitch>
    <duration>2</duration>
    <voice>1</voice>
    <type>eighth</type>
    <stem>down</stem>
    <beam number="1">end</beam>
    <notations>
     <articulations>
      <staccato/>
     </articulations>
     <slur type="stop" number="1"/>
    </notations>
   </note>
   <note>
    <pitch>
     <step>C</step>
     <octave>5</octave>
    </pitch>
    <duration>2</duration>
    <voice>1</voice>
    <type>eighth</type>
    <stem>down</stem>
    <beam number="1">begin</beam>
    <notations>
     <articulations>
      <staccato/>
     </articulations>
    </notations>
   </note>
   <note>
    <pitch>
     <step>C</step>
     <octave>5</octave>
    </pitch>
    <duration>1</duration>
    <voice>1</voice>
    <type>16th</type>
    <stem>down</stem>
    <beam number="1">continue</beam>
    <beam number="2">continue</beam>
   </note>
   <note>
    <pitch>
     <step>D</step>
     <octave>5</octave>
    </pitch>
    <duration>1</duration>
    <tie type="start"/>
    <voice>1</voice>
    <type>16th</type>
    <stem>down</stem>
    <beam number="1">end</beam>
    <beam number="2">end</beam>
    <notations>
     <tied type="start"/>
    </notations>
   </note>
   <note>
    <pitch>
     <step>D</step>
     <octave>5</octave>
    </pitch>
    <duration>2</duration>
    <tie type="stop"/>
    <voice>1</voice>
    <type>eighth</type>
    <stem>down</stem>
    <notations>
     <tied type="stop"/>
    </notations>
   </note>
   <note>
    <rest/>
    <duration>2</duration>
    <voice>1</voice>
    <type>eighth</type>
   </note>
   <note>
    <pitch>
     <step>A</step>
     <octave>4</octave>
    </pitch>
    <duration>2</duration>
    <voice>1</voice>
    <type>eighth</type>
    <stem>up</stem>
    <beam number="1">begin</beam>
    <notations>
     <articulations>
      <tenuto/>
     </articulations>
    </notations>
   </note>
   <note>
    <pitch>
     <step>A</step>
     <octave>4</octave>
    </pitch>
    <duration>2</duration>
    <voice>1</voice>
    <type>eighth</type>
    <stem>up</stem>
    <beam number="1">end</beam>
    <notations>
     <articulations>
      <tenuto/>
     </articulations>
    </notations>
   </note>
  </measure>
  <measure number="21">
   <note>
    <pitch>
     <step>A</step>
     <octave>4</octave>
    </pitch>
    <duration>2</duration>
    <voice>1</voice>
    <type>eighth</type>
    <stem>up</stem>
    <beam number="1">begin</beam>
    <notations>
     <articulations>
      <tenuto/>
     </articulations>
    </notations>
   </note>
   <note>
    <pitch>
     <step>A</step>
     <octave>4</octave>
    </pitch>
    <duration>2</duration>
    <voice>1</voice>
    <type>eighth</type>
    <stem>up</stem>
    <beam number="1">end</beam>
    <notations>
     <articulations>
      <staccato/>
     </articulations>
    </notations>
   </note>
   <note>
    <pitch>
     <step>A</step>
     <octave>4</octave>
    </pitch>
    <duration>2</duration>
    <voice>1</voice>
    <type>eighth</type>
    <stem>up</stem>
    <beam number="1">begin</beam>
    <notations>
     <articulations>
      <staccato/>
     </articulations>
    </notations>
   </note>
   <note>
    <pitch>
     <step>A</step>
     <octave>4</octave>
    </pitch>
    <duration>1</duration>
    <voice>1</voice>
    <type>16th</type>
    <stem>up</stem>
    <beam number="1">continue</beam>
    <beam number="2">continue</beam>
   </note>
   <note>
    <pitch>
     <step>A</step>
     <octave>4</octave>
    </pitch>
    <duration>1</duration>
    <tie type="start"/>
    <voice>1</voice>
    <type>16th</type>
    <stem>up</stem>
    <beam number="1">end</beam>
    <beam number="2">end</beam>
    <notations>
     <tied type="start"/>
    </notations>
   </note>
   <note>
    <pitch>
     <step>A</step>
     <octave>4</octave>
    </pitch>
    <duration>4</duration>
    <tie type="stop"/>
    <voice>1</voice>
    <type>quarter</type>
    <stem>up</stem>
    <notations>
     <tied type="stop"/>
    </notations>
   </note>
   <note>
    <pitch>
     <step>A</step>
     <octave>4</octave>
    </pitch>
    <duration>2</duration>
    <voice>1</voice>
    <type>eighth</type>
    <stem>up</stem>
    <beam number="1">begin</beam>
    <notations>
     <articulations>
      <tenuto/>
     </articulations>
    </notations>
   </note>
   <note>
    <pitch>
     <step>A</step>
     <octave>4</octave>
    </pitch>
    <duration>2</duration>
    <voice>1</voice>
    <type>eighth</type>
    <stem>up</stem>
    <beam number="1">end</beam>
    <notations>
     <articulations>
      <tenuto/>
     </articulations>
    </notations>
   </note>
  </measure>
  <measure number="22">
   <print new-system="yes"/>
   <note>
    <pitch>
     <step>A</step>
     <octave>4</octave>
    </pitch>
    <duration>2</duration>
    <voice>1</voice>
    <type>eighth</type>
    <stem>up</stem>
    <beam number="1">begin</beam>
    <notations>
     <articulations>
      <tenuto/>
     </articulations>
    </notations>
   </note>
   <note>
    <pitch>
     <step>A</step>
     <octave>4</octave>
    </pitch>
    <duration>2</duration>
    <voice>1</voice>
    <type>eighth</type>
    <stem>up</stem>
    <beam number="1">end</beam>
    <notations>
     <articulations>
      <staccato/>
     </articulations>
    </notations>
   </note>
   <note>
    <pitch>
     <step>B</step>
     <alter>-1</alter>
     <octave>4</octave>
    </pitch>
    <duration>2</duration>
    <voice>1</voice>
    <type>eighth</type>
    <stem>up</stem>
    <beam number="1">begin</beam>
   </note>
   <note>
    <pitch>
     <step>A</step>
     <octave>4</octave>
    </pitch>
    <duration>1</duration>
    <voice>1</voice>
    <type>16th</type>
    <stem>up</stem>
    <beam number="1">continue</beam>
    <beam number="2">continue</beam>
   </note>
   <note>
    <pitch>
     <step>A</step>
     <octave>4</octave>
    </pitch>
    <duration>1</duration>
    <tie type="start"/>
    <voice>1</voice>
    <type>16th</type>
    <stem>up</stem>
    <beam number="1">end</beam>
    <beam number="2">end</beam>
    <notations>
     <tied type="start"/>
    </notations>
   </note>
   <note>
    <pitch>
     <step>A</step>
     <octave>4</octave>
    </pitch>
    <duration>2</duration>
    <tie type="stop"/>
    <voice>1</voice>
    <type>eighth</type>
    <stem>up</stem>
    <notations>
     <tied type="stop"/>
    </notations>
   </note>
   <note>
    <rest/>
    <duration>2</duration>
    <voice>1</voice>
    <type>eighth</type>
   </note>
   <note>
    <pitch>
     <step>A</step>
     <octave>4</octave>
    </pitch>
    <duration>2</duration>
    <voice>1</voice>
    <type>eighth</type>
    <stem>up</stem>
    <beam number="1">begin</beam>
    <notations>
     <articulations>
      <staccato/>
     </articulations>
    </notations>
   </note>
   <note>
    <pitch>
     <step>A</step>
     <octave>4</octave>
    </pitch>
    <duration>1</duration>
    <voice>1</voice>
    <type>16th</type>
    <stem>up</stem>
    <beam number="1">continue</beam>
    <beam number="2">continue</beam>
   </note>
   <note>
    <pitch>
     <step>A</step>
     <octave>4</octave>
    </pitch>
    <duration>1</duration>
    <tie type="start"/>
    <voice>1</voice>
    <type>16th</type>
    <stem>up</stem>
    <beam number="1">end</beam>
    <beam number="2">end</beam>
    <notations>
     <tied type="start"/>
    </notations>
   </note>
  </measure>
  <measure number="23">
   <note>
    <pitch>
     <step>A</step>
     <octave>4</octave>
    </pitch>
    <duration>8</duration>
    <tie type="stop"/>
    <voice>1</voice>
    <type>half</type>
    <stem>up</stem>
    <notations>
     <tied type="stop"/>
    </notations>
   </note>
   <note>
    <rest/>
    <duration>2</duration>
    <voice>1</voice>
    <type>eighth</type>
   </note>
   <note>
    <pitch>
     <step>D</step>
     <octave>5</octave>
    </pitch>
    <duration>2</duration>
    <voice>1</voice>
    <type>eighth</type>
    <stem>down</stem>
    <notations>
     <articulations>
      <staccato/>
     </articulations>
    </notations>
   </note>
   <note>
    <pitch>
     <step>D</step>
     <octave>5</octave>
    </pitch>
    <duration>2</duration>
    <voice>1</voice>
    <type>eighth</type>
    <stem>down</stem>
    <beam number="1">begin</beam>
    <notations>
     <articulations>
      <staccato/>
     </articulations>
    </notations>
   </note>
   <note>
    <pitch>
     <step>D</step>
     <octave>5</octave>
    </pitch>
    <duration>1</duration>
    <voice>1</voice>
    <type>16th</type>
    <stem>down</stem>
    <beam number="1">continue</beam>
    <beam number="2">continue</beam>
    <notations>
     <slur type="start" number="1"/>
    </notations>
   </note>
   <note>
    <pitch>
     <step>C</step>
     <alter>1</alter>
     <octave>5</octave>
    </pitch>
    <duration>1</duration>
    <tie type="start"/>
    <voice>1</voice>
    <type>16th</type>
    <accidental>sharp</accidental>
    <stem>down</stem>
    <beam number="1">end</beam>
    <beam number="2">end</beam>
    <notations>
     <tied type="start"/>
    </notations>
   </note>
  </measure>
  <measure number="24">
   <note>
    <pitch>
     <step>C</step>
     <alter>1</alter>
     <octave>5</octave>
    </pitch>
    <duration>12</duration>
    <tie type="stop"/>
    <voice>1</voice>
    <type>half</type>
    <dot/>
    <stem>down</stem>
    <notations>
     <slur type="stop" number="1"/>
     <tied type="stop"/>
    </notations>
   </note>
   <note>
    <pitch>
     <step>C</step>
     <alter>1</alter>
     <octave>5</octave>
    </pitch>
    <duration>4</duration>
    <voice>1</voice>
    <type>quarter</type>
    <accidental>sharp</accidental>
    <stem>down</stem>
    <notations>
     <slur type="start" number="1"/>
    </notations>
   </note>
   <barline location="right">
    <bar-style>light-light</bar-style>
   </barline>
  </measure>
  <measure number="25">
   <note>
    <pitch>
     <step>D</step>
     <octave>5</octave>
    </pitch>
    <duration>16</duration>
    <voice>1</voice>
    <type>whole</type>
    <stem>up</stem>
    <notations>
     <slur type="stop" number="1"/>
    </notations>
   </note>
  </measure>
  <measure number="26">
   <note>
    <rest/>
    <duration>16</duration>
    <voice>1</voice>
    <type>whole</type>
   </note>
  </measure>
  <measure number="27">
   <direction placement="above">
    <direction-type>
     <wedge type="crescendo" spread="0" relative-y="-83" relative-x="8"/>
    </direction-type>
    <offset>0</offset>
   </direction>
   <direction placement="above">
    <direction-type>
     <dynamics relative-y="-95" relative-x="-8">
      <p/>
     </dynamics>
    </direction-type>
    <offset>0</offset>
    <sound dynamics="54"/>
   </direction>
   <note>
    <pitch>
     <step>A</step>
     <octave>5</octave>
    </pitch>
    <duration>2</duration>
    <voice>1</voice>
    <type>eighth</type>
    <stem>up</stem>
    <beam number="1">begin</beam>
    <notations>
     <articulations>
      <staccato/>
     </articulations>
     <slur type="start" number="1"/>
    </notations>
   </note>
   <direction placement="above">
    <direction-type>
     <wedge type="stop" spread="11" relative-y="-83" relative-x="8"/>
    </direction-type>
    <offset>0</offset>
   </direction>
   <note>
    <pitch>
     <step>G</step>
     <octave>5</octave>
    </pitch>
    <duration>1</duration>
    <voice>1</voice>
    <type>16th</type>
    <stem>up</stem>
    <beam number="1">continue</beam>
    <beam number="2">continue</beam>
    <notations>
     <slur type="start" number="2"/>
    </notations>
   </note>
   <note>
    <pitch>
     <step>A</step>
     <octave>5</octave>
    </pitch>
    <duration>1</duration>
    <voice>1</voice>
    <type>16th</type>
    <stem>up</stem>
    <beam number="1">end</beam>
    <beam number="2">end</beam>
   </note>
   <note>
    <pitch>
     <step>G</step>
     <octave>5</octave>
    </pitch>
    <duration>2</duration>
    <voice>1</voice>
    <type>eighth</type>
    <stem>up</stem>
    <beam number="1">begin</beam>
    <notations>
     <slur type="stop" number="2"/>
    </notations>
   </note>
   <note>
    <pitch>
     <step>F</step>
     <octave>5</octave>
    </pitch>
    <duration>1</duration>
    <voice>1</voice>
    <type>16th</type>
    <stem>up</stem>
    <beam number="1">continue</beam>
    <beam number="2">continue</beam>
    <notations>
     <slur type="start" number="2"/>
    </notations>
   </note>
   <note>
    <pitch>
     <step>G</step>
     <octave>5</octave>
    </pitch>
    <duration>1</duration>
    <voice>1</voice>
    <type>16th</type>
    <stem>up</stem>
    <beam number="1">end</beam>
    <beam number="2">end</beam>
   </note>
   <note>
    <pitch>
     <step>F</step>
     <octave>5</octave>
    </pitch>
    <duration>2</duration>
    <voice>1</voice>
    <type>eighth</type>
    <stem>up</stem>
    <beam number="1">begin</beam>
    <notations>
     <slur type="stop" number="2"/>
    </notations>
   </note>
   <note>
    <pitch>
     <step>E</step>
     <octave>5</octave>
    </pitch>
    <duration>1</duration>
    <voice>1</voice>
    <type>16th</type>
    <stem>up</stem>
    <beam number="1">continue</beam>
    <beam number="2">continue</beam>
    <notations>
     <slur type="start" number="2"/>
    </notations>
   </note>
   <note>
    <pitch>
     <step>F</step>
     <octave>5</octave>
    </pitch>
    <duration>1</duration>
    <voice>1</voice>
    <type>16th</type>
    <stem>up</stem>
    <beam number="1">end</beam>
    <beam number="2">end</beam>
   </note>
   <note>
    <pitch>
     <step>E</step>
     <octave>5</octave>
    </pitch>
    <duration>2</duration>
    <voice>1</voice>
    <type>eighth</type>
    <stem>up</stem>
    <beam number="1">begin</beam>
    <notations>
     <slur type="stop" number="2"/>
    </notations>
   </note>
   <note>
    <pitch>
     <step>D</step>
     <octave>5</octave>
    </pitch>
    <duration>1</duration>
    <voice>1</voice>
    <type>16th</type>
    <stem>up</stem>
    <beam number="1">continue</beam>
    <beam number="2">continue</beam>
    <notations>
     <slur type="start" number="2"/>
    </notations>
   </note>
   <note>
    <pitch>
     <step>E</step>
     <octave>5</octave>
    </pitch>
    <duration>1</duration>
    <voice>1</voice>
    <type>16th</type>
    <stem>up</stem>
    <beam number="1">end</beam>
    <beam number="2">end</beam>
    <notations>
     <slur type="stop" number="1"/>
    </notations>
   </note>
  </measure>
  <measure number="28">
   <direction placement="above">
    <direction-type>
     <dynamics relative-y="-95" relative-x="-8">
      <f/>
     </dynamics>
    </direction-type>
    <offset>0</offset>
    <sound dynamics="98"/>
   </direction>
   <note>
    <pitch>
     <step>D</step>
     <octave>5</octave>
    </pitch>
    <duration>8</duration>
    <voice>1</voice>
    <type>half</type>
    <stem>up</stem>
    <notations>
     <slur type="stop" number="2"/>
    </notations>
   </note>
   <note>
    <pitch>
     <step>A</step>
     <octave>5</octave>
    </pitch>
    <duration>4</duration>
    <voice>1</voice>
    <type>quarter</type>
    <stem>up</stem>
    <notations>
     <articulations>
      <tenuto/>
     </articulations>
    </notations>
   </note>
   <note>
    <pitch>
     <step>B</step>
     <alter>-1</alter>
     <octave>5</octave>
    </pitch>
    <duration>4</duration>
    <voice>1</voice>
    <type>quarter</type>
    <stem>down</stem>
    <notations>
     <articulations>
      <tenuto/>
     </articulations>
    </notations>
   </note>
  </measure>
  <measure number="29">
   <direction placement="above">
    <direction-type>
     <wedge type="crescendo" spread="0" relative-y="-89" relative-x="5"/>
    </direction-type>
    <offset>0</offset>
   </direction>
   <note>
    <pitch>
     <step>B</step>
     <alter>-1</alter>
     <octave>5</octave>
    </pitch>
    <duration>2</duration>
    <voice>1</voice>
    <type>eighth</type>
    <stem>up</stem>
    <beam number="1">begin</beam>
    <notations>
     <slur type="start" number="1"/>
    </notations>
   </note>
   <direction placement="above">
    <direction-type>
     <wedge type="stop" spread="11" relative-y="-89" relative-x="5"/>
    </direction-type>
    <offset>0</offset>
   </direction>
   <note>
    <pitch>
     <step>A</step>
     <octave>5</octave>
    </pitch>
    <duration>2</duration>
    <voice>1</voice>
    <type>eighth</type>
    <stem>up</stem>
    <beam number="1">continue</beam>
   </note>
   <note>
    <pitch>
     <step>G</step>
     <octave>5</octave>
    </pitch>
    <duration>2</duration>
    <voice>1</voice>
    <type>eighth</type>
    <stem>up</stem>
    <beam number="1">continue</beam>
   </note>
   <note>
    <pitch>
     <step>F</step>
     <octave>5</octave>
    </pitch>
    <duration>2</duration>
    <voice>1</voice>
    <type>eighth</type>
    <stem>up</stem>
    <beam number="1">end</beam>
   </note>
   <note>
    <pitch>
     <step>E</step>
     <octave>5</octave>
    </pitch>
    <duration>2</duration>
    <voice>1</voice>
    <type>eighth</type>
    <stem>up</stem>
    <beam number="1">begin</beam>
   </note>
   <note>
    <pitch>
     <step>D</step>
     <octave>5</octave>
    </pitch>
    <duration>2</duration>
    <voice>1</voice>
    <type>eighth</type>
    <stem>up</stem>
    <beam number="1">continue</beam>
   </note>
   <note>
    <pitch>
     <step>C</step>
     <octave>5</octave>
    </pitch>
    <duration>2</duration>
    <voice>1</voice>
    <type>eighth</type>
    <stem>up</stem>
    <beam number="1">continue</beam>
   </note>
   <note>
    <pitch>
     <step>B</step>
     <alter>-1</alter>
     <octave>4</octave>
    </pitch>
    <duration>2</duration>
    <voice>1</voice>
    <type>eighth</type>
    <stem>up</stem>
    <beam number="1">end</beam>
    <notations>
     <slur type="stop" number="1"/>
    </notations>
   </note>
  </measure>
  <measure number="30">
   <print new-system="yes"/>
   <note>
    <pitch>
     <step>A</step>
     <octave>4</octave>
    </pitch>
    <duration>12</duration>
    <voice>1</voice>
    <type>half</type>
    <dot/>
    <stem>up</stem>
   </note>
   <note>
    <pitch>
     <step>A</step>
     <octave>5</octave>
    </pitch>
    <duration>1</duration>
    <voice>1</voice>
    <type>16th</type>
    <stem>up</stem>
    <beam number="1">begin</beam>
    <beam number="2">begin</beam>
   </note>
   <note>
    <pitch>
     <step>B</step>
     <alter>-1</alter>
     <octave>5</octave>
    </pitch>
    <duration>1</duration>
    <voice>1</voice>
    <type>16th</type>
    <stem>up</stem>
    <beam number="1">continue</beam>
    <beam number="2">continue</beam>
    <notations>
     <slur type="start" number="1"/>
    </notations>
   </note>
   <note>
    <pitch>
     <step>A</step>
     <octave>5</octave>
    </pitch>
    <duration>1</duration>
    <voice>1</voice>
    <type>16th</type>
    <stem>up</stem>
    <beam number="1">continue</beam>
    <beam number="2">continue</beam>
   </note>
   <note>
    <pitch>
     <step>G</step>
     <octave>5</octave>
    </pitch>
    <duration>1</duration>
    <voice>1</voice>
    <type>16th</type>
    <stem>up</stem>
    <beam number="1">end</beam>
    <beam number="2">end</beam>
   </note>
  </measure>
  <measure number="31">
   <note>
    <pitch>
     <step>A</step>
     <octave>5</octave>
    </pitch>
    <duration>16</duration>
    <voice>1</voice>
    <type>whole</type>
    <stem>up</stem>
    <notations>
     <slur type="stop" number="1"/>
    </notations>
   </note>
  </measure>
  <measure number="32">
   <barline location="left">
    <bar-style>heavy-light</bar-style>
    <repeat direction="forward"/>
   </barline>
   <direction placement="above">
    <direction-type>
     <dynamics relative-y="-77" relative-x="-8">
      <ff/>
     </dynamics>
    </direction-type>
    <offset>0</offset>
    <sound dynamics="112"/>
   </direction>
   <note>
    <pitch>
     <step>A</step>
     <octave>5</octave>
    </pitch>
    <duration>6</duration>
    <voice>1</voice>
    <type>quarter</type>
    <dot/>
    <stem>up</stem>
    <notations>
     <articulations>
      <tenuto/>
     </articulations>
    </notations>
   </note>
   <note>
    <pitch>
     <step>G</step>
     <octave>5</octave>
    </pitch>
    <duration>2</duration>
    <voice>1</voice>
    <type>eighth</type>
    <stem>up</stem>
    <notations>
     <articulations>
      <tenuto/>
     </articulations>
    </notations>
   </note>
   <note>
    <pitch>
     <step>F</step>
     <octave>5</octave>
    </pitch>
    <duration>4</duration>
    <voice>1</voice>
    <type>quarter</type>
    <stem>up</stem>
    <notations>
     <articulations>
      <tenuto/>
     </articulations>
    </notations>
   </note>
   <note>
    <pitch>
     <step>D</step>
     <octave>6</octave>
    </pitch>
    <duration>4</duration>
    <voice>1</voice>
    <type>quarter</type>
    <stem>down</stem>
    <notations>
     <articulations>
      <tenuto/>
     </articulations>
    </notations>
   </note>
  </measure>
  <measure number="33">
   <note>
    <pitch>
     <step>B</step>
     <alter>-1</alter>
     <octave>5</octave>
    </pitch>
    <duration>6</duration>
    <voice>1</voice>
    <type>quarter</type>
    <dot/>
    <stem>down</stem>
    <notations>
     <articulations>
      <tenuto/>
     </articulations>
    </notations>
   </note>
   <note>
    <pitch>
     <step>A</step>
     <octave>5</octave>
    </pitch>
    <duration>2</duration>
    <voice>1</voice>
    <type>eighth</type>
    <stem>up</stem>
    <notations>
     <slur type="start" number="1"/>
    </notations>
   </note>
   <note>
    <pitch>
     <step>B</step>
     <alter>-1</alter>
     <octave>5</octave>
    </pitch>
    <duration>2</duration>
    <voice>1</voice>
    <type>eighth</type>
    <stem>up</stem>
    <beam number="1">begin</beam>
   </note>
   <note>
    <pitch>
     <step>A</step>
     <octave>5</octave>
    </pitch>
    <duration>2</duration>
    <voice>1</voice>
    <type>eighth</type>
    <stem>up</stem>
    <beam number="1">continue</beam>
   </note>
   <note>
    <pitch>
     <step>G</step>
     <octave>5</octave>
    </pitch>
    <duration>2</duration>
    <voice>1</voice>
    <type>eighth</type>
    <stem>up</stem>
    <beam number="1">continue</beam>
   </note>
   <note>
    <pitch>
     <step>F</step>
     <octave>5</octave>
    </pitch>
    <duration>2</duration>
    <voice>1</voice>
    <type>eighth</type>
    <stem>up</stem>
    <beam number="1">end</beam>
   </note>
  </measure>
  <measure number="34">
   <note>
    <pitch>
     <step>E</step>
     <octave>5</octave>
    </pitch>
    <duration>6</duration>
    <voice>1</voice>
    <type>quarter</type>
    <dot/>
    <stem>up</stem>
    <notations>
     <articulations>
      <tenuto/>
     </articulations>
     <slur type="stop" number="1"/>
    </notations>
   </note>
   <note>
    <pitch>
     <step>D</step>
     <octave>5</octave>
    </pitch>
    <duration>2</duration>
    <voice>1</voice>
    <type>eighth</type>
    <stem>up</stem>
    <notations>
     <articulations>
      <tenuto/>
     </articulations>
    </notations>
   </note>
   <note>
    <pitch>
     <step>C</step>
     <octave>5</octave>
    </pitch>
    <duration>4</duration>
    <voice>1</voice>
    <type>quarter</type>
    <stem>up</stem>
    <notations>
     <articulations>
      <tenuto/>
     </articulations>
    </notations>
   </note>
   <note>
    <pitch>
     <step>C</step>
     <octave>6</octave>
    </pitch>
    <duration>4</duration>
    <voice>1</voice>
    <type>quarter</type>
    <stem>down</stem>
    <notations>
     <articulations>
      <tenuto/>
     </articulations>
    </notations>
   </note>
  </measure>
  <measure number="35">
   <note>
    <pitch>
     <step>A</step>
     <octave>5</octave>
    </pitch>
    <duration>6</duration>
    <voice>1</voice>
    <type>quarter</type>
    <dot/>
    <stem>up</stem>
    <notations>
     <articulations>
      <tenuto/>
     </articulations>
    </notations>
   </note>
   <note>
    <pitch>
     <step>G</step>
     <octave>5</octave>
    </pitch>
    <duration>2</duration>
    <voice>1</voice>
    <type>eighth</type>
    <stem>up</stem>
    <notations>
     <slur type="start" number="1"/>
    </notations>
   </note>
   <note>
    <pitch>
     <step>A</step>
     <octave>5</octave>
    </pitch>
    <duration>2</duration>
    <voice>1</voice>
    <type>eighth</type>
    <stem>up</stem>
    <beam number="1">begin</beam>
   </note>
   <note>
    <pitch>
     <step>G</step>
     <octave>5</octave>
    </pitch>
    <duration>2</duration>
    <voice>1</voice>
    <type>eighth</type>
    <stem>up</stem>
    <beam number="1">continue</beam>
   </note>
   <note>
    <pitch>
     <step>F</step>
     <octave>5</octave>
    </pitch>
    <duration>2</duration>
    <voice>1</voice>
    <type>eighth</type>
    <stem>up</stem>
    <beam number="1">continue</beam>
   </note>
   <note>
    <pitch>
     <step>E</step>
     <octave>5</octave>
    </pitch>
    <duration>2</duration>
    <voice>1</voice>
    <type>eighth</type>
    <stem>up</stem>
    <beam number="1">end</beam>
   </note>
  </measure>
  <measure number="36">
   <note>
    <pitch>
     <step>D</step>
     <octave>5</octave>
    </pitch>
    <duration>8</duration>
    <voice>1</voice>
    <type>half</type>
    <stem>up</stem>
    <notations>
     <slur type="stop" number="1"/>
    </notations>
   </note>
   <note>
    <pitch>
     <step>A</step>
     <octave>5</octave>
    </pitch>
    <duration>4</duration>
    <voice>1</voice>
    <type>quarter</type>
    <stem>up</stem>
    <notations>
     <slur type="start" number="1"/>
    </notations>
   </note>
   <note>
    <pitch>
     <step>B</step>
     <alter>-1</alter>
     <octave>5</octave>
    </pitch>
    <duration>4</duration>
    <voice>1</voice>
    <type>quarter</type>
    <stem>down</stem>
    <notations>
     <slur type="stop" number="1"/>
    </notations>
   </note>
  </measure>
  <measure number="37">
   <print new-system="yes"/>
   <note>
    <pitch>
     <step>B</step>
     <alter>-1</alter>
     <octave>5</octave>
    </pitch>
    <duration>2</duration>
    <voice>1</voice>
    <type>eighth</type>
    <stem>up</stem>
    <beam number="1">begin</beam>
    <notations>
     <slur type="start" number="1"/>
    </notations>
   </note>
   <note>
    <pitch>
     <step>A</step>
     <octave>5</octave>
    </pitch>
    <duration>2</duration>
    <voice>1</voice>
    <type>eighth</type>
    <stem>up</stem>
    <beam number="1">continue</beam>
   </note>
   <note>
    <pitch>
     <step>G</step>
     <octave>5</octave>
    </pitch>
    <duration>2</duration>
    <voice>1</voice>
    <type>eighth</type>
    <stem>up</stem>
    <beam number="1">continue</beam>
   </note>
   <note>
    <pitch>
     <step>F</step>
     <octave>5</octave>
    </pitch>
    <duration>2</duration>
    <voice>1</voice>
    <type>eighth</type>
    <stem>up</stem>
    <beam number="1">end</beam>
   </note>
   <note>
    <pitch>
     <step>E</step>
     <octave>5</octave>
    </pitch>
    <duration>2</duration>
    <voice>1</voice>
    <type>eighth</type>
    <stem>up</stem>
    <beam number="1">begin</beam>
   </note>
   <note>
    <pitch>
     <step>D</step>
     <octave>5</octave>
    </pitch>
    <duration>2</duration>
    <voice>1</voice>
    <type>eighth</type>
    <stem>up</stem>
    <beam number="1">continue</beam>
   </note>
   <note>
    <pitch>
     <step>C</step>
     <octave>5</octave>
    </pitch>
    <duration>2</duration>
    <voice>1</voice>
    <type>eighth</type>
    <stem>up</stem>
    <beam number="1">continue</beam>
   </note>
   <note>
    <pitch>
     <step>B</step>
     <alter>-1</alter>
     <octave>4</octave>
    </pitch>
    <duration>2</duration>
    <voice>1</voice>
    <type>eighth</type>
    <stem>up</stem>
    <beam number="1">end</beam>
   </note>
  </measure>
  <measure number="38">
   <barline location="left">
    <ending type="start" number="1"/>
   </barline>
   <note>
    <pitch>
     <step>A</step>
     <octave>4</octave>
    </pitch>
    <duration>12</duration>
    <voice>1</voice>
    <type>half</type>
    <dot/>
    <stem>up</stem>
    <notations>
     <slur type="stop" number="1"/>
    </notations>
   </note>
   <note>
    <pitch>
     <step>A</step>
     <octave>5</octave>
    </pitch>
    <duration>1</duration>
    <voice>1</voice>
    <type>16th</type>
    <stem>up</stem>
    <beam number="1">begin</beam>
    <beam number="2">begin</beam>
   </note>
   <note>
    <pitch>
     <step>B</step>
     <alter>-1</alter>
     <octave>5</octave>
    </pitch>
    <duration>1</duration>
    <voice>1</voice>
    <type>16th</type>
    <stem>up</stem>
    <beam number="1">continue</beam>
    <beam number="2">continue</beam>
    <notations>
     <slur type="start" number="1"/>
    </notations>
   </note>
   <note>
    <pitch>
     <step>A</step>
     <octave>5</octave>
    </pitch>
    <duration>1</duration>
    <voice>1</voice>
    <type>16th</type>
    <stem>up</stem>
    <beam number="1">continue</beam>
    <beam number="2">continue</beam>
   </note>
   <note>
    <pitch>
     <step>G</step>
     <octave>5</octave>
    </pitch>
    <duration>1</duration>
    <voice>1</voice>
    <type>16th</type>
    <stem>up</stem>
    <beam number="1">end</beam>
    <beam number="2">end</beam>
   </note>
  </measure>
  <measure number="39">
   <note>
    <pitch>
     <step>A</step>
     <octave>5</octave>
    </pitch>
    <duration>16</duration>
    <voice>1</voice>
    <type>whole</type>
    <stem>up</stem>
    <notations>
     <slur type="stop" number="1"/>
    </notations>
   </note>
   <barline location="right">
    <bar-style>light-heavy</bar-style>
    <ending type="stop" number="1"/>
    <repeat direction="backward"/>
   </barline>
  </measure>
  <measure number="40">
   <barline location="left">
    <ending type="start" number="2"/>
   </barline>
   <note>
    <pitch>
     <step>A</step>
     <octave>4</octave>
    </pitch>
    <duration>8</duration>
    <voice>1</voice>
    <type>half</type>
    <stem>up</stem>
   </note>
   <note>
    <pitch>
     <step>A</step>
     <octave>5</octave>
    </pitch>
    <duration>8</duration>
    <voice>1</voice>
    <type>half</type>
    <stem>up</stem>
    <notations>
     <articulations>
      <accent/>
     </articulations>
    </notations>
   </note>
  </measure>
  <measure number="41">
   <note>
    <pitch>
     <step>D</step>
     <octave>6</octave>
    </pitch>
    <duration>4</duration>
    <voice>1</voice>
    <type>quarter</type>
    <stem>down</stem>
    <notations>
     <articulations>
      <accent/>
     </articulations>
    </notations>
   </note>
   <note>
    <rest/>
    <duration>2</duration>
    <voice>1</voice>
    <type>eighth</type>
   </note>
   <note>
    <pitch>
     <step>D</step>
     <octave>6</octave>
    </pitch>
    <duration>2</duration>
    <voice>1</voice>
    <type>eighth</type>
    <stem>down</stem>
    <notations>
     <articulations>
      <accent/>
     </articulations>
    </notations>
   </note>
   <note>
    <rest/>
    <duration>2</duration>
    <voice>1</voice>
    <type>eighth</type>
   </note>
   <note>
    <pitch>
     <step>D</step>
     <octave>6</octave>
    </pitch>
    <duration>2</duration>
    <voice>1</voice>
    <type>eighth</type>
    <stem>down</stem>
    <notations>
     <articulations>
      <accent/>
     </articulations>
    </notations>
   </note>
   <note>
    <rest/>
    <duration>2</duration>
    <voice>1</voice>
    <type>eighth</type>
   </note>
   <note>
    <pitch>
     <step>C</step>
     <octave>6</octave>
    </pitch>
    <duration>2</duration>
    <voice>1</voice>
    <type>eighth</type>
    <stem>down</stem>
    <notations>
     <articulations>
      <accent/>
     </articulations>
     <slur type="start" number="1"/>
    </notations>
   </note>
  </measure>
  <measure number="42">
   <note>
    <pitch>
     <step>D</step>
     <octave>6</octave>
    </pitch>
    <duration>2</duration>
    <voice>1</voice>
    <type>eighth</type>
    <stem>down</stem>
    <notations>
     <articulations>
      <accent/>
     </articulations>
     <slur type="stop" number="1"/>
    </notations>
   </note>
   <note>
    <rest/>
    <duration>2</duration>
    <voice>1</voice>
    <type>eighth</type>
   </note>
   <note>
    <rest/>
    <duration>4</duration>
    <voice>1</voice>
    <type>quarter</type>
   </note>
   <note>
    <rest/>
    <duration>8</duration>
    <voice>1</voice>
    <type>half</type>
   </note>
   <barline location="right">
    <bar-style>light-heavy</bar-style>
   </barline>
  </measure>
 </part>
</score-partwise>
