<?xml version="1.0" encoding="UTF-8" standalone="no"?>
<!DOCTYPE score-partwise PUBLIC "-//Recordare//DTD MusicXML 2.0 Partwise//EN" "http://www.musicxml.org/dtds/partwise.dtd">
<score-partwise version="2.0">
 <work>
  <work-title>Marche pour la C&#x00e9;r&#x00e9;monie des Turcs</work-title>
 </work>
 <identification>
  <creator type="composer">Jean-Baptiste LULLY</creator>
  <creator type="poet"></creator>
  <rights></rights>
  <encoding>
   <software>Neuratron PhotoScore</software>
   <encoding-description>MusicXML 2.0</encoding-description>
  </encoding>
  <source>Scanned sheet music</source>
 </identification>
 <defaults>
  <scaling>
   <millimeters>55</millimeters>
   <tenths>400</tenths>
  </scaling>
  <page-layout>
   <page-height>2152</page-height>
   <page-width>1571</page-width>
  </page-layout>
 </defaults>
 <part-list>
  <score-part id="P1">
   <part-name> IJ!X:+IL-</part-name>
   <part-abbreviation> IJ!.-</part-abbreviation>
   <score-instrument id="P1-I1">
    <instrument-name> IJ!X:+IL-</instrument-name>
   </score-instrument>
   <midi-instrument id="P1-I1">
    <midi-channel>1</midi-channel>
    <midi-program>1</midi-program>
   </midi-instrument>
  </score-part>
  <score-part id="P2">
   <part-name> IJ!X:+IL-</part-name>
   <part-abbreviation> IJ!.-</part-abbreviation>
   <score-instrument id="P2-I1">
    <instrument-name> IJ!X:+IL-</instrument-name>
   </score-instrument>
   <midi-instrument id="P2-I1">
    <midi-channel>2</midi-channel>
    <midi-program>1</midi-program>
   </midi-instrument>
  </score-part>
  <score-part id="P3">
   <part-name></part-name>
   <part-abbreviation></part-abbreviation>
   <score-instrument id="P3-I1">
    <instrument-name></instrument-name>
   </score-instrument>
   <midi-instrument id="P3-I1">
    <midi-channel>3</midi-channel>
    <midi-program>1</midi-program>
   </midi-instrument>
  </score-part>
 </part-list>
 <part id="P1">
  <measure number="1">
   <attributes>
    <divisions>4</divisions>
    <key>
     <fifths>-1</fifths>
    </key>
    <time symbol="cut">
     <beats>2</beats>
     <beat-type>2</beat-type>
    </time>
    <clef number="1">
     <sign>G</sign>
     <line>2</line>
    </clef>
   </attributes>
   <note>
    <pitch>
     <step>D</step>
     <octave>5</octave>
    </pitch>
    <duration>4</duration>
    <voice>1</voice>
    <type>quarter</type>
    <stem>down</stem>
   </note>
   <note>
    <rest/>
    <duration>4</duration>
    <voice>1</voice>
    <type>quarter</type>
   </note>
   <note>
    <pitch>
     <step>D</step>
     <octave>5</octave>
    </pitch>
    <duration>4</duration>
    <voice>1</voice>
    <type>quarter</type>
    <stem>down</stem>
   </note>
   <note>
    <rest/>
    <duration>4</duration>
    <voice>1</voice>
    <type>quarter</type>
   </note>
  </measure>
  <measure number="2">
   <note>
    <pitch>
     <step>B</step>
     <alter>-1</alter>
     <octave>4</octave>
    </pitch>
    <duration>6</duration>
    <voice>1</voice>
    <type>quarter</type>
    <dot/>
    <stem>down</stem>
    <notations>
     <ornaments>
      <trill-mark/>
     </ornaments>
    </notations>
   </note>
   <note>
    <pitch>
     <step>A</step>
     <octave>4</octave>
    </pitch>
    <duration>2</duration>
    <voice>1</voice>
    <type>eighth</type>
    <stem>up</stem>
   </note>
   <note>
    <pitch>
     <step>G</step>
     <octave>4</octave>
    </pitch>
    <duration>4</duration>
    <voice>1</voice>
    <type>quarter</type>
    <stem>up</stem>
   </note>
   <note>
    <pitch>
     <step>G</step>
     <octave>5</octave>
    </pitch>
    <duration>4</duration>
    <voice>1</voice>
    <type>quarter</type>
    <stem>down</stem>
   </note>
  </measure>
  <measure number="3">
   <note>
    <pitch>
     <step>D</step>
     <octave>5</octave>
    </pitch>
    <duration>6</duration>
    <voice>1</voice>
    <type>quarter</type>
    <dot/>
    <stem>down</stem>
   </note>
   <note>
    <pitch>
     <step>E</step>
     <octave>5</octave>
    </pitch>
    <duration>2</duration>
    <voice>1</voice>
    <type>eighth</type>
    <stem>down</stem>
   </note>
   <note>
    <pitch>
     <step>F</step>
     <octave>5</octave>
    </pitch>
    <duration>4</duration>
    <voice>1</voice>
    <type>quarter</type>
    <stem>down</stem>
   </note>
   <note>
    <pitch>
     <step>F</step>
     <octave>5</octave>
    </pitch>
    <duration>4</duration>
    <voice>1</voice>
    <type>quarter</type>
    <stem>down</stem>
   </note>
  </measure>
  <measure number="4">
   <note>
    <pitch>
     <step>F</step>
     <octave>5</octave>
    </pitch>
    <duration>8</duration>
    <voice>1</voice>
    <type>half</type>
    <stem>down</stem>
    <lyric number="1">
     <syllabic>single</syllabic>
     <text>I</text>
    </lyric>
   </note>
   <note>
    <pitch>
     <step>D</step>
     <octave>5</octave>
    </pitch>
    <duration>6</duration>
    <voice>1</voice>
    <type>quarter</type>
    <dot/>
    <stem>down</stem>
    <notations>
     <ornaments>
      <trill-mark/>
     </ornaments>
    </notations>
   </note>
   <note>
    <pitch>
     <step>C</step>
     <octave>5</octave>
    </pitch>
    <duration>1</duration>
    <voice>1</voice>
    <type>16th</type>
    <stem>down</stem>
    <beam number="1">begin</beam>
    <beam number="2">begin</beam>
   </note>
   <note>
    <pitch>
     <step>D</step>
     <octave>5</octave>
    </pitch>
    <duration>1</duration>
    <voice>1</voice>
    <type>16th</type>
    <stem>down</stem>
    <beam number="1">end</beam>
    <beam number="2">end</beam>
   </note>
  </measure>
  <measure number="5">
   <note>
    <pitch>
     <step>E</step>
     <alter>-1</alter>
     <octave>5</octave>
    </pitch>
    <duration>6</duration>
    <voice>1</voice>
    <type>quarter</type>
    <dot/>
    <accidental>flat</accidental>
    <stem>down</stem>
   </note>
   <note>
    <pitch>
     <step>D</step>
     <octave>5</octave>
    </pitch>
    <duration>2</duration>
    <voice>1</voice>
    <type>eighth</type>
    <stem>down</stem>
   </note>
   <note>
    <pitch>
     <step>C</step>
     <octave>5</octave>
    </pitch>
    <duration>6</duration>
    <voice>1</voice>
    <type>quarter</type>
    <dot/>
    <stem>down</stem>
    <notations>
     <ornaments>
      <trill-mark/>
     </ornaments>
    </notations>
   </note>
   <note>
    <pitch>
     <step>B</step>
     <alter>-1</alter>
     <octave>4</octave>
    </pitch>
    <duration>2</duration>
    <voice>1</voice>
    <type>eighth</type>
    <stem>down</stem>
   </note>
   <barline location="right">
    <bar-style>light-light</bar-style>
   </barline>
  </measure>
  <measure number="6">
   <note>
    <pitch>
     <step>B</step>
     <alter>-1</alter>
     <octave>4</octave>
    </pitch>
    <duration>16</duration>
    <voice>1</voice>
    <type>whole</type>
    <stem>up</stem>
   </note>
   <barline location="right">
    <bar-style>light-heavy</bar-style>
    <repeat direction="backward"/>
   </barline>
  </measure>
  <measure number="7">
   <note>
    <pitch>
     <step>B</step>
     <alter>-1</alter>
     <octave>4</octave>
    </pitch>
    <duration>16</duration>
    <voice>1</voice>
    <type>whole</type>
    <stem>up</stem>
   </note>
  </measure>
  <measure number="8">
   <print new-system="yes"/>
   <barline location="left">
    <bar-style>heavy-light</bar-style>
    <repeat direction="forward"/>
   </barline>
   <note>
    <pitch>
     <step>F</step>
     <octave>5</octave>
    </pitch>
    <duration>8</duration>
    <voice>1</voice>
    <type>half</type>
    <stem>down</stem>
   </note>
   <note>
    <pitch>
     <step>F</step>
     <alter>1</alter>
     <octave>5</octave>
    </pitch>
    <duration>6</duration>
    <voice>1</voice>
    <type>quarter</type>
    <dot/>
    <accidental>sharp</accidental>
    <stem>down</stem>
    <notations>
     <ornaments>
      <trill-mark/>
     </ornaments>
    </notations>
   </note>
   <note>
    <pitch>
     <step>E</step>
     <octave>5</octave>
    </pitch>
    <duration>1</duration>
    <voice>1</voice>
    <type>16th</type>
    <stem>down</stem>
    <beam number="1">begin</beam>
    <beam number="2">begin</beam>
   </note>
   <note>
    <pitch>
     <step>F</step>
     <alter>1</alter>
     <octave>5</octave>
    </pitch>
    <duration>1</duration>
    <voice>1</voice>
    <type>16th</type>
    <stem>down</stem>
    <beam number="1">end</beam>
    <beam number="2">end</beam>
   </note>
  </measure>
  <measure number="9">
   <note>
    <pitch>
     <step>G</step>
     <octave>5</octave>
    </pitch>
    <duration>6</duration>
    <voice>1</voice>
    <type>quarter</type>
    <dot/>
    <stem>down</stem>
   </note>
   <note>
    <pitch>
     <step>A</step>
     <octave>5</octave>
    </pitch>
    <duration>2</duration>
    <voice>1</voice>
    <type>eighth</type>
    <stem>down</stem>
   </note>
   <note>
    <pitch>
     <step>B</step>
     <alter>-1</alter>
     <octave>5</octave>
    </pitch>
    <duration>4</duration>
    <voice>1</voice>
    <type>quarter</type>
    <stem>down</stem>
   </note>
   <note>
    <pitch>
     <step>A</step>
     <octave>5</octave>
    </pitch>
    <duration>3</duration>
    <voice>1</voice>
    <type>eighth</type>
    <dot/>
    <stem>down</stem>
    <beam number="1">begin</beam>
   </note>
   <note>
    <pitch>
     <step>G</step>
     <octave>5</octave>
    </pitch>
    <duration>1</duration>
    <voice>1</voice>
    <type>16th</type>
    <stem>down</stem>
    <beam number="1">end</beam>
    <beam number="2">end</beam>
   </note>
  </measure>
  <measure number="10">
   <note>
    <pitch>
     <step>A</step>
     <octave>5</octave>
    </pitch>
    <duration>4</duration>
    <voice>1</voice>
    <type>quarter</type>
    <stem>down</stem>
   </note>
   <note>
    <pitch>
     <step>D</step>
     <octave>5</octave>
    </pitch>
    <duration>4</duration>
    <voice>1</voice>
    <type>quarter</type>
    <stem>down</stem>
   </note>
   <note>
    <pitch>
     <step>D</step>
     <octave>5</octave>
    </pitch>
    <duration>4</duration>
    <voice>1</voice>
    <type>quarter</type>
    <stem>down</stem>
   </note>
   <note>
    <pitch>
     <step>D</step>
     <octave>5</octave>
    </pitch>
    <duration>4</duration>
    <voice>1</voice>
    <type>quarter</type>
    <stem>down</stem>
   </note>
  </measure>
  <measure number="11">
   <note>
    <pitch>
     <step>D</step>
     <octave>5</octave>
    </pitch>
    <duration>6</duration>
    <voice>1</voice>
    <type>quarter</type>
    <dot/>
    <stem>down</stem>
   </note>
   <note>
    <pitch>
     <step>G</step>
     <octave>5</octave>
    </pitch>
    <duration>2</duration>
    <voice>1</voice>
    <type>eighth</type>
    <stem>down</stem>
   </note>
   <note>
    <pitch>
     <step>E</step>
     <octave>5</octave>
    </pitch>
    <duration>6</duration>
    <voice>1</voice>
    <type>quarter</type>
    <dot/>
    <stem>down</stem>
    <notations>
     <ornaments>
      <inverted-mordent/>
     </ornaments>
    </notations>
   </note>
   <note>
    <cue/>
    <pitch>
     <step>A</step>
     <octave>5</octave>
    </pitch>
    <duration>2</duration>
    <voice>1</voice>
    <type>eighth</type>
    <stem>down</stem>
   </note>
  </measure>
  <measure number="12">
   <print new-system="yes"/>
   <note>
    <pitch>
     <step>F</step>
     <alter>1</alter>
     <octave>5</octave>
    </pitch>
    <duration>4</duration>
    <voice>1</voice>
    <type>quarter</type>
    <accidental>sharp</accidental>
    <stem>down</stem>
    <notations>
     <ornaments>
      <inverted-mordent/>
     </ornaments>
    </notations>
   </note>
   <note>
    <pitch>
     <step>D</step>
     <octave>5</octave>
    </pitch>
    <duration>4</duration>
    <voice>1</voice>
    <type>quarter</type>
    <stem>down</stem>
   </note>
   <note>
    <pitch>
     <step>G</step>
     <octave>5</octave>
    </pitch>
    <duration>4</duration>
    <voice>1</voice>
    <type>quarter</type>
    <stem>down</stem>
   </note>
   <note>
    <pitch>
     <step>G</step>
     <octave>5</octave>
    </pitch>
    <duration>4</duration>
    <voice>1</voice>
    <type>quarter</type>
    <stem>down</stem>
   </note>
  </measure>
  <measure number="13">
   <note>
    <pitch>
     <step>G</step>
     <octave>5</octave>
    </pitch>
    <duration>6</duration>
    <voice>1</voice>
    <type>quarter</type>
    <dot/>
    <stem>down</stem>
   </note>
   <note>
    <pitch>
     <step>A</step>
     <octave>5</octave>
    </pitch>
    <duration>2</duration>
    <voice>1</voice>
    <type>eighth</type>
    <stem>down</stem>
   </note>
   <note>
    <pitch>
     <step>A</step>
     <octave>5</octave>
    </pitch>
    <duration>6</duration>
    <voice>1</voice>
    <type>quarter</type>
    <dot/>
    <stem>down</stem>
    <notations>
     <ornaments>
      <trill-mark/>
     </ornaments>
    </notations>
   </note>
   <note>
    <pitch>
     <step>G</step>
     <octave>5</octave>
    </pitch>
    <duration>1</duration>
    <voice>1</voice>
    <type>16th</type>
    <stem>down</stem>
    <beam number="1">begin</beam>
    <beam number="2">begin</beam>
   </note>
   <note>
    <pitch>
     <step>A</step>
     <octave>5</octave>
    </pitch>
    <duration>1</duration>
    <voice>1</voice>
    <type>16th</type>
    <stem>down</stem>
    <beam number="1">end</beam>
    <beam number="2">end</beam>
   </note>
  </measure>
  <measure number="14">
   <note>
    <pitch>
     <step>B</step>
     <alter>-1</alter>
     <octave>5</octave>
    </pitch>
    <duration>6</duration>
    <voice>1</voice>
    <type>quarter</type>
    <dot/>
    <stem>down</stem>
   </note>
   <note>
    <pitch>
     <step>A</step>
     <octave>5</octave>
    </pitch>
    <duration>2</duration>
    <voice>1</voice>
    <type>eighth</type>
    <stem>down</stem>
   </note>
   <note>
    <pitch>
     <step>G</step>
     <octave>5</octave>
    </pitch>
    <duration>3</duration>
    <voice>1</voice>
    <type>eighth</type>
    <dot/>
    <stem>down</stem>
    <beam number="1">begin</beam>
   </note>
   <note>
    <pitch>
     <step>F</step>
     <octave>5</octave>
    </pitch>
    <duration>1</duration>
    <voice>1</voice>
    <type>16th</type>
    <stem>down</stem>
    <beam number="1">continue</beam>
    <beam number="2">continue</beam>
   </note>
   <note>
    <pitch>
     <step>E</step>
     <alter>-1</alter>
     <octave>5</octave>
    </pitch>
    <duration>3</duration>
    <voice>1</voice>
    <type>eighth</type>
    <dot/>
    <accidental>flat</accidental>
    <stem>down</stem>
    <beam number="1">continue</beam>
   </note>
   <note>
    <pitch>
     <step>D</step>
     <octave>5</octave>
    </pitch>
    <duration>1</duration>
    <voice>1</voice>
    <type>16th</type>
    <stem>down</stem>
    <beam number="1">end</beam>
    <beam number="2">end</beam>
   </note>
  </measure>
  <measure number="15">
   <note>
    <pitch>
     <step>C</step>
     <octave>5</octave>
    </pitch>
    <duration>3</duration>
    <voice>1</voice>
    <type>eighth</type>
    <dot/>
    <stem>down</stem>
    <beam number="1">begin</beam>
   </note>
   <note>
    <pitch>
     <step>D</step>
     <octave>5</octave>
    </pitch>
    <duration>1</duration>
    <voice>1</voice>
    <type>16th</type>
    <stem>down</stem>
    <beam number="1">continue</beam>
    <beam number="2">continue</beam>
   </note>
   <note>
    <pitch>
     <step>A</step>
     <octave>4</octave>
    </pitch>
    <duration>3</duration>
    <voice>1</voice>
    <type>eighth</type>
    <dot/>
    <stem>down</stem>
    <beam number="1">continue</beam>
   </note>
   <note>
    <pitch>
     <step>B</step>
     <alter>-1</alter>
     <octave>4</octave>
    </pitch>
    <duration>1</duration>
    <voice>1</voice>
    <type>16th</type>
    <stem>down</stem>
    <beam number="1">end</beam>
    <beam number="2">end</beam>
   </note>
   <note>
    <pitch>
     <step>A</step>
     <octave>4</octave>
    </pitch>
    <duration>6</duration>
    <voice>1</voice>
    <type>quarter</type>
    <dot/>
    <stem>up</stem>
    <notations>
     <ornaments>
      <inverted-mordent/>
     </ornaments>
    </notations>
   </note>
   <note>
    <pitch>
     <step>G</step>
     <octave>4</octave>
    </pitch>
    <duration>2</duration>
    <voice>1</voice>
    <type>eighth</type>
    <stem>up</stem>
   </note>
  </measure>
  <measure number="16">
   <print new-system="yes"/>
   <note>
    <pitch>
     <step>G</step>
     <octave>4</octave>
    </pitch>
    <duration>8</duration>
    <voice>1</voice>
    <type>half</type>
    <stem>up</stem>
   </note>
   <note>
    <pitch>
     <step>G</step>
     <octave>5</octave>
    </pitch>
    <duration>4</duration>
    <voice>1</voice>
    <type>quarter</type>
    <stem>down</stem>
   </note>
   <note>
    <pitch>
     <step>G</step>
     <octave>5</octave>
    </pitch>
    <duration>4</duration>
    <voice>1</voice>
    <type>quarter</type>
    <stem>down</stem>
   </note>
  </measure>
  <measure number="17">
   <note>
    <pitch>
     <step>G</step>
     <octave>5</octave>
    </pitch>
    <duration>6</duration>
    <voice>1</voice>
    <type>quarter</type>
    <dot/>
    <stem>down</stem>
   </note>
   <note>
    <pitch>
     <step>A</step>
     <octave>5</octave>
    </pitch>
    <duration>2</duration>
    <voice>1</voice>
    <type>eighth</type>
    <stem>down</stem>
   </note>
   <note>
    <pitch>
     <step>A</step>
     <octave>5</octave>
    </pitch>
    <duration>6</duration>
    <voice>1</voice>
    <type>quarter</type>
    <dot/>
    <stem>down</stem>
    <notations>
     <ornaments>
      <trill-mark/>
     </ornaments>
    </notations>
   </note>
   <note>
    <pitch>
     <step>G</step>
     <octave>5</octave>
    </pitch>
    <duration>1</duration>
    <voice>1</voice>
    <type>16th</type>
    <stem>down</stem>
    <beam number="1">begin</beam>
    <beam number="2">begin</beam>
   </note>
   <note>
    <pitch>
     <step>A</step>
     <octave>5</octave>
    </pitch>
    <duration>1</duration>
    <voice>1</voice>
    <type>16th</type>
    <stem>down</stem>
    <beam number="1">end</beam>
    <beam number="2">end</beam>
   </note>
  </measure>
  <measure number="18">
   <note>
    <pitch>
     <step>B</step>
     <alter>-1</alter>
     <octave>5</octave>
    </pitch>
    <duration>6</duration>
    <voice>1</voice>
    <type>quarter</type>
    <dot/>
    <stem>down</stem>
   </note>
   <note>
    <pitch>
     <step>A</step>
     <octave>5</octave>
    </pitch>
    <duration>2</duration>
    <voice>1</voice>
    <type>eighth</type>
    <stem>down</stem>
   </note>
   <note>
    <pitch>
     <step>G</step>
     <octave>5</octave>
    </pitch>
    <duration>3</duration>
    <voice>1</voice>
    <type>eighth</type>
    <dot/>
    <stem>down</stem>
    <beam number="1">begin</beam>
   </note>
   <note>
    <pitch>
     <step>F</step>
     <octave>5</octave>
    </pitch>
    <duration>1</duration>
    <voice>1</voice>
    <type>16th</type>
    <stem>down</stem>
    <beam number="1">continue</beam>
    <beam number="2">continue</beam>
   </note>
   <note>
    <pitch>
     <step>E</step>
     <alter>-1</alter>
     <octave>5</octave>
    </pitch>
    <duration>3</duration>
    <voice>1</voice>
    <type>eighth</type>
    <dot/>
    <accidental>flat</accidental>
    <stem>down</stem>
    <beam number="1">continue</beam>
   </note>
   <note>
    <pitch>
     <step>D</step>
     <octave>5</octave>
    </pitch>
    <duration>1</duration>
    <voice>1</voice>
    <type>16th</type>
    <stem>down</stem>
    <beam number="1">end</beam>
    <beam number="2">end</beam>
   </note>
  </measure>
  <measure number="19">
   <note>
    <pitch>
     <step>C</step>
     <octave>5</octave>
    </pitch>
    <duration>3</duration>
    <voice>1</voice>
    <type>eighth</type>
    <dot/>
    <stem>down</stem>
    <beam number="1">begin</beam>
   </note>
   <note>
    <pitch>
     <step>D</step>
     <octave>5</octave>
    </pitch>
    <duration>1</duration>
    <voice>1</voice>
    <type>16th</type>
    <stem>down</stem>
    <beam number="1">continue</beam>
    <beam number="2">continue</beam>
   </note>
   <note>
    <pitch>
     <step>A</step>
     <octave>4</octave>
    </pitch>
    <duration>3</duration>
    <voice>1</voice>
    <type>eighth</type>
    <dot/>
    <stem>down</stem>
    <beam number="1">continue</beam>
   </note>
   <note>
    <pitch>
     <step>B</step>
     <alter>-1</alter>
     <octave>4</octave>
    </pitch>
    <duration>1</duration>
    <voice>1</voice>
    <type>16th</type>
    <stem>down</stem>
    <beam number="1">end</beam>
    <beam number="2">end</beam>
   </note>
   <note>
    <pitch>
     <step>A</step>
     <octave>4</octave>
    </pitch>
    <duration>6</duration>
    <voice>1</voice>
    <type>quarter</type>
    <dot/>
    <stem>up</stem>
    <notations>
     <ornaments>
      <inverted-mordent/>
     </ornaments>
    </notations>
   </note>
   <note>
    <pitch>
     <step>G</step>
     <octave>4</octave>
    </pitch>
    <duration>2</duration>
    <voice>1</voice>
    <type>eighth</type>
    <stem>up</stem>
   </note>
  </measure>
  <measure number="20">
   <note>
    <pitch>
     <step>G</step>
     <octave>4</octave>
    </pitch>
    <duration>16</duration>
    <voice>1</voice>
    <type>whole</type>
    <stem>up</stem>
   </note>
   <barline location="right">
    <bar-style>light-heavy</bar-style>
    <repeat direction="backward"/>
   </barline>
  </measure>
 </part>
 <part id="P2">
  <measure number="1">
   <attributes>
    <divisions>4</divisions>
    <key>
     <fifths>-1</fifths>
    </key>
    <time symbol="cut">
     <beats>2</beats>
     <beat-type>2</beat-type>
    </time>
    <clef number="1">
     <sign>G</sign>
     <line>2</line>
    </clef>
   </attributes>
   <note>
    <pitch>
     <step>G</step>
     <octave>4</octave>
    </pitch>
    <duration>4</duration>
    <voice>2</voice>
    <type>quarter</type>
    <stem>down</stem>
   </note>
   <backup>
    <duration>4</duration>
   </backup>
   <note>
    <pitch>
     <step>B</step>
     <alter>-1</alter>
     <octave>4</octave>
    </pitch>
    <duration>4</duration>
    <voice>1</voice>
    <type>quarter</type>
    <stem>up</stem>
   </note>
   <note>
    <rest/>
    <duration>4</duration>
    <voice>2</voice>
    <type>quarter</type>
   </note>
   <backup>
    <duration>4</duration>
   </backup>
   <note>
    <rest/>
    <duration>4</duration>
    <voice>1</voice>
    <type>quarter</type>
   </note>
   <note>
    <pitch>
     <step>F</step>
     <alter>1</alter>
     <octave>4</octave>
    </pitch>
    <duration>4</duration>
    <voice>2</voice>
    <type>quarter</type>
    <accidental>sharp</accidental>
    <stem>down</stem>
   </note>
   <backup>
    <duration>4</duration>
   </backup>
   <note>
    <pitch>
     <step>A</step>
     <octave>4</octave>
    </pitch>
    <duration>4</duration>
    <voice>1</voice>
    <type>quarter</type>
    <stem>up</stem>
   </note>
   <note>
    <rest/>
    <duration>4</duration>
    <voice>1</voice>
    <type>quarter</type>
   </note>
   <backup>
    <duration>4</duration>
   </backup>
   <note>
    <rest/>
    <duration>4</duration>
    <voice>2</voice>
    <type>quarter</type>
   </note>
  </measure>
  <measure number="2">
   <note>
    <pitch>
     <step>G</step>
     <octave>4</octave>
    </pitch>
    <duration>6</duration>
    <voice>1</voice>
    <type>quarter</type>
    <dot/>
    <stem>up</stem>
   </note>
   <backup>
    <duration>6</duration>
   </backup>
   <note>
    <pitch>
     <step>G</step>
     <octave>4</octave>
    </pitch>
    <duration>6</duration>
    <voice>2</voice>
    <type>quarter</type>
    <dot/>
    <stem>up</stem>
   </note>
   <note>
    <pitch>
     <step>A</step>
     <octave>4</octave>
    </pitch>
    <duration>2</duration>
    <voice>1</voice>
    <type>eighth</type>
    <stem>up</stem>
   </note>
   <note>
    <pitch>
     <step>B</step>
     <alter>-1</alter>
     <octave>4</octave>
    </pitch>
    <duration>4</duration>
    <voice>1</voice>
    <type>quarter</type>
    <stem>up</stem>
   </note>
   <note>
    <pitch>
     <step>G</step>
     <octave>4</octave>
    </pitch>
    <duration>4</duration>
    <voice>2</voice>
    <type>quarter</type>
    <stem>down</stem>
   </note>
   <backup>
    <duration>4</duration>
   </backup>
   <note>
    <pitch>
     <step>B</step>
     <alter>-1</alter>
     <octave>4</octave>
    </pitch>
    <duration>4</duration>
    <voice>1</voice>
    <type>quarter</type>
    <stem>up</stem>
   </note>
  </measure>
  <measure number="3">
   <note>
    <pitch>
     <step>G</step>
     <octave>4</octave>
    </pitch>
    <duration>6</duration>
    <voice>2</voice>
    <type>quarter</type>
    <dot/>
    <stem>down</stem>
   </note>
   <backup>
    <duration>6</duration>
   </backup>
   <note>
    <pitch>
     <step>B</step>
     <alter>-1</alter>
     <octave>4</octave>
    </pitch>
    <duration>6</duration>
    <voice>1</voice>
    <type>quarter</type>
    <dot/>
    <stem>up</stem>
   </note>
   <note>
    <pitch>
     <step>G</step>
     <octave>4</octave>
    </pitch>
    <duration>2</duration>
    <voice>2</voice>
    <type>eighth</type>
    <stem>down</stem>
   </note>
   <backup>
    <duration>2</duration>
   </backup>
   <note>
    <pitch>
     <step>C</step>
     <octave>5</octave>
    </pitch>
    <duration>2</duration>
    <voice>1</voice>
    <type>eighth</type>
    <stem>up</stem>
   </note>
   <note>
    <pitch>
     <step>F</step>
     <octave>4</octave>
    </pitch>
    <duration>8</duration>
    <voice>2</voice>
    <type>half</type>
    <stem>down</stem>
   </note>
   <backup>
    <duration>8</duration>
   </backup>
   <note>
    <pitch>
     <step>A</step>
     <octave>4</octave>
    </pitch>
    <duration>4</duration>
    <voice>1</voice>
    <type>quarter</type>
    <stem>up</stem>
   </note>
   <note>
    <pitch>
     <step>A</step>
     <octave>4</octave>
    </pitch>
    <duration>3</duration>
    <voice>1</voice>
    <type>eighth</type>
    <dot/>
    <stem>up</stem>
   </note>
   <note>
    <pitch>
     <step>B</step>
     <alter>-1</alter>
     <octave>4</octave>
    </pitch>
    <duration>1</duration>
    <voice>1</voice>
    <type>16th</type>
    <stem>up</stem>
   </note>
  </measure>
  <measure number="4">
   <note>
    <pitch>
     <step>F</step>
     <octave>4</octave>
    </pitch>
    <duration>4</duration>
    <voice>2</voice>
    <type>quarter</type>
    <stem>down</stem>
   </note>
   <backup>
    <duration>4</duration>
   </backup>
   <note>
    <pitch>
     <step>C</step>
     <octave>5</octave>
    </pitch>
    <duration>4</duration>
    <voice>1</voice>
    <type>quarter</type>
    <stem>up</stem>
   </note>
   <note>
    <pitch>
     <step>F</step>
     <octave>4</octave>
    </pitch>
    <duration>4</duration>
    <voice>2</voice>
    <type>quarter</type>
    <stem>down</stem>
   </note>
   <backup>
    <duration>4</duration>
   </backup>
   <note>
    <pitch>
     <step>A</step>
     <octave>4</octave>
    </pitch>
    <duration>4</duration>
    <voice>1</voice>
    <type>quarter</type>
    <stem>up</stem>
   </note>
   <note>
    <pitch>
     <step>F</step>
     <octave>4</octave>
    </pitch>
    <duration>8</duration>
    <voice>2</voice>
    <type>half</type>
    <stem>down</stem>
   </note>
   <backup>
    <duration>8</duration>
   </backup>
   <note>
    <pitch>
     <step>B</step>
     <alter>-1</alter>
     <octave>4</octave>
    </pitch>
    <duration>8</duration>
    <voice>1</voice>
    <type>half</type>
    <stem>up</stem>
   </note>
  </measure>
  <measure number="5">
   <note>
    <pitch>
     <step>G</step>
     <octave>4</octave>
    </pitch>
    <duration>8</duration>
    <voice>2</voice>
    <type>half</type>
    <stem>down</stem>
   </note>
   <backup>
    <duration>8</duration>
   </backup>
   <note>
    <pitch>
     <step>B</step>
     <alter>-1</alter>
     <octave>4</octave>
    </pitch>
    <duration>8</duration>
    <voice>1</voice>
    <type>half</type>
    <stem>up</stem>
   </note>
   <note>
    <pitch>
     <step>F</step>
     <octave>4</octave>
    </pitch>
    <duration>6</duration>
    <voice>2</voice>
    <type>quarter</type>
    <dot/>
    <stem>down</stem>
   </note>
   <backup>
    <duration>6</duration>
   </backup>
   <note>
    <pitch>
     <step>A</step>
     <octave>4</octave>
    </pitch>
    <duration>6</duration>
    <voice>1</voice>
    <type>quarter</type>
    <dot/>
    <stem>up</stem>
   </note>
   <note>
    <pitch>
     <step>E</step>
     <alter>-1</alter>
     <octave>4</octave>
    </pitch>
    <duration>2</duration>
    <voice>2</voice>
    <type>eighth</type>
    <accidental>flat</accidental>
    <stem>down</stem>
   </note>
   <backup>
    <duration>2</duration>
   </backup>
   <note>
    <pitch>
     <step>A</step>
     <octave>4</octave>
    </pitch>
    <duration>2</duration>
    <voice>1</voice>
    <type>eighth</type>
    <stem>up</stem>
   </note>
   <barline location="right">
    <bar-style>light-light</bar-style>
   </barline>
  </measure>
  <measure number="6">
   <note>
    <pitch>
     <step>D</step>
     <octave>4</octave>
    </pitch>
    <duration>16</duration>
    <voice>1</voice>
    <type>whole</type>
    <stem>up</stem>
   </note>
   <note>
    <chord/>
    <pitch>
     <step>B</step>
     <alter>-1</alter>
     <octave>4</octave>
    </pitch>
    <duration>16</duration>
    <voice>1</voice>
    <type>whole</type>
    <stem>up</stem>
   </note>
   <barline location="right">
    <bar-style>light-heavy</bar-style>
    <repeat direction="backward"/>
   </barline>
  </measure>
  <measure number="7">
   <note>
    <pitch>
     <step>D</step>
     <octave>4</octave>
    </pitch>
    <duration>16</duration>
    <voice>1</voice>
    <type>whole</type>
    <stem>up</stem>
   </note>
   <note>
    <chord/>
    <pitch>
     <step>B</step>
     <alter>-1</alter>
     <octave>4</octave>
    </pitch>
    <duration>16</duration>
    <voice>1</voice>
    <type>whole</type>
    <stem>up</stem>
   </note>
  </measure>
  <measure number="8">
   <print new-system="yes"/>
   <barline location="left">
    <bar-style>heavy-light</bar-style>
    <repeat direction="forward"/>
   </barline>
   <note>
    <pitch>
     <step>B</step>
     <alter>-1</alter>
     <octave>4</octave>
    </pitch>
    <duration>8</duration>
    <voice>2</voice>
    <type>half</type>
    <stem>down</stem>
   </note>
   <backup>
    <duration>8</duration>
   </backup>
   <note>
    <pitch>
     <step>D</step>
     <octave>5</octave>
    </pitch>
    <duration>8</duration>
    <voice>1</voice>
    <type>half</type>
    <stem>up</stem>
   </note>
   <note>
    <pitch>
     <step>C</step>
     <octave>5</octave>
    </pitch>
    <duration>8</duration>
    <voice>1</voice>
    <type>half</type>
    <stem>up</stem>
   </note>
   <backup>
    <duration>8</duration>
   </backup>
   <note>
    <pitch>
     <step>C</step>
     <octave>5</octave>
    </pitch>
    <duration>4</duration>
    <voice>2</voice>
    <type>quarter</type>
    <stem>down</stem>
   </note>
   <note>
    <pitch>
     <step>A</step>
     <octave>4</octave>
    </pitch>
    <duration>4</duration>
    <voice>2</voice>
    <type>quarter</type>
    <stem>down</stem>
   </note>
  </measure>
  <measure number="9">
   <note>
    <pitch>
     <step>B</step>
     <alter>-1</alter>
     <octave>4</octave>
    </pitch>
    <duration>6</duration>
    <voice>2</voice>
    <type>quarter</type>
    <dot/>
    <stem>down</stem>
   </note>
   <backup>
    <duration>6</duration>
   </backup>
   <note>
    <pitch>
     <step>B</step>
     <alter>-1</alter>
     <octave>4</octave>
    </pitch>
    <duration>6</duration>
    <voice>1</voice>
    <type>quarter</type>
    <dot/>
    <stem>up</stem>
   </note>
   <note>
    <pitch>
     <step>A</step>
     <octave>4</octave>
    </pitch>
    <duration>2</duration>
    <voice>2</voice>
    <type>eighth</type>
    <stem>down</stem>
   </note>
   <backup>
    <duration>2</duration>
   </backup>
   <note>
    <pitch>
     <step>C</step>
     <octave>5</octave>
    </pitch>
    <duration>2</duration>
    <voice>1</voice>
    <type>eighth</type>
    <stem>up</stem>
   </note>
   <note>
    <pitch>
     <step>G</step>
     <octave>4</octave>
    </pitch>
    <duration>4</duration>
    <voice>2</voice>
    <type>quarter</type>
    <stem>down</stem>
   </note>
   <backup>
    <duration>4</duration>
   </backup>
   <note>
    <pitch>
     <step>D</step>
     <octave>5</octave>
    </pitch>
    <duration>4</duration>
    <voice>1</voice>
    <type>quarter</type>
    <stem>up</stem>
   </note>
   <note>
    <pitch>
     <step>G</step>
     <octave>4</octave>
    </pitch>
    <duration>4</duration>
    <voice>2</voice>
    <type>quarter</type>
    <stem>down</stem>
   </note>
   <backup>
    <duration>4</duration>
   </backup>
   <note>
    <pitch>
     <step>D</step>
     <octave>5</octave>
    </pitch>
    <duration>4</duration>
    <voice>1</voice>
    <type>quarter</type>
    <stem>up</stem>
   </note>
  </measure>
  <measure number="10">
   <note>
    <pitch>
     <step>A</step>
     <octave>4</octave>
    </pitch>
    <duration>8</duration>
    <voice>2</voice>
    <type>half</type>
    <stem>down</stem>
   </note>
   <backup>
    <duration>8</duration>
   </backup>
   <note>
    <pitch>
     <step>D</step>
     <octave>5</octave>
    </pitch>
    <duration>6</duration>
    <voice>1</voice>
    <type>quarter</type>
    <dot/>
    <stem>up</stem>
   </note>
   <note>
    <pitch>
     <step>C</step>
     <octave>5</octave>
    </pitch>
    <duration>2</duration>
    <voice>1</voice>
    <type>eighth</type>
    <stem>up</stem>
   </note>
   <note>
    <pitch>
     <step>G</step>
     <octave>4</octave>
    </pitch>
    <duration>4</duration>
    <voice>2</voice>
    <type>quarter</type>
    <stem>down</stem>
   </note>
   <backup>
    <duration>4</duration>
   </backup>
   <note>
    <pitch>
     <step>B</step>
     <alter>-1</alter>
     <octave>4</octave>
    </pitch>
    <duration>4</duration>
    <voice>1</voice>
    <type>quarter</type>
    <stem>up</stem>
   </note>
   <note>
    <cue/>
    <pitch>
     <step>G</step>
     <octave>4</octave>
    </pitch>
    <duration>4</duration>
    <voice>2</voice>
    <type>quarter</type>
    <stem>down</stem>
   </note>
   <backup>
    <duration>4</duration>
   </backup>
   <note>
    <pitch>
     <step>B</step>
     <alter>-1</alter>
     <octave>4</octave>
    </pitch>
    <duration>4</duration>
    <voice>1</voice>
    <type>quarter</type>
    <stem>up</stem>
   </note>
  </measure>
  <measure number="11">
   <note>
    <pitch>
     <step>D</step>
     <octave>4</octave>
    </pitch>
    <duration>6</duration>
    <voice>2</voice>
    <type>quarter</type>
    <dot/>
    <stem>down</stem>
   </note>
   <backup>
    <duration>6</duration>
   </backup>
   <note>
    <pitch>
     <step>G</step>
     <octave>4</octave>
    </pitch>
    <duration>4</duration>
    <voice>1</voice>
    <type>quarter</type>
    <stem>up</stem>
   </note>
   <note>
    <pitch>
     <step>B</step>
     <alter>-1</alter>
     <octave>4</octave>
    </pitch>
    <duration>4</duration>
    <voice>1</voice>
    <type>quarter</type>
    <stem>up</stem>
   </note>
   <backup>
    <duration>2</duration>
   </backup>
   <note>
    <pitch>
     <step>E</step>
     <octave>4</octave>
    </pitch>
    <duration>2</duration>
    <voice>2</voice>
    <type>eighth</type>
    <stem>down</stem>
   </note>
   <note>
    <pitch>
     <step>C</step>
     <alter>1</alter>
     <octave>4</octave>
    </pitch>
    <duration>6</duration>
    <voice>2</voice>
    <type>quarter</type>
    <dot/>
    <accidental>sharp</accidental>
    <stem>down</stem>
   </note>
   <backup>
    <duration>6</duration>
   </backup>
   <note>
    <pitch>
     <step>A</step>
     <octave>4</octave>
    </pitch>
    <duration>8</duration>
    <voice>1</voice>
    <type>half</type>
    <stem>up</stem>
   </note>
   <backup>
    <duration>2</duration>
   </backup>
   <note>
    <pitch>
     <step>D</step>
     <octave>4</octave>
    </pitch>
    <duration>2</duration>
    <voice>2</voice>
    <type>eighth</type>
    <stem>down</stem>
   </note>
  </measure>
  <measure number="12">
   <print new-system="yes"/>
   <note>
    <pitch>
     <step>D</step>
     <octave>4</octave>
    </pitch>
    <duration>3</duration>
    <voice>2</voice>
    <type>eighth</type>
    <dot/>
    <stem>down</stem>
    <beam number="1">begin</beam>
   </note>
   <backup>
    <duration>3</duration>
   </backup>
   <note>
    <pitch>
     <step>A</step>
     <octave>4</octave>
    </pitch>
    <duration>4</duration>
    <voice>1</voice>
    <type>quarter</type>
    <stem>up</stem>
   </note>
   <backup>
    <duration>1</duration>
   </backup>
   <note>
    <pitch>
     <step>E</step>
     <octave>4</octave>
    </pitch>
    <duration>1</duration>
    <voice>2</voice>
    <type>16th</type>
    <stem>down</stem>
    <beam number="1">end</beam>
    <beam number="2">end</beam>
   </note>
   <note>
    <pitch>
     <step>F</step>
     <alter>1</alter>
     <octave>4</octave>
    </pitch>
    <duration>4</duration>
    <voice>2</voice>
    <type>quarter</type>
    <accidental>sharp</accidental>
    <stem>down</stem>
   </note>
   <backup>
    <duration>4</duration>
   </backup>
   <note>
    <pitch>
     <step>D</step>
     <octave>5</octave>
    </pitch>
    <duration>3</duration>
    <voice>1</voice>
    <type>eighth</type>
    <dot/>
    <stem>up</stem>
    <beam number="1">begin</beam>
   </note>
   <note>
    <pitch>
     <step>C</step>
     <octave>5</octave>
    </pitch>
    <duration>1</duration>
    <voice>1</voice>
    <type>16th</type>
    <stem>up</stem>
    <beam number="1">continue</beam>
    <beam number="2">continue</beam>
   </note>
   <note>
    <pitch>
     <step>G</step>
     <octave>4</octave>
    </pitch>
    <duration>4</duration>
    <voice>2</voice>
    <type>quarter</type>
    <stem>down</stem>
   </note>
   <backup>
    <duration>4</duration>
   </backup>
   <note>
    <pitch>
     <step>B</step>
     <alter>-1</alter>
     <octave>4</octave>
    </pitch>
    <duration>4</duration>
    <voice>1</voice>
    <type>quarter</type>
    <stem>up</stem>
   </note>
   <note>
    <pitch>
     <step>G</step>
     <octave>4</octave>
    </pitch>
    <duration>4</duration>
    <voice>2</voice>
    <type>quarter</type>
    <stem>down</stem>
   </note>
   <backup>
    <duration>4</duration>
   </backup>
   <note>
    <pitch>
     <step>B</step>
     <alter>-1</alter>
     <octave>4</octave>
    </pitch>
    <duration>4</duration>
    <voice>1</voice>
    <type>quarter</type>
    <stem>up</stem>
   </note>
  </measure>
  <measure number="13">
   <note>
    <pitch>
     <step>G</step>
     <octave>4</octave>
    </pitch>
    <duration>8</duration>
    <voice>2</voice>
    <type>half</type>
    <stem>down</stem>
   </note>
   <backup>
    <duration>8</duration>
   </backup>
   <note>
    <pitch>
     <step>B</step>
     <alter>-1</alter>
     <octave>4</octave>
    </pitch>
    <duration>4</duration>
    <voice>1</voice>
    <type>quarter</type>
    <stem>up</stem>
   </note>
   <note>
    <pitch>
     <step>E</step>
     <alter>-1</alter>
     <octave>5</octave>
    </pitch>
    <duration>8</duration>
    <voice>1</voice>
    <type>half</type>
    <accidental>flat</accidental>
    <stem>up</stem>
   </note>
   <backup>
    <duration>4</duration>
   </backup>
   <note>
    <pitch>
     <step>G</step>
     <octave>4</octave>
    </pitch>
    <duration>4</duration>
    <voice>2</voice>
    <type>quarter</type>
    <stem>down</stem>
   </note>
   <note>
    <pitch>
     <step>F</step>
     <alter>1</alter>
     <octave>4</octave>
    </pitch>
    <duration>4</duration>
    <voice>2</voice>
    <type>quarter</type>
    <accidental>sharp</accidental>
    <stem>down</stem>
   </note>
   <backup>
    <duration>4</duration>
   </backup>
   <note>
    <pitch>
     <step>D</step>
     <octave>5</octave>
    </pitch>
    <duration>4</duration>
    <voice>1</voice>
    <type>quarter</type>
    <stem>up</stem>
   </note>
  </measure>
  <measure number="14">
   <note>
    <pitch>
     <step>G</step>
     <octave>4</octave>
    </pitch>
    <duration>3</duration>
    <voice>2</voice>
    <type>eighth</type>
    <dot/>
    <stem>down</stem>
    <beam number="1">begin</beam>
   </note>
   <backup>
    <duration>3</duration>
   </backup>
   <note>
    <pitch>
     <step>D</step>
     <octave>5</octave>
    </pitch>
    <duration>6</duration>
    <voice>1</voice>
    <type>quarter</type>
    <dot/>
    <stem>up</stem>
   </note>
   <backup>
    <duration>3</duration>
   </backup>
   <note>
    <pitch>
     <step>A</step>
     <octave>4</octave>
    </pitch>
    <duration>1</duration>
    <voice>2</voice>
    <type>16th</type>
    <stem>down</stem>
    <beam number="1">end</beam>
    <beam number="2">end</beam>
   </note>
   <note>
    <pitch>
     <step>B</step>
     <alter>-1</alter>
     <octave>4</octave>
    </pitch>
    <duration>3</duration>
    <voice>2</voice>
    <type>eighth</type>
    <dot/>
    <stem>down</stem>
    <beam number="1">begin</beam>
   </note>
   <backup>
    <duration>1</duration>
   </backup>
   <note>
    <pitch>
     <step>C</step>
     <octave>5</octave>
    </pitch>
    <duration>2</duration>
    <voice>1</voice>
    <type>eighth</type>
    <stem>up</stem>
   </note>
   <backup>
    <duration>2</duration>
   </backup>
   <note>
    <pitch>
     <step>C</step>
     <octave>5</octave>
    </pitch>
    <duration>1</duration>
    <voice>2</voice>
    <type>16th</type>
    <stem>down</stem>
    <beam number="1">end</beam>
    <beam number="2">end</beam>
    <notations>
     <slur type="start" number="1"/>
    </notations>
   </note>
   <note>
    <pitch>
     <step>B</step>
     <alter>-1</alter>
     <octave>4</octave>
    </pitch>
    <duration>3</duration>
    <voice>2</voice>
    <type>eighth</type>
    <dot/>
    <stem>down</stem>
    <notations>
     <slur type="stop" number="1"/>
    </notations>
   </note>
   <backup>
    <duration>3</duration>
   </backup>
   <note>
    <pitch>
     <step>D</step>
     <octave>5</octave>
    </pitch>
    <duration>8</duration>
    <voice>1</voice>
    <type>half</type>
    <stem>up</stem>
   </note>
   <backup>
    <duration>5</duration>
   </backup>
   <note>
    <pitch>
     <step>A</step>
     <octave>4</octave>
    </pitch>
    <duration>1</duration>
    <voice>2</voice>
    <type>16th</type>
    <stem>up</stem>
   </note>
   <note>
    <pitch>
     <step>G</step>
     <octave>4</octave>
    </pitch>
    <duration>4</duration>
    <voice>2</voice>
    <type>quarter</type>
    <stem>up</stem>
   </note>
   <note>
    <rest/>
    <duration>1</duration>
    <voice>2</voice>
    <type>16th</type>
   </note>
  </measure>
  <measure number="15">
   <note>
    <pitch>
     <step>E</step>
     <alter>-1</alter>
     <octave>4</octave>
    </pitch>
    <duration>8</duration>
    <voice>2</voice>
    <type>half</type>
    <accidental>flat</accidental>
    <stem>down</stem>
   </note>
   <backup>
    <duration>8</duration>
   </backup>
   <note>
    <pitch>
     <step>G</step>
     <octave>4</octave>
    </pitch>
    <duration>4</duration>
    <voice>1</voice>
    <type>quarter</type>
    <stem>up</stem>
   </note>
   <note>
    <pitch>
     <step>A</step>
     <octave>4</octave>
    </pitch>
    <duration>3</duration>
    <voice>1</voice>
    <type>eighth</type>
    <dot/>
    <stem>up</stem>
    <beam number="1">begin</beam>
   </note>
   <note>
    <pitch>
     <step>G</step>
     <octave>4</octave>
    </pitch>
    <duration>1</duration>
    <voice>1</voice>
    <type>16th</type>
    <stem>up</stem>
    <beam number="1">end</beam>
    <beam number="2">end</beam>
   </note>
   <note>
    <pitch>
     <step>D</step>
     <octave>4</octave>
    </pitch>
    <duration>6</duration>
    <voice>2</voice>
    <type>quarter</type>
    <dot/>
    <stem>down</stem>
   </note>
   <backup>
    <duration>6</duration>
   </backup>
   <note>
    <pitch>
     <step>F</step>
     <alter>1</alter>
     <octave>4</octave>
    </pitch>
    <duration>6</duration>
    <voice>1</voice>
    <type>quarter</type>
    <dot/>
    <accidental>sharp</accidental>
    <stem>up</stem>
   </note>
   <note>
    <pitch>
     <step>C</step>
     <octave>4</octave>
    </pitch>
    <duration>2</duration>
    <voice>2</voice>
    <type>eighth</type>
    <stem>down</stem>
   </note>
   <backup>
    <duration>2</duration>
   </backup>
   <note>
    <pitch>
     <step>G</step>
     <octave>4</octave>
    </pitch>
    <duration>2</duration>
    <voice>1</voice>
    <type>eighth</type>
    <stem>up</stem>
   </note>
  </measure>
  <measure number="16">
   <print new-system="yes"/>
   <note>
    <pitch>
     <step>B</step>
     <alter>-1</alter>
     <octave>3</octave>
    </pitch>
    <duration>4</duration>
    <voice>2</voice>
    <type>quarter</type>
    <stem>down</stem>
   </note>
   <backup>
    <duration>4</duration>
   </backup>
   <note>
    <pitch>
     <step>G</step>
     <octave>4</octave>
    </pitch>
    <duration>4</duration>
    <voice>1</voice>
    <type>quarter</type>
    <stem>up</stem>
   </note>
   <note>
    <pitch>
     <step>B</step>
     <alter>-1</alter>
     <octave>4</octave>
    </pitch>
    <duration>3</duration>
    <voice>2</voice>
    <type>eighth</type>
    <dot/>
    <stem>down</stem>
    <beam number="1">begin</beam>
   </note>
   <backup>
    <duration>3</duration>
   </backup>
   <note>
    <pitch>
     <step>D</step>
     <octave>5</octave>
    </pitch>
    <duration>3</duration>
    <voice>1</voice>
    <type>eighth</type>
    <dot/>
    <stem>up</stem>
    <beam number="1">begin</beam>
   </note>
   <note>
    <pitch>
     <step>A</step>
     <octave>4</octave>
    </pitch>
    <duration>1</duration>
    <voice>2</voice>
    <type>16th</type>
    <stem>down</stem>
    <beam number="1">end</beam>
    <beam number="2">end</beam>
   </note>
   <backup>
    <duration>1</duration>
   </backup>
   <note>
    <pitch>
     <step>C</step>
     <octave>5</octave>
    </pitch>
    <duration>1</duration>
    <voice>1</voice>
    <type>16th</type>
    <stem>up</stem>
   </note>
   <note>
    <pitch>
     <step>G</step>
     <octave>4</octave>
    </pitch>
    <duration>4</duration>
    <voice>2</voice>
    <type>quarter</type>
    <stem>down</stem>
   </note>
   <backup>
    <duration>4</duration>
   </backup>
   <note>
    <pitch>
     <step>B</step>
     <alter>-1</alter>
     <octave>4</octave>
    </pitch>
    <duration>4</duration>
    <voice>1</voice>
    <type>quarter</type>
    <stem>up</stem>
   </note>
   <note>
    <pitch>
     <step>G</step>
     <octave>4</octave>
    </pitch>
    <duration>4</duration>
    <voice>2</voice>
    <type>quarter</type>
    <stem>down</stem>
   </note>
   <backup>
    <duration>4</duration>
   </backup>
   <note>
    <pitch>
     <step>B</step>
     <alter>-1</alter>
     <octave>4</octave>
    </pitch>
    <duration>4</duration>
    <voice>1</voice>
    <type>quarter</type>
    <stem>up</stem>
   </note>
  </measure>
  <measure number="17">
   <note>
    <pitch>
     <step>G</step>
     <octave>4</octave>
    </pitch>
    <duration>8</duration>
    <voice>2</voice>
    <type>half</type>
    <stem>down</stem>
   </note>
   <backup>
    <duration>8</duration>
   </backup>
   <note>
    <pitch>
     <step>B</step>
     <alter>-1</alter>
     <octave>4</octave>
    </pitch>
    <duration>4</duration>
    <voice>1</voice>
    <type>quarter</type>
    <stem>up</stem>
   </note>
   <note>
    <pitch>
     <step>E</step>
     <alter>-1</alter>
     <octave>5</octave>
    </pitch>
    <duration>8</duration>
    <voice>1</voice>
    <type>half</type>
    <accidental>flat</accidental>
    <stem>up</stem>
   </note>
   <backup>
    <duration>4</duration>
   </backup>
   <note>
    <pitch>
     <step>G</step>
     <octave>4</octave>
    </pitch>
    <duration>4</duration>
    <voice>2</voice>
    <type>quarter</type>
    <stem>down</stem>
   </note>
   <note>
    <pitch>
     <step>F</step>
     <alter>1</alter>
     <octave>4</octave>
    </pitch>
    <duration>4</duration>
    <voice>2</voice>
    <type>quarter</type>
    <accidental>sharp</accidental>
    <stem>down</stem>
   </note>
   <backup>
    <duration>4</duration>
   </backup>
   <note>
    <pitch>
     <step>D</step>
     <octave>5</octave>
    </pitch>
    <duration>4</duration>
    <voice>1</voice>
    <type>quarter</type>
    <stem>up</stem>
   </note>
  </measure>
  <measure number="18">
   <note>
    <pitch>
     <step>G</step>
     <octave>4</octave>
    </pitch>
    <duration>3</duration>
    <voice>2</voice>
    <type>eighth</type>
    <dot/>
    <stem>down</stem>
    <beam number="1">begin</beam>
   </note>
   <backup>
    <duration>3</duration>
   </backup>
   <note>
    <pitch>
     <step>D</step>
     <octave>5</octave>
    </pitch>
    <duration>6</duration>
    <voice>1</voice>
    <type>quarter</type>
    <dot/>
    <stem>up</stem>
   </note>
   <backup>
    <duration>3</duration>
   </backup>
   <note>
    <pitch>
     <step>A</step>
     <octave>4</octave>
    </pitch>
    <duration>1</duration>
    <voice>2</voice>
    <type>16th</type>
    <stem>down</stem>
    <beam number="1">continue</beam>
    <beam number="2">continue</beam>
   </note>
   <note>
    <pitch>
     <step>B</step>
     <alter>-1</alter>
     <octave>4</octave>
    </pitch>
    <duration>3</duration>
    <voice>2</voice>
    <type>eighth</type>
    <dot/>
    <stem>down</stem>
    <beam number="1">continue</beam>
   </note>
   <backup>
    <duration>3</duration>
   </backup>
   <note>
    <pitch>
     <step>C</step>
     <octave>5</octave>
    </pitch>
    <duration>2</duration>
    <voice>1</voice>
    <type>eighth</type>
    <stem>up</stem>
   </note>
   <note>
    <pitch>
     <step>C</step>
     <octave>5</octave>
    </pitch>
    <duration>8</duration>
    <voice>1</voice>
    <type>half</type>
    <stem>up</stem>
   </note>
   <note>
    <chord/>
    <pitch>
     <step>D</step>
     <octave>5</octave>
    </pitch>
    <duration>8</duration>
    <voice>1</voice>
    <type>half</type>
    <stem>up</stem>
   </note>
   <backup>
    <duration>8</duration>
   </backup>
   <note>
    <pitch>
     <step>C</step>
     <octave>5</octave>
    </pitch>
    <duration>1</duration>
    <voice>2</voice>
    <type>16th</type>
    <stem>down</stem>
    <beam number="1">end</beam>
    <beam number="2">end</beam>
   </note>
   <note>
    <pitch>
     <step>B</step>
     <alter>-1</alter>
     <octave>4</octave>
    </pitch>
    <duration>3</duration>
    <voice>2</voice>
    <type>eighth</type>
    <dot/>
    <stem>down</stem>
    <beam number="1">continue</beam>
   </note>
   <note>
    <pitch>
     <step>A</step>
     <octave>4</octave>
    </pitch>
    <duration>1</duration>
    <voice>2</voice>
    <type>16th</type>
    <stem>up</stem>
    <beam number="1">end</beam>
    <beam number="2">end</beam>
   </note>
   <note>
    <pitch>
     <step>G</step>
     <octave>4</octave>
    </pitch>
    <duration>4</duration>
    <voice>2</voice>
    <type>quarter</type>
    <stem>up</stem>
   </note>
   <backup>
    <duration>1</duration>
   </backup>
   <note>
    <rest/>
    <duration>2</duration>
    <voice>2</voice>
    <type>eighth</type>
   </note>
  </measure>
  <measure number="19">
   <note>
    <pitch>
     <step>E</step>
     <alter>-1</alter>
     <octave>4</octave>
    </pitch>
    <duration>8</duration>
    <voice>2</voice>
    <type>half</type>
    <accidental>flat</accidental>
    <stem>down</stem>
   </note>
   <backup>
    <duration>8</duration>
   </backup>
   <note>
    <pitch>
     <step>G</step>
     <octave>4</octave>
    </pitch>
    <duration>4</duration>
    <voice>1</voice>
    <type>quarter</type>
    <stem>up</stem>
   </note>
   <note>
    <pitch>
     <step>A</step>
     <octave>4</octave>
    </pitch>
    <duration>3</duration>
    <voice>1</voice>
    <type>eighth</type>
    <dot/>
    <stem>up</stem>
    <beam number="1">begin</beam>
   </note>
   <note>
    <pitch>
     <step>G</step>
     <octave>4</octave>
    </pitch>
    <duration>1</duration>
    <voice>1</voice>
    <type>16th</type>
    <stem>up</stem>
    <beam number="1">end</beam>
    <beam number="2">end</beam>
   </note>
   <note>
    <pitch>
     <step>D</step>
     <octave>4</octave>
    </pitch>
    <duration>6</duration>
    <voice>2</voice>
    <type>quarter</type>
    <dot/>
    <stem>down</stem>
   </note>
   <backup>
    <duration>6</duration>
   </backup>
   <note>
    <pitch>
     <step>F</step>
     <alter>1</alter>
     <octave>4</octave>
    </pitch>
    <duration>6</duration>
    <voice>1</voice>
    <type>quarter</type>
    <dot/>
    <accidental>sharp</accidental>
    <stem>up</stem>
    <notations>
     <slur type="start" number="1"/>
    </notations>
   </note>
   <note>
    <pitch>
     <step>C</step>
     <octave>4</octave>
    </pitch>
    <duration>2</duration>
    <voice>2</voice>
    <type>eighth</type>
    <stem>down</stem>
   </note>
   <backup>
    <duration>2</duration>
   </backup>
   <note>
    <pitch>
     <step>G</step>
     <octave>4</octave>
    </pitch>
    <duration>2</duration>
    <voice>1</voice>
    <type>eighth</type>
    <stem>up</stem>
    <notations>
     <slur type="stop" number="1"/>
    </notations>
   </note>
  </measure>
  <measure number="20">
   <note>
    <pitch>
     <step>B</step>
     <octave>3</octave>
    </pitch>
    <duration>16</duration>
    <voice>1</voice>
    <type>whole</type>
    <accidental>natural</accidental>
    <stem>up</stem>
   </note>
   <note>
    <chord/>
    <pitch>
     <step>D</step>
     <octave>4</octave>
    </pitch>
    <duration>16</duration>
    <voice>1</voice>
    <type>whole</type>
    <stem>up</stem>
   </note>
   <note>
    <chord/>
    <pitch>
     <step>G</step>
     <octave>4</octave>
    </pitch>
    <duration>16</duration>
    <voice>1</voice>
    <type>whole</type>
    <stem>up</stem>
   </note>
   <barline location="right">
    <bar-style>light-heavy</bar-style>
    <repeat direction="backward"/>
   </barline>
  </measure>
 </part>
 <part id="P3">
  <measure number="1">
   <attributes>
    <divisions>4</divisions>
    <key>
     <fifths>-1</fifths>
    </key>
    <time symbol="cut">
     <beats>2</beats>
     <beat-type>2</beat-type>
    </time>
    <clef number="1">
     <sign>F</sign>
     <line>4</line>
    </clef>
   </attributes>
   <note>
    <pitch>
     <step>G</step>
     <octave>3</octave>
    </pitch>
    <duration>4</duration>
    <voice>1</voice>
    <type>quarter</type>
    <stem>down</stem>
   </note>
   <note>
    <rest/>
    <duration>4</duration>
    <voice>1</voice>
    <type>quarter</type>
   </note>
   <note>
    <pitch>
     <step>D</step>
     <octave>3</octave>
    </pitch>
    <duration>4</duration>
    <voice>1</voice>
    <type>quarter</type>
    <stem>down</stem>
    <lyric number="1">
     <syllabic>single</syllabic>
     <text>I</text>
    </lyric>
   </note>
   <note>
    <rest/>
    <duration>4</duration>
    <voice>1</voice>
    <type>quarter</type>
   </note>
  </measure>
  <measure number="2">
   <note>
    <pitch>
     <step>E</step>
     <alter>-1</alter>
     <octave>3</octave>
    </pitch>
    <duration>12</duration>
    <voice>1</voice>
    <type>half</type>
    <dot/>
    <accidental>flat</accidental>
    <stem>down</stem>
   </note>
   <note>
    <pitch>
     <step>E</step>
     <alter>-1</alter>
     <octave>3</octave>
    </pitch>
    <duration>3</duration>
    <voice>1</voice>
    <type>eighth</type>
    <dot/>
    <stem>down</stem>
    <beam number="1">begin</beam>
   </note>
   <note>
    <pitch>
     <step>F</step>
     <octave>3</octave>
    </pitch>
    <duration>1</duration>
    <voice>1</voice>
    <type>16th</type>
    <stem>down</stem>
    <beam number="1">end</beam>
    <beam number="2">end</beam>
   </note>
  </measure>
  <measure number="3">
   <note>
    <pitch>
     <step>G</step>
     <octave>3</octave>
    </pitch>
    <duration>4</duration>
    <voice>1</voice>
    <type>quarter</type>
    <stem>down</stem>
   </note>
   <note>
    <pitch>
     <step>G</step>
     <octave>3</octave>
    </pitch>
    <duration>4</duration>
    <voice>1</voice>
    <type>quarter</type>
    <stem>down</stem>
   </note>
   <note>
    <pitch>
     <step>D</step>
     <octave>3</octave>
    </pitch>
    <duration>8</duration>
    <voice>1</voice>
    <type>half</type>
    <stem>down</stem>
   </note>
  </measure>
  <measure number="4">
   <note>
    <pitch>
     <step>A</step>
     <octave>3</octave>
    </pitch>
    <duration>4</duration>
    <voice>1</voice>
    <type>quarter</type>
    <stem>down</stem>
   </note>
   <note>
    <pitch>
     <step>F</step>
     <octave>3</octave>
    </pitch>
    <duration>4</duration>
    <voice>1</voice>
    <type>quarter</type>
    <stem>down</stem>
   </note>
   <note>
    <pitch>
     <step>B</step>
     <alter>-1</alter>
     <octave>3</octave>
    </pitch>
    <duration>8</duration>
    <voice>1</voice>
    <type>half</type>
    <stem>down</stem>
   </note>
  </measure>
  <measure number="5">
   <note>
    <pitch>
     <step>E</step>
     <alter>-1</alter>
     <octave>3</octave>
    </pitch>
    <duration>8</duration>
    <voice>1</voice>
    <type>half</type>
    <accidental>flat</accidental>
    <stem>down</stem>
   </note>
   <note>
    <pitch>
     <step>F</step>
     <octave>3</octave>
    </pitch>
    <duration>4</duration>
    <voice>1</voice>
    <type>quarter</type>
    <stem>down</stem>
   </note>
   <note>
    <pitch>
     <step>F</step>
     <octave>2</octave>
    </pitch>
    <duration>4</duration>
    <voice>1</voice>
    <type>quarter</type>
    <stem>up</stem>
   </note>
   <barline location="right">
    <bar-style>light-light</bar-style>
   </barline>
  </measure>
  <measure number="6">
   <note>
    <pitch>
     <step>B</step>
     <alter>-1</alter>
     <octave>2</octave>
    </pitch>
    <duration>8</duration>
    <voice>1</voice>
    <type>half</type>
    <stem>up</stem>
   </note>
   <note>
    <pitch>
     <step>B</step>
     <alter>-1</alter>
     <octave>3</octave>
    </pitch>
    <duration>6</duration>
    <voice>1</voice>
    <type>quarter</type>
    <dot/>
    <stem>down</stem>
   </note>
   <note>
    <pitch>
     <step>A</step>
     <octave>3</octave>
    </pitch>
    <duration>2</duration>
    <voice>1</voice>
    <type>eighth</type>
    <stem>down</stem>
   </note>
   <barline location="right">
    <bar-style>light-heavy</bar-style>
    <repeat direction="backward"/>
   </barline>
  </measure>
  <measure number="7">
   <note>
    <pitch>
     <step>B</step>
     <alter>-1</alter>
     <octave>2</octave>
    </pitch>
    <duration>16</duration>
    <voice>1</voice>
    <type>whole</type>
    <stem>up</stem>
   </note>
  </measure>
  <measure number="8">
   <print new-system="yes"/>
   <barline location="left">
    <bar-style>heavy-light</bar-style>
    <repeat direction="forward"/>
   </barline>
   <note>
    <pitch>
     <step>B</step>
     <alter>-1</alter>
     <octave>3</octave>
    </pitch>
    <duration>8</duration>
    <voice>1</voice>
    <type>half</type>
    <stem>down</stem>
   </note>
   <note>
    <pitch>
     <step>A</step>
     <octave>3</octave>
    </pitch>
    <duration>8</duration>
    <voice>1</voice>
    <type>half</type>
    <stem>down</stem>
   </note>
  </measure>
  <measure number="9">
   <note>
    <pitch>
     <step>G</step>
     <octave>3</octave>
    </pitch>
    <duration>12</duration>
    <voice>1</voice>
    <type>half</type>
    <dot/>
    <stem>down</stem>
   </note>
   <note>
    <pitch>
     <step>G</step>
     <octave>3</octave>
    </pitch>
    <duration>4</duration>
    <voice>1</voice>
    <type>quarter</type>
    <stem>down</stem>
   </note>
  </measure>
  <measure number="10">
   <note>
    <pitch>
     <step>F</step>
     <alter>1</alter>
     <octave>3</octave>
    </pitch>
    <duration>8</duration>
    <voice>1</voice>
    <type>half</type>
    <accidental>sharp</accidental>
    <stem>down</stem>
   </note>
   <note>
    <pitch>
     <step>G</step>
     <octave>3</octave>
    </pitch>
    <duration>4</duration>
    <voice>1</voice>
    <type>quarter</type>
    <stem>down</stem>
   </note>
   <note>
    <pitch>
     <step>G</step>
     <octave>3</octave>
    </pitch>
    <duration>3</duration>
    <voice>1</voice>
    <type>eighth</type>
    <dot/>
    <stem>down</stem>
    <beam number="1">begin</beam>
   </note>
   <note>
    <pitch>
     <step>A</step>
     <octave>3</octave>
    </pitch>
    <duration>1</duration>
    <voice>1</voice>
    <type>16th</type>
    <stem>down</stem>
    <beam number="1">end</beam>
    <beam number="2">end</beam>
   </note>
  </measure>
  <measure number="11">
   <note>
    <pitch>
     <step>B</step>
     <alter>-1</alter>
     <octave>3</octave>
    </pitch>
    <duration>4</duration>
    <voice>1</voice>
    <type>quarter</type>
    <stem>down</stem>
   </note>
   <note>
    <pitch>
     <step>G</step>
     <octave>3</octave>
    </pitch>
    <duration>4</duration>
    <voice>1</voice>
    <type>quarter</type>
    <stem>down</stem>
   </note>
   <note>
    <pitch>
     <step>A</step>
     <octave>3</octave>
    </pitch>
    <duration>4</duration>
    <voice>1</voice>
    <type>quarter</type>
    <stem>down</stem>
   </note>
   <note>
    <pitch>
     <step>A</step>
     <octave>2</octave>
    </pitch>
    <duration>4</duration>
    <voice>1</voice>
    <type>quarter</type>
    <stem>up</stem>
   </note>
  </measure>
  <measure number="12">
   <print new-system="yes"/>
   <note>
    <pitch>
     <step>D</step>
     <octave>3</octave>
    </pitch>
    <duration>8</duration>
    <voice>1</voice>
    <type>half</type>
    <stem>down</stem>
   </note>
   <note>
    <pitch>
     <step>E</step>
     <alter>-1</alter>
     <octave>3</octave>
    </pitch>
    <duration>4</duration>
    <voice>1</voice>
    <type>quarter</type>
    <accidental>flat</accidental>
    <stem>down</stem>
   </note>
   <note>
    <pitch>
     <step>E</step>
     <alter>-1</alter>
     <octave>3</octave>
    </pitch>
    <duration>4</duration>
    <voice>1</voice>
    <type>quarter</type>
    <stem>down</stem>
   </note>
  </measure>
  <measure number="13">
   <note>
    <pitch>
     <step>E</step>
     <alter>-1</alter>
     <octave>3</octave>
    </pitch>
    <duration>8</duration>
    <voice>1</voice>
    <type>half</type>
    <accidental>flat</accidental>
    <stem>down</stem>
   </note>
   <note>
    <pitch>
     <step>C</step>
     <octave>3</octave>
    </pitch>
    <duration>4</duration>
    <voice>1</voice>
    <type>quarter</type>
    <stem>up</stem>
   </note>
   <note>
    <pitch>
     <step>D</step>
     <octave>3</octave>
    </pitch>
    <duration>4</duration>
    <voice>1</voice>
    <type>quarter</type>
    <stem>down</stem>
   </note>
  </measure>
  <measure number="14">
   <note>
    <pitch>
     <step>G</step>
     <octave>2</octave>
    </pitch>
    <duration>6</duration>
    <voice>1</voice>
    <type>quarter</type>
    <dot/>
    <stem>up</stem>
   </note>
   <note>
    <pitch>
     <step>A</step>
     <octave>2</octave>
    </pitch>
    <duration>2</duration>
    <voice>1</voice>
    <type>eighth</type>
    <stem>up</stem>
   </note>
   <note>
    <pitch>
     <step>B</step>
     <alter>-1</alter>
     <octave>2</octave>
    </pitch>
    <duration>8</duration>
    <voice>1</voice>
    <type>half</type>
    <stem>up</stem>
   </note>
  </measure>
  <measure number="15">
   <note>
    <pitch>
     <step>C</step>
     <octave>3</octave>
    </pitch>
    <duration>8</duration>
    <voice>1</voice>
    <type>half</type>
    <stem>up</stem>
   </note>
   <note>
    <pitch>
     <step>D</step>
     <octave>3</octave>
    </pitch>
    <duration>4</duration>
    <voice>1</voice>
    <type>quarter</type>
    <stem>down</stem>
   </note>
   <note>
    <pitch>
     <step>D</step>
     <octave>2</octave>
    </pitch>
    <duration>4</duration>
    <voice>1</voice>
    <type>quarter</type>
    <stem>up</stem>
   </note>
  </measure>
  <measure number="16">
   <print new-system="yes"/>
   <note>
    <pitch>
     <step>G</step>
     <octave>2</octave>
    </pitch>
    <duration>4</duration>
    <voice>1</voice>
    <type>quarter</type>
    <stem>up</stem>
   </note>
   <harmony>
    <root>
     <root-step>F</root-step>
    </root>
    <kind>major</kind>
   </harmony>
   <note>
    <pitch>
     <step>G</step>
     <octave>3</octave>
    </pitch>
    <duration>3</duration>
    <voice>1</voice>
    <type>eighth</type>
    <dot/>
    <stem>down</stem>
    <beam number="1">begin</beam>
   </note>
   <note>
    <pitch>
     <step>F</step>
     <octave>3</octave>
    </pitch>
    <duration>1</duration>
    <voice>1</voice>
    <type>16th</type>
    <stem>down</stem>
   </note>
   <note>
    <pitch>
     <step>E</step>
     <alter>-1</alter>
     <octave>3</octave>
    </pitch>
    <duration>4</duration>
    <voice>1</voice>
    <type>quarter</type>
    <accidental>flat</accidental>
    <stem>down</stem>
   </note>
   <note>
    <pitch>
     <step>E</step>
     <alter>-1</alter>
     <octave>3</octave>
    </pitch>
    <duration>4</duration>
    <voice>1</voice>
    <type>quarter</type>
    <stem>down</stem>
   </note>
  </measure>
  <measure number="17">
   <note>
    <pitch>
     <step>E</step>
     <alter>-1</alter>
     <octave>3</octave>
    </pitch>
    <duration>8</duration>
    <voice>1</voice>
    <type>half</type>
    <accidental>flat</accidental>
    <stem>down</stem>
   </note>
   <note>
    <pitch>
     <step>C</step>
     <octave>3</octave>
    </pitch>
    <duration>4</duration>
    <voice>1</voice>
    <type>quarter</type>
    <stem>up</stem>
   </note>
   <note>
    <pitch>
     <step>D</step>
     <octave>3</octave>
    </pitch>
    <duration>4</duration>
    <voice>1</voice>
    <type>quarter</type>
    <stem>down</stem>
   </note>
  </measure>
  <measure number="18">
   <note>
    <pitch>
     <step>G</step>
     <octave>2</octave>
    </pitch>
    <duration>6</duration>
    <voice>1</voice>
    <type>quarter</type>
    <dot/>
    <stem>up</stem>
   </note>
   <note>
    <pitch>
     <step>A</step>
     <octave>2</octave>
    </pitch>
    <duration>2</duration>
    <voice>1</voice>
    <type>eighth</type>
    <stem>up</stem>
   </note>
   <note>
    <pitch>
     <step>B</step>
     <alter>-1</alter>
     <octave>2</octave>
    </pitch>
    <duration>8</duration>
    <voice>1</voice>
    <type>half</type>
    <stem>up</stem>
   </note>
  </measure>
  <measure number="19">
   <note>
    <pitch>
     <step>C</step>
     <octave>3</octave>
    </pitch>
    <duration>8</duration>
    <voice>1</voice>
    <type>half</type>
    <stem>up</stem>
   </note>
   <note>
    <pitch>
     <step>D</step>
     <octave>3</octave>
    </pitch>
    <duration>4</duration>
    <voice>1</voice>
    <type>quarter</type>
    <stem>down</stem>
   </note>
   <note>
    <pitch>
     <step>D</step>
     <octave>2</octave>
    </pitch>
    <duration>4</duration>
    <voice>1</voice>
    <type>quarter</type>
    <stem>up</stem>
   </note>
  </measure>
  <measure number="20">
   <note>
    <pitch>
     <step>G</step>
     <octave>2</octave>
    </pitch>
    <duration>16</duration>
    <voice>1</voice>
    <type>whole</type>
    <stem>up</stem>
   </note>
   <barline location="right">
    <bar-style>light-heavy</bar-style>
    <repeat direction="backward"/>
   </barline>
  </measure>
 </part>
</score-partwise>
