<?xml version="1.0" encoding="ISO-8859-1" standalone="no"?>
<!DOCTYPE score-partwise PUBLIC
    "-//Recordare//DTD MusicXML 1.1 Partwise//EN"
    "http://www.musicxml.org/dtds/partwise.dtd">
<score-partwise version="1.1">
	<identification>
		<encoding>
			<software>Cubase, Version 7.5.40, Build 315</software>
			<encoding-date>2017-10-04</encoding-date>
		</encoding>
	</identification>
	<defaults>
		<scaling>
			<millimeters>7.055551</millimeters>
			<tenths>40</tenths>
		</scaling>
		<page-layout>
			<page-height>1684</page-height>
			<page-width>1188</page-width>
			<page-margins type="both">
				<left-margin>86</left-margin>
				<right-margin>88</right-margin>
				<top-margin>86</top-margin>
				<bottom-margin>88</bottom-margin>
			</page-margins>
		</page-layout>
	</defaults>
	<part-list>
		<score-part id="P1">
			<part-name>Piccolo</part-name>
			<part-abbreviation>Picc.</part-abbreviation>
			<score-instrument id="P1-I-1">
				<instrument-name>Piccolo</instrument-name>
			</score-instrument>
			<midi-instrument id="P1-I-1">
				<midi-channel>1</midi-channel>
				<midi-program>0</midi-program>
			</midi-instrument>
		</score-part>
		<score-part id="P7">
			<part-name>Kontrafagott</part-name>
			<part-abbreviation>Kfg.</part-abbreviation>
			<score-instrument id="P7-I-1">
				<instrument-name>Kontrafagott</instrument-name>
			</score-instrument>
			<midi-instrument id="P7-I-1">
				<midi-channel>1</midi-channel>
				<midi-program>0</midi-program>
			</midi-instrument>
		</score-part>
	</part-list>
	<part id="P1">
		<!--===============================-->
		<measure number="1">
			<attributes>
				<divisions>480</divisions>
				<key>
					<fifths>0</fifths>
				</key>
				<time>
					<beats>4</beats>
					<beat-type>4</beat-type>
				</time>
				<clef number="1">
					<sign>G</sign>
					<line>2</line>
				</clef>
				<transpose>
					<chromatic>12</chromatic>
				</transpose>
			</attributes>
			<direction placement="above">
				<direction-type>
					<words default-y="31" relative-x="-114" font-style="normal" font-size="18" font-weight="bold">Allegretto   MM 1/4=105</words>
				</direction-type>
				<staff>1</staff>
			</direction>
			<direction placement="above">
				<direction-type>
					<words default-y="61" relative-x="-113" font-style="normal" font-size="18" font-weight="bold">Nr. IV      Allesamt durchs Labyrinth</words>
				</direction-type>
				<staff>1</staff>
			</direction>
			<note>
				<rest />
				<duration>1920</duration>
				<voice>1</voice>
				<type>whole</type>
				<staff>1</staff>
			</note>
		</measure>
		<!--===============================-->
		<measure number="2">
			<note>
				<rest />
				<duration>1920</duration>
				<voice>1</voice>
				<type>whole</type>
				<staff>1</staff>
			</note>
		</measure>
		<!--===============================-->
		<measure number="3">
			<note>
				<rest />
				<duration>1920</duration>
				<voice>1</voice>
				<type>whole</type>
				<staff>1</staff>
			</note>
		</measure>
		<!--===============================-->
		<measure number="4">
			<note>
				<rest />
				<duration>1920</duration>
				<voice>1</voice>
				<type>whole</type>
				<staff>1</staff>
			</note>
		</measure>
		<!--===============================-->
		<measure number="5">
			<attributes>
				<divisions>480</divisions>
				<key>
					<fifths>0</fifths>
				</key>
				<clef number="1">
					<sign>G</sign>
					<line>2</line>
				</clef>
				<transpose>
					<chromatic>12</chromatic>
				</transpose>
				<staff-details print-object="no" />
			</attributes>
		</measure>
		<!--===============================-->
		<measure number="6"></measure>
		<!--===============================-->
		<measure number="7"></measure>
		<!--===============================-->
		<measure number="8"></measure>
		<!--===============================-->
		<measure number="9">
			<attributes>
				<transpose>
					<chromatic>12</chromatic>
				</transpose>
				<staff-details print-object="no" />
			</attributes>
		</measure>
		<!--===============================-->
		<measure number="10"></measure>
		<!--===============================-->
		<measure number="11"></measure>
		<!--===============================-->
		<measure number="12"></measure>
		<!--===============================-->
		<measure number="13">
			<attributes>
				<transpose>
					<chromatic>12</chromatic>
				</transpose>
				<staff-details print-object="no" />
			</attributes>
		</measure>
		<!--===============================-->
		<measure number="14"></measure>
		<!--===============================-->
		<measure number="15"></measure>
		<!--===============================-->
		<measure number="16"></measure>
		<!--===============================-->
		<measure number="17">
			<attributes>
				<divisions>480</divisions>
				<key>
					<fifths>0</fifths>
				</key>
				<clef number="1">
					<sign>G</sign>
					<line>2</line>
				</clef>
				<transpose>
					<chromatic>12</chromatic>
				</transpose>
				<staff-details print-object="no" />
			</attributes>
		</measure>
		<!--===============================-->
		<measure number="18"></measure>
		<!--===============================-->
		<measure number="19"></measure>
		<!--===============================-->
		<measure number="20"></measure>
		<!--===============================-->
		<measure number="21">
			<attributes>
				<transpose>
					<chromatic>12</chromatic>
				</transpose>
				<staff-details print-object="no" />
			</attributes>
		</measure>
		<!--===============================-->
		<measure number="22"></measure>
		<!--===============================-->
		<measure number="23"></measure>
		<!--===============================-->
		<measure number="24"></measure>
		<!--===============================-->
		<measure number="25">
			<attributes>
				<transpose>
					<chromatic>12</chromatic>
				</transpose>
				<staff-details print-object="no" />
			</attributes>
		</measure>
		<!--===============================-->
		<measure number="26"></measure>
		<!--===============================-->
		<measure number="27">
			<attributes>
				<divisions>480</divisions>
				<key>
					<fifths>0</fifths>
				</key>
				<clef number="1">
					<sign>G</sign>
					<line>2</line>
				</clef>
				<transpose>
					<chromatic>12</chromatic>
				</transpose>
				<staff-details print-object="no" />
			</attributes>
		</measure>
		<!--===============================-->
		<measure number="28"></measure>
		<!--===============================-->
		<measure number="29">
			<attributes>
				<transpose>
					<chromatic>12</chromatic>
				</transpose>
				<staff-details print-object="no" />
			</attributes>
		</measure>
		<!--===============================-->
		<measure number="30"></measure>
		<!--===============================-->
		<measure number="31">
			<attributes>
				<transpose>
					<chromatic>12</chromatic>
				</transpose>
				<staff-details print-object="no" />
			</attributes>
		</measure>
		<!--===============================-->
		<measure number="32"></measure>
		<!--===============================-->
		<measure number="33">
			<attributes>
				<divisions>480</divisions>
				<key>
					<fifths>0</fifths>
				</key>
				<clef number="1">
					<sign>G</sign>
					<line>2</line>
				</clef>
				<transpose>
					<chromatic>12</chromatic>
				</transpose>
				<staff-details print-object="no" />
			</attributes>
		</measure>
		<!--===============================-->
		<measure number="34"></measure>
		<!--===============================-->
		<measure number="35">
			<attributes>
				<transpose>
					<chromatic>12</chromatic>
				</transpose>
				<staff-details print-object="no" />
			</attributes>
		</measure>
		<!--===============================-->
		<measure number="36"></measure>
		<!--===============================-->
		<measure number="37">
			<attributes>
				<transpose>
					<chromatic>12</chromatic>
				</transpose>
				<staff-details print-object="no" />
			</attributes>
		</measure>
		<!--===============================-->
		<measure number="38"></measure>
		<!--===============================-->
		<measure number="39">
			<attributes>
				<divisions>480</divisions>
				<key>
					<fifths>0</fifths>
				</key>
				<clef number="1">
					<sign>G</sign>
					<line>2</line>
				</clef>
				<transpose>
					<chromatic>12</chromatic>
				</transpose>
				<staff-details print-object="no" />
			</attributes>
		</measure>
		<!--===============================-->
		<measure number="40"></measure>
		<!--===============================-->
		<measure number="41">
			<attributes>
				<transpose>
					<chromatic>12</chromatic>
				</transpose>
				<staff-details print-object="no" />
			</attributes>
		</measure>
		<!--===============================-->
		<measure number="42"></measure>
		<!--===============================-->
		<measure number="43"></measure>
		<!--===============================-->
		<measure number="44">
			<attributes>
				<transpose>
					<chromatic>12</chromatic>
				</transpose>
				<staff-details print-object="no" />
			</attributes>
		</measure>
		<!--===============================-->
		<measure number="45"></measure>
		<!--===============================-->
		<measure number="46"></measure>
		<!--===============================-->
		<measure number="47">
			<attributes>
				<divisions>480</divisions>
				<key>
					<fifths>0</fifths>
				</key>
				<clef number="1">
					<sign>G</sign>
					<line>2</line>
				</clef>
				<transpose>
					<chromatic>12</chromatic>
				</transpose>
				<staff-details print-object="no" />
			</attributes>
		</measure>
		<!--===============================-->
		<measure number="48"></measure>
		<!--===============================-->
		<measure number="49">
			<attributes>
				<transpose>
					<chromatic>12</chromatic>
				</transpose>
				<staff-details print-object="no" />
			</attributes>
		</measure>
		<!--===============================-->
		<measure number="50"></measure>
		<!--===============================-->
		<measure number="51">
			<attributes>
				<divisions>480</divisions>
				<key>
					<fifths>0</fifths>
				</key>
				<clef number="1">
					<sign>G</sign>
					<line>2</line>
				</clef>
				<transpose>
					<chromatic>12</chromatic>
				</transpose>
				<staff-details print-object="no" />
			</attributes>
		</measure>
		<!--===============================-->
		<measure number="52"></measure>
		<!--===============================-->
		<measure number="53">
			<attributes>
				<transpose>
					<chromatic>12</chromatic>
				</transpose>
				<staff-details print-object="no" />
			</attributes>
		</measure>
		<!--===============================-->
		<measure number="54"></measure>
		<!--===============================-->
		<measure number="55">
			<attributes>
				<divisions>480</divisions>
				<key>
					<fifths>0</fifths>
				</key>
				<clef number="1">
					<sign>G</sign>
					<line>2</line>
				</clef>
				<transpose>
					<chromatic>12</chromatic>
				</transpose>
			</attributes>
			<note>
				<rest />
				<duration>1920</duration>
				<voice>1</voice>
				<type>whole</type>
				<staff>1</staff>
			</note>
		</measure>
		<!--===============================-->
		<measure number="56">
			<note>
				<rest />
				<duration>1920</duration>
				<voice>1</voice>
				<type>whole</type>
				<staff>1</staff>
			</note>
		</measure>
		<!--===============================-->
		<measure number="57">
			<direction placement="above">
				<direction-type>
					<rehearsal default-y="45" relative-x="-9"  enclosure="square" font-style="normal" font-size="10" font-weight="normal">A</rehearsal>
				</direction-type>
				<staff>1</staff>
			</direction>
			<direction placement="below">
				<direction-type>
					<dynamics default-y="-66" relative-x="-1">
						<f />
					</dynamics>
				</direction-type>
				<staff>1</staff>
			</direction>
			<note>
				<pitch>
					<step>E</step>
					<octave>6</octave>
				</pitch>
				<duration>120</duration>
				<voice>1</voice>
				<type>16th</type>
				<stem>down</stem>
				<staff>1</staff>
				<beam number="1">begin</beam>
				<beam number="2">begin</beam>
			</note>
			<note>
				<pitch>
					<step>D</step>
					<octave>6</octave>
				</pitch>
				<duration>120</duration>
				<voice>1</voice>
				<type>16th</type>
				<stem>down</stem>
				<staff>1</staff>
				<beam number="1">continue</beam>
				<beam number="2">continue</beam>
			</note>
			<note>
				<pitch>
					<step>C</step>
					<octave>6</octave>
				</pitch>
				<duration>120</duration>
				<voice>1</voice>
				<type>16th</type>
				<stem>down</stem>
				<staff>1</staff>
				<beam number="1">continue</beam>
				<beam number="2">continue</beam>
			</note>
			<note>
				<pitch>
					<step>D</step>
					<octave>6</octave>
				</pitch>
				<duration>120</duration>
				<tie type="start" />
				<voice>1</voice>
				<type>16th</type>
				<stem>down</stem>
				<staff>1</staff>
				<beam number="1">end</beam>
				<beam number="2">end</beam>
				<notations>
					<tied type="start" />
				</notations>
			</note>
			<note>
				<pitch>
					<step>D</step>
					<octave>6</octave>
				</pitch>
				<duration>120</duration>
				<tie type="stop" />
				<voice>1</voice>
				<type>16th</type>
				<stem>down</stem>
				<staff>1</staff>
				<beam number="1">begin</beam>
				<beam number="2">begin</beam>
				<notations>
					<tied type="stop" />
				</notations>
			</note>
			<note>
				<pitch>
					<step>E</step>
					<octave>6</octave>
				</pitch>
				<duration>120</duration>
				<voice>1</voice>
				<type>16th</type>
				<stem>down</stem>
				<staff>1</staff>
				<beam number="1">continue</beam>
				<beam number="2">continue</beam>
			</note>
			<note>
				<pitch>
					<step>F</step>
					<octave>6</octave>
				</pitch>
				<duration>120</duration>
				<voice>1</voice>
				<type>16th</type>
				<stem>down</stem>
				<staff>1</staff>
				<beam number="1">continue</beam>
				<beam number="2">continue</beam>
			</note>
			<note>
				<pitch>
					<step>D</step>
					<octave>6</octave>
				</pitch>
				<duration>120</duration>
				<voice>1</voice>
				<type>16th</type>
				<stem>down</stem>
				<staff>1</staff>
				<beam number="1">end</beam>
				<beam number="2">end</beam>
			</note>
			<note>
				<pitch>
					<step>C</step>
					<octave>6</octave>
				</pitch>
				<duration>480</duration>
				<voice>1</voice>
				<type>quarter</type>
				<stem>down</stem>
				<staff>1</staff>
			</note>
			<note>
				<pitch>
					<step>D</step>
					<octave>6</octave>
				</pitch>
				<duration>480</duration>
				<voice>1</voice>
				<type>quarter</type>
				<stem>down</stem>
				<staff>1</staff>
			</note>
		</measure>
		<!--===============================-->
		<measure number="58">
			<attributes>
				<divisions>480</divisions>
				<key>
					<fifths>0</fifths>
				</key>
				<clef number="1">
					<sign>G</sign>
					<line>2</line>
				</clef>
				<transpose>
					<chromatic>12</chromatic>
				</transpose>
			</attributes>
			<note>
				<pitch>
					<step>C</step>
					<octave>6</octave>
				</pitch>
				<duration>120</duration>
				<voice>1</voice>
				<type>16th</type>
				<stem>down</stem>
				<staff>1</staff>
				<beam number="1">begin</beam>
				<beam number="2">begin</beam>
			</note>
			<note>
				<pitch>
					<step>B</step>
					<octave>5</octave>
				</pitch>
				<duration>120</duration>
				<voice>1</voice>
				<type>16th</type>
				<stem>down</stem>
				<staff>1</staff>
				<beam number="1">continue</beam>
				<beam number="2">continue</beam>
			</note>
			<note>
				<pitch>
					<step>A</step>
					<octave>5</octave>
				</pitch>
				<duration>120</duration>
				<voice>1</voice>
				<type>16th</type>
				<stem>down</stem>
				<staff>1</staff>
				<beam number="1">continue</beam>
				<beam number="2">continue</beam>
			</note>
			<note>
				<pitch>
					<step>B</step>
					<octave>5</octave>
				</pitch>
				<duration>120</duration>
				<voice>1</voice>
				<type>16th</type>
				<stem>down</stem>
				<staff>1</staff>
				<beam number="1">end</beam>
				<beam number="2">end</beam>
			</note>
			<note>
				<pitch>
					<step>D</step>
					<octave>6</octave>
				</pitch>
				<duration>120</duration>
				<voice>1</voice>
				<type>16th</type>
				<stem>down</stem>
				<staff>1</staff>
				<beam number="1">begin</beam>
				<beam number="2">begin</beam>
			</note>
			<note>
				<pitch>
					<step>C</step>
					<octave>6</octave>
				</pitch>
				<duration>120</duration>
				<voice>1</voice>
				<type>16th</type>
				<stem>down</stem>
				<staff>1</staff>
				<beam number="1">continue</beam>
				<beam number="2">continue</beam>
			</note>
			<note>
				<pitch>
					<step>B</step>
					<octave>5</octave>
				</pitch>
				<duration>120</duration>
				<voice>1</voice>
				<type>16th</type>
				<stem>down</stem>
				<staff>1</staff>
				<beam number="1">continue</beam>
				<beam number="2">continue</beam>
			</note>
			<note>
				<pitch>
					<step>D</step>
					<octave>6</octave>
				</pitch>
				<duration>120</duration>
				<voice>1</voice>
				<type>16th</type>
				<stem>down</stem>
				<staff>1</staff>
				<beam number="1">end</beam>
				<beam number="2">end</beam>
			</note>
			<note>
				<pitch>
					<step>E</step>
					<octave>6</octave>
				</pitch>
				<duration>480</duration>
				<voice>1</voice>
				<type>quarter</type>
				<stem>down</stem>
				<staff>1</staff>
			</note>
			<note>
				<pitch>
					<step>F</step>
					<octave>6</octave>
				</pitch>
				<duration>480</duration>
				<voice>1</voice>
				<type>quarter</type>
				<stem>down</stem>
				<staff>1</staff>
			</note>
		</measure>
		<!--===============================-->
		<measure number="59">
			<note>
				<pitch>
					<step>G</step>
					<octave>6</octave>
				</pitch>
				<duration>240</duration>
				<voice>1</voice>
				<type>eighth</type>
				<stem>down</stem>
				<staff>1</staff>
				<beam number="1">begin</beam>
			</note>
			<note>
				<pitch>
					<step>A</step>
					<octave>6</octave>
				</pitch>
				<duration>240</duration>
				<voice>1</voice>
				<type>eighth</type>
				<stem>down</stem>
				<staff>1</staff>
				<beam number="1">end</beam>
			</note>
			<note>
				<pitch>
					<step>G</step>
					<octave>6</octave>
				</pitch>
				<duration>120</duration>
				<voice>1</voice>
				<type>16th</type>
				<stem>down</stem>
				<staff>1</staff>
				<beam number="1">begin</beam>
				<beam number="2">begin</beam>
			</note>
			<note>
				<pitch>
					<step>F</step>
					<octave>6</octave>
				</pitch>
				<duration>120</duration>
				<voice>1</voice>
				<type>16th</type>
				<stem>down</stem>
				<staff>1</staff>
				<beam number="1">continue</beam>
				<beam number="2">continue</beam>
			</note>
			<note>
				<pitch>
					<step>C</step>
					<octave>6</octave>
				</pitch>
				<duration>120</duration>
				<voice>1</voice>
				<type>16th</type>
				<stem>down</stem>
				<staff>1</staff>
				<beam number="1">continue</beam>
				<beam number="2">continue</beam>
			</note>
			<note>
				<pitch>
					<step>D</step>
					<octave>6</octave>
				</pitch>
				<duration>120</duration>
				<voice>1</voice>
				<type>16th</type>
				<stem>down</stem>
				<staff>1</staff>
				<beam number="1">end</beam>
				<beam number="2">end</beam>
			</note>
			<note>
				<pitch>
					<step>E</step>
					<octave>6</octave>
				</pitch>
				<duration>480</duration>
				<voice>1</voice>
				<type>quarter</type>
				<stem>down</stem>
				<staff>1</staff>
			</note>
			<note>
				<pitch>
					<step>F</step>
					<octave>6</octave>
				</pitch>
				<duration>480</duration>
				<voice>1</voice>
				<type>quarter</type>
				<stem>down</stem>
				<staff>1</staff>
			</note>
		</measure>
		<!--===============================-->
		<measure number="60">
			<note>
				<pitch>
					<step>E</step>
					<octave>6</octave>
				</pitch>
				<duration>480</duration>
				<voice>1</voice>
				<type>quarter</type>
				<stem>down</stem>
				<staff>1</staff>
			</note>
			<note>
				<pitch>
					<step>D</step>
					<octave>6</octave>
				</pitch>
				<duration>480</duration>
				<voice>1</voice>
				<type>quarter</type>
				<stem>down</stem>
				<staff>1</staff>
			</note>
			<note>
				<pitch>
					<step>C</step>
					<octave>6</octave>
				</pitch>
				<duration>480</duration>
				<voice>1</voice>
				<type>quarter</type>
				<stem>down</stem>
				<staff>1</staff>
			</note>
			<note>
				<pitch>
					<step>D</step>
					<octave>6</octave>
				</pitch>
				<duration>480</duration>
				<voice>1</voice>
				<type>quarter</type>
				<stem>down</stem>
				<staff>1</staff>
			</note>
		</measure>
		<!--===============================-->
		<measure number="61">
			<attributes>
				<transpose>
					<chromatic>12</chromatic>
				</transpose>
			</attributes>
			<note>
				<pitch>
					<step>E</step>
					<octave>6</octave>
				</pitch>
				<duration>120</duration>
				<voice>1</voice>
				<type>16th</type>
				<stem>down</stem>
				<staff>1</staff>
				<beam number="1">begin</beam>
				<beam number="2">begin</beam>
			</note>
			<note>
				<pitch>
					<step>D</step>
					<octave>6</octave>
				</pitch>
				<duration>120</duration>
				<voice>1</voice>
				<type>16th</type>
				<stem>down</stem>
				<staff>1</staff>
				<beam number="1">continue</beam>
				<beam number="2">continue</beam>
			</note>
			<note>
				<pitch>
					<step>C</step>
					<octave>6</octave>
				</pitch>
				<duration>120</duration>
				<voice>1</voice>
				<type>16th</type>
				<stem>down</stem>
				<staff>1</staff>
				<beam number="1">continue</beam>
				<beam number="2">continue</beam>
			</note>
			<note>
				<pitch>
					<step>D</step>
					<octave>6</octave>
				</pitch>
				<duration>120</duration>
				<voice>1</voice>
				<type>16th</type>
				<stem>down</stem>
				<staff>1</staff>
				<beam number="1">end</beam>
				<beam number="2">end</beam>
			</note>
			<note>
				<pitch>
					<step>D</step>
					<octave>6</octave>
				</pitch>
				<duration>480</duration>
				<voice>1</voice>
				<type>quarter</type>
				<stem>down</stem>
				<staff>1</staff>
			</note>
			<note>
				<pitch>
					<step>A</step>
					<octave>6</octave>
				</pitch>
				<duration>120</duration>
				<voice>1</voice>
				<type>16th</type>
				<stem>down</stem>
				<staff>1</staff>
				<beam number="1">begin</beam>
				<beam number="2">begin</beam>
			</note>
			<note>
				<pitch>
					<step>G</step>
					<octave>6</octave>
				</pitch>
				<duration>120</duration>
				<voice>1</voice>
				<type>16th</type>
				<stem>down</stem>
				<staff>1</staff>
				<beam number="1">continue</beam>
				<beam number="2">continue</beam>
			</note>
			<note>
				<pitch>
					<step>F</step>
					<octave>6</octave>
				</pitch>
				<duration>120</duration>
				<voice>1</voice>
				<type>16th</type>
				<stem>down</stem>
				<staff>1</staff>
				<beam number="1">continue</beam>
				<beam number="2">continue</beam>
			</note>
			<note>
				<pitch>
					<step>F</step>
					<alter>1</alter>
					<octave>6</octave>
				</pitch>
				<duration>120</duration>
				<voice>1</voice>
				<type>16th</type>
				<accidental>sharp</accidental>
				<stem>down</stem>
				<staff>1</staff>
				<beam number="1">end</beam>
				<beam number="2">end</beam>
			</note>
			<note>
				<pitch>
					<step>F</step>
					<octave>6</octave>
				</pitch>
				<duration>120</duration>
				<voice>1</voice>
				<type>16th</type>
				<accidental>natural</accidental>
				<stem>down</stem>
				<staff>1</staff>
				<beam number="1">begin</beam>
				<beam number="2">begin</beam>
			</note>
			<note>
				<pitch>
					<step>E</step>
					<octave>6</octave>
				</pitch>
				<duration>120</duration>
				<voice>1</voice>
				<type>16th</type>
				<stem>down</stem>
				<staff>1</staff>
				<beam number="1">continue</beam>
				<beam number="2">continue</beam>
			</note>
			<note>
				<pitch>
					<step>D</step>
					<alter>1</alter>
					<octave>6</octave>
				</pitch>
				<duration>120</duration>
				<voice>1</voice>
				<type>16th</type>
				<accidental>sharp</accidental>
				<stem>down</stem>
				<staff>1</staff>
				<beam number="1">continue</beam>
				<beam number="2">continue</beam>
			</note>
			<note>
				<pitch>
					<step>D</step>
					<octave>6</octave>
				</pitch>
				<duration>120</duration>
				<voice>1</voice>
				<type>16th</type>
				<accidental>natural</accidental>
				<stem>down</stem>
				<staff>1</staff>
				<beam number="1">end</beam>
				<beam number="2">end</beam>
			</note>
		</measure>
		<!--===============================-->
		<measure number="62">
			<note>
				<pitch>
					<step>E</step>
					<octave>6</octave>
				</pitch>
				<duration>480</duration>
				<voice>1</voice>
				<type>quarter</type>
				<stem>down</stem>
				<staff>1</staff>
			</note>
			<note>
				<pitch>
					<step>D</step>
					<octave>6</octave>
				</pitch>
				<duration>480</duration>
				<voice>1</voice>
				<type>quarter</type>
				<stem>down</stem>
				<staff>1</staff>
			</note>
			<note>
				<pitch>
					<step>C</step>
					<octave>6</octave>
				</pitch>
				<duration>480</duration>
				<voice>1</voice>
				<type>quarter</type>
				<stem>down</stem>
				<staff>1</staff>
			</note>
			<note>
				<pitch>
					<step>D</step>
					<octave>6</octave>
				</pitch>
				<duration>480</duration>
				<voice>1</voice>
				<type>quarter</type>
				<stem>down</stem>
				<staff>1</staff>
			</note>
		</measure>
		<!--===============================-->
		<measure number="63">
			<note>
				<pitch>
					<step>C</step>
					<octave>6</octave>
				</pitch>
				<duration>480</duration>
				<voice>1</voice>
				<type>quarter</type>
				<stem>down</stem>
				<staff>1</staff>
			</note>
			<note>
				<pitch>
					<step>D</step>
					<octave>6</octave>
				</pitch>
				<duration>480</duration>
				<voice>1</voice>
				<type>quarter</type>
				<stem>down</stem>
				<staff>1</staff>
			</note>
			<note>
				<pitch>
					<step>E</step>
					<octave>6</octave>
				</pitch>
				<duration>480</duration>
				<voice>1</voice>
				<type>quarter</type>
				<stem>down</stem>
				<staff>1</staff>
			</note>
			<note>
				<pitch>
					<step>F</step>
					<octave>6</octave>
				</pitch>
				<duration>480</duration>
				<voice>1</voice>
				<type>quarter</type>
				<stem>down</stem>
				<staff>1</staff>
			</note>
		</measure>
		<!--===============================-->
		<measure number="64">
			<attributes>
				<divisions>480</divisions>
				<key>
					<fifths>0</fifths>
				</key>
				<clef number="1">
					<sign>G</sign>
					<line>2</line>
				</clef>
				<transpose>
					<chromatic>12</chromatic>
				</transpose>
			</attributes>
			<note>
				<pitch>
					<step>G</step>
					<octave>6</octave>
				</pitch>
				<duration>480</duration>
				<voice>1</voice>
				<type>quarter</type>
				<stem>down</stem>
				<staff>1</staff>
			</note>
			<note>
				<pitch>
					<step>A</step>
					<octave>6</octave>
				</pitch>
				<duration>480</duration>
				<voice>1</voice>
				<type>quarter</type>
				<stem>down</stem>
				<staff>1</staff>
			</note>
			<note>
				<pitch>
					<step>B</step>
					<octave>6</octave>
				</pitch>
				<duration>480</duration>
				<voice>1</voice>
				<type>quarter</type>
				<stem>down</stem>
				<staff>1</staff>
			</note>
			<note>
				<pitch>
					<step>C</step>
					<octave>7</octave>
				</pitch>
				<duration>480</duration>
				<voice>1</voice>
				<type>quarter</type>
				<stem>down</stem>
				<staff>1</staff>
			</note>
		</measure>
		<!--===============================-->
		<measure number="65">
			<note>
				<rest />
				<duration>1920</duration>
				<voice>1</voice>
				<type>whole</type>
				<staff>1</staff>
			</note>
			<direction placement="above">
				<direction-type>
					<rehearsal default-y="21"  enclosure="square" font-style="normal" font-size="10" font-weight="normal">B</rehearsal>
				</direction-type>
				<offset>-1562</offset>
				<staff>1</staff>
			</direction>
		</measure>
		<!--===============================-->
		<measure number="66">
			<note>
				<rest />
				<duration>1920</duration>
				<voice>1</voice>
				<type>whole</type>
				<staff>1</staff>
			</note>
		</measure>
		<!--===============================-->
		<measure number="67">
			<attributes>
				<divisions>480</divisions>
				<key>
					<fifths>0</fifths>
				</key>
				<clef number="1">
					<sign>G</sign>
					<line>2</line>
				</clef>
				<transpose>
					<chromatic>12</chromatic>
				</transpose>
				<staff-details print-object="no" />
			</attributes>
		</measure>
		<!--===============================-->
		<measure number="68"></measure>
		<!--===============================-->
		<measure number="69"></measure>
		<!--===============================-->
		<measure number="70">
			<attributes>
				<transpose>
					<chromatic>12</chromatic>
				</transpose>
				<staff-details print-object="no" />
			</attributes>
		</measure>
		<!--===============================-->
		<measure number="71"></measure>
		<!--===============================-->
		<measure number="72"></measure>
		<!--===============================-->
		<measure number="73">
			<attributes>
				<divisions>480</divisions>
				<key>
					<fifths>0</fifths>
				</key>
				<clef number="1">
					<sign>G</sign>
					<line>2</line>
				</clef>
				<transpose>
					<chromatic>12</chromatic>
				</transpose>
				<staff-details print-object="no" />
			</attributes>
		</measure>
		<!--===============================-->
		<measure number="74"></measure>
		<!--===============================-->
		<measure number="75"></measure>
		<!--===============================-->
		<measure number="76"></measure>
		<!--===============================-->
		<measure number="77">
			<attributes>
				<transpose>
					<chromatic>12</chromatic>
				</transpose>
				<staff-details print-object="no" />
			</attributes>
		</measure>
		<!--===============================-->
		<measure number="78"></measure>
		<!--===============================-->
		<measure number="79"></measure>
		<!--===============================-->
		<measure number="80"></measure>
		<!--===============================-->
		<measure number="81">
			<attributes>
				<divisions>480</divisions>
				<key>
					<fifths>0</fifths>
				</key>
				<clef number="1">
					<sign>G</sign>
					<line>2</line>
				</clef>
				<transpose>
					<chromatic>12</chromatic>
				</transpose>
				<staff-details print-object="no" />
			</attributes>
		</measure>
		<!--===============================-->
		<measure number="82"></measure>
		<!--===============================-->
		<measure number="83"></measure>
		<!--===============================-->
		<measure number="84">
			<attributes>
				<transpose>
					<chromatic>12</chromatic>
				</transpose>
				<staff-details print-object="no" />
			</attributes>
		</measure>
		<!--===============================-->
		<measure number="85"></measure>
		<!--===============================-->
		<measure number="86"></measure>
		<!--===============================-->
		<measure number="87">
			<attributes>
				<divisions>480</divisions>
				<key>
					<fifths>0</fifths>
				</key>
				<clef number="1">
					<sign>G</sign>
					<line>2</line>
				</clef>
				<transpose>
					<chromatic>12</chromatic>
				</transpose>
			</attributes>
			<note>
				<rest />
				<duration>1920</duration>
				<voice>1</voice>
				<type>whole</type>
				<staff>1</staff>
			</note>
		</measure>
		<!--===============================-->
		<measure number="88">
			<note>
				<rest />
				<duration>1920</duration>
				<voice>1</voice>
				<type>whole</type>
				<staff>1</staff>
			</note>
		</measure>
		<!--===============================-->
		<measure number="89">
			<direction placement="above">
				<direction-type>
					<rehearsal default-y="37" relative-x="-5"  enclosure="square" font-style="normal" font-size="10" font-weight="normal">C</rehearsal>
				</direction-type>
				<staff>1</staff>
			</direction>
			<note>
				<pitch>
					<step>E</step>
					<octave>6</octave>
				</pitch>
				<duration>120</duration>
				<voice>1</voice>
				<type>16th</type>
				<stem>down</stem>
				<staff>1</staff>
				<beam number="1">begin</beam>
				<beam number="2">begin</beam>
			</note>
			<direction placement="below">
				<direction-type>
					<dynamics default-y="-66">
						<f />
					</dynamics>
				</direction-type>
				<offset>-112</offset>
				<staff>1</staff>
			</direction>
			<note>
				<pitch>
					<step>D</step>
					<octave>6</octave>
				</pitch>
				<duration>120</duration>
				<voice>1</voice>
				<type>16th</type>
				<stem>down</stem>
				<staff>1</staff>
				<beam number="1">continue</beam>
				<beam number="2">continue</beam>
			</note>
			<note>
				<pitch>
					<step>C</step>
					<octave>6</octave>
				</pitch>
				<duration>120</duration>
				<voice>1</voice>
				<type>16th</type>
				<stem>down</stem>
				<staff>1</staff>
				<beam number="1">continue</beam>
				<beam number="2">continue</beam>
			</note>
			<note>
				<pitch>
					<step>D</step>
					<octave>6</octave>
				</pitch>
				<duration>120</duration>
				<tie type="start" />
				<voice>1</voice>
				<type>16th</type>
				<stem>down</stem>
				<staff>1</staff>
				<beam number="1">end</beam>
				<beam number="2">end</beam>
				<notations>
					<tied type="start" />
				</notations>
			</note>
			<note>
				<pitch>
					<step>D</step>
					<octave>6</octave>
				</pitch>
				<duration>120</duration>
				<tie type="stop" />
				<voice>1</voice>
				<type>16th</type>
				<stem>down</stem>
				<staff>1</staff>
				<beam number="1">begin</beam>
				<beam number="2">begin</beam>
				<notations>
					<tied type="stop" />
				</notations>
			</note>
			<note>
				<pitch>
					<step>E</step>
					<octave>6</octave>
				</pitch>
				<duration>120</duration>
				<voice>1</voice>
				<type>16th</type>
				<stem>down</stem>
				<staff>1</staff>
				<beam number="1">continue</beam>
				<beam number="2">continue</beam>
			</note>
			<note>
				<pitch>
					<step>F</step>
					<octave>6</octave>
				</pitch>
				<duration>120</duration>
				<voice>1</voice>
				<type>16th</type>
				<stem>down</stem>
				<staff>1</staff>
				<beam number="1">continue</beam>
				<beam number="2">continue</beam>
			</note>
			<note>
				<pitch>
					<step>D</step>
					<octave>6</octave>
				</pitch>
				<duration>120</duration>
				<voice>1</voice>
				<type>16th</type>
				<stem>down</stem>
				<staff>1</staff>
				<beam number="1">end</beam>
				<beam number="2">end</beam>
			</note>
			<note>
				<pitch>
					<step>C</step>
					<octave>6</octave>
				</pitch>
				<duration>480</duration>
				<voice>1</voice>
				<type>quarter</type>
				<stem>down</stem>
				<staff>1</staff>
			</note>
			<note>
				<pitch>
					<step>D</step>
					<octave>6</octave>
				</pitch>
				<duration>480</duration>
				<voice>1</voice>
				<type>quarter</type>
				<stem>down</stem>
				<staff>1</staff>
			</note>
		</measure>
		<!--===============================-->
		<measure number="90">
			<attributes>
				<divisions>480</divisions>
				<key>
					<fifths>0</fifths>
				</key>
				<clef number="1">
					<sign>G</sign>
					<line>2</line>
				</clef>
				<transpose>
					<chromatic>12</chromatic>
				</transpose>
			</attributes>
			<note>
				<pitch>
					<step>C</step>
					<octave>6</octave>
				</pitch>
				<duration>120</duration>
				<voice>1</voice>
				<type>16th</type>
				<stem>down</stem>
				<staff>1</staff>
				<beam number="1">begin</beam>
				<beam number="2">begin</beam>
			</note>
			<note>
				<pitch>
					<step>B</step>
					<octave>5</octave>
				</pitch>
				<duration>120</duration>
				<voice>1</voice>
				<type>16th</type>
				<stem>down</stem>
				<staff>1</staff>
				<beam number="1">continue</beam>
				<beam number="2">continue</beam>
			</note>
			<note>
				<pitch>
					<step>A</step>
					<octave>5</octave>
				</pitch>
				<duration>120</duration>
				<voice>1</voice>
				<type>16th</type>
				<stem>down</stem>
				<staff>1</staff>
				<beam number="1">continue</beam>
				<beam number="2">continue</beam>
			</note>
			<note>
				<pitch>
					<step>B</step>
					<octave>5</octave>
				</pitch>
				<duration>120</duration>
				<voice>1</voice>
				<type>16th</type>
				<stem>down</stem>
				<staff>1</staff>
				<beam number="1">end</beam>
				<beam number="2">end</beam>
			</note>
			<note>
				<pitch>
					<step>D</step>
					<octave>6</octave>
				</pitch>
				<duration>120</duration>
				<voice>1</voice>
				<type>16th</type>
				<stem>down</stem>
				<staff>1</staff>
				<beam number="1">begin</beam>
				<beam number="2">begin</beam>
			</note>
			<note>
				<pitch>
					<step>C</step>
					<octave>6</octave>
				</pitch>
				<duration>120</duration>
				<voice>1</voice>
				<type>16th</type>
				<stem>down</stem>
				<staff>1</staff>
				<beam number="1">continue</beam>
				<beam number="2">continue</beam>
			</note>
			<note>
				<pitch>
					<step>B</step>
					<octave>5</octave>
				</pitch>
				<duration>120</duration>
				<voice>1</voice>
				<type>16th</type>
				<stem>down</stem>
				<staff>1</staff>
				<beam number="1">continue</beam>
				<beam number="2">continue</beam>
			</note>
			<note>
				<pitch>
					<step>D</step>
					<octave>6</octave>
				</pitch>
				<duration>120</duration>
				<voice>1</voice>
				<type>16th</type>
				<stem>down</stem>
				<staff>1</staff>
				<beam number="1">end</beam>
				<beam number="2">end</beam>
			</note>
			<note>
				<pitch>
					<step>E</step>
					<octave>6</octave>
				</pitch>
				<duration>480</duration>
				<voice>1</voice>
				<type>quarter</type>
				<stem>down</stem>
				<staff>1</staff>
			</note>
			<note>
				<pitch>
					<step>F</step>
					<octave>6</octave>
				</pitch>
				<duration>480</duration>
				<voice>1</voice>
				<type>quarter</type>
				<stem>down</stem>
				<staff>1</staff>
			</note>
		</measure>
		<!--===============================-->
		<measure number="91">
			<note>
				<pitch>
					<step>G</step>
					<octave>6</octave>
				</pitch>
				<duration>240</duration>
				<voice>1</voice>
				<type>eighth</type>
				<stem>down</stem>
				<staff>1</staff>
				<beam number="1">begin</beam>
			</note>
			<note>
				<pitch>
					<step>A</step>
					<octave>6</octave>
				</pitch>
				<duration>240</duration>
				<voice>1</voice>
				<type>eighth</type>
				<stem>down</stem>
				<staff>1</staff>
				<beam number="1">end</beam>
			</note>
			<note>
				<pitch>
					<step>G</step>
					<octave>6</octave>
				</pitch>
				<duration>120</duration>
				<voice>1</voice>
				<type>16th</type>
				<stem>down</stem>
				<staff>1</staff>
				<beam number="1">begin</beam>
				<beam number="2">begin</beam>
			</note>
			<note>
				<pitch>
					<step>F</step>
					<octave>6</octave>
				</pitch>
				<duration>120</duration>
				<voice>1</voice>
				<type>16th</type>
				<stem>down</stem>
				<staff>1</staff>
				<beam number="1">continue</beam>
				<beam number="2">continue</beam>
			</note>
			<note>
				<pitch>
					<step>C</step>
					<octave>6</octave>
				</pitch>
				<duration>120</duration>
				<voice>1</voice>
				<type>16th</type>
				<stem>down</stem>
				<staff>1</staff>
				<beam number="1">continue</beam>
				<beam number="2">continue</beam>
			</note>
			<note>
				<pitch>
					<step>D</step>
					<octave>6</octave>
				</pitch>
				<duration>120</duration>
				<voice>1</voice>
				<type>16th</type>
				<stem>down</stem>
				<staff>1</staff>
				<beam number="1">end</beam>
				<beam number="2">end</beam>
			</note>
			<note>
				<pitch>
					<step>E</step>
					<octave>6</octave>
				</pitch>
				<duration>480</duration>
				<voice>1</voice>
				<type>quarter</type>
				<stem>down</stem>
				<staff>1</staff>
			</note>
			<note>
				<pitch>
					<step>F</step>
					<octave>6</octave>
				</pitch>
				<duration>480</duration>
				<voice>1</voice>
				<type>quarter</type>
				<stem>down</stem>
				<staff>1</staff>
			</note>
		</measure>
		<!--===============================-->
		<measure number="92">
			<note>
				<pitch>
					<step>E</step>
					<octave>6</octave>
				</pitch>
				<duration>480</duration>
				<voice>1</voice>
				<type>quarter</type>
				<stem>down</stem>
				<staff>1</staff>
			</note>
			<note>
				<pitch>
					<step>D</step>
					<octave>6</octave>
				</pitch>
				<duration>480</duration>
				<voice>1</voice>
				<type>quarter</type>
				<stem>down</stem>
				<staff>1</staff>
			</note>
			<note>
				<pitch>
					<step>C</step>
					<octave>6</octave>
				</pitch>
				<duration>480</duration>
				<voice>1</voice>
				<type>quarter</type>
				<stem>down</stem>
				<staff>1</staff>
			</note>
			<note>
				<pitch>
					<step>D</step>
					<octave>6</octave>
				</pitch>
				<duration>480</duration>
				<voice>1</voice>
				<type>quarter</type>
				<stem>down</stem>
				<staff>1</staff>
			</note>
		</measure>
		<!--===============================-->
		<measure number="93">
			<attributes>
				<transpose>
					<chromatic>12</chromatic>
				</transpose>
			</attributes>
			<note>
				<pitch>
					<step>E</step>
					<octave>6</octave>
				</pitch>
				<duration>120</duration>
				<voice>1</voice>
				<type>16th</type>
				<stem>down</stem>
				<staff>1</staff>
				<beam number="1">begin</beam>
				<beam number="2">begin</beam>
			</note>
			<note>
				<pitch>
					<step>D</step>
					<octave>6</octave>
				</pitch>
				<duration>120</duration>
				<voice>1</voice>
				<type>16th</type>
				<stem>down</stem>
				<staff>1</staff>
				<beam number="1">continue</beam>
				<beam number="2">continue</beam>
			</note>
			<note>
				<pitch>
					<step>C</step>
					<octave>6</octave>
				</pitch>
				<duration>120</duration>
				<voice>1</voice>
				<type>16th</type>
				<stem>down</stem>
				<staff>1</staff>
				<beam number="1">continue</beam>
				<beam number="2">continue</beam>
			</note>
			<note>
				<pitch>
					<step>D</step>
					<octave>6</octave>
				</pitch>
				<duration>120</duration>
				<voice>1</voice>
				<type>16th</type>
				<stem>down</stem>
				<staff>1</staff>
				<beam number="1">end</beam>
				<beam number="2">end</beam>
			</note>
			<note>
				<pitch>
					<step>D</step>
					<octave>6</octave>
				</pitch>
				<duration>480</duration>
				<voice>1</voice>
				<type>quarter</type>
				<stem>down</stem>
				<staff>1</staff>
			</note>
			<note>
				<pitch>
					<step>A</step>
					<octave>6</octave>
				</pitch>
				<duration>120</duration>
				<voice>1</voice>
				<type>16th</type>
				<stem>down</stem>
				<staff>1</staff>
				<beam number="1">begin</beam>
				<beam number="2">begin</beam>
			</note>
			<note>
				<pitch>
					<step>G</step>
					<octave>6</octave>
				</pitch>
				<duration>120</duration>
				<voice>1</voice>
				<type>16th</type>
				<stem>down</stem>
				<staff>1</staff>
				<beam number="1">continue</beam>
				<beam number="2">continue</beam>
			</note>
			<note>
				<pitch>
					<step>F</step>
					<octave>6</octave>
				</pitch>
				<duration>120</duration>
				<voice>1</voice>
				<type>16th</type>
				<stem>down</stem>
				<staff>1</staff>
				<beam number="1">continue</beam>
				<beam number="2">continue</beam>
			</note>
			<note>
				<pitch>
					<step>F</step>
					<alter>1</alter>
					<octave>6</octave>
				</pitch>
				<duration>120</duration>
				<voice>1</voice>
				<type>16th</type>
				<accidental>sharp</accidental>
				<stem>down</stem>
				<staff>1</staff>
				<beam number="1">end</beam>
				<beam number="2">end</beam>
			</note>
			<note>
				<pitch>
					<step>F</step>
					<octave>6</octave>
				</pitch>
				<duration>120</duration>
				<voice>1</voice>
				<type>16th</type>
				<accidental>natural</accidental>
				<stem>down</stem>
				<staff>1</staff>
				<beam number="1">begin</beam>
				<beam number="2">begin</beam>
			</note>
			<note>
				<pitch>
					<step>E</step>
					<octave>6</octave>
				</pitch>
				<duration>120</duration>
				<voice>1</voice>
				<type>16th</type>
				<stem>down</stem>
				<staff>1</staff>
				<beam number="1">continue</beam>
				<beam number="2">continue</beam>
			</note>
			<note>
				<pitch>
					<step>D</step>
					<alter>1</alter>
					<octave>6</octave>
				</pitch>
				<duration>120</duration>
				<voice>1</voice>
				<type>16th</type>
				<accidental>sharp</accidental>
				<stem>down</stem>
				<staff>1</staff>
				<beam number="1">continue</beam>
				<beam number="2">continue</beam>
			</note>
			<note>
				<pitch>
					<step>D</step>
					<octave>6</octave>
				</pitch>
				<duration>120</duration>
				<voice>1</voice>
				<type>16th</type>
				<accidental>natural</accidental>
				<stem>down</stem>
				<staff>1</staff>
				<beam number="1">end</beam>
				<beam number="2">end</beam>
			</note>
		</measure>
		<!--===============================-->
		<measure number="94">
			<note>
				<pitch>
					<step>E</step>
					<octave>6</octave>
				</pitch>
				<duration>480</duration>
				<voice>1</voice>
				<type>quarter</type>
				<stem>down</stem>
				<staff>1</staff>
			</note>
			<note>
				<pitch>
					<step>D</step>
					<octave>6</octave>
				</pitch>
				<duration>480</duration>
				<voice>1</voice>
				<type>quarter</type>
				<stem>down</stem>
				<staff>1</staff>
			</note>
			<note>
				<pitch>
					<step>C</step>
					<octave>6</octave>
				</pitch>
				<duration>480</duration>
				<voice>1</voice>
				<type>quarter</type>
				<stem>down</stem>
				<staff>1</staff>
			</note>
			<note>
				<pitch>
					<step>D</step>
					<octave>6</octave>
				</pitch>
				<duration>480</duration>
				<voice>1</voice>
				<type>quarter</type>
				<stem>down</stem>
				<staff>1</staff>
			</note>
		</measure>
		<!--===============================-->
		<measure number="95">
			<note>
				<pitch>
					<step>C</step>
					<octave>6</octave>
				</pitch>
				<duration>480</duration>
				<voice>1</voice>
				<type>quarter</type>
				<stem>down</stem>
				<staff>1</staff>
			</note>
			<note>
				<pitch>
					<step>D</step>
					<octave>6</octave>
				</pitch>
				<duration>480</duration>
				<voice>1</voice>
				<type>quarter</type>
				<stem>down</stem>
				<staff>1</staff>
			</note>
			<note>
				<pitch>
					<step>E</step>
					<octave>6</octave>
				</pitch>
				<duration>480</duration>
				<voice>1</voice>
				<type>quarter</type>
				<stem>down</stem>
				<staff>1</staff>
			</note>
			<note>
				<pitch>
					<step>F</step>
					<octave>6</octave>
				</pitch>
				<duration>480</duration>
				<voice>1</voice>
				<type>quarter</type>
				<stem>down</stem>
				<staff>1</staff>
			</note>
		</measure>
		<!--===============================-->
		<measure number="96">
			<attributes>
				<divisions>480</divisions>
				<key>
					<fifths>0</fifths>
				</key>
				<clef number="1">
					<sign>G</sign>
					<line>2</line>
				</clef>
				<transpose>
					<chromatic>12</chromatic>
				</transpose>
			</attributes>
			<note>
				<pitch>
					<step>G</step>
					<octave>6</octave>
				</pitch>
				<duration>480</duration>
				<voice>1</voice>
				<type>quarter</type>
				<stem>down</stem>
				<staff>1</staff>
			</note>
			<note>
				<pitch>
					<step>A</step>
					<octave>6</octave>
				</pitch>
				<duration>480</duration>
				<voice>1</voice>
				<type>quarter</type>
				<stem>down</stem>
				<staff>1</staff>
			</note>
			<note>
				<pitch>
					<step>B</step>
					<octave>6</octave>
				</pitch>
				<duration>480</duration>
				<voice>1</voice>
				<type>quarter</type>
				<stem>down</stem>
				<staff>1</staff>
			</note>
			<note>
				<pitch>
					<step>C</step>
					<octave>7</octave>
				</pitch>
				<duration>480</duration>
				<voice>1</voice>
				<type>quarter</type>
				<stem>down</stem>
				<staff>1</staff>
			</note>
		</measure>
		<!--===============================-->
		<measure number="97">
			<note>
				<rest />
				<duration>1920</duration>
				<voice>1</voice>
				<type>whole</type>
				<staff>1</staff>
			</note>
			<direction placement="above">
				<direction-type>
					<rehearsal default-y="23"  enclosure="square" font-style="normal" font-size="10" font-weight="normal">D</rehearsal>
				</direction-type>
				<offset>-1562</offset>
				<staff>1</staff>
			</direction>
		</measure>
		<!--===============================-->
		<measure number="98">
			<note>
				<rest />
				<duration>1920</duration>
				<voice>1</voice>
				<type>whole</type>
				<staff>1</staff>
			</note>
		</measure>
		<!--===============================-->
		<measure number="99">
			<attributes>
				<divisions>480</divisions>
				<key>
					<fifths>0</fifths>
				</key>
				<clef number="1">
					<sign>G</sign>
					<line>2</line>
				</clef>
				<transpose>
					<chromatic>12</chromatic>
				</transpose>
				<staff-details print-object="no" />
			</attributes>
		</measure>
		<!--===============================-->
		<measure number="100"></measure>
		<!--===============================-->
		<measure number="101"></measure>
		<!--===============================-->
		<measure number="102">
			<attributes>
				<transpose>
					<chromatic>12</chromatic>
				</transpose>
				<staff-details print-object="no" />
			</attributes>
		</measure>
		<!--===============================-->
		<measure number="103"></measure>
		<!--===============================-->
		<measure number="104"></measure>
		<!--===============================-->
		<measure number="105">
			<attributes>
				<divisions>480</divisions>
				<key>
					<fifths>0</fifths>
				</key>
				<clef number="1">
					<sign>G</sign>
					<line>2</line>
				</clef>
				<transpose>
					<chromatic>12</chromatic>
				</transpose>
				<staff-details print-object="no" />
			</attributes>
		</measure>
		<!--===============================-->
		<measure number="106"></measure>
		<!--===============================-->
		<measure number="107"></measure>
		<!--===============================-->
		<measure number="108"></measure>
		<!--===============================-->
		<measure number="109">
			<attributes>
				<transpose>
					<chromatic>12</chromatic>
				</transpose>
				<staff-details print-object="no" />
			</attributes>
		</measure>
		<!--===============================-->
		<measure number="110"></measure>
		<!--===============================-->
		<measure number="111"></measure>
		<!--===============================-->
		<measure number="112"></measure>
		<!--===============================-->
		<measure number="113">
			<attributes>
				<divisions>480</divisions>
				<key>
					<fifths>0</fifths>
				</key>
				<clef number="1">
					<sign>G</sign>
					<line>2</line>
				</clef>
				<transpose>
					<chromatic>12</chromatic>
				</transpose>
				<staff-details print-object="no" />
			</attributes>
		</measure>
		<!--===============================-->
		<measure number="114"></measure>
		<!--===============================-->
		<measure number="115"></measure>
		<!--===============================-->
		<measure number="116">
			<attributes>
				<transpose>
					<chromatic>12</chromatic>
				</transpose>
				<staff-details print-object="no" />
			</attributes>
		</measure>
		<!--===============================-->
		<measure number="117"></measure>
		<!--===============================-->
		<measure number="118"></measure>
		<!--===============================-->
		<measure number="119">
			<attributes>
				<divisions>480</divisions>
				<key>
					<fifths>0</fifths>
				</key>
				<clef number="1">
					<sign>G</sign>
					<line>2</line>
				</clef>
				<transpose>
					<chromatic>12</chromatic>
				</transpose>
				<staff-details print-object="no" />
			</attributes>
		</measure>
		<!--===============================-->
		<measure number="120"></measure>
		<!--===============================-->
		<measure number="121"></measure>
		<!--===============================-->
		<measure number="122">
			<attributes>
				<divisions>480</divisions>
				<key>
					<fifths>0</fifths>
				</key>
				<clef number="1">
					<sign>G</sign>
					<line>2</line>
				</clef>
				<transpose>
					<chromatic>12</chromatic>
				</transpose>
				<staff-details print-object="no" />
			</attributes>
		</measure>
		<!--===============================-->
		<measure number="123"></measure>
		<!--===============================-->
		<measure number="124"></measure>
		<!--===============================-->
		<measure number="125">
			<attributes>
				<transpose>
					<chromatic>12</chromatic>
				</transpose>
				<staff-details print-object="no" />
			</attributes>
		</measure>
		<!--===============================-->
		<measure number="126"></measure>
		<!--===============================-->
		<measure number="127"></measure>
		<!--===============================-->
		<measure number="128">
			<barline location="right">
				<bar-style>light-heavy</bar-style>
			</barline>
		</measure>
	</part>
	<part id="P7">
		<!--===============================-->
		<measure number="1">
			<attributes>
				<divisions>480</divisions>
				<key>
					<fifths>0</fifths>
				</key>
				<time>
					<beats>4</beats>
					<beat-type>4</beat-type>
				</time>
				<clef number="1">
					<sign>F</sign>
					<line>4</line>
				</clef>
				<transpose>
					<chromatic>-12</chromatic>
				</transpose>
			</attributes>
			<direction placement="below">
				<direction-type>
					<dynamics default-y="-66" relative-x="-37">
						<ff />
					</dynamics>
				</direction-type>
				<staff>1</staff>
			</direction>
			<note>
				<pitch>
					<step>D</step>
					<octave>2</octave>
				</pitch>
				<duration>1920</duration>
				<voice>1</voice>
				<type>whole</type>
				<stem>up</stem>
				<staff>1</staff>
			</note>
		</measure>
		<!--===============================-->
		<measure number="2">
			<note>
				<pitch>
					<step>F</step>
					<octave>2</octave>
				</pitch>
				<duration>1920</duration>
				<voice>1</voice>
				<type>whole</type>
				<stem>up</stem>
				<staff>1</staff>
			</note>
		</measure>
		<!--===============================-->
		<measure number="3">
			<note>
				<pitch>
					<step>A</step>
					<octave>2</octave>
				</pitch>
				<duration>1920</duration>
				<voice>1</voice>
				<type>whole</type>
				<stem>up</stem>
				<staff>1</staff>
			</note>
		</measure>
		<!--===============================-->
		<measure number="4">
			<note>
				<pitch>
					<step>G</step>
					<octave>2</octave>
				</pitch>
				<duration>1920</duration>
				<voice>1</voice>
				<type>whole</type>
				<stem>up</stem>
				<staff>1</staff>
			</note>
		</measure>
		<!--===============================-->
		<measure number="5">
			<attributes>
				<divisions>480</divisions>
				<key>
					<fifths>0</fifths>
				</key>
				<clef number="1">
					<sign>F</sign>
					<line>4</line>
				</clef>
				<transpose>
					<chromatic>-12</chromatic>
				</transpose>
			</attributes>
			<note>
				<pitch>
					<step>E</step>
					<octave>2</octave>
				</pitch>
				<duration>1920</duration>
				<voice>1</voice>
				<type>whole</type>
				<stem>up</stem>
				<staff>1</staff>
			</note>
		</measure>
		<!--===============================-->
		<measure number="6">
			<note>
				<pitch>
					<step>A</step>
					<octave>2</octave>
				</pitch>
				<duration>1920</duration>
				<voice>1</voice>
				<type>whole</type>
				<stem>up</stem>
				<staff>1</staff>
			</note>
		</measure>
		<!--===============================-->
		<measure number="7">
			<note>
				<pitch>
					<step>B</step>
					<octave>2</octave>
				</pitch>
				<duration>1920</duration>
				<voice>1</voice>
				<type>whole</type>
				<stem>up</stem>
				<staff>1</staff>
			</note>
		</measure>
		<!--===============================-->
		<measure number="8">
			<note>
				<pitch>
					<step>E</step>
					<octave>2</octave>
				</pitch>
				<duration>1920</duration>
				<voice>1</voice>
				<type>whole</type>
				<stem>up</stem>
				<staff>1</staff>
			</note>
		</measure>
		<!--===============================-->
		<measure number="9">
			<attributes>
				<transpose>
					<chromatic>-12</chromatic>
				</transpose>
			</attributes>
			<note>
				<pitch>
					<step>D</step>
					<octave>2</octave>
				</pitch>
				<duration>1920</duration>
				<voice>1</voice>
				<type>whole</type>
				<stem>up</stem>
				<staff>1</staff>
			</note>
		</measure>
		<!--===============================-->
		<measure number="10">
			<note>
				<pitch>
					<step>F</step>
					<octave>2</octave>
				</pitch>
				<duration>1920</duration>
				<voice>1</voice>
				<type>whole</type>
				<stem>up</stem>
				<staff>1</staff>
			</note>
		</measure>
		<!--===============================-->
		<measure number="11">
			<note>
				<pitch>
					<step>A</step>
					<octave>2</octave>
				</pitch>
				<duration>1920</duration>
				<voice>1</voice>
				<type>whole</type>
				<stem>up</stem>
				<staff>1</staff>
			</note>
		</measure>
		<!--===============================-->
		<measure number="12">
			<note>
				<pitch>
					<step>G</step>
					<octave>2</octave>
				</pitch>
				<duration>1920</duration>
				<voice>1</voice>
				<type>whole</type>
				<stem>up</stem>
				<staff>1</staff>
			</note>
		</measure>
		<!--===============================-->
		<measure number="13">
			<attributes>
				<transpose>
					<chromatic>-12</chromatic>
				</transpose>
			</attributes>
			<note>
				<pitch>
					<step>E</step>
					<octave>2</octave>
				</pitch>
				<duration>1920</duration>
				<voice>1</voice>
				<type>whole</type>
				<stem>up</stem>
				<staff>1</staff>
			</note>
		</measure>
		<!--===============================-->
		<measure number="14">
			<note>
				<pitch>
					<step>A</step>
					<octave>2</octave>
				</pitch>
				<duration>1920</duration>
				<voice>1</voice>
				<type>whole</type>
				<stem>up</stem>
				<staff>1</staff>
			</note>
		</measure>
		<!--===============================-->
		<measure number="15">
			<note>
				<pitch>
					<step>B</step>
					<octave>2</octave>
				</pitch>
				<duration>1920</duration>
				<voice>1</voice>
				<type>whole</type>
				<stem>up</stem>
				<staff>1</staff>
			</note>
		</measure>
		<!--===============================-->
		<measure number="16">
			<note>
				<pitch>
					<step>E</step>
					<octave>2</octave>
				</pitch>
				<duration>1920</duration>
				<voice>1</voice>
				<type>whole</type>
				<stem>up</stem>
				<staff>1</staff>
			</note>
		</measure>
		<!--===============================-->
		<measure number="17">
			<attributes>
				<divisions>480</divisions>
				<key>
					<fifths>0</fifths>
				</key>
				<clef number="1">
					<sign>F</sign>
					<line>4</line>
				</clef>
				<transpose>
					<chromatic>-12</chromatic>
				</transpose>
			</attributes>
			<note>
				<pitch>
					<step>D</step>
					<octave>2</octave>
				</pitch>
				<duration>1920</duration>
				<voice>1</voice>
				<type>whole</type>
				<stem>up</stem>
				<staff>1</staff>
			</note>
		</measure>
		<!--===============================-->
		<measure number="18">
			<note>
				<pitch>
					<step>F</step>
					<octave>2</octave>
				</pitch>
				<duration>1920</duration>
				<voice>1</voice>
				<type>whole</type>
				<stem>up</stem>
				<staff>1</staff>
			</note>
		</measure>
		<!--===============================-->
		<measure number="19">
			<note>
				<pitch>
					<step>A</step>
					<octave>2</octave>
				</pitch>
				<duration>1920</duration>
				<voice>1</voice>
				<type>whole</type>
				<stem>up</stem>
				<staff>1</staff>
			</note>
		</measure>
		<!--===============================-->
		<measure number="20">
			<note>
				<pitch>
					<step>G</step>
					<octave>2</octave>
				</pitch>
				<duration>1920</duration>
				<voice>1</voice>
				<type>whole</type>
				<stem>up</stem>
				<staff>1</staff>
			</note>
		</measure>
		<!--===============================-->
		<measure number="21">
			<attributes>
				<transpose>
					<chromatic>-12</chromatic>
				</transpose>
			</attributes>
			<note>
				<pitch>
					<step>E</step>
					<octave>2</octave>
				</pitch>
				<duration>1920</duration>
				<voice>1</voice>
				<type>whole</type>
				<stem>up</stem>
				<staff>1</staff>
			</note>
		</measure>
		<!--===============================-->
		<measure number="22">
			<note>
				<pitch>
					<step>A</step>
					<octave>2</octave>
				</pitch>
				<duration>1920</duration>
				<voice>1</voice>
				<type>whole</type>
				<stem>up</stem>
				<staff>1</staff>
			</note>
		</measure>
		<!--===============================-->
		<measure number="23">
			<note>
				<pitch>
					<step>B</step>
					<octave>2</octave>
				</pitch>
				<duration>1920</duration>
				<voice>1</voice>
				<type>whole</type>
				<stem>up</stem>
				<staff>1</staff>
			</note>
		</measure>
		<!--===============================-->
		<measure number="24">
			<note>
				<pitch>
					<step>E</step>
					<octave>2</octave>
				</pitch>
				<duration>1920</duration>
				<voice>1</voice>
				<type>whole</type>
				<stem>up</stem>
				<staff>1</staff>
			</note>
		</measure>
		<!--===============================-->
		<measure number="25">
			<attributes>
				<transpose>
					<chromatic>-12</chromatic>
				</transpose>
				<staff-details print-object="no" />
			</attributes>
		</measure>
		<!--===============================-->
		<measure number="26"></measure>
		<!--===============================-->
		<measure number="27">
			<attributes>
				<divisions>480</divisions>
				<key>
					<fifths>0</fifths>
				</key>
				<clef number="1">
					<sign>F</sign>
					<line>4</line>
				</clef>
				<transpose>
					<chromatic>-12</chromatic>
				</transpose>
				<staff-details print-object="no" />
			</attributes>
		</measure>
		<!--===============================-->
		<measure number="28"></measure>
		<!--===============================-->
		<measure number="29">
			<attributes>
				<transpose>
					<chromatic>-12</chromatic>
				</transpose>
				<staff-details print-object="no" />
			</attributes>
		</measure>
		<!--===============================-->
		<measure number="30"></measure>
		<!--===============================-->
		<measure number="31">
			<attributes>
				<transpose>
					<chromatic>-12</chromatic>
				</transpose>
				<staff-details print-object="no" />
			</attributes>
		</measure>
		<!--===============================-->
		<measure number="32"></measure>
		<!--===============================-->
		<measure number="33">
			<attributes>
				<divisions>480</divisions>
				<key>
					<fifths>0</fifths>
				</key>
				<clef number="1">
					<sign>F</sign>
					<line>4</line>
				</clef>
				<transpose>
					<chromatic>-12</chromatic>
				</transpose>
				<staff-details print-object="no" />
			</attributes>
		</measure>
		<!--===============================-->
		<measure number="34"></measure>
		<!--===============================-->
		<measure number="35">
			<attributes>
				<transpose>
					<chromatic>-12</chromatic>
				</transpose>
				<staff-details print-object="no" />
			</attributes>
		</measure>
		<!--===============================-->
		<measure number="36"></measure>
		<!--===============================-->
		<measure number="37">
			<attributes>
				<transpose>
					<chromatic>-12</chromatic>
				</transpose>
				<staff-details print-object="no" />
			</attributes>
		</measure>
		<!--===============================-->
		<measure number="38"></measure>
		<!--===============================-->
		<measure number="39">
			<attributes>
				<divisions>480</divisions>
				<key>
					<fifths>0</fifths>
				</key>
				<clef number="1">
					<sign>F</sign>
					<line>4</line>
				</clef>
				<transpose>
					<chromatic>-12</chromatic>
				</transpose>
				<staff-details print-object="no" />
			</attributes>
		</measure>
		<!--===============================-->
		<measure number="40"></measure>
		<!--===============================-->
		<measure number="41">
			<attributes>
				<transpose>
					<chromatic>-12</chromatic>
				</transpose>
				<staff-details print-object="no" />
			</attributes>
		</measure>
		<!--===============================-->
		<measure number="42"></measure>
		<!--===============================-->
		<measure number="43"></measure>
		<!--===============================-->
		<measure number="44">
			<attributes>
				<transpose>
					<chromatic>-12</chromatic>
				</transpose>
				<staff-details print-object="no" />
			</attributes>
		</measure>
		<!--===============================-->
		<measure number="45"></measure>
		<!--===============================-->
		<measure number="46"></measure>
		<!--===============================-->
		<measure number="47">
			<attributes>
				<divisions>480</divisions>
				<key>
					<fifths>0</fifths>
				</key>
				<clef number="1">
					<sign>F</sign>
					<line>4</line>
				</clef>
				<transpose>
					<chromatic>-12</chromatic>
				</transpose>
				<staff-details print-object="no" />
			</attributes>
		</measure>
		<!--===============================-->
		<measure number="48"></measure>
		<!--===============================-->
		<measure number="49">
			<attributes>
				<transpose>
					<chromatic>-12</chromatic>
				</transpose>
				<staff-details print-object="no" />
			</attributes>
		</measure>
		<!--===============================-->
		<measure number="50"></measure>
		<!--===============================-->
		<measure number="51">
			<attributes>
				<divisions>480</divisions>
				<key>
					<fifths>0</fifths>
				</key>
				<clef number="1">
					<sign>F</sign>
					<line>4</line>
				</clef>
				<transpose>
					<chromatic>-12</chromatic>
				</transpose>
				<staff-details print-object="no" />
			</attributes>
		</measure>
		<!--===============================-->
		<measure number="52"></measure>
		<!--===============================-->
		<measure number="53">
			<attributes>
				<transpose>
					<chromatic>-12</chromatic>
				</transpose>
				<staff-details print-object="no" />
			</attributes>
		</measure>
		<!--===============================-->
		<measure number="54"></measure>
		<!--===============================-->
		<measure number="55">
			<attributes>
				<divisions>480</divisions>
				<key>
					<fifths>0</fifths>
				</key>
				<clef number="1">
					<sign>F</sign>
					<line>4</line>
				</clef>
				<transpose>
					<chromatic>-12</chromatic>
				</transpose>
				<staff-details print-object="no" />
			</attributes>
		</measure>
		<!--===============================-->
		<measure number="56"></measure>
		<!--===============================-->
		<measure number="57"></measure>
		<!--===============================-->
		<measure number="58">
			<attributes>
				<divisions>480</divisions>
				<key>
					<fifths>0</fifths>
				</key>
				<clef number="1">
					<sign>F</sign>
					<line>4</line>
				</clef>
				<transpose>
					<chromatic>-12</chromatic>
				</transpose>
				<staff-details print-object="no" />
			</attributes>
		</measure>
		<!--===============================-->
		<measure number="59"></measure>
		<!--===============================-->
		<measure number="60"></measure>
		<!--===============================-->
		<measure number="61">
			<attributes>
				<transpose>
					<chromatic>-12</chromatic>
				</transpose>
				<staff-details print-object="no" />
			</attributes>
		</measure>
		<!--===============================-->
		<measure number="62"></measure>
		<!--===============================-->
		<measure number="63"></measure>
		<!--===============================-->
		<measure number="64">
			<attributes>
				<divisions>480</divisions>
				<key>
					<fifths>0</fifths>
				</key>
				<clef number="1">
					<sign>F</sign>
					<line>4</line>
				</clef>
				<transpose>
					<chromatic>-12</chromatic>
				</transpose>
				<staff-details print-object="no" />
			</attributes>
		</measure>
		<!--===============================-->
		<measure number="65"></measure>
		<!--===============================-->
		<measure number="66"></measure>
		<!--===============================-->
		<measure number="67">
			<attributes>
				<divisions>480</divisions>
				<key>
					<fifths>0</fifths>
				</key>
				<clef number="1">
					<sign>F</sign>
					<line>4</line>
				</clef>
				<transpose>
					<chromatic>-12</chromatic>
				</transpose>
				<staff-details print-object="no" />
			</attributes>
		</measure>
		<!--===============================-->
		<measure number="68"></measure>
		<!--===============================-->
		<measure number="69"></measure>
		<!--===============================-->
		<measure number="70">
			<attributes>
				<transpose>
					<chromatic>-12</chromatic>
				</transpose>
				<staff-details print-object="no" />
			</attributes>
		</measure>
		<!--===============================-->
		<measure number="71"></measure>
		<!--===============================-->
		<measure number="72"></measure>
		<!--===============================-->
		<measure number="73">
			<attributes>
				<divisions>480</divisions>
				<key>
					<fifths>0</fifths>
				</key>
				<clef number="1">
					<sign>F</sign>
					<line>4</line>
				</clef>
				<transpose>
					<chromatic>-12</chromatic>
				</transpose>
				<staff-details print-object="no" />
			</attributes>
		</measure>
		<!--===============================-->
		<measure number="74"></measure>
		<!--===============================-->
		<measure number="75"></measure>
		<!--===============================-->
		<measure number="76"></measure>
		<!--===============================-->
		<measure number="77">
			<attributes>
				<transpose>
					<chromatic>-12</chromatic>
				</transpose>
				<staff-details print-object="no" />
			</attributes>
		</measure>
		<!--===============================-->
		<measure number="78"></measure>
		<!--===============================-->
		<measure number="79"></measure>
		<!--===============================-->
		<measure number="80"></measure>
		<!--===============================-->
		<measure number="81">
			<attributes>
				<divisions>480</divisions>
				<key>
					<fifths>0</fifths>
				</key>
				<clef number="1">
					<sign>F</sign>
					<line>4</line>
				</clef>
				<transpose>
					<chromatic>-12</chromatic>
				</transpose>
				<staff-details print-object="no" />
			</attributes>
		</measure>
		<!--===============================-->
		<measure number="82"></measure>
		<!--===============================-->
		<measure number="83"></measure>
		<!--===============================-->
		<measure number="84">
			<attributes>
				<transpose>
					<chromatic>-12</chromatic>
				</transpose>
				<staff-details print-object="no" />
			</attributes>
		</measure>
		<!--===============================-->
		<measure number="85"></measure>
		<!--===============================-->
		<measure number="86"></measure>
		<!--===============================-->
		<measure number="87">
			<attributes>
				<divisions>480</divisions>
				<key>
					<fifths>0</fifths>
				</key>
				<clef number="1">
					<sign>F</sign>
					<line>4</line>
				</clef>
				<transpose>
					<chromatic>-12</chromatic>
				</transpose>
				<staff-details print-object="no" />
			</attributes>
		</measure>
		<!--===============================-->
		<measure number="88"></measure>
		<!--===============================-->
		<measure number="89"></measure>
		<!--===============================-->
		<measure number="90">
			<attributes>
				<divisions>480</divisions>
				<key>
					<fifths>0</fifths>
				</key>
				<clef number="1">
					<sign>F</sign>
					<line>4</line>
				</clef>
				<transpose>
					<chromatic>-12</chromatic>
				</transpose>
				<staff-details print-object="no" />
			</attributes>
		</measure>
		<!--===============================-->
		<measure number="91"></measure>
		<!--===============================-->
		<measure number="92"></measure>
		<!--===============================-->
		<measure number="93">
			<attributes>
				<transpose>
					<chromatic>-12</chromatic>
				</transpose>
				<staff-details print-object="no" />
			</attributes>
		</measure>
		<!--===============================-->
		<measure number="94"></measure>
		<!--===============================-->
		<measure number="95"></measure>
		<!--===============================-->
		<measure number="96">
			<attributes>
				<divisions>480</divisions>
				<key>
					<fifths>0</fifths>
				</key>
				<clef number="1">
					<sign>F</sign>
					<line>4</line>
				</clef>
				<transpose>
					<chromatic>-12</chromatic>
				</transpose>
				<staff-details print-object="no" />
			</attributes>
		</measure>
		<!--===============================-->
		<measure number="97"></measure>
		<!--===============================-->
		<measure number="98"></measure>
		<!--===============================-->
		<measure number="99">
			<attributes>
				<divisions>480</divisions>
				<key>
					<fifths>0</fifths>
				</key>
				<clef number="1">
					<sign>F</sign>
					<line>4</line>
				</clef>
				<transpose>
					<chromatic>-12</chromatic>
				</transpose>
				<staff-details print-object="no" />
			</attributes>
		</measure>
		<!--===============================-->
		<measure number="100"></measure>
		<!--===============================-->
		<measure number="101"></measure>
		<!--===============================-->
		<measure number="102">
			<attributes>
				<transpose>
					<chromatic>-12</chromatic>
				</transpose>
				<staff-details print-object="no" />
			</attributes>
		</measure>
		<!--===============================-->
		<measure number="103"></measure>
		<!--===============================-->
		<measure number="104"></measure>
		<!--===============================-->
		<measure number="105">
			<attributes>
				<divisions>480</divisions>
				<key>
					<fifths>0</fifths>
				</key>
				<clef number="1">
					<sign>F</sign>
					<line>4</line>
				</clef>
				<transpose>
					<chromatic>-12</chromatic>
				</transpose>
				<staff-details print-object="no" />
			</attributes>
		</measure>
		<!--===============================-->
		<measure number="106"></measure>
		<!--===============================-->
		<measure number="107"></measure>
		<!--===============================-->
		<measure number="108"></measure>
		<!--===============================-->
		<measure number="109">
			<attributes>
				<transpose>
					<chromatic>-12</chromatic>
				</transpose>
				<staff-details print-object="no" />
			</attributes>
		</measure>
		<!--===============================-->
		<measure number="110"></measure>
		<!--===============================-->
		<measure number="111"></measure>
		<!--===============================-->
		<measure number="112"></measure>
		<!--===============================-->
		<measure number="113">
			<attributes>
				<divisions>480</divisions>
				<key>
					<fifths>0</fifths>
				</key>
				<clef number="1">
					<sign>F</sign>
					<line>4</line>
				</clef>
				<transpose>
					<chromatic>-12</chromatic>
				</transpose>
				<staff-details print-object="no" />
			</attributes>
		</measure>
		<!--===============================-->
		<measure number="114"></measure>
		<!--===============================-->
		<measure number="115"></measure>
		<!--===============================-->
		<measure number="116">
			<attributes>
				<transpose>
					<chromatic>-12</chromatic>
				</transpose>
				<staff-details print-object="no" />
			</attributes>
		</measure>
		<!--===============================-->
		<measure number="117"></measure>
		<!--===============================-->
		<measure number="118"></measure>
		<!--===============================-->
		<measure number="119">
			<attributes>
				<divisions>480</divisions>
				<key>
					<fifths>0</fifths>
				</key>
				<clef number="1">
					<sign>F</sign>
					<line>4</line>
				</clef>
				<transpose>
					<chromatic>-12</chromatic>
				</transpose>
			</attributes>
			<note>
				<rest />
				<duration>1920</duration>
				<voice>1</voice>
				<type>whole</type>
				<staff>1</staff>
			</note>
		</measure>
		<!--===============================-->
		<measure number="120">
			<note>
				<rest />
				<duration>1920</duration>
				<voice>1</voice>
				<type>whole</type>
				<staff>1</staff>
			</note>
		</measure>
		<!--===============================-->
		<measure number="121">
			<direction placement="above">
				<direction-type>
					<rehearsal default-y="25" relative-x="-11"  enclosure="square" font-style="normal" font-size="10" font-weight="normal">A</rehearsal>
				</direction-type>
				<staff>1</staff>
			</direction>
			<direction placement="below">
				<direction-type>
					<dynamics default-y="-104" relative-x="-7">
						<ff />
					</dynamics>
				</direction-type>
				<staff>1</staff>
			</direction>
			<note>
				<pitch>
					<step>D</step>
					<octave>2</octave>
				</pitch>
				<duration>1920</duration>
				<voice>1</voice>
				<type>whole</type>
				<stem>up</stem>
				<staff>1</staff>
			</note>
		</measure>
		<!--===============================-->
		<measure number="122">
			<attributes>
				<divisions>480</divisions>
				<key>
					<fifths>0</fifths>
				</key>
				<clef number="1">
					<sign>F</sign>
					<line>4</line>
				</clef>
				<transpose>
					<chromatic>-12</chromatic>
				</transpose>
			</attributes>
			<note>
				<pitch>
					<step>F</step>
					<octave>2</octave>
				</pitch>
				<duration>1920</duration>
				<voice>1</voice>
				<type>whole</type>
				<stem>up</stem>
				<staff>1</staff>
			</note>
		</measure>
		<!--===============================-->
		<measure number="123">
			<note>
				<pitch>
					<step>A</step>
					<octave>2</octave>
				</pitch>
				<duration>1920</duration>
				<voice>1</voice>
				<type>whole</type>
				<stem>up</stem>
				<staff>1</staff>
			</note>
		</measure>
		<!--===============================-->
		<measure number="124">
			<note>
				<pitch>
					<step>G</step>
					<octave>2</octave>
				</pitch>
				<duration>1920</duration>
				<voice>1</voice>
				<type>whole</type>
				<stem>up</stem>
				<staff>1</staff>
			</note>
		</measure>
		<!--===============================-->
		<measure number="125">
			<attributes>
				<transpose>
					<chromatic>-12</chromatic>
				</transpose>
			</attributes>
			<note>
				<pitch>
					<step>E</step>
					<octave>2</octave>
				</pitch>
				<duration>1920</duration>
				<voice>1</voice>
				<type>whole</type>
				<stem>up</stem>
				<staff>1</staff>
			</note>
		</measure>
		<!--===============================-->
		<measure number="126">
			<note>
				<pitch>
					<step>A</step>
					<octave>2</octave>
				</pitch>
				<duration>1920</duration>
				<voice>1</voice>
				<type>whole</type>
				<stem>up</stem>
				<staff>1</staff>
			</note>
		</measure>
		<!--===============================-->
		<measure number="127">
			<note>
				<pitch>
					<step>B</step>
					<octave>2</octave>
				</pitch>
				<duration>1920</duration>
				<voice>1</voice>
				<type>whole</type>
				<stem>up</stem>
				<staff>1</staff>
			</note>
		</measure>
		<!--===============================-->
		<measure number="128">
			<note>
				<pitch>
					<step>E</step>
					<octave>2</octave>
				</pitch>
				<duration>1920</duration>
				<voice>1</voice>
				<type>whole</type>
				<stem>up</stem>
				<staff>1</staff>
			</note>
			<barline location="right">
				<bar-style>light-heavy</bar-style>
			</barline>
		</measure>
	</part>
</score-partwise>
