<?xml version="1.0" encoding="UTF-8" standalone="no"?>
<!DOCTYPE score-partwise PUBLIC
"-//Recordare//DTD MusicXML 3.0 Partwise//EN"
 "http://www.musicxml.org/dtds/partwise.dtd">
<!-- This is the buggy comment with LibMusicXML -->
<score-partwise version="3.0">
<identification>
<encoding>
<software>PlayScore 2</software>
<software>ReadScoreLib (© Organum Consulting and Dolphin Computing Ltd) Version 4.200</software>
<encoding-date>2020-01-31</encoding-date>
</encoding>
</identification>
<part-list>
 <score-part id="P1">
  <part-name print-object="no">Part 1</part-name>
 </score-part>
 <score-part id="P2">
  <part-name print-object="no">Part 2</part-name>
 </score-part>
</part-list>
<part id="P1">
<measure number="1">
<attributes>
  <divisions>4</divisions>
  <key>
    <fifths>-3</fifths>
  </key>
  <time>
    <beats>6</beats>
    <beat-type>8</beat-type>
  </time>
  <staves>1</staves>
<clef number="1">
    <sign>G</sign>
    <line>2</line>
  </clef>
</attributes>
<note>
  <pitch>
    <step>G</step>
    <alter>0</alter>
    <octave>4</octave>
  </pitch>
  <duration>2</duration>
  <voice>2</voice>
  <type>eighth</type>
  <stem>up</stem>
  <beam number="1">begin</beam>
</note>
<note>
  <pitch>
    <step>B</step>
    <alter>-1</alter>
    <octave>4</octave>
  </pitch>
  <duration>2</duration>
  <voice>2</voice>
  <type>eighth</type>
  <stem>up</stem>
  <beam number="1">continue</beam>
</note>
<note>
  <pitch>
    <step>C</step>
    <alter>0</alter>
    <octave>5</octave>
  </pitch>
  <duration>2</duration>
  <voice>2</voice>
  <type>eighth</type>
  <stem>up</stem>
  <beam number="1">end</beam>
</note>
<barline location="right"><bar-style>light-light</bar-style></barline>
</measure>
<measure number="2">
<note>
  <pitch>
    <step>C</step>
    <alter>0</alter>
    <octave>5</octave>
  </pitch>
  <duration>6</duration>
    <tie type="start"/>
  <voice>2</voice>
  <type>quarter</type>
  <dot/>
  <stem>down</stem>
  <notations>
<tied type="start" number="1" orientation="over"/>
  </notations>
</note>
<note>
  <pitch>
    <step>C</step>
    <alter>0</alter>
    <octave>5</octave>
  </pitch>
  <duration>4</duration>
    <tie type="stop"/>
  <voice>2</voice>
  <type>quarter</type>
  <stem>down</stem>
  <notations>
    <tied type="stop" number="1"/>
  </notations>
</note>
<note>
  <rest/>
  <duration>2</duration>
  <voice>2</voice>
  <type>eighth</type>
</note>
</measure>
<measure number="3">
<note>
  <rest/>
  <duration>4</duration>
  <voice>3</voice>
  <type>quarter</type>
</note>
<note>
  <pitch>
    <step>G</step>
    <alter>0</alter>
    <octave>4</octave>
  </pitch>
  <duration>2</duration>
  <voice>3</voice>
  <type>eighth</type>
  <stem>down</stem>
</note>
<direction placement="below"><direction-type><dynamics>
<f/> 
</dynamics>
</direction-type>
<staff>1</staff>
</direction>
<note>
  <rest/>
  <duration>6</duration>
  <voice>3</voice>
  <type>quarter</type>
  <dot/>
</note>
<backup><duration>12</duration></backup>
<note>
  <rest/>
  <duration>6</duration>
  <voice>2</voice>
  <type>quarter</type>
  <dot/>
</note>
<note>
  <pitch>
    <step>G</step>
    <alter>0</alter>
    <octave>4</octave>
  </pitch>
  <duration>2</duration>
  <voice>2</voice>
  <type>eighth</type>
  <stem>up</stem>
  <beam number="1">begin</beam>
</note>
<note>
  <pitch>
    <step>B</step>
    <alter>-1</alter>
    <octave>4</octave>
  </pitch>
  <duration>2</duration>
  <voice>2</voice>
  <type>eighth</type>
  <stem>up</stem>
  <beam number="1">continue</beam>
</note>
<note>
  <pitch>
    <step>C</step>
    <alter>0</alter>
    <octave>5</octave>
  </pitch>
  <duration>2</duration>
  <voice>2</voice>
  <type>eighth</type>
  <stem>up</stem>
  <beam number="1">end</beam>
</note>
</measure>
<measure number="4">
<note>
  <pitch>
    <step>C</step>
    <alter>0</alter>
    <octave>5</octave>
  </pitch>
  <duration>6</duration>
  <voice>2</voice>
  <type>quarter</type>
  <dot/>
  <stem>down</stem>
</note>
<note>
  <rest/>
  <duration>6</duration>
  <voice>2</voice>
  <type>quarter</type>
  <dot/>
</note>
</measure>
<measure number="5">
<note>
  <rest/>
  <duration>6</duration>
  <voice>2</voice>
  <type>quarter</type>
  <dot/>
</note>
<note>
  <pitch>
    <step>G</step>
    <alter>0</alter>
    <octave>4</octave>
  </pitch>
  <duration>2</duration>
  <voice>2</voice>
  <type>eighth</type>
  <stem>up</stem>
  <beam number="1">begin</beam>
</note>
<note>
  <pitch>
    <step>B</step>
    <alter>-1</alter>
    <octave>4</octave>
  </pitch>
  <duration>2</duration>
  <voice>2</voice>
  <type>eighth</type>
  <stem>up</stem>
  <beam number="1">continue</beam>
</note>
<note>
  <pitch>
    <step>C</step>
    <alter>0</alter>
    <octave>5</octave>
  </pitch>
  <duration>2</duration>
    <tie type="start"/>
  <voice>2</voice>
  <type>eighth</type>
  <stem>up</stem>
  <beam number="1">end</beam>
  <notations>
<tied type="start" number="1" orientation="under"/>
  </notations>
</note>
</measure>
<measure number="6">
<note>
  <pitch>
    <step>C</step>
    <alter>0</alter>
    <octave>5</octave>
  </pitch>
  <duration>2</duration>
    <tie type="stop"/>
  <voice>2</voice>
  <type>eighth</type>
  <stem>up</stem>
  <beam number="1">begin</beam>
  <notations>
    <tied type="stop" number="1"/>
  </notations>
</note>
<note>
  <pitch>
    <step>C</step>
    <alter>0</alter>
    <octave>5</octave>
  </pitch>
  <duration>2</duration>
  <voice>2</voice>
  <type>eighth</type>
  <stem>up</stem>
  <beam number="1">continue</beam>
</note>
<note>
  <pitch>
    <step>G</step>
    <alter>0</alter>
    <octave>4</octave>
  </pitch>
  <duration>2</duration>
  <voice>2</voice>
  <type>eighth</type>
  <stem>up</stem>
  <beam number="1">end</beam>
</note>
<note>
  <rest/>
  <duration>6</duration>
  <voice>2</voice>
  <type>quarter</type>
  <dot/>
</note>
<backup><duration>12</duration></backup>
<note>
  <rest/>
  <duration>7</duration>
  <voice>1</voice>
  <type>eighth</type>
  <dot/>
  <dot/>
</note>
<note>
  <pitch>
    <step>C</step>
    <alter>0</alter>
    <octave>5</octave>
  </pitch>
  <duration>1</duration>
  <voice>1</voice>
  <type>16th</type>
  <stem>up</stem>
  <beam number="1">begin</beam>
  <beam number="2">begin</beam>
</note>
<note>
  <pitch>
    <step>C</step>
    <alter>0</alter>
    <octave>5</octave>
  </pitch>
  <duration>1</duration>
  <voice>1</voice>
  <type>16th</type>
  <stem>up</stem>
  <beam number="1">continue</beam>
  <beam number="2">end</beam>
</note>
<note>
  <pitch>
    <step>C</step>
    <alter>0</alter>
    <octave>5</octave>
  </pitch>
  <duration>1</duration>
  <voice>1</voice>
  <type>16th</type>
  <stem>up</stem>
  <beam number="1">continue</beam>
  <beam number="2">forward hook</beam>
</note>
<note>
  <pitch>
    <step>C</step>
    <alter>0</alter>
    <octave>5</octave>
  </pitch>
  <duration>1</duration>
  <voice>1</voice>
  <type>16th</type>
  <stem>up</stem>
  <beam number="1">continue</beam>
  <beam number="2">begin</beam>
</note>
<note>
  <pitch>
    <step>C</step>
    <alter>0</alter>
    <octave>5</octave>
  </pitch>
  <duration>1</duration>
  <voice>1</voice>
  <type>16th</type>
  <stem>up</stem>
  <beam number="1">end</beam>
  <beam number="2">end</beam>
</note>
</measure>
<measure number="7">
<note>
  <rest/>
  <duration>4</duration>
  <voice>3</voice>
  <type>quarter</type>
</note>
<note>
  <pitch>
    <step>G</step>
    <alter>0</alter>
    <octave>4</octave>
  </pitch>
  <duration>1</duration>
  <voice>3</voice>
  <type>16th</type>
  <stem>down</stem>
  <beam number="1">begin</beam>
  <beam number="2">begin</beam>
</note>
<note>
  <pitch>
    <step>G</step>
    <alter>0</alter>
    <octave>4</octave>
  </pitch>
  <duration>1</duration>
  <voice>3</voice>
  <type>16th</type>
  <stem>down</stem>
  <beam number="1">end</beam>
  <beam number="2">end</beam>
</note>
<note>
  <pitch>
    <step>D</step>
    <alter>0</alter>
    <octave>5</octave>
  </pitch>
  <duration>1</duration>
  <voice>3</voice>
  <type>16th</type>
  <stem>down</stem>
  <beam number="1">begin</beam>
  <beam number="2">forward hook</beam>
</note>
<note>
  <pitch>
    <step>C</step>
    <alter>0</alter>
    <octave>5</octave>
  </pitch>
  <duration>3</duration>
  <voice>3</voice>
  <type>eighth</type>
  <dot/>
  <stem>down</stem>
  <beam number="1">continue</beam>
</note>
<note>
  <rest/>
  <duration>1</duration>
  <voice>3</voice>
  <type>16th</type>
</note>
<note>
  <pitch>
    <step>C</step>
    <alter>0</alter>
    <octave>5</octave>
  </pitch>
  <duration>1</duration>
  <voice>3</voice>
  <type>16th</type>
  <stem>down</stem>
  <beam number="1">end</beam>
  <beam number="2">backward hook</beam>
</note>
<backup><duration>12</duration></backup>
<note>
  <pitch>
    <step>E</step>
    <alter>-1</alter>
    <octave>5</octave>
  </pitch>
  <duration>3</duration>
  <voice>2</voice>
  <type>eighth</type>
  <dot/>
  <stem>up</stem>
  <beam number="1">begin</beam>
</note>
<note>
  <rest/>
  <duration>1</duration>
  <voice>2</voice>
  <type>16th</type>
</note>
<note>
  <pitch>
    <step>G</step>
    <alter>0</alter>
    <octave>4</octave>
  </pitch>
  <duration>2</duration>
  <voice>2</voice>
  <type>eighth</type>
  <stem>up</stem>
  <beam number="1">end</beam>
</note>
<note>
  <rest/>
  <duration>2</duration>
  <voice>2</voice>
  <type>eighth</type>
</note>
<note>
  <rest/>
  <duration>2</duration>
  <voice>2</voice>
  <type>eighth</type>
</note>
<note>
  <pitch>
    <step>B</step>
    <alter>-1</alter>
    <octave>4</octave>
  </pitch>
  <duration>1</duration>
  <voice>2</voice>
  <type>16th</type>
  <stem>up</stem>
  <beam number="1">begin</beam>
  <beam number="2">begin</beam>
</note>
<note>
  <pitch>
    <step>C</step>
    <alter>0</alter>
    <octave>5</octave>
  </pitch>
  <duration>1</duration>
  <voice>2</voice>
  <type>16th</type>
  <stem>up</stem>
  <beam number="1">end</beam>
  <beam number="2">end</beam>
</note>
</measure>
<measure number="8">
<note>
  <pitch>
    <step>C</step>
    <alter>0</alter>
    <octave>5</octave>
  </pitch>
  <duration>6</duration>
    <tie type="start"/>
  <voice>2</voice>
  <type>quarter</type>
  <dot/>
  <stem>down</stem>
  <notations>
<tied type="start" number="1" orientation="over"/>
  </notations>
</note>
<note>
  <pitch>
    <step>C</step>
    <alter>0</alter>
    <octave>5</octave>
  </pitch>
  <duration>2</duration>
    <tie type="stop"/>
  <voice>2</voice>
  <type>eighth</type>
  <stem>down</stem>
  <notations>
    <tied type="stop" number="1"/>
  </notations>
</note>
<note>
  <rest/>
  <duration>2</duration>
  <voice>2</voice>
  <type>eighth</type>
</note>
<note>
  <rest/>
  <duration>2</duration>
  <voice>2</voice>
  <type>eighth</type>
</note>
</measure>
</part>
<part id="P2">
<measure number="1">
<direction placement="below"><direction-type><dynamics>
<mf/> 
</dynamics>
</direction-type>
<staff>1</staff>
</direction>
<attributes>
  <divisions>4</divisions>
  <key>
    <fifths>-3</fifths>
  </key>
  <time>
    <beats>6</beats>
    <beat-type>8</beat-type>
  </time>
  <staves>2</staves>
<clef number="1">
    <sign>G</sign>
    <line>2</line>
  </clef>
<clef number="2">
    <sign>F</sign>
    <line>4</line>
  </clef>
</attributes>
<note>
  <rest/>
  <duration>6</duration>
  <voice>3</voice>
  <type>quarter</type>
  <dot/>
  <staff>2</staff>
</note>
<backup><duration>6</duration></backup>
<note>
  <pitch>
    <step>G</step>
    <alter>0</alter>
    <octave>4</octave>
  </pitch>
  <duration>2</duration>
  <voice>1</voice>
  <type>eighth</type>
  <stem>up</stem>
  <staff>1</staff>
  <beam number="1">begin</beam>
</note>
<note>
  <pitch>
    <step>B</step>
    <alter>-1</alter>
    <octave>4</octave>
  </pitch>
  <duration>2</duration>
  <voice>1</voice>
  <type>eighth</type>
  <stem>up</stem>
  <staff>1</staff>
  <beam number="1">continue</beam>
</note>
<note>
  <pitch>
    <step>C</step>
    <alter>0</alter>
    <octave>5</octave>
  </pitch>
  <duration>2</duration>
  <voice>1</voice>
  <type>eighth</type>
  <stem>up</stem>
  <staff>1</staff>
  <beam number="1">end</beam>
</note>
<barline location="right"><bar-style>light-light</bar-style></barline>
</measure>
<measure number="2">
<note>
  <pitch>
    <step>C</step>
    <alter>0</alter>
    <octave>3</octave>
  </pitch>
  <duration>4</duration>
  <voice>3</voice>
  <type>quarter</type>
  <stem>up</stem>
  <staff>2</staff>
</note>
<note>
  <pitch>
    <step>C</step>
    <alter>0</alter>
    <octave>3</octave>
  </pitch>
  <duration>2</duration>
    <tie type="start"/>
  <voice>3</voice>
  <type>eighth</type>
  <stem>up</stem>
  <staff>2</staff>
  <notations>
<tied type="start" number="1" orientation="under"/>
  </notations>
</note>
<note>
  <pitch>
    <step>C</step>
    <alter>0</alter>
    <octave>3</octave>
  </pitch>
  <duration>4</duration>
    <tie type="stop"/>
  <voice>3</voice>
  <type>quarter</type>
  <stem>up</stem>
  <staff>2</staff>
  <notations>
    <tied type="stop" number="1"/>
  </notations>
</note>
<note>
  <pitch>
    <step>C</step>
    <alter>0</alter>
    <octave>3</octave>
  </pitch>
  <duration>2</duration>
    <tie type="start"/>
  <voice>3</voice>
  <type>eighth</type>
  <stem>up</stem>
  <staff>2</staff>
  <notations>
<tied type="start" number="1" orientation="under"/>
  </notations>
</note>
<backup><duration>12</duration></backup>
<note>
  <pitch>
    <step>E</step>
    <alter>-1</alter>
    <octave>4</octave>
  </pitch>
  <duration>6</duration>
  <voice>1</voice>
  <type>quarter</type>
  <dot/>
  <stem>up</stem>
  <staff>1</staff>
</note>
<note>
  <chord/>
  <pitch>
    <step>G</step>
    <alter>0</alter>
    <octave>4</octave>
  </pitch>
  <duration>6</duration>
  <voice>1</voice>
  <type>quarter</type>
  <dot/>
  <stem>up</stem>
  <staff>1</staff>
</note>
<note>
  <chord/>
  <pitch>
    <step>C</step>
    <alter>0</alter>
    <octave>5</octave>
  </pitch>
  <duration>6</duration>
  <voice>1</voice>
  <type>quarter</type>
  <dot/>
  <stem>up</stem>
  <staff>1</staff>
</note>
<note>
  <pitch>
    <step>E</step>
    <alter>-1</alter>
    <octave>5</octave>
  </pitch>
  <duration>2</duration>
  <voice>1</voice>
  <type>eighth</type>
  <stem>down</stem>
  <staff>1</staff>
</note>
<note>
  <chord/>
  <pitch>
    <step>G</step>
    <alter>0</alter>
    <octave>5</octave>
  </pitch>
  <duration>2</duration>
  <voice>1</voice>
  <type>eighth</type>
  <stem>down</stem>
  <staff>1</staff>
</note>
<note>
  <pitch>
    <step>C</step>
    <alter>0</alter>
    <octave>5</octave>
  </pitch>
  <duration>4</duration>
  <voice>1</voice>
  <type>quarter</type>
  <stem>down</stem>
  <staff>1</staff>
</note>
</measure>
<measure number="3">
<note>
  <pitch>
    <step>C</step>
    <alter>0</alter>
    <octave>3</octave>
  </pitch>
  <duration>4</duration>
    <tie type="stop"/>
  <voice>3</voice>
  <type>quarter</type>
  <stem>up</stem>
  <staff>2</staff>
  <notations>
    <tied type="stop" number="1"/>
  </notations>
</note>
<note>
  <pitch>
    <step>G</step>
    <alter>0</alter>
    <octave>3</octave>
  </pitch>
  <duration>2</duration>
  <voice>3</voice>
  <type>eighth</type>
  <stem>down</stem>
  <staff>2</staff>
</note>
<note>
  <pitch>
    <step>D</step>
    <alter>0</alter>
    <octave>3</octave>
  </pitch>
  <duration>2</duration>
  <voice>3</voice>
  <type>eighth</type>
  <stem>up</stem>
  <staff>2</staff>
  <beam number="1">begin</beam>
</note>
<note>
  <pitch>
    <step>B</step>
    <alter>-1</alter>
    <octave>2</octave>
  </pitch>
  <duration>2</duration>
  <voice>3</voice>
  <type>eighth</type>
  <stem>up</stem>
  <staff>2</staff>
  <beam number="1">continue</beam>
</note>
<note>
  <pitch>
    <step>G</step>
    <alter>0</alter>
    <octave>2</octave>
  </pitch>
  <duration>2</duration>
  <voice>3</voice>
  <type>eighth</type>
  <stem>up</stem>
  <staff>2</staff>
  <beam number="1">end</beam>
</note>
<backup><duration>12</duration></backup>
<note>
  <pitch>
    <step>B</step>
    <alter>-1</alter>
    <octave>3</octave>
  </pitch>
  <duration>2</duration>
  <voice>1</voice>
  <type>eighth</type>
  <stem>up</stem>
  <staff>1</staff>
</note>
<note>
  <chord/>
  <pitch>
    <step>D</step>
    <alter>0</alter>
    <octave>4</octave>
  </pitch>
  <duration>2</duration>
  <voice>1</voice>
  <type>eighth</type>
  <stem>up</stem>
  <staff>1</staff>
</note>
<note>
  <chord/>
  <pitch>
    <step>F</step>
    <alter>0</alter>
    <octave>4</octave>
  </pitch>
  <duration>2</duration>
  <voice>1</voice>
  <type>eighth</type>
  <stem>up</stem>
  <staff>1</staff>
</note>
<note>
  <pitch>
    <step>B</step>
    <alter>-1</alter>
    <octave>3</octave>
  </pitch>
  <duration>4</duration>
  <voice>1</voice>
  <type>quarter</type>
  <stem>up</stem>
  <staff>1</staff>
</note>
<note>
  <chord/>
  <pitch>
    <step>D</step>
    <alter>0</alter>
    <octave>4</octave>
  </pitch>
  <duration>4</duration>
  <voice>1</voice>
  <type>quarter</type>
  <stem>up</stem>
  <staff>1</staff>
</note>
<note>
  <chord/>
  <pitch>
    <step>F</step>
    <alter>0</alter>
    <octave>4</octave>
  </pitch>
  <duration>4</duration>
  <voice>1</voice>
  <type>quarter</type>
  <stem>up</stem>
  <staff>1</staff>
</note>
<note>
  <pitch>
    <step>G</step>
    <alter>0</alter>
    <octave>4</octave>
  </pitch>
  <duration>2</duration>
  <voice>1</voice>
  <type>eighth</type>
  <stem>up</stem>
  <staff>1</staff>
  <beam number="1">begin</beam>
</note>
<note>
  <pitch>
    <step>B</step>
    <alter>-1</alter>
    <octave>4</octave>
  </pitch>
  <duration>2</duration>
  <voice>1</voice>
  <type>eighth</type>
  <stem>up</stem>
  <staff>1</staff>
  <beam number="1">continue</beam>
</note>
<note>
  <pitch>
    <step>C</step>
    <alter>0</alter>
    <octave>5</octave>
  </pitch>
  <duration>2</duration>
  <voice>1</voice>
  <type>eighth</type>
  <stem>up</stem>
  <staff>1</staff>
  <beam number="1">end</beam>
</note>
</measure>
<measure number="4">
<note>
  <pitch>
    <step>C</step>
    <alter>0</alter>
    <octave>3</octave>
  </pitch>
  <duration>4</duration>
  <voice>3</voice>
  <type>quarter</type>
  <stem>up</stem>
  <staff>2</staff>
</note>
<note>
  <pitch>
    <step>C</step>
    <alter>0</alter>
    <octave>3</octave>
  </pitch>
  <duration>2</duration>
    <tie type="start"/>
  <voice>3</voice>
  <type>eighth</type>
  <stem>up</stem>
  <staff>2</staff>
  <notations>
<tied type="start" number="1" orientation="under"/>
  </notations>
</note>
<note>
  <pitch>
    <step>C</step>
    <alter>0</alter>
    <octave>3</octave>
  </pitch>
  <duration>4</duration>
    <tie type="stop"/>
  <voice>3</voice>
  <type>quarter</type>
  <stem>up</stem>
  <staff>2</staff>
  <notations>
    <tied type="stop" number="1"/>
  </notations>
</note>
<note>
  <pitch>
    <step>C</step>
    <alter>0</alter>
    <octave>3</octave>
  </pitch>
  <duration>2</duration>
    <tie type="start"/>
  <voice>3</voice>
  <type>eighth</type>
  <stem>up</stem>
  <staff>2</staff>
  <notations>
<tied type="start" number="1" orientation="over"/>
  </notations>
</note>
<backup><duration>12</duration></backup>
<note>
  <rest/>
  <duration>6</duration>
  <voice>2</voice>
  <type>quarter</type>
  <dot/>
  <staff>1</staff>
</note>
<note>
  <pitch>
    <step>C</step>
    <alter>0</alter>
    <octave>5</octave>
  </pitch>
  <duration>2</duration>
  <voice>2</voice>
  <type>eighth</type>
  <stem>down</stem>
  <staff>1</staff>
</note>
<note>
  <pitch>
    <step>C</step>
    <alter>0</alter>
    <octave>5</octave>
  </pitch>
  <duration>4</duration>
  <voice>2</voice>
  <type>quarter</type>
  <stem>down</stem>
  <staff>1</staff>
</note>
<backup><duration>12</duration></backup>
<note>
  <pitch>
    <step>E</step>
    <alter>-1</alter>
    <octave>4</octave>
  </pitch>
  <duration>2</duration>
  <voice>1</voice>
  <type>eighth</type>
  <stem>up</stem>
  <staff>1</staff>
  <beam number="1">begin</beam>
</note>
<note>
  <chord/>
  <pitch>
    <step>G</step>
    <alter>0</alter>
    <octave>4</octave>
  </pitch>
  <duration>2</duration>
  <voice>1</voice>
  <type>eighth</type>
  <stem>up</stem>
  <staff>1</staff>
</note>
<note>
  <chord/>
  <pitch>
    <step>C</step>
    <alter>0</alter>
    <octave>5</octave>
  </pitch>
  <duration>2</duration>
  <voice>1</voice>
  <type>eighth</type>
  <stem>up</stem>
  <staff>1</staff>
</note>
<note>
  <pitch>
    <step>C</step>
    <alter>0</alter>
    <octave>5</octave>
  </pitch>
  <duration>2</duration>
  <voice>1</voice>
  <type>eighth</type>
  <stem>up</stem>
  <staff>1</staff>
  <beam number="1">continue</beam>
</note>
<note>
  <pitch>
    <step>E</step>
    <alter>-1</alter>
    <octave>5</octave>
  </pitch>
  <duration>2</duration>
  <voice>1</voice>
  <type>eighth</type>
  <stem>up</stem>
  <staff>1</staff>
  <beam number="1">end</beam>
</note>
<note>
  <pitch>
    <step>E</step>
    <alter>-1</alter>
    <octave>5</octave>
  </pitch>
  <duration>6</duration>
  <voice>1</voice>
  <type>quarter</type>
  <dot/>
  <stem>up</stem>
  <staff>1</staff>
</note>
<note>
  <chord/>
  <pitch>
    <step>G</step>
    <alter>0</alter>
    <octave>5</octave>
  </pitch>
  <duration>6</duration>
  <voice>1</voice>
  <type>quarter</type>
  <dot/>
  <stem>up</stem>
  <staff>1</staff>
</note>
<note>
  <chord/>
  <pitch>
    <step>C</step>
    <alter>0</alter>
    <octave>6</octave>
  </pitch>
  <duration>6</duration>
  <voice>1</voice>
  <type>quarter</type>
  <dot/>
  <stem>up</stem>
  <staff>1</staff>
</note>
</measure>
<measure number="5">
<note>
  <pitch>
    <step>C</step>
    <alter>0</alter>
    <octave>3</octave>
  </pitch>
  <duration>2</duration>
    <tie type="stop"/>
  <voice>3</voice>
  <type>eighth</type>
  <stem>down</stem>
  <staff>2</staff>
  <beam number="1">begin</beam>
  <notations>
    <tied type="stop" number="1"/>
  </notations>
</note>
<note>
  <pitch>
    <step>G</step>
    <alter>0</alter>
    <octave>3</octave>
  </pitch>
  <duration>2</duration>
  <voice>3</voice>
  <type>eighth</type>
  <stem>down</stem>
  <staff>2</staff>
  <beam number="1">continue</beam>
</note>
<note>
  <pitch>
    <step>G</step>
    <alter>0</alter>
    <octave>3</octave>
  </pitch>
  <duration>2</duration>
  <voice>3</voice>
  <type>eighth</type>
  <stem>down</stem>
  <staff>2</staff>
  <beam number="1">end</beam>
</note>
<note>
  <pitch>
    <step>G</step>
    <alter>0</alter>
    <octave>3</octave>
  </pitch>
  <duration>2</duration>
  <voice>3</voice>
  <type>eighth</type>
  <stem>down</stem>
  <staff>2</staff>
  <beam number="1">begin</beam>
</note>
<note>
  <pitch>
    <step>G</step>
    <alter>0</alter>
    <octave>3</octave>
  </pitch>
  <duration>2</duration>
  <voice>3</voice>
  <type>eighth</type>
  <stem>down</stem>
  <staff>2</staff>
  <beam number="1">continue</beam>
</note>
<note>
  <pitch>
    <step>G</step>
    <alter>0</alter>
    <octave>3</octave>
  </pitch>
  <duration>2</duration>
  <voice>3</voice>
  <type>eighth</type>
  <stem>down</stem>
  <staff>2</staff>
  <beam number="1">end</beam>
</note>
<backup><duration>12</duration></backup>
<note>
  <rest/>
  <duration>2</duration>
  <voice>1</voice>
  <type>eighth</type>
  <staff>1</staff>
</note>
<note>
  <pitch>
    <step>B</step>
    <alter>-1</alter>
    <octave>3</octave>
  </pitch>
  <duration>2</duration>
  <voice>1</voice>
  <type>eighth</type>
  <stem>up</stem>
  <staff>1</staff>
  <beam number="1">begin</beam>
</note>
<note>
  <chord/>
  <pitch>
    <step>D</step>
    <alter>0</alter>
    <octave>4</octave>
  </pitch>
  <duration>2</duration>
  <voice>1</voice>
  <type>eighth</type>
  <stem>up</stem>
  <staff>1</staff>
</note>
<note>
  <chord/>
  <pitch>
    <step>F</step>
    <alter>0</alter>
    <octave>4</octave>
  </pitch>
  <duration>2</duration>
  <voice>1</voice>
  <type>eighth</type>
  <stem>up</stem>
  <staff>1</staff>
</note>
<note>
  <pitch>
    <step>B</step>
    <alter>-1</alter>
    <octave>3</octave>
  </pitch>
  <duration>2</duration>
  <voice>1</voice>
  <type>eighth</type>
  <stem>up</stem>
  <staff>1</staff>
  <beam number="1">end</beam>
</note>
<note>
  <chord/>
  <pitch>
    <step>D</step>
    <alter>0</alter>
    <octave>4</octave>
  </pitch>
  <duration>2</duration>
  <voice>1</voice>
  <type>eighth</type>
  <stem>up</stem>
  <staff>1</staff>
</note>
<note>
  <chord/>
  <pitch>
    <step>F</step>
    <alter>0</alter>
    <octave>4</octave>
  </pitch>
  <duration>2</duration>
  <voice>1</voice>
  <type>eighth</type>
  <stem>up</stem>
  <staff>1</staff>
</note>
<note>
  <pitch>
    <step>G</step>
    <alter>0</alter>
    <octave>4</octave>
  </pitch>
  <duration>2</duration>
  <voice>1</voice>
  <type>eighth</type>
  <stem>up</stem>
  <staff>1</staff>
  <beam number="1">begin</beam>
</note>
<note>
  <pitch>
    <step>B</step>
    <alter>-1</alter>
    <octave>4</octave>
  </pitch>
  <duration>2</duration>
  <voice>1</voice>
  <type>eighth</type>
  <stem>up</stem>
  <staff>1</staff>
  <beam number="1">continue</beam>
</note>
<note>
  <pitch>
    <step>C</step>
    <alter>0</alter>
    <octave>5</octave>
  </pitch>
  <duration>2</duration>
  <voice>1</voice>
  <type>eighth</type>
  <stem>up</stem>
  <staff>1</staff>
  <beam number="1">end</beam>
</note>
</measure>
<measure number="6">
<note>
  <pitch>
    <step>C</step>
    <alter>0</alter>
    <octave>3</octave>
  </pitch>
  <duration>4</duration>
  <voice>3</voice>
  <type>quarter</type>
  <stem>up</stem>
  <staff>2</staff>
</note>
<note>
  <pitch>
    <step>C</step>
    <alter>0</alter>
    <octave>3</octave>
  </pitch>
  <duration>2</duration>
    <tie type="start"/>
  <voice>3</voice>
  <type>eighth</type>
  <stem>up</stem>
  <staff>2</staff>
  <notations>
<tied type="start" number="1" orientation="under"/>
  </notations>
</note>
<note>
  <pitch>
    <step>C</step>
    <alter>0</alter>
    <octave>3</octave>
  </pitch>
  <duration>4</duration>
    <tie type="stop"/>
  <voice>3</voice>
  <type>quarter</type>
  <stem>up</stem>
  <staff>2</staff>
  <notations>
    <tied type="stop" number="1"/>
  </notations>
</note>
<note>
  <pitch>
    <step>G</step>
    <alter>0</alter>
    <octave>3</octave>
  </pitch>
  <duration>2</duration>
  <voice>3</voice>
  <type>eighth</type>
  <stem>down</stem>
  <staff>2</staff>
</note>
<backup><duration>12</duration></backup>
<note>
  <rest/>
  <duration>6</duration>
  <voice>2</voice>
  <type>quarter</type>
  <dot/>
  <staff>1</staff>
</note>
<note>
  <pitch>
    <step>C</step>
    <alter>0</alter>
    <octave>5</octave>
  </pitch>
  <duration>2</duration>
  <voice>2</voice>
  <type>eighth</type>
  <stem>down</stem>
  <staff>1</staff>
</note>
<note>
  <pitch>
    <step>C</step>
    <alter>0</alter>
    <octave>5</octave>
  </pitch>
  <duration>4</duration>
  <voice>2</voice>
  <type>quarter</type>
  <stem>down</stem>
  <staff>1</staff>
</note>
<backup><duration>12</duration></backup>
<note>
  <pitch>
    <step>C</step>
    <alter>0</alter>
    <octave>5</octave>
  </pitch>
  <duration>2</duration>
  <voice>1</voice>
  <type>eighth</type>
  <stem>up</stem>
  <staff>1</staff>
  <beam number="1">begin</beam>
</note>
<note>
  <pitch>
    <step>E</step>
    <alter>-1</alter>
    <octave>4</octave>
  </pitch>
  <duration>2</duration>
  <voice>1</voice>
  <type>eighth</type>
  <stem>up</stem>
  <staff>1</staff>
  <beam number="1">continue</beam>
</note>
<note>
  <chord/>
  <pitch>
    <step>G</step>
    <alter>0</alter>
    <octave>4</octave>
  </pitch>
  <duration>2</duration>
  <voice>1</voice>
  <type>eighth</type>
  <stem>up</stem>
  <staff>1</staff>
</note>
<note>
  <chord/>
  <pitch>
    <step>C</step>
    <alter>0</alter>
    <octave>5</octave>
  </pitch>
  <duration>2</duration>
  <voice>1</voice>
  <type>eighth</type>
  <stem>up</stem>
  <staff>1</staff>
</note>
<note>
  <pitch>
    <step>E</step>
    <alter>-1</alter>
    <octave>4</octave>
  </pitch>
  <duration>2</duration>
  <voice>1</voice>
  <type>eighth</type>
  <stem>up</stem>
  <staff>1</staff>
  <beam number="1">end</beam>
</note>
<note>
  <chord/>
  <pitch>
    <step>G</step>
    <alter>0</alter>
    <octave>4</octave>
  </pitch>
  <duration>2</duration>
  <voice>1</voice>
  <type>eighth</type>
  <stem>up</stem>
  <staff>1</staff>
</note>
<note>
  <pitch>
    <step>E</step>
    <alter>-1</alter>
    <octave>5</octave>
  </pitch>
  <duration>6</duration>
  <voice>1</voice>
  <type>quarter</type>
  <dot/>
  <stem>up</stem>
  <staff>1</staff>
</note>
<note>
  <chord/>
  <pitch>
    <step>G</step>
    <alter>0</alter>
    <octave>5</octave>
  </pitch>
  <duration>6</duration>
  <voice>1</voice>
  <type>quarter</type>
  <dot/>
  <stem>up</stem>
  <staff>1</staff>
</note>
<note>
  <chord/>
  <pitch>
    <step>C</step>
    <alter>0</alter>
    <octave>6</octave>
  </pitch>
  <duration>6</duration>
  <voice>1</voice>
  <type>quarter</type>
  <dot/>
  <stem>up</stem>
  <staff>1</staff>
</note>
</measure>
<measure number="7">
<note>
  <pitch>
    <step>C</step>
    <alter>0</alter>
    <octave>3</octave>
  </pitch>
  <duration>6</duration>
  <voice>3</voice>
  <type>quarter</type>
  <dot/>
  <stem>up</stem>
  <staff>2</staff>
</note>
<note>
  <pitch>
    <step>C</step>
    <alter>0</alter>
    <octave>3</octave>
  </pitch>
  <duration>6</duration>
  <voice>3</voice>
  <type>quarter</type>
  <dot/>
  <stem>up</stem>
  <staff>2</staff>
</note>
<backup><duration>12</duration></backup>
<note>
  <rest/>
  <duration>2</duration>
  <voice>2</voice>
  <type>eighth</type>
  <staff>1</staff>
</note>
<note>
  <pitch>
    <step>B</step>
    <alter>-1</alter>
    <octave>3</octave>
  </pitch>
  <duration>2</duration>
  <voice>2</voice>
  <type>eighth</type>
  <stem>down</stem>
  <staff>1</staff>
  <beam number="1">begin</beam>
</note>
<note>
  <chord/>
  <pitch>
    <step>D</step>
    <alter>0</alter>
    <octave>4</octave>
  </pitch>
  <duration>2</duration>
  <voice>2</voice>
  <type>eighth</type>
  <stem>down</stem>
  <staff>1</staff>
</note>
<note>
  <chord/>
  <pitch>
    <step>F</step>
    <alter>0</alter>
    <octave>4</octave>
  </pitch>
  <duration>2</duration>
  <voice>2</voice>
  <type>eighth</type>
  <stem>down</stem>
  <staff>1</staff>
</note>
<note>
  <pitch>
    <step>B</step>
    <alter>-1</alter>
    <octave>3</octave>
  </pitch>
  <duration>2</duration>
  <voice>2</voice>
  <type>eighth</type>
  <stem>down</stem>
  <staff>1</staff>
  <beam number="1">end</beam>
</note>
<note>
  <chord/>
  <pitch>
    <step>D</step>
    <alter>0</alter>
    <octave>4</octave>
  </pitch>
  <duration>2</duration>
  <voice>2</voice>
  <type>eighth</type>
  <stem>down</stem>
  <staff>1</staff>
</note>
<note>
  <pitch>
    <step>D</step>
    <alter>0</alter>
    <octave>4</octave>
  </pitch>
  <duration>6</duration>
  <voice>2</voice>
  <type>quarter</type>
  <dot/>
  <stem>down</stem>
  <staff>1</staff>
</note>
<note>
  <chord/>
  <pitch>
    <step>F</step>
    <alter>0</alter>
    <octave>4</octave>
  </pitch>
  <duration>6</duration>
  <voice>2</voice>
  <type>quarter</type>
  <dot/>
  <stem>down</stem>
  <staff>1</staff>
</note>
<backup><duration>12</duration></backup>
<note>
  <rest/>
  <duration>4</duration>
  <voice>1</voice>
  <type>quarter</type>
  <staff>1</staff>
</note>
<note>
  <pitch>
    <step>G</step>
    <alter>0</alter>
    <octave>4</octave>
  </pitch>
  <duration>1</duration>
  <voice>1</voice>
  <type>16th</type>
  <stem>up</stem>
  <staff>1</staff>
  <beam number="1">begin</beam>
  <beam number="2">begin</beam>
</note>
<note>
  <pitch>
    <step>G</step>
    <alter>0</alter>
    <octave>4</octave>
  </pitch>
  <duration>1</duration>
  <voice>1</voice>
  <type>16th</type>
  <stem>up</stem>
  <staff>1</staff>
  <beam number="1">end</beam>
  <beam number="2">end</beam>
</note>
<note>
  <pitch>
    <step>D</step>
    <alter>0</alter>
    <octave>5</octave>
  </pitch>
  <duration>1</duration>
  <voice>1</voice>
  <type>16th</type>
  <stem>up</stem>
  <staff>1</staff>
  <beam number="1">begin</beam>
  <beam number="2">forward hook</beam>
</note>
<note>
  <pitch>
    <step>C</step>
    <alter>0</alter>
    <octave>5</octave>
  </pitch>
  <duration>3</duration>
  <voice>1</voice>
  <type>eighth</type>
  <dot/>
  <stem>up</stem>
  <staff>1</staff>
  <beam number="1">continue</beam>
</note>
<note>
  <pitch>
    <step>B</step>
    <alter>-1</alter>
    <octave>4</octave>
  </pitch>
  <duration>1</duration>
  <voice>1</voice>
  <type>16th</type>
  <stem>up</stem>
  <staff>1</staff>
  <beam number="1">continue</beam>
  <beam number="2">begin</beam>
</note>
<note>
  <pitch>
    <step>C</step>
    <alter>0</alter>
    <octave>5</octave>
  </pitch>
  <duration>1</duration>
  <voice>1</voice>
  <type>16th</type>
  <stem>up</stem>
  <staff>1</staff>
  <beam number="1">end</beam>
  <beam number="2">end</beam>
</note>
</measure>
<measure number="8">
<note>
  <pitch>
    <step>C</step>
    <alter>0</alter>
    <octave>3</octave>
  </pitch>
  <duration>4</duration>
  <voice>3</voice>
  <type>quarter</type>
  <stem>up</stem>
  <staff>2</staff>
</note>
<note>
  <pitch>
    <step>C</step>
    <alter>0</alter>
    <octave>3</octave>
  </pitch>
  <duration>2</duration>
    <tie type="start"/>
  <voice>3</voice>
  <type>eighth</type>
  <stem>up</stem>
  <staff>2</staff>
  <notations>
<tied type="start" number="1" orientation="under"/>
  </notations>
</note>
<note>
  <pitch>
    <step>C</step>
    <alter>0</alter>
    <octave>3</octave>
  </pitch>
  <duration>4</duration>
    <tie type="stop"/>
  <voice>3</voice>
  <type>quarter</type>
  <stem>up</stem>
  <staff>2</staff>
  <notations>
    <tied type="stop" number="1"/>
  </notations>
</note>
<note>
  <pitch>
    <step>G</step>
    <alter>0</alter>
    <octave>3</octave>
  </pitch>
  <duration>2</duration>
  <voice>3</voice>
  <type>eighth</type>
  <stem>down</stem>
  <staff>2</staff>
</note>
<backup><duration>12</duration></backup>
<note>
  <pitch>
    <step>E</step>
    <alter>-1</alter>
    <octave>4</octave>
  </pitch>
  <duration>2</duration>
  <voice>2</voice>
  <type>eighth</type>
  <stem>down</stem>
  <staff>1</staff>
  <beam number="1">begin</beam>
</note>
<note>
  <chord/>
  <pitch>
    <step>G</step>
    <alter>0</alter>
    <octave>4</octave>
  </pitch>
  <duration>2</duration>
  <voice>2</voice>
  <type>eighth</type>
  <stem>down</stem>
  <staff>1</staff>
</note>
<note>
  <pitch>
    <step>C</step>
    <alter>0</alter>
    <octave>4</octave>
  </pitch>
  <duration>2</duration>
  <voice>2</voice>
  <type>eighth</type>
  <stem>down</stem>
  <staff>1</staff>
  <beam number="1">continue</beam>
</note>
<note>
  <pitch>
    <step>E</step>
    <alter>-1</alter>
    <octave>4</octave>
  </pitch>
  <duration>2</duration>
  <voice>2</voice>
  <type>eighth</type>
  <stem>down</stem>
  <staff>1</staff>
  <beam number="1">end</beam>
</note>
<note>
  <rest/>
  <duration>6</duration>
  <voice>2</voice>
  <type>quarter</type>
  <dot/>
  <staff>1</staff>
</note>
<backup><duration>12</duration></backup>
<note>
  <pitch>
    <step>C</step>
    <alter>0</alter>
    <octave>5</octave>
  </pitch>
  <duration>6</duration>
  <voice>1</voice>
  <type>quarter</type>
  <dot/>
  <stem>up</stem>
  <staff>1</staff>
<notations><technical><fingering>3</fingering> </technical> </notations></note>
<note>
  <pitch>
    <step>E</step>
    <alter>-1</alter>
    <octave>4</octave>
  </pitch>
  <duration>2</duration>
  <voice>1</voice>
  <type>eighth</type>
  <stem>up</stem>
  <staff>1</staff>
</note>
<note>
  <chord/>
  <pitch>
    <step>G</step>
    <alter>0</alter>
    <octave>4</octave>
  </pitch>
  <duration>2</duration>
  <voice>1</voice>
  <type>eighth</type>
  <stem>up</stem>
  <staff>1</staff>
</note>
<note>
  <pitch>
    <step>C</step>
    <alter>0</alter>
    <octave>4</octave>
  </pitch>
  <duration>4</duration>
  <voice>1</voice>
  <type>quarter</type>
  <stem>up</stem>
  <staff>1</staff>
</note>
<note>
  <chord/>
  <pitch>
    <step>E</step>
    <alter>-1</alter>
    <octave>4</octave>
  </pitch>
  <duration>4</duration>
  <voice>1</voice>
  <type>quarter</type>
  <stem>up</stem>
  <staff>1</staff>
</note>
</measure>
</part>
</score-partwise>
