<?xml version="1.0" encoding="UTF-8"?>
<!DOCTYPE score-partwise PUBLIC "-//Recordare//DTD MusicXML 3.0 Partwise//EN" "http://www.musicxml.org/dtds/partwise.dtd">
<score-partwise>
  <work>
    <work-title>Tremolo</work-title>
    </work>
  <identification>
    <encoding>
      <software>MuseScore 2.0.3.1</software>
      <encoding-date>2017-04-28</encoding-date>
      <supports element="accidental" type="yes"/>
      <supports element="beam" type="yes"/>
      <supports element="print" attribute="new-page" type="yes" value="yes"/>
      <supports element="print" attribute="new-system" type="yes" value="yes"/>
      <supports element="stem" type="yes"/>
      </encoding>
    <source>http://api.musescore.com/score/1141331</source>
    </identification>
  <defaults>
    <scaling>
      <millimeters>7.05556</millimeters>
      <tenths>40</tenths>
      </scaling>
    <page-layout>
      <page-height>1683.36</page-height>
      <page-width>1190.88</page-width>
      <page-margins type="even">
        <left-margin>56.6929</left-margin>
        <right-margin>56.6929</right-margin>
        <top-margin>56.6929</top-margin>
        <bottom-margin>113.386</bottom-margin>
        </page-margins>
      <page-margins type="odd">
        <left-margin>56.6929</left-margin>
        <right-margin>56.6929</right-margin>
        <top-margin>56.6929</top-margin>
        <bottom-margin>113.386</bottom-margin>
        </page-margins>
      </page-layout>
    <word-font font-family="FreeSerif" font-size="10"/>
    <lyric-font font-family="FreeSerif" font-size="11"/>
    </defaults>
  <credit page="1">
    <credit-words default-x="595.44" default-y="1626.67" justify="center" valign="top" font-size="24">Tremolo</credit-words>
    </credit>
  <part-list>
    <score-part id="P1">
      <part-name>Violin</part-name>
      <part-abbreviation>Vln.</part-abbreviation>
      <score-instrument id="P1-I1">
        <instrument-name>Violin</instrument-name>
        </score-instrument>
      <midi-device id="P1-I1" port="1"></midi-device>
      <midi-instrument id="P1-I1">
        <midi-channel>1</midi-channel>
        <midi-program>41</midi-program>
        <volume>78.7402</volume>
        <pan>0</pan>
        </midi-instrument>
      </score-part>
    <score-part id="P2">
      <part-name>Violin</part-name>
      <part-abbreviation>Vln.</part-abbreviation>
      <score-instrument id="P2-I1">
        <instrument-name>Violin</instrument-name>
        </score-instrument>
      <midi-device id="P2-I1" port="1"></midi-device>
      <midi-instrument id="P2-I1">
        <midi-channel>2</midi-channel>
        <midi-program>41</midi-program>
        <volume>78.7402</volume>
        <pan>0</pan>
        </midi-instrument>
      </score-part>
    </part-list>
  <part id="P1">
    <measure number="1" width="130.47">
      <print>
        <system-layout>
          <system-margins>
            <left-margin>59.78</left-margin>
            <right-margin>0.00</right-margin>
            </system-margins>
          <top-system-distance>170.00</top-system-distance>
          </system-layout>
        </print>
      <attributes>
        <divisions>480</divisions>
        <key>
          <fifths>0</fifths>
          <mode>none</mode>
          </key>
        <time>
          <beats>4</beats>
          <beat-type>4</beat-type>
          </time>
        <clef>
          <sign>G</sign>
          <line>2</line>
          </clef>
        </attributes>
      <direction placement="above">
        <direction-type>
          <metronome parentheses="no">
            <beat-unit>quarter</beat-unit>
            <per-minute>100</per-minute>
            </metronome>
          </direction-type>
        <sound tempo="100"/>
        </direction>
      <note default-x="76.78" default-y="-30.00">
        <pitch>
          <step>G</step>
          <octave>4</octave>
          </pitch>
        <duration>1920</duration>
        <voice>1</voice>
        <type>whole</type>
        </note>
      </measure>
    <measure number="2" width="72.38">
      <note default-x="12.00" default-y="-30.00">
        <pitch>
          <step>G</step>
          <octave>4</octave>
          </pitch>
        <duration>1920</duration>
        <voice>1</voice>
        <type>whole</type>
        <notations>
          <ornaments>
            <tremolo type="single">1</tremolo>
            </ornaments>
          </notations>
        </note>
      </measure>
    <measure number="3" width="100.75">
      <note default-x="12.00" default-y="-30.00">
        <pitch>
          <step>G</step>
          <octave>4</octave>
          </pitch>
        <duration>960</duration>
        <voice>1</voice>
        <type>half</type>
        <stem>up</stem>
        <notations>
          <ornaments>
            <tremolo type="single">1</tremolo>
            </ornaments>
          </notations>
        </note>
      <note default-x="50.93" default-y="-30.00">
        <pitch>
          <step>G</step>
          <octave>4</octave>
          </pitch>
        <duration>480</duration>
        <voice>1</voice>
        <type>quarter</type>
        <stem>up</stem>
        <notations>
          <ornaments>
            <tremolo type="single">1</tremolo>
            </ornaments>
          </notations>
        </note>
      <note default-x="75.04" default-y="-30.00">
        <pitch>
          <step>G</step>
          <octave>4</octave>
          </pitch>
        <duration>480</duration>
        <voice>1</voice>
        <type>quarter</type>
        <stem>up</stem>
        <notations>
          <ornaments>
            <tremolo type="single">1</tremolo>
            </ornaments>
          </notations>
        </note>
      </measure>
    <measure number="4" width="72.38">
      <note default-x="12.00" default-y="-30.00">
        <pitch>
          <step>G</step>
          <octave>4</octave>
          </pitch>
        <duration>1920</duration>
        <voice>1</voice>
        <type>whole</type>
        <notations>
          <ornaments>
            <tremolo type="single">2</tremolo>
            </ornaments>
          </notations>
        </note>
      </measure>
    <measure number="5" width="85.80">
      <note default-x="12.00" default-y="-30.00">
        <pitch>
          <step>G</step>
          <octave>4</octave>
          </pitch>
        <duration>960</duration>
        <voice>1</voice>
        <type>half</type>
        <stem>up</stem>
        <notations>
          <ornaments>
            <tremolo type="single">2</tremolo>
            </ornaments>
          </notations>
        </note>
      <note default-x="47.92" default-y="-30.00">
        <pitch>
          <step>G</step>
          <octave>4</octave>
          </pitch>
        <duration>960</duration>
        <voice>1</voice>
        <type>half</type>
        <stem>up</stem>
        <notations>
          <ornaments>
            <tremolo type="single">3</tremolo>
            </ornaments>
          </notations>
        </note>
      </measure>
    <measure number="6" width="80.41">
      <note default-x="12.00" default-y="-30.00">
        <pitch>
          <step>G</step>
          <octave>4</octave>
          </pitch>
        <duration>1920</duration>
        <voice>1</voice>
        <type>whole</type>
        <dot/>
        <time-modification>
          <actual-notes>12</actual-notes>
          <normal-notes>8</normal-notes>
          </time-modification>
        <notations>
          <tuplet type="start" bracket="no"/>
          <tuplet type="stop"/>
          <ornaments>
            <tremolo type="single">1</tremolo>
            </ornaments>
          </notations>
        </note>
      </measure>
    <measure number="7" width="124.84">
      <note default-x="12.00" default-y="-30.00">
        <pitch>
          <step>G</step>
          <octave>4</octave>
          </pitch>
        <duration>960</duration>
        <voice>1</voice>
        <type>half</type>
        <dot/>
        <time-modification>
          <actual-notes>6</actual-notes>
          <normal-notes>4</normal-notes>
          </time-modification>
        <stem>up</stem>
        <notations>
          <tuplet type="start" bracket="no"/>
          <tuplet type="stop"/>
          <ornaments>
            <tremolo type="single">1</tremolo>
            </ornaments>
          </notations>
        </note>
      <note default-x="61.40" default-y="-30.00">
        <pitch>
          <step>G</step>
          <octave>4</octave>
          </pitch>
        <duration>480</duration>
        <voice>1</voice>
        <type>quarter</type>
        <dot/>
        <time-modification>
          <actual-notes>3</actual-notes>
          <normal-notes>2</normal-notes>
          <normal-type>eighth</normal-type>
          </time-modification>
        <stem>up</stem>
        <notations>
          <tuplet type="start" bracket="no"/>
          <tuplet type="stop"/>
          <ornaments>
            <tremolo type="single">1</tremolo>
            </ornaments>
          </notations>
        </note>
      <note default-x="92.05" default-y="-30.00">
        <pitch>
          <step>G</step>
          <octave>4</octave>
          </pitch>
        <duration>480</duration>
        <voice>1</voice>
        <type>quarter</type>
        <dot/>
        <time-modification>
          <actual-notes>3</actual-notes>
          <normal-notes>2</normal-notes>
          <normal-type>eighth</normal-type>
          </time-modification>
        <stem>up</stem>
        <notations>
          <tuplet type="start" bracket="no"/>
          <tuplet type="stop"/>
          <ornaments>
            <tremolo type="single">1</tremolo>
            </ornaments>
          </notations>
        </note>
      </measure>
    <measure number="8" width="210.84">
      <note default-x="12.00" default-y="-50.00">
        <pitch>
          <step>C</step>
          <octave>4</octave>
          </pitch>
        <duration>240</duration>
        <voice>1</voice>
        <type>eighth</type>
        <stem>up</stem>
        <beam number="1">begin</beam>
        <notations>
          <ornaments>
            <tremolo type="single">1</tremolo>
            </ornaments>
          </notations>
        </note>
      <note default-x="35.72" default-y="-40.00">
        <pitch>
          <step>E</step>
          <octave>4</octave>
          </pitch>
        <duration>240</duration>
        <voice>1</voice>
        <type>eighth</type>
        <stem>up</stem>
        <beam number="1">continue</beam>
        <notations>
          <ornaments>
            <tremolo type="single">1</tremolo>
            </ornaments>
          </notations>
        </note>
      <note default-x="59.44" default-y="-30.00">
        <pitch>
          <step>G</step>
          <octave>4</octave>
          </pitch>
        <duration>240</duration>
        <voice>1</voice>
        <type>eighth</type>
        <stem>up</stem>
        <beam number="1">continue</beam>
        <notations>
          <ornaments>
            <tremolo type="single">1</tremolo>
            </ornaments>
          </notations>
        </note>
      <note default-x="83.16" default-y="-40.00">
        <pitch>
          <step>E</step>
          <octave>4</octave>
          </pitch>
        <duration>240</duration>
        <voice>1</voice>
        <type>eighth</type>
        <stem>up</stem>
        <beam number="1">end</beam>
        <notations>
          <ornaments>
            <tremolo type="single">1</tremolo>
            </ornaments>
          </notations>
        </note>
      <note default-x="106.88" default-y="-50.00">
        <pitch>
          <step>C</step>
          <octave>4</octave>
          </pitch>
        <duration>240</duration>
        <voice>1</voice>
        <type>eighth</type>
        <dot/>
        <time-modification>
          <actual-notes>3</actual-notes>
          <normal-notes>2</normal-notes>
          <normal-type>16th</normal-type>
          </time-modification>
        <stem>up</stem>
        <beam number="1">begin</beam>
        <notations>
          <tuplet type="start" bracket="no"/>
          <tuplet type="stop"/>
          <ornaments>
            <tremolo type="single">1</tremolo>
            </ornaments>
          </notations>
        </note>
      <note default-x="130.60" default-y="-40.00">
        <pitch>
          <step>E</step>
          <octave>4</octave>
          </pitch>
        <duration>240</duration>
        <voice>1</voice>
        <type>eighth</type>
        <dot/>
        <time-modification>
          <actual-notes>3</actual-notes>
          <normal-notes>2</normal-notes>
          <normal-type>16th</normal-type>
          </time-modification>
        <stem>up</stem>
        <beam number="1">continue</beam>
        <notations>
          <tuplet type="start" bracket="no"/>
          <tuplet type="stop"/>
          <ornaments>
            <tremolo type="single">1</tremolo>
            </ornaments>
          </notations>
        </note>
      <note default-x="154.32" default-y="-30.00">
        <pitch>
          <step>G</step>
          <octave>4</octave>
          </pitch>
        <duration>240</duration>
        <voice>1</voice>
        <type>eighth</type>
        <dot/>
        <time-modification>
          <actual-notes>3</actual-notes>
          <normal-notes>2</normal-notes>
          <normal-type>16th</normal-type>
          </time-modification>
        <stem>up</stem>
        <beam number="1">continue</beam>
        <notations>
          <tuplet type="start" bracket="no"/>
          <tuplet type="stop"/>
          <ornaments>
            <tremolo type="single">1</tremolo>
            </ornaments>
          </notations>
        </note>
      <note default-x="178.04" default-y="-40.00">
        <pitch>
          <step>E</step>
          <octave>4</octave>
          </pitch>
        <duration>240</duration>
        <voice>1</voice>
        <type>eighth</type>
        <dot/>
        <time-modification>
          <actual-notes>3</actual-notes>
          <normal-notes>2</normal-notes>
          <normal-type>16th</normal-type>
          </time-modification>
        <stem>up</stem>
        <beam number="1">end</beam>
        <notations>
          <tuplet type="start" bracket="no"/>
          <tuplet type="stop"/>
          <ornaments>
            <tremolo type="single">1</tremolo>
            </ornaments>
          </notations>
        </note>
      </measure>
    <measure number="9" width="139.84">
      <note default-x="12.00" default-y="-30.00">
        <pitch>
          <step>G</step>
          <octave>4</octave>
          </pitch>
        <duration>960</duration>
        <voice>1</voice>
        <type>half</type>
        <dot/>
        <dot/>
        <time-modification>
          <actual-notes>7</actual-notes>
          <normal-notes>4</normal-notes>
          <normal-type>eighth</normal-type>
          </time-modification>
        <stem>up</stem>
        <notations>
          <tuplet type="start" bracket="no"/>
          <tuplet type="stop"/>
          <ornaments>
            <tremolo type="single">1</tremolo>
            </ornaments>
          </notations>
        </note>
      <note default-x="67.55" default-y="-35.00">
        <pitch>
          <step>F</step>
          <octave>4</octave>
          </pitch>
        <duration>480</duration>
        <voice>1</voice>
        <type>quarter</type>
        <dot/>
        <dot/>
        <time-modification>
          <actual-notes>7</actual-notes>
          <normal-notes>4</normal-notes>
          <normal-type>16th</normal-type>
          </time-modification>
        <stem>up</stem>
        <notations>
          <tuplet type="start" bracket="no"/>
          <tuplet type="stop"/>
          <ornaments>
            <tremolo type="single">2</tremolo>
            </ornaments>
          </notations>
        </note>
      <note default-x="102.05" default-y="-45.00">
        <pitch>
          <step>D</step>
          <octave>4</octave>
          </pitch>
        <duration>480</duration>
        <voice>1</voice>
        <type>quarter</type>
        <dot/>
        <dot/>
        <time-modification>
          <actual-notes>7</actual-notes>
          <normal-notes>4</normal-notes>
          <normal-type>16th</normal-type>
          </time-modification>
        <stem>up</stem>
        <notations>
          <tuplet type="start" bracket="no"/>
          <tuplet type="stop"/>
          <ornaments>
            <tremolo type="single">2</tremolo>
            </ornaments>
          </notations>
        </note>
      </measure>
    <measure number="10" width="155.10">
      <print new-system="yes">
        <system-layout>
          <system-margins>
            <left-margin>43.91</left-margin>
            <right-margin>-0.00</right-margin>
            </system-margins>
          <system-distance>137.07</system-distance>
          </system-layout>
        </print>
      <note default-x="55.68" default-y="-35.00">
        <pitch>
          <step>F</step>
          <octave>4</octave>
          </pitch>
        <duration>720</duration>
        <voice>1</voice>
        <type>half</type>
        <time-modification>
          <actual-notes>4</actual-notes>
          <normal-notes>3</normal-notes>
          </time-modification>
        <stem>up</stem>
        <notations>
          <tuplet type="start" bracket="no"/>
          <tuplet type="stop"/>
          <ornaments>
            <tremolo type="single">1</tremolo>
            </ornaments>
          </notations>
        </note>
      <note>
        <rest/>
        <duration>240</duration>
        <voice>1</voice>
        <type>eighth</type>
        </note>
      <note default-x="102.36" default-y="-35.00">
        <pitch>
          <step>F</step>
          <octave>4</octave>
          </pitch>
        <duration>720</duration>
        <voice>1</voice>
        <type>half</type>
        <time-modification>
          <actual-notes>8</actual-notes>
          <normal-notes>6</normal-notes>
          </time-modification>
        <stem>up</stem>
        <notations>
          <tuplet type="start" bracket="no"/>
          <tuplet type="stop"/>
          <ornaments>
            <tremolo type="single">2</tremolo>
            </ornaments>
          </notations>
        </note>
      <note>
        <rest/>
        <duration>240</duration>
        <voice>1</voice>
        <type>eighth</type>
        </note>
      </measure>
    <measure number="11" width="121.06">
      <note default-x="12.00" default-y="-35.00">
        <pitch>
          <step>F</step>
          <octave>4</octave>
          </pitch>
        <duration>720</duration>
        <voice>1</voice>
        <type>half</type>
        <time-modification>
          <actual-notes>4</actual-notes>
          <normal-notes>3</normal-notes>
          </time-modification>
        <stem>up</stem>
        <notations>
          <tuplet type="start" bracket="no"/>
          <tuplet type="stop"/>
          <ornaments>
            <tremolo type="single">1</tremolo>
            </ornaments>
          </notations>
        </note>
      <note>
        <rest/>
        <duration>240</duration>
        <voice>1</voice>
        <type>eighth</type>
        </note>
      <note default-x="64.48" default-y="-35.00">
        <pitch>
          <step>F</step>
          <octave>4</octave>
          </pitch>
        <duration>720</duration>
        <voice>1</voice>
        <type>half</type>
        <time-modification>
          <actual-notes>8</actual-notes>
          <normal-notes>6</normal-notes>
          </time-modification>
        <stem>up</stem>
        <notations>
          <tuplet type="start" bracket="no"/>
          <tuplet type="stop"/>
          <ornaments>
            <tremolo type="single">2</tremolo>
            </ornaments>
          </notations>
        </note>
      <note>
        <rest/>
        <duration>240</duration>
        <voice>1</voice>
        <type>eighth</type>
        </note>
      </measure>
    <measure number="12" width="104.70">
      <note default-x="12.00" default-y="-30.00">
        <pitch>
          <step>G</step>
          <octave>4</octave>
          </pitch>
        <duration>960</duration>
        <voice>1</voice>
        <type>whole</type>
        <time-modification>
          <actual-notes>2</actual-notes>
          <normal-notes>1</normal-notes>
          </time-modification>
        <notations>
          <ornaments>
            <tremolo type="start">1</tremolo>
            </ornaments>
          </notations>
        </note>
      <note default-x="55.89" default-y="-25.00">
        <pitch>
          <step>A</step>
          <octave>4</octave>
          </pitch>
        <duration>960</duration>
        <voice>1</voice>
        <type>whole</type>
        <time-modification>
          <actual-notes>2</actual-notes>
          <normal-notes>1</normal-notes>
          </time-modification>
        <notations>
          <ornaments>
            <tremolo type="stop">1</tremolo>
            </ornaments>
          </notations>
        </note>
      </measure>
    <measure number="13" width="104.70">
      <note default-x="12.00" default-y="-30.00">
        <pitch>
          <step>G</step>
          <octave>4</octave>
          </pitch>
        <duration>960</duration>
        <voice>1</voice>
        <type>whole</type>
        <time-modification>
          <actual-notes>2</actual-notes>
          <normal-notes>1</normal-notes>
          </time-modification>
        <notations>
          <ornaments>
            <tremolo type="start">2</tremolo>
            </ornaments>
          </notations>
        </note>
      <note default-x="55.89" default-y="-25.00">
        <pitch>
          <step>A</step>
          <octave>4</octave>
          </pitch>
        <duration>960</duration>
        <voice>1</voice>
        <type>whole</type>
        <time-modification>
          <actual-notes>2</actual-notes>
          <normal-notes>1</normal-notes>
          </time-modification>
        <notations>
          <ornaments>
            <tremolo type="stop">2</tremolo>
            </ornaments>
          </notations>
        </note>
      </measure>
    <measure number="14" width="128.60">
      <note default-x="12.00" default-y="-30.00">
        <pitch>
          <step>G</step>
          <octave>4</octave>
          </pitch>
        <duration>480</duration>
        <voice>1</voice>
        <type>half</type>
        <time-modification>
          <actual-notes>2</actual-notes>
          <normal-notes>1</normal-notes>
          </time-modification>
        <stem>up</stem>
        <notations>
          <ornaments>
            <tremolo type="start">1</tremolo>
            </ornaments>
          </notations>
        </note>
      <note default-x="40.66" default-y="-25.00">
        <pitch>
          <step>A</step>
          <octave>4</octave>
          </pitch>
        <duration>480</duration>
        <voice>1</voice>
        <type>half</type>
        <time-modification>
          <actual-notes>2</actual-notes>
          <normal-notes>1</normal-notes>
          </time-modification>
        <stem>up</stem>
        <notations>
          <ornaments>
            <tremolo type="stop">1</tremolo>
            </ornaments>
          </notations>
        </note>
      <note default-x="69.32" default-y="-30.00">
        <pitch>
          <step>G</step>
          <octave>4</octave>
          </pitch>
        <duration>480</duration>
        <voice>1</voice>
        <type>half</type>
        <time-modification>
          <actual-notes>2</actual-notes>
          <normal-notes>1</normal-notes>
          </time-modification>
        <stem>up</stem>
        <notations>
          <ornaments>
            <tremolo type="start">2</tremolo>
            </ornaments>
          </notations>
        </note>
      <note default-x="97.98" default-y="-25.00">
        <pitch>
          <step>A</step>
          <octave>4</octave>
          </pitch>
        <duration>480</duration>
        <voice>1</voice>
        <type>half</type>
        <time-modification>
          <actual-notes>2</actual-notes>
          <normal-notes>1</normal-notes>
          </time-modification>
        <stem>up</stem>
        <notations>
          <ornaments>
            <tremolo type="stop">2</tremolo>
            </ornaments>
          </notations>
        </note>
      </measure>
    <measure number="15" width="251.40">
      <note default-x="12.00" default-y="-30.00">
        <pitch>
          <step>G</step>
          <octave>4</octave>
          </pitch>
        <duration>240</duration>
        <voice>1</voice>
        <type>quarter</type>
        <time-modification>
          <actual-notes>2</actual-notes>
          <normal-notes>1</normal-notes>
          </time-modification>
        <stem>up</stem>
        <notations>
          <ornaments>
            <tremolo type="start">2</tremolo>
            </ornaments>
          </notations>
        </note>
      <note default-x="37.63" default-y="-25.00">
        <pitch>
          <step>A</step>
          <octave>4</octave>
          </pitch>
        <duration>240</duration>
        <voice>1</voice>
        <type>quarter</type>
        <time-modification>
          <actual-notes>2</actual-notes>
          <normal-notes>1</normal-notes>
          </time-modification>
        <stem>up</stem>
        <notations>
          <ornaments>
            <tremolo type="stop">2</tremolo>
            </ornaments>
          </notations>
        </note>
      <note default-x="63.26" default-y="-30.00">
        <pitch>
          <step>G</step>
          <octave>4</octave>
          </pitch>
        <duration>240</duration>
        <voice>1</voice>
        <type>quarter</type>
        <time-modification>
          <actual-notes>2</actual-notes>
          <normal-notes>1</normal-notes>
          </time-modification>
        <stem>up</stem>
        <notations>
          <ornaments>
            <tremolo type="start">2</tremolo>
            </ornaments>
          </notations>
        </note>
      <note default-x="88.88" default-y="-25.00">
        <pitch>
          <step>A</step>
          <octave>4</octave>
          </pitch>
        <duration>240</duration>
        <voice>1</voice>
        <type>quarter</type>
        <time-modification>
          <actual-notes>2</actual-notes>
          <normal-notes>1</normal-notes>
          </time-modification>
        <stem>up</stem>
        <notations>
          <ornaments>
            <tremolo type="stop">2</tremolo>
            </ornaments>
          </notations>
        </note>
      <note default-x="114.51" default-y="-35.00">
        <pitch>
          <step>F</step>
          <octave>4</octave>
          </pitch>
        <duration>120</duration>
        <voice>1</voice>
        <type>eighth</type>
        <time-modification>
          <actual-notes>2</actual-notes>
          <normal-notes>1</normal-notes>
          </time-modification>
        <stem>up</stem>
        <beam number="1">begin</beam>
        <notations>
          <ornaments>
            <tremolo type="start">2</tremolo>
            </ornaments>
          </notations>
        </note>
      <note default-x="130.53" default-y="-25.00">
        <pitch>
          <step>A</step>
          <octave>4</octave>
          </pitch>
        <duration>120</duration>
        <voice>1</voice>
        <type>eighth</type>
        <time-modification>
          <actual-notes>2</actual-notes>
          <normal-notes>1</normal-notes>
          </time-modification>
        <stem>up</stem>
        <beam number="1">end</beam>
        <notations>
          <ornaments>
            <tremolo type="stop">2</tremolo>
            </ornaments>
          </notations>
        </note>
      <note default-x="146.55" default-y="-30.00">
        <pitch>
          <step>G</step>
          <octave>4</octave>
          </pitch>
        <duration>120</duration>
        <voice>1</voice>
        <type>eighth</type>
        <time-modification>
          <actual-notes>2</actual-notes>
          <normal-notes>1</normal-notes>
          </time-modification>
        <stem>up</stem>
        <beam number="1">begin</beam>
        <notations>
          <ornaments>
            <tremolo type="start">2</tremolo>
            </ornaments>
          </notations>
        </note>
      <note default-x="162.56" default-y="-25.00">
        <pitch>
          <step>A</step>
          <octave>4</octave>
          </pitch>
        <duration>120</duration>
        <voice>1</voice>
        <type>eighth</type>
        <time-modification>
          <actual-notes>2</actual-notes>
          <normal-notes>1</normal-notes>
          </time-modification>
        <stem>up</stem>
        <beam number="1">end</beam>
        <notations>
          <ornaments>
            <tremolo type="stop">2</tremolo>
            </ornaments>
          </notations>
        </note>
      <note default-x="178.58" default-y="-35.00">
        <pitch>
          <step>F</step>
          <octave>4</octave>
          </pitch>
        <duration>120</duration>
        <voice>1</voice>
        <type>eighth</type>
        <time-modification>
          <actual-notes>2</actual-notes>
          <normal-notes>1</normal-notes>
          </time-modification>
        <stem>up</stem>
        <beam number="1">begin</beam>
        <notations>
          <ornaments>
            <tremolo type="start">2</tremolo>
            </ornaments>
          </notations>
        </note>
      <note default-x="194.60" default-y="-25.00">
        <pitch>
          <step>A</step>
          <octave>4</octave>
          </pitch>
        <duration>120</duration>
        <voice>1</voice>
        <type>eighth</type>
        <time-modification>
          <actual-notes>2</actual-notes>
          <normal-notes>1</normal-notes>
          </time-modification>
        <stem>up</stem>
        <beam number="1">end</beam>
        <notations>
          <ornaments>
            <tremolo type="stop">2</tremolo>
            </ornaments>
          </notations>
        </note>
      <note default-x="210.62" default-y="-30.00">
        <pitch>
          <step>G</step>
          <octave>4</octave>
          </pitch>
        <duration>120</duration>
        <voice>1</voice>
        <type>eighth</type>
        <time-modification>
          <actual-notes>2</actual-notes>
          <normal-notes>1</normal-notes>
          </time-modification>
        <stem>up</stem>
        <beam number="1">begin</beam>
        <notations>
          <ornaments>
            <tremolo type="start">2</tremolo>
            </ornaments>
          </notations>
        </note>
      <note default-x="226.63" default-y="-25.00">
        <pitch>
          <step>A</step>
          <octave>4</octave>
          </pitch>
        <duration>120</duration>
        <voice>1</voice>
        <type>eighth</type>
        <time-modification>
          <actual-notes>2</actual-notes>
          <normal-notes>1</normal-notes>
          </time-modification>
        <stem>up</stem>
        <beam number="1">end</beam>
        <notations>
          <ornaments>
            <tremolo type="stop">2</tremolo>
            </ornaments>
          </notations>
        </note>
      </measure>
    <measure number="16" width="168.02">
      <note default-x="12.00" default-y="-40.00">
        <pitch>
          <step>E</step>
          <octave>4</octave>
          </pitch>
        <duration>480</duration>
        <voice>1</voice>
        <type>half</type>
        <time-modification>
          <actual-notes>2</actual-notes>
          <normal-notes>1</normal-notes>
          </time-modification>
        <stem>down</stem>
        <notehead color="#1259D0">normal</notehead>
        <notations>
          <ornaments>
            <tremolo type="start">1</tremolo>
            </ornaments>
          </notations>
        </note>
      <note default-x="47.46" default-y="-20.00">
        <pitch>
          <step>B</step>
          <octave>4</octave>
          </pitch>
        <duration>480</duration>
        <voice>1</voice>
        <type>half</type>
        <time-modification>
          <actual-notes>2</actual-notes>
          <normal-notes>1</normal-notes>
          </time-modification>
        <stem>down</stem>
        <notehead color="#1259D0">normal</notehead>
        <notations>
          <ornaments>
            <tremolo type="stop">1</tremolo>
            </ornaments>
          </notations>
        </note>
      <note default-x="82.92" default-y="-40.00">
        <pitch>
          <step>E</step>
          <octave>4</octave>
          </pitch>
        <duration>480</duration>
        <voice>1</voice>
        <type>half</type>
        <time-modification>
          <actual-notes>2</actual-notes>
          <normal-notes>1</normal-notes>
          </time-modification>
        <stem>down</stem>
        <notehead color="#1259D0">normal</notehead>
        <notations>
          <ornaments>
            <tremolo type="start">2</tremolo>
            </ornaments>
          </notations>
        </note>
      <note default-x="118.38" default-y="-20.00">
        <pitch>
          <step>B</step>
          <octave>4</octave>
          </pitch>
        <duration>480</duration>
        <voice>1</voice>
        <type>half</type>
        <time-modification>
          <actual-notes>2</actual-notes>
          <normal-notes>1</normal-notes>
          </time-modification>
        <stem>down</stem>
        <notehead color="#1259D0">normal</notehead>
        <notations>
          <ornaments>
            <tremolo type="stop">2</tremolo>
            </ornaments>
          </notations>
        </note>
      <backup>
        <duration>1920</duration>
        </backup>
      <note default-x="24.59" default-y="-40.00">
        <pitch>
          <step>E</step>
          <octave>4</octave>
          </pitch>
        <duration>240</duration>
        <voice>2</voice>
        <type>eighth</type>
        <stem>down</stem>
        </note>
      <forward>
        <duration>240</duration>
        </forward>
      <note default-x="60.05" default-y="-20.00">
        <pitch>
          <step>B</step>
          <octave>4</octave>
          </pitch>
        <duration>240</duration>
        <voice>2</voice>
        <type>eighth</type>
        <stem>down</stem>
        </note>
      <forward>
        <duration>240</duration>
        </forward>
      <note default-x="95.51" default-y="-40.00">
        <pitch>
          <step>E</step>
          <octave>4</octave>
          </pitch>
        <duration>120</duration>
        <voice>2</voice>
        <type>16th</type>
        <stem>down</stem>
        </note>
      <forward>
        <duration>360</duration>
        </forward>
      <note default-x="130.96" default-y="-20.00">
        <pitch>
          <step>B</step>
          <octave>4</octave>
          </pitch>
        <duration>120</duration>
        <voice>2</voice>
        <type>16th</type>
        <stem>down</stem>
        </note>
      <forward>
        <duration>360</duration>
        </forward>
      </measure>
    <measure number="17" width="1033.59">
      <print new-system="yes">
        <system-layout>
          <system-margins>
            <left-margin>43.91</left-margin>
            <right-margin>0.00</right-margin>
            </system-margins>
          <system-distance>137.07</system-distance>
          </system-layout>
        </print>
      <note default-x="55.68" default-y="-30.00">
        <pitch>
          <step>G</step>
          <octave>4</octave>
          </pitch>
        <duration>960</duration>
        <voice>1</voice>
        <type>half</type>
        <stem>up</stem>
        <notations>
          <articulations>
            <staccato/>
            </articulations>
          <ornaments>
            <tremolo type="single">1</tremolo>
            </ornaments>
          </notations>
        </note>
      <note default-x="489.79" default-y="-35.00">
        <pitch>
          <step>F</step>
          <octave>4</octave>
          </pitch>
        <duration>480</duration>
        <voice>1</voice>
        <type>quarter</type>
        <dot/>
        <time-modification>
          <actual-notes>3</actual-notes>
          <normal-notes>2</normal-notes>
          <normal-type>eighth</normal-type>
          </time-modification>
        <stem>up</stem>
        <notations>
          <tuplet type="start" bracket="no"/>
          <tuplet type="stop"/>
          <articulations>
            <staccatissimo/>
            </articulations>
          <ornaments>
            <tremolo type="single">1</tremolo>
            </ornaments>
          </notations>
        </note>
      <note default-x="760.89" default-y="-35.00">
        <pitch>
          <step>F</step>
          <octave>4</octave>
          </pitch>
        <duration>480</duration>
        <voice>1</voice>
        <type>quarter</type>
        <stem>up</stem>
        <notations>
          <articulations>
            <detached-legato/>
            </articulations>
          <ornaments>
            <tremolo type="single">2</tremolo>
            </ornaments>
          </notations>
        </note>
      </measure>
    <measure number="18" width="1033.59">
      <print new-system="yes">
        <system-layout>
          <system-margins>
            <left-margin>43.91</left-margin>
            <right-margin>0.00</right-margin>
            </system-margins>
          <system-distance>137.07</system-distance>
          </system-layout>
        </print>
      <direction placement="above">
        <direction-type>
          <words font-style="italic">5</words>
          </direction-type>
        </direction>
      <note default-x="55.68" default-y="-50.00">
        <pitch>
          <step>C</step>
          <octave>4</octave>
          </pitch>
        <duration>480</duration>
        <voice>1</voice>
        <type>quarter</type>
        <stem>up</stem>
        <notehead color="#AA0000">normal</notehead>
        <notations>
          <ornaments>
            <tremolo type="single">2</tremolo>
            </ornaments>
          </notations>
        </note>
      <direction placement="above">
        <direction-type>
          <words font-style="italic">5</words>
          </direction-type>
        </direction>
      <note default-x="299.75" default-y="-45.00">
        <pitch>
          <step>D</step>
          <octave>4</octave>
          </pitch>
        <duration>480</duration>
        <voice>1</voice>
        <type>quarter</type>
        <stem>up</stem>
        <notehead color="#AA0000">normal</notehead>
        <notations>
          <ornaments>
            <tremolo type="single">2</tremolo>
            </ornaments>
          </notations>
        </note>
      <direction placement="above">
        <direction-type>
          <words font-style="italic">10</words>
          </direction-type>
        </direction>
      <note default-x="543.47" default-y="-40.00">
        <pitch>
          <step>E</step>
          <octave>4</octave>
          </pitch>
        <duration>960</duration>
        <voice>1</voice>
        <type>half</type>
        <stem>up</stem>
        <notehead color="#AA0000">normal</notehead>
        <notations>
          <ornaments>
            <tremolo type="single">2</tremolo>
            </ornaments>
          </notations>
        </note>
      </measure>
    <measure number="19" width="436.01">
      <print new-system="yes">
        <system-layout>
          <system-margins>
            <left-margin>43.91</left-margin>
            <right-margin>-0.00</right-margin>
            </system-margins>
          <system-distance>137.07</system-distance>
          </system-layout>
        </print>
      <note default-x="55.68" default-y="-40.00">
        <pitch>
          <step>E</step>
          <octave>4</octave>
          </pitch>
        <duration>960</duration>
        <voice>1</voice>
        <type>whole</type>
        <dot/>
        <time-modification>
          <actual-notes>2</actual-notes>
          <normal-notes>1</normal-notes>
          </time-modification>
        <time-modification>
          <actual-notes>12</actual-notes>
          <normal-notes>8</normal-notes>
          </time-modification>
        <notehead color="#AA0000">normal</notehead>
        <notations>
          <tuplet type="start" bracket="no"/>
          <ornaments>
            <tremolo type="start">1</tremolo>
            </ornaments>
          </notations>
        </note>
      <note default-x="242.57" default-y="-30.00">
        <pitch>
          <step>G</step>
          <octave>4</octave>
          </pitch>
        <duration>960</duration>
        <voice>1</voice>
        <type>whole</type>
        <dot/>
        <time-modification>
          <actual-notes>2</actual-notes>
          <normal-notes>1</normal-notes>
          </time-modification>
        <time-modification>
          <actual-notes>12</actual-notes>
          <normal-notes>8</normal-notes>
          </time-modification>
        <notehead color="#AA0000">normal</notehead>
        <notations>
          <tuplet type="stop"/>
          <ornaments>
            <tremolo type="stop">1</tremolo>
            </ornaments>
          </notations>
        </note>
      </measure>
    <measure number="20" width="311.08">
      <note default-x="12.00" default-y="-50.00">
        <pitch>
          <step>C</step>
          <octave>4</octave>
          </pitch>
        <duration>720</duration>
        <voice>1</voice>
        <type>whole</type>
        <time-modification>
          <actual-notes>2</actual-notes>
          <normal-notes>1</normal-notes>
          </time-modification>
        <time-modification>
          <actual-notes>8</actual-notes>
          <normal-notes>6</normal-notes>
          </time-modification>
        <notehead color="#AA0000">normal</notehead>
        <notations>
          <tuplet type="start" bracket="no"/>
          <ornaments>
            <tremolo type="start">1</tremolo>
            </ornaments>
          </notations>
        </note>
      <note default-x="131.47" default-y="-30.00">
        <pitch>
          <step>G</step>
          <octave>4</octave>
          </pitch>
        <duration>720</duration>
        <voice>1</voice>
        <type>whole</type>
        <time-modification>
          <actual-notes>2</actual-notes>
          <normal-notes>1</normal-notes>
          </time-modification>
        <time-modification>
          <actual-notes>8</actual-notes>
          <normal-notes>6</normal-notes>
          </time-modification>
        <notehead color="#AA0000">normal</notehead>
        <notations>
          <tuplet type="stop"/>
          <ornaments>
            <tremolo type="stop">1</tremolo>
            </ornaments>
          </notations>
        </note>
      <note>
        <rest/>
        <duration>480</duration>
        <voice>1</voice>
        <type>quarter</type>
        </note>
      </measure>
    <measure number="21" width="158.38">
      <note default-x="12.00" default-y="-35.00">
        <pitch>
          <step>F</step>
          <octave>4</octave>
          </pitch>
        <duration>1920</duration>
        <voice>1</voice>
        <type>whole</type>
        <notehead color="#AA0000">normal</notehead>
        </note>
      </measure>
    <measure number="22" width="128.13">
      <note default-x="12.00" default-y="-35.00">
        <pitch>
          <step>F</step>
          <octave>4</octave>
          </pitch>
        <duration>1920</duration>
        <voice>1</voice>
        <type>whole</type>
        <notehead color="#AA0000">normal</notehead>
        </note>
      </measure>
    <measure number="23" width="284.67">
      <print new-page="yes">
        <system-layout>
          <system-margins>
            <left-margin>43.91</left-margin>
            <right-margin>0.00</right-margin>
            </system-margins>
          <top-system-distance>70.00</top-system-distance>
          </system-layout>
        </print>
      <note default-x="55.68" default-y="-35.00">
        <pitch>
          <step>F</step>
          <octave>4</octave>
          </pitch>
        <duration>1920</duration>
        <voice>1</voice>
        <type>whole</type>
        <dot/>
        <time-modification>
          <actual-notes>6</actual-notes>
          <normal-notes>4</normal-notes>
          </time-modification>
        <notehead color="#AA0000">normal</notehead>
        <notations>
          <tuplet type="start" bracket="no"/>
          <tuplet type="stop"/>
          </notations>
        </note>
      </measure>
    <measure number="24" width="284.46">
      <note default-x="12.00" default-y="-35.00">
        <pitch>
          <step>F</step>
          <octave>4</octave>
          </pitch>
        <duration>1920</duration>
        <voice>1</voice>
        <type>whole</type>
        <dot/>
        <dot/>
        <time-modification>
          <actual-notes>7</actual-notes>
          <normal-notes>4</normal-notes>
          <normal-type>quarter</normal-type>
          </time-modification>
        <notehead color="#AA0000">normal</notehead>
        <notations>
          <tuplet type="start" bracket="no"/>
          <tuplet type="stop"/>
          </notations>
        </note>
      <note print-object="no">
        <rest/>
        <duration>30</duration>
        <voice>1</voice>
        <type>64th</type>
        </note>
      </measure>
    <measure number="25" width="213.84">
      <note default-x="12.00" default-y="-35.00">
        <pitch>
          <step>F</step>
          <octave>4</octave>
          </pitch>
        <duration>1440</duration>
        <voice>1</voice>
        <type>half</type>
        <dot/>
        <stem>up</stem>
        <notehead color="#AA0000">normal</notehead>
        </note>
      <note>
        <rest/>
        <duration>480</duration>
        <voice>1</voice>
        <type>quarter</type>
        </note>
      </measure>
    <measure number="26" width="250.61">
      <direction placement="above">
        <direction-type>
          <words font-style="italic">4</words>
          </direction-type>
        </direction>
      <note default-x="12.00" default-y="-35.00">
        <pitch>
          <step>F</step>
          <octave>4</octave>
          </pitch>
        <duration>1440</duration>
        <voice>1</voice>
        <type>half</type>
        <dot/>
        <stem>up</stem>
        <notehead color="#AA0000">normal</notehead>
        </note>
      <note>
        <rest/>
        <duration>480</duration>
        <voice>1</voice>
        <type>quarter</type>
        </note>
      </measure>
    <measure number="27" width="183.58">
      <print new-page="yes">
        <system-layout>
          <system-margins>
            <left-margin>43.91</left-margin>
            <right-margin>0.00</right-margin>
            </system-margins>
          <top-system-distance>70.00</top-system-distance>
          </system-layout>
        </print>
      <attributes>
        <time>
          <beats>2</beats>
          <beat-type>4</beat-type>
          </time>
        </attributes>
      <direction placement="above">
        <direction-type>
          <words>Triplet Tremolo</words>
          </direction-type>
        </direction>
      <note>
        <rest/>
        <duration>480</duration>
        <voice>1</voice>
        <type>quarter</type>
        </note>
      <note>
        <rest/>
        <duration>480</duration>
        <voice>1</voice>
        <type>quarter</type>
        </note>
      </measure>
    <measure number="28" width="153.30">
      <note>
        <rest/>
        <duration>160</duration>
        <voice>1</voice>
        <type>eighth</type>
        <time-modification>
          <actual-notes>3</actual-notes>
          <normal-notes>2</normal-notes>
          </time-modification>
        <notations>
          <tuplet type="start" bracket="yes"/>
          </notations>
        </note>
      <note>
        <rest/>
        <duration>160</duration>
        <voice>1</voice>
        <type>eighth</type>
        <time-modification>
          <actual-notes>3</actual-notes>
          <normal-notes>2</normal-notes>
          </time-modification>
        </note>
      <note>
        <rest/>
        <duration>160</duration>
        <voice>1</voice>
        <type>eighth</type>
        <time-modification>
          <actual-notes>3</actual-notes>
          <normal-notes>2</normal-notes>
          </time-modification>
        <notations>
          <tuplet type="stop"/>
          </notations>
        </note>
      <note>
        <rest/>
        <duration>480</duration>
        <voice>1</voice>
        <type>quarter</type>
        </note>
      </measure>
    <measure number="29" width="139.34">
      <note default-x="12.00" default-y="-20.00">
        <pitch>
          <step>B</step>
          <octave>4</octave>
          </pitch>
        <duration>480</duration>
        <voice>1</voice>
        <type>quarter</type>
        <dot/>
        <time-modification>
          <actual-notes>3</actual-notes>
          <normal-notes>2</normal-notes>
          <normal-type>eighth</normal-type>
          </time-modification>
        <stem>down</stem>
        <notations>
          <tuplet type="start" bracket="yes"/>
          <tuplet type="stop"/>
          </notations>
        </note>
      <note>
        <rest/>
        <duration>480</duration>
        <voice>1</voice>
        <type>quarter</type>
        </note>
      </measure>
    <measure number="30" width="139.34">
      <note default-x="12.00" default-y="-20.00">
        <pitch>
          <step>B</step>
          <octave>4</octave>
          </pitch>
        <duration>480</duration>
        <voice>1</voice>
        <type>quarter</type>
        <dot/>
        <time-modification>
          <actual-notes>3</actual-notes>
          <normal-notes>2</normal-notes>
          <normal-type>eighth</normal-type>
          </time-modification>
        <stem>down</stem>
        <notations>
          <tuplet type="start" bracket="no"/>
          <tuplet type="stop"/>
          </notations>
        </note>
      <note>
        <rest/>
        <duration>480</duration>
        <voice>1</voice>
        <type>quarter</type>
        </note>
      </measure>
    <measure number="31" width="139.34">
      <note default-x="12.00" default-y="-20.00">
        <pitch>
          <step>B</step>
          <octave>4</octave>
          </pitch>
        <duration>480</duration>
        <voice>1</voice>
        <type>quarter</type>
        <dot/>
        <time-modification>
          <actual-notes>3</actual-notes>
          <normal-notes>2</normal-notes>
          <normal-type>eighth</normal-type>
          </time-modification>
        <stem>down</stem>
        <notations>
          <tuplet type="start" bracket="no"/>
          <tuplet type="stop"/>
          <ornaments>
            <tremolo type="single">1</tremolo>
            </ornaments>
          </notations>
        </note>
      <note>
        <rest/>
        <duration>480</duration>
        <voice>1</voice>
        <type>quarter</type>
        </note>
      </measure>
    <measure number="32" width="139.34">
      <note default-x="12.00" default-y="-20.00">
        <pitch>
          <step>B</step>
          <octave>4</octave>
          </pitch>
        <duration>480</duration>
        <voice>1</voice>
        <type>quarter</type>
        <dot/>
        <time-modification>
          <actual-notes>3</actual-notes>
          <normal-notes>2</normal-notes>
          <normal-type>eighth</normal-type>
          </time-modification>
        <stem>down</stem>
        <notations>
          <tuplet type="start" bracket="no"/>
          <tuplet type="stop"/>
          <articulations>
            <staccato/>
            </articulations>
          <ornaments>
            <tremolo type="single">1</tremolo>
            </ornaments>
          </notations>
        </note>
      <note>
        <rest/>
        <duration>480</duration>
        <voice>1</voice>
        <type>quarter</type>
        </note>
      </measure>
    <measure number="33" width="139.34">
      <direction placement="above">
        <direction-type>
          <words>Symbol(Emmentaler)</words>
          </direction-type>
        </direction>
      <direction placement="above">
        <direction-type>
          <words>Staccato</words>
          </direction-type>
        </direction>
      <direction placement="above">
        <direction-type>
          <bracket type="start" number="1" line-end="none" line-type="solid"/>
          </direction-type>
        </direction>
      <direction placement="above">
        <direction-type>
          <bracket type="start" number="2" line-end="none" line-type="solid"/>
          </direction-type>
        </direction>
      <direction placement="above">
        <direction-type>
          <bracket type="start" number="3" line-end="none" line-type="solid"/>
          </direction-type>
        </direction>
      <note default-x="12.00" default-y="-20.00">
        <pitch>
          <step>B</step>
          <octave>4</octave>
          </pitch>
        <duration>480</duration>
        <voice>1</voice>
        <type>quarter</type>
        <dot/>
        <time-modification>
          <actual-notes>3</actual-notes>
          <normal-notes>2</normal-notes>
          <normal-type>eighth</normal-type>
          </time-modification>
        <stem>down</stem>
        <notations>
          <tuplet type="start" bracket="no"/>
          <tuplet type="stop"/>
          <articulations>
            <staccato/>
            </articulations>
          <ornaments>
            <tremolo type="single">1</tremolo>
            </ornaments>
          </notations>
        </note>
      <direction placement="above">
        <direction-type>
          <bracket type="stop" number="1" line-end="none"/>
          </direction-type>
        </direction>
      <direction placement="above">
        <direction-type>
          <bracket type="stop" number="2" line-end="none"/>
          </direction-type>
        </direction>
      <direction placement="above">
        <direction-type>
          <bracket type="stop" number="3" line-end="none"/>
          </direction-type>
        </direction>
      <note>
        <rest/>
        <duration>480</duration>
        <voice>1</voice>
        <type>quarter</type>
        </note>
      </measure>
    <measure number="34" width="233.29">
      <print new-system="yes">
        <system-layout>
          <system-margins>
            <left-margin>43.91</left-margin>
            <right-margin>-0.00</right-margin>
            </system-margins>
          <system-distance>150.00</system-distance>
          </system-layout>
        </print>
      <note>
        <rest/>
        <duration>960</duration>
        <voice>1</voice>
        </note>
      <backup>
        <duration>960</duration>
        </backup>
      <note default-x="55.68" default-y="-35.00">
        <pitch>
          <step>F</step>
          <octave>4</octave>
          </pitch>
        <duration>120</duration>
        <voice>2</voice>
        <type>16th</type>
        <stem>up</stem>
        </note>
      <note>
        <rest/>
        <duration>120</duration>
        <voice>2</voice>
        <type>16th</type>
        </note>
      <note>
        <rest/>
        <duration>240</duration>
        <voice>2</voice>
        <type>eighth</type>
        </note>
      <note default-x="143.68" default-y="-15.00">
        <pitch>
          <step>C</step>
          <octave>5</octave>
          </pitch>
        <duration>120</duration>
        <voice>2</voice>
        <type>16th</type>
        <stem>up</stem>
        </note>
      <note>
        <rest/>
        <duration>120</duration>
        <voice>2</voice>
        <type>16th</type>
        </note>
      <note>
        <rest/>
        <duration>240</duration>
        <voice>2</voice>
        <type>eighth</type>
        </note>
      </measure>
    <measure number="35" width="137.08">
      <note>
        <rest/>
        <duration>960</duration>
        <voice>1</voice>
        </note>
      <backup>
        <duration>960</duration>
        </backup>
      <note default-x="12.00" default-y="-35.00">
        <pitch>
          <step>F</step>
          <octave>4</octave>
          </pitch>
        <duration>120</duration>
        <voice>2</voice>
        <type>16th</type>
        <stem>up</stem>
        </note>
      <forward>
        <duration>360</duration>
        </forward>
      <note default-x="73.74" default-y="-15.00">
        <pitch>
          <step>C</step>
          <octave>5</octave>
          </pitch>
        <duration>120</duration>
        <voice>2</voice>
        <type>16th</type>
        <stem>up</stem>
        </note>
      <forward>
        <duration>360</duration>
        </forward>
      </measure>
    <measure number="36" width="125.95">
      <note>
        <rest/>
        <duration>960</duration>
        <voice>1</voice>
        </note>
      <backup>
        <duration>960</duration>
        </backup>
      <note default-x="12.00" default-y="-35.00">
        <pitch>
          <step>F</step>
          <octave>4</octave>
          </pitch>
        <duration>120</duration>
        <voice>2</voice>
        <type>16th</type>
        <stem>down</stem>
        </note>
      <forward>
        <duration>360</duration>
        </forward>
      <note default-x="68.17" default-y="-15.00">
        <pitch>
          <step>C</step>
          <octave>5</octave>
          </pitch>
        <duration>120</duration>
        <voice>2</voice>
        <type>16th</type>
        <stem>down</stem>
        </note>
      <forward>
        <duration>360</duration>
        </forward>
      </measure>
    <measure number="37" width="125.95">
      <direction placement="above">
        <direction-type>
          <words>Play Check Off
</words>
          <words>Mirror head-Left</words>
          </direction-type>
        </direction>
      <note>
        <rest/>
        <duration>960</duration>
        <voice>1</voice>
        </note>
      <backup>
        <duration>960</duration>
        </backup>
      <note default-x="12.00" default-y="-35.00">
        <pitch>
          <step>F</step>
          <octave>4</octave>
          </pitch>
        <duration>120</duration>
        <voice>2</voice>
        <type>16th</type>
        <stem>down</stem>
        </note>
      <forward>
        <duration>360</duration>
        </forward>
      <note default-x="68.17" default-y="-15.00">
        <pitch>
          <step>C</step>
          <octave>5</octave>
          </pitch>
        <duration>120</duration>
        <voice>2</voice>
        <type>16th</type>
        <stem>down</stem>
        </note>
      <forward>
        <duration>360</duration>
        </forward>
      </measure>
    <measure number="38" width="133.14">
      <note default-x="12.00" default-y="-35.00">
        <pitch>
          <step>F</step>
          <octave>4</octave>
          </pitch>
        <duration>480</duration>
        <voice>1</voice>
        <type>quarter</type>
        <stem>down</stem>
        </note>
      <note default-x="65.84" default-y="-15.00">
        <pitch>
          <step>C</step>
          <octave>5</octave>
          </pitch>
        <duration>480</duration>
        <voice>1</voice>
        <type>quarter</type>
        <stem>down</stem>
        </note>
      <backup>
        <duration>960</duration>
        </backup>
      <note default-x="23.87" default-y="-35.00">
        <pitch>
          <step>F</step>
          <octave>4</octave>
          </pitch>
        <duration>120</duration>
        <voice>2</voice>
        <type>16th</type>
        <stem>down</stem>
        </note>
      <forward>
        <duration>360</duration>
        </forward>
      <note default-x="77.70" default-y="-15.00">
        <pitch>
          <step>C</step>
          <octave>5</octave>
          </pitch>
        <duration>120</duration>
        <voice>2</voice>
        <type>16th</type>
        <stem>down</stem>
        </note>
      <forward>
        <duration>360</duration>
        </forward>
      </measure>
    <measure number="39" width="134.59">
      <note default-x="12.00" default-y="-35.00">
        <pitch>
          <step>F</step>
          <octave>4</octave>
          </pitch>
        <duration>480</duration>
        <voice>1</voice>
        <type>half</type>
        <time-modification>
          <actual-notes>2</actual-notes>
          <normal-notes>1</normal-notes>
          </time-modification>
        <stem>down</stem>
        <notations>
          <ornaments>
            <tremolo type="start">2</tremolo>
            </ornaments>
          </notations>
        </note>
      <note default-x="66.20" default-y="-15.00">
        <pitch>
          <step>C</step>
          <octave>5</octave>
          </pitch>
        <duration>480</duration>
        <voice>1</voice>
        <type>half</type>
        <time-modification>
          <actual-notes>2</actual-notes>
          <normal-notes>1</normal-notes>
          </time-modification>
        <stem>down</stem>
        <notations>
          <ornaments>
            <tremolo type="stop">2</tremolo>
            </ornaments>
          </notations>
        </note>
      <backup>
        <duration>960</duration>
        </backup>
      <note default-x="24.59" default-y="-35.00">
        <pitch>
          <step>F</step>
          <octave>4</octave>
          </pitch>
        <duration>120</duration>
        <voice>2</voice>
        <type>16th</type>
        <stem>down</stem>
        </note>
      <forward>
        <duration>360</duration>
        </forward>
      <note default-x="78.79" default-y="-15.00">
        <pitch>
          <step>C</step>
          <octave>5</octave>
          </pitch>
        <duration>120</duration>
        <voice>2</voice>
        <type>16th</type>
        <stem>down</stem>
        </note>
      <forward>
        <duration>360</duration>
        </forward>
      </measure>
    <measure number="40" width="143.59">
      <note default-x="12.00" default-y="-35.00">
        <pitch>
          <step>F</step>
          <octave>4</octave>
          </pitch>
        <duration>480</duration>
        <voice>1</voice>
        <type>half</type>
        <time-modification>
          <actual-notes>2</actual-notes>
          <normal-notes>1</normal-notes>
          </time-modification>
        <stem>down</stem>
        <notations>
          <ornaments>
            <tremolo type="start">2</tremolo>
            </ornaments>
          </notations>
        </note>
      <note default-x="66.20" default-y="-15.00">
        <pitch>
          <step>C</step>
          <octave>5</octave>
          </pitch>
        <duration>480</duration>
        <voice>1</voice>
        <type>half</type>
        <time-modification>
          <actual-notes>2</actual-notes>
          <normal-notes>1</normal-notes>
          </time-modification>
        <stem>down</stem>
        <notations>
          <ornaments>
            <tremolo type="stop">2</tremolo>
            </ornaments>
          </notations>
        </note>
      <backup>
        <duration>960</duration>
        </backup>
      <note default-x="24.59" default-y="-35.00">
        <pitch>
          <step>F</step>
          <octave>4</octave>
          </pitch>
        <duration>120</duration>
        <voice>2</voice>
        <type>16th</type>
        <stem>down</stem>
        </note>
      <forward>
        <duration>360</duration>
        </forward>
      <note default-x="78.79" default-y="-15.00">
        <pitch>
          <step>C</step>
          <octave>5</octave>
          </pitch>
        <duration>120</duration>
        <voice>2</voice>
        <type>16th</type>
        <stem>down</stem>
        </note>
      <forward>
        <duration>360</duration>
        </forward>
      <barline location="right">
        <bar-style>light-heavy</bar-style>
        </barline>
      </measure>
    </part>
  <part id="P2">
    <measure number="1" width="130.47">
      <print>
        <staff-layout number="1">
          <staff-distance>65.00</staff-distance>
          </staff-layout>
        </print>
      <attributes>
        <divisions>480</divisions>
        <key>
          <fifths>0</fifths>
          <mode>none</mode>
          </key>
        <time>
          <beats>4</beats>
          <beat-type>4</beat-type>
          </time>
        <clef>
          <sign>G</sign>
          <line>2</line>
          </clef>
        </attributes>
      <note>
        <rest/>
        <duration>1920</duration>
        <voice>1</voice>
        </note>
      </measure>
    <measure number="2" width="72.38">
      <note>
        <rest/>
        <duration>1920</duration>
        <voice>1</voice>
        </note>
      </measure>
    <measure number="3" width="100.75">
      <note>
        <rest/>
        <duration>1920</duration>
        <voice>1</voice>
        </note>
      </measure>
    <measure number="4" width="72.38">
      <note>
        <rest/>
        <duration>1920</duration>
        <voice>1</voice>
        </note>
      </measure>
    <measure number="5" width="85.80">
      <note>
        <rest/>
        <duration>1920</duration>
        <voice>1</voice>
        </note>
      </measure>
    <measure number="6" width="80.41">
      <note>
        <rest/>
        <duration>1920</duration>
        <voice>1</voice>
        </note>
      </measure>
    <measure number="7" width="124.84">
      <note>
        <rest/>
        <duration>1920</duration>
        <voice>1</voice>
        </note>
      </measure>
    <measure number="8" width="210.84">
      <note>
        <rest/>
        <duration>1920</duration>
        <voice>1</voice>
        </note>
      </measure>
    <measure number="9" width="139.84">
      <note>
        <rest/>
        <duration>1920</duration>
        <voice>1</voice>
        </note>
      </measure>
    <measure number="10" width="155.10">
      <print new-system="yes">
        <staff-layout number="1">
          <staff-distance>65.00</staff-distance>
          </staff-layout>
        </print>
      <note>
        <rest/>
        <duration>1920</duration>
        <voice>1</voice>
        </note>
      </measure>
    <measure number="11" width="121.06">
      <note>
        <rest/>
        <duration>1920</duration>
        <voice>1</voice>
        </note>
      </measure>
    <measure number="12" width="104.70">
      <note>
        <rest/>
        <duration>1920</duration>
        <voice>1</voice>
        </note>
      </measure>
    <measure number="13" width="104.70">
      <note>
        <rest/>
        <duration>1920</duration>
        <voice>1</voice>
        </note>
      </measure>
    <measure number="14" width="128.60">
      <note>
        <rest/>
        <duration>1920</duration>
        <voice>1</voice>
        </note>
      </measure>
    <measure number="15" width="251.40">
      <note>
        <rest/>
        <duration>1920</duration>
        <voice>1</voice>
        </note>
      </measure>
    <measure number="16" width="168.02">
      <note>
        <rest/>
        <duration>1920</duration>
        <voice>1</voice>
        </note>
      </measure>
    <measure number="17" width="1033.59">
      <print new-system="yes">
        <staff-layout number="1">
          <staff-distance>65.00</staff-distance>
          </staff-layout>
        </print>
      <note>
        <rest/>
        <duration>1920</duration>
        <voice>1</voice>
        </note>
      </measure>
    <measure number="18" width="1033.59">
      <print new-system="yes">
        <staff-layout number="1">
          <staff-distance>65.00</staff-distance>
          </staff-layout>
        </print>
      <note default-x="55.68" default-y="-155.00">
        <pitch>
          <step>C</step>
          <octave>4</octave>
          </pitch>
        <duration>96</duration>
        <voice>1</voice>
        <type>16th</type>
        <time-modification>
          <actual-notes>5</actual-notes>
          <normal-notes>4</normal-notes>
          </time-modification>
        <stem>up</stem>
        <notations>
          <tuplet type="start" bracket="no"/>
          </notations>
        </note>
      <note default-x="104.49" default-y="-155.00">
        <pitch>
          <step>C</step>
          <octave>4</octave>
          </pitch>
        <duration>96</duration>
        <voice>1</voice>
        <type>16th</type>
        <time-modification>
          <actual-notes>5</actual-notes>
          <normal-notes>4</normal-notes>
          </time-modification>
        <stem>up</stem>
        </note>
      <note default-x="153.31" default-y="-155.00">
        <pitch>
          <step>C</step>
          <octave>4</octave>
          </pitch>
        <duration>96</duration>
        <voice>1</voice>
        <type>16th</type>
        <time-modification>
          <actual-notes>5</actual-notes>
          <normal-notes>4</normal-notes>
          </time-modification>
        <stem>up</stem>
        </note>
      <note default-x="202.12" default-y="-155.00">
        <pitch>
          <step>C</step>
          <octave>4</octave>
          </pitch>
        <duration>96</duration>
        <voice>1</voice>
        <type>16th</type>
        <time-modification>
          <actual-notes>5</actual-notes>
          <normal-notes>4</normal-notes>
          </time-modification>
        <stem>up</stem>
        </note>
      <note default-x="250.94" default-y="-155.00">
        <pitch>
          <step>C</step>
          <octave>4</octave>
          </pitch>
        <duration>96</duration>
        <voice>1</voice>
        <type>16th</type>
        <time-modification>
          <actual-notes>5</actual-notes>
          <normal-notes>4</normal-notes>
          </time-modification>
        <stem>up</stem>
        <notations>
          <tuplet type="stop"/>
          </notations>
        </note>
      <note default-x="299.75" default-y="-150.00">
        <pitch>
          <step>D</step>
          <octave>4</octave>
          </pitch>
        <duration>96</duration>
        <voice>1</voice>
        <type>16th</type>
        <time-modification>
          <actual-notes>5</actual-notes>
          <normal-notes>4</normal-notes>
          </time-modification>
        <stem>up</stem>
        <notations>
          <tuplet type="start" bracket="no"/>
          </notations>
        </note>
      <note default-x="348.57" default-y="-150.00">
        <pitch>
          <step>D</step>
          <octave>4</octave>
          </pitch>
        <duration>96</duration>
        <voice>1</voice>
        <type>16th</type>
        <time-modification>
          <actual-notes>5</actual-notes>
          <normal-notes>4</normal-notes>
          </time-modification>
        <stem>up</stem>
        </note>
      <note default-x="397.38" default-y="-150.00">
        <pitch>
          <step>D</step>
          <octave>4</octave>
          </pitch>
        <duration>96</duration>
        <voice>1</voice>
        <type>16th</type>
        <time-modification>
          <actual-notes>5</actual-notes>
          <normal-notes>4</normal-notes>
          </time-modification>
        <stem>up</stem>
        </note>
      <note default-x="446.20" default-y="-150.00">
        <pitch>
          <step>D</step>
          <octave>4</octave>
          </pitch>
        <duration>96</duration>
        <voice>1</voice>
        <type>16th</type>
        <time-modification>
          <actual-notes>5</actual-notes>
          <normal-notes>4</normal-notes>
          </time-modification>
        <stem>up</stem>
        </note>
      <note default-x="495.02" default-y="-150.00">
        <pitch>
          <step>D</step>
          <octave>4</octave>
          </pitch>
        <duration>96</duration>
        <voice>1</voice>
        <type>16th</type>
        <time-modification>
          <actual-notes>5</actual-notes>
          <normal-notes>4</normal-notes>
          </time-modification>
        <stem>up</stem>
        <notations>
          <tuplet type="stop"/>
          </notations>
        </note>
      <note default-x="543.83" default-y="-145.00">
        <pitch>
          <step>E</step>
          <octave>4</octave>
          </pitch>
        <duration>96</duration>
        <voice>1</voice>
        <type>16th</type>
        <time-modification>
          <actual-notes>5</actual-notes>
          <normal-notes>4</normal-notes>
          <normal-type>eighth</normal-type>
          </time-modification>
        <stem>up</stem>
        <notations>
          <tuplet type="start" bracket="no"/>
          </notations>
        </note>
      <note default-x="592.65" default-y="-145.00">
        <pitch>
          <step>E</step>
          <octave>4</octave>
          </pitch>
        <duration>96</duration>
        <voice>1</voice>
        <type>16th</type>
        <time-modification>
          <actual-notes>5</actual-notes>
          <normal-notes>4</normal-notes>
          <normal-type>eighth</normal-type>
          </time-modification>
        <stem>up</stem>
        </note>
      <note default-x="641.46" default-y="-145.00">
        <pitch>
          <step>E</step>
          <octave>4</octave>
          </pitch>
        <duration>96</duration>
        <voice>1</voice>
        <type>16th</type>
        <time-modification>
          <actual-notes>5</actual-notes>
          <normal-notes>4</normal-notes>
          <normal-type>eighth</normal-type>
          </time-modification>
        <stem>up</stem>
        </note>
      <note default-x="690.28" default-y="-145.00">
        <pitch>
          <step>E</step>
          <octave>4</octave>
          </pitch>
        <duration>96</duration>
        <voice>1</voice>
        <type>16th</type>
        <time-modification>
          <actual-notes>5</actual-notes>
          <normal-notes>4</normal-notes>
          <normal-type>eighth</normal-type>
          </time-modification>
        <stem>up</stem>
        </note>
      <note default-x="739.09" default-y="-145.00">
        <pitch>
          <step>E</step>
          <octave>4</octave>
          </pitch>
        <duration>96</duration>
        <voice>1</voice>
        <type>16th</type>
        <time-modification>
          <actual-notes>5</actual-notes>
          <normal-notes>4</normal-notes>
          <normal-type>eighth</normal-type>
          </time-modification>
        <stem>up</stem>
        </note>
      <note default-x="787.91" default-y="-145.00">
        <pitch>
          <step>E</step>
          <octave>4</octave>
          </pitch>
        <duration>96</duration>
        <voice>1</voice>
        <type>16th</type>
        <time-modification>
          <actual-notes>5</actual-notes>
          <normal-notes>4</normal-notes>
          <normal-type>eighth</normal-type>
          </time-modification>
        <stem>up</stem>
        </note>
      <note default-x="836.73" default-y="-145.00">
        <pitch>
          <step>E</step>
          <octave>4</octave>
          </pitch>
        <duration>96</duration>
        <voice>1</voice>
        <type>16th</type>
        <time-modification>
          <actual-notes>5</actual-notes>
          <normal-notes>4</normal-notes>
          <normal-type>eighth</normal-type>
          </time-modification>
        <stem>up</stem>
        </note>
      <note default-x="885.54" default-y="-145.00">
        <pitch>
          <step>E</step>
          <octave>4</octave>
          </pitch>
        <duration>96</duration>
        <voice>1</voice>
        <type>16th</type>
        <time-modification>
          <actual-notes>5</actual-notes>
          <normal-notes>4</normal-notes>
          <normal-type>eighth</normal-type>
          </time-modification>
        <stem>up</stem>
        </note>
      <note default-x="934.36" default-y="-145.00">
        <pitch>
          <step>E</step>
          <octave>4</octave>
          </pitch>
        <duration>96</duration>
        <voice>1</voice>
        <type>16th</type>
        <time-modification>
          <actual-notes>5</actual-notes>
          <normal-notes>4</normal-notes>
          <normal-type>eighth</normal-type>
          </time-modification>
        <stem>up</stem>
        </note>
      <note default-x="983.17" default-y="-145.00">
        <pitch>
          <step>E</step>
          <octave>4</octave>
          </pitch>
        <duration>96</duration>
        <voice>1</voice>
        <type>16th</type>
        <time-modification>
          <actual-notes>5</actual-notes>
          <normal-notes>4</normal-notes>
          <normal-type>eighth</normal-type>
          </time-modification>
        <stem>up</stem>
        <notations>
          <tuplet type="stop"/>
          </notations>
        </note>
      </measure>
    <measure number="19" width="436.01">
      <print new-system="yes">
        <staff-layout number="1">
          <staff-distance>65.00</staff-distance>
          </staff-layout>
        </print>
      <note default-x="59.00" default-y="-145.00">
        <pitch>
          <step>E</step>
          <octave>4</octave>
          </pitch>
        <duration>160</duration>
        <voice>1</voice>
        <type>eighth</type>
        <time-modification>
          <actual-notes>6</actual-notes>
          <normal-notes>4</normal-notes>
          <normal-type>quarter</normal-type>
          </time-modification>
        <stem>up</stem>
        <notations>
          <tuplet type="start" bracket="no"/>
          </notations>
        </note>
      <note default-x="90.14" default-y="-135.00">
        <pitch>
          <step>G</step>
          <octave>4</octave>
          </pitch>
        <duration>160</duration>
        <voice>1</voice>
        <type>eighth</type>
        <time-modification>
          <actual-notes>6</actual-notes>
          <normal-notes>4</normal-notes>
          <normal-type>quarter</normal-type>
          </time-modification>
        <stem>up</stem>
        </note>
      <note default-x="121.29" default-y="-145.00">
        <pitch>
          <step>E</step>
          <octave>4</octave>
          </pitch>
        <duration>160</duration>
        <voice>1</voice>
        <type>eighth</type>
        <time-modification>
          <actual-notes>6</actual-notes>
          <normal-notes>4</normal-notes>
          <normal-type>quarter</normal-type>
          </time-modification>
        <stem>up</stem>
        </note>
      <note default-x="152.44" default-y="-135.00">
        <pitch>
          <step>G</step>
          <octave>4</octave>
          </pitch>
        <duration>160</duration>
        <voice>1</voice>
        <type>eighth</type>
        <time-modification>
          <actual-notes>6</actual-notes>
          <normal-notes>4</normal-notes>
          <normal-type>quarter</normal-type>
          </time-modification>
        <stem>up</stem>
        </note>
      <note default-x="183.59" default-y="-145.00">
        <pitch>
          <step>E</step>
          <octave>4</octave>
          </pitch>
        <duration>160</duration>
        <voice>1</voice>
        <type>eighth</type>
        <time-modification>
          <actual-notes>6</actual-notes>
          <normal-notes>4</normal-notes>
          <normal-type>quarter</normal-type>
          </time-modification>
        <stem>up</stem>
        </note>
      <note default-x="214.74" default-y="-135.00">
        <pitch>
          <step>G</step>
          <octave>4</octave>
          </pitch>
        <duration>160</duration>
        <voice>1</voice>
        <type>eighth</type>
        <time-modification>
          <actual-notes>6</actual-notes>
          <normal-notes>4</normal-notes>
          <normal-type>quarter</normal-type>
          </time-modification>
        <stem>up</stem>
        </note>
      <note default-x="245.89" default-y="-145.00">
        <pitch>
          <step>E</step>
          <octave>4</octave>
          </pitch>
        <duration>160</duration>
        <voice>1</voice>
        <type>eighth</type>
        <time-modification>
          <actual-notes>6</actual-notes>
          <normal-notes>4</normal-notes>
          <normal-type>quarter</normal-type>
          </time-modification>
        <stem>up</stem>
        </note>
      <note default-x="277.04" default-y="-135.00">
        <pitch>
          <step>G</step>
          <octave>4</octave>
          </pitch>
        <duration>160</duration>
        <voice>1</voice>
        <type>eighth</type>
        <time-modification>
          <actual-notes>6</actual-notes>
          <normal-notes>4</normal-notes>
          <normal-type>quarter</normal-type>
          </time-modification>
        <stem>up</stem>
        </note>
      <note default-x="308.19" default-y="-145.00">
        <pitch>
          <step>E</step>
          <octave>4</octave>
          </pitch>
        <duration>160</duration>
        <voice>1</voice>
        <type>eighth</type>
        <time-modification>
          <actual-notes>6</actual-notes>
          <normal-notes>4</normal-notes>
          <normal-type>quarter</normal-type>
          </time-modification>
        <stem>up</stem>
        </note>
      <note default-x="339.34" default-y="-135.00">
        <pitch>
          <step>G</step>
          <octave>4</octave>
          </pitch>
        <duration>160</duration>
        <voice>1</voice>
        <type>eighth</type>
        <time-modification>
          <actual-notes>6</actual-notes>
          <normal-notes>4</normal-notes>
          <normal-type>quarter</normal-type>
          </time-modification>
        <stem>up</stem>
        </note>
      <note default-x="370.48" default-y="-145.00">
        <pitch>
          <step>E</step>
          <octave>4</octave>
          </pitch>
        <duration>160</duration>
        <voice>1</voice>
        <type>eighth</type>
        <time-modification>
          <actual-notes>6</actual-notes>
          <normal-notes>4</normal-notes>
          <normal-type>quarter</normal-type>
          </time-modification>
        <stem>up</stem>
        </note>
      <note default-x="401.63" default-y="-135.00">
        <pitch>
          <step>G</step>
          <octave>4</octave>
          </pitch>
        <duration>160</duration>
        <voice>1</voice>
        <type>eighth</type>
        <time-modification>
          <actual-notes>6</actual-notes>
          <normal-notes>4</normal-notes>
          <normal-type>quarter</normal-type>
          </time-modification>
        <stem>up</stem>
        <notations>
          <tuplet type="stop"/>
          </notations>
        </note>
      </measure>
    <measure number="20" width="311.08">
      <note default-x="15.32" default-y="-155.00">
        <pitch>
          <step>C</step>
          <octave>4</octave>
          </pitch>
        <duration>180</duration>
        <voice>1</voice>
        <type>eighth</type>
        <time-modification>
          <actual-notes>8</actual-notes>
          <normal-notes>6</normal-notes>
          </time-modification>
        <stem>up</stem>
        <notations>
          <tuplet type="start" bracket="no"/>
          </notations>
        </note>
      <note default-x="45.19" default-y="-135.00">
        <pitch>
          <step>G</step>
          <octave>4</octave>
          </pitch>
        <duration>180</duration>
        <voice>1</voice>
        <type>eighth</type>
        <time-modification>
          <actual-notes>8</actual-notes>
          <normal-notes>6</normal-notes>
          </time-modification>
        <stem>up</stem>
        </note>
      <note default-x="75.05" default-y="-155.00">
        <pitch>
          <step>C</step>
          <octave>4</octave>
          </pitch>
        <duration>180</duration>
        <voice>1</voice>
        <type>eighth</type>
        <time-modification>
          <actual-notes>8</actual-notes>
          <normal-notes>6</normal-notes>
          </time-modification>
        <stem>up</stem>
        </note>
      <note default-x="104.92" default-y="-135.00">
        <pitch>
          <step>G</step>
          <octave>4</octave>
          </pitch>
        <duration>180</duration>
        <voice>1</voice>
        <type>eighth</type>
        <time-modification>
          <actual-notes>8</actual-notes>
          <normal-notes>6</normal-notes>
          </time-modification>
        <stem>up</stem>
        </note>
      <note default-x="134.79" default-y="-155.00">
        <pitch>
          <step>C</step>
          <octave>4</octave>
          </pitch>
        <duration>180</duration>
        <voice>1</voice>
        <type>eighth</type>
        <time-modification>
          <actual-notes>8</actual-notes>
          <normal-notes>6</normal-notes>
          </time-modification>
        <stem>up</stem>
        </note>
      <note default-x="164.65" default-y="-135.00">
        <pitch>
          <step>G</step>
          <octave>4</octave>
          </pitch>
        <duration>180</duration>
        <voice>1</voice>
        <type>eighth</type>
        <time-modification>
          <actual-notes>8</actual-notes>
          <normal-notes>6</normal-notes>
          </time-modification>
        <stem>up</stem>
        </note>
      <note default-x="194.52" default-y="-155.00">
        <pitch>
          <step>C</step>
          <octave>4</octave>
          </pitch>
        <duration>180</duration>
        <voice>1</voice>
        <type>eighth</type>
        <time-modification>
          <actual-notes>8</actual-notes>
          <normal-notes>6</normal-notes>
          </time-modification>
        <stem>up</stem>
        </note>
      <note default-x="224.39" default-y="-135.00">
        <pitch>
          <step>G</step>
          <octave>4</octave>
          </pitch>
        <duration>180</duration>
        <voice>1</voice>
        <type>eighth</type>
        <time-modification>
          <actual-notes>8</actual-notes>
          <normal-notes>6</normal-notes>
          </time-modification>
        <stem>up</stem>
        <notations>
          <tuplet type="stop"/>
          </notations>
        </note>
      <note>
        <rest/>
        <duration>480</duration>
        <voice>1</voice>
        <type>quarter</type>
        </note>
      </measure>
    <measure number="21" width="158.38">
      <note default-x="15.32" default-y="-140.00">
        <pitch>
          <step>F</step>
          <octave>4</octave>
          </pitch>
        <duration>480</duration>
        <voice>1</voice>
        <type>quarter</type>
        <stem>up</stem>
        </note>
      <note default-x="50.68" default-y="-140.00">
        <pitch>
          <step>F</step>
          <octave>4</octave>
          </pitch>
        <duration>480</duration>
        <voice>1</voice>
        <type>quarter</type>
        <stem>up</stem>
        </note>
      <note default-x="86.05" default-y="-140.00">
        <pitch>
          <step>F</step>
          <octave>4</octave>
          </pitch>
        <duration>480</duration>
        <voice>1</voice>
        <type>quarter</type>
        <stem>up</stem>
        </note>
      <note default-x="121.41" default-y="-140.00">
        <pitch>
          <step>F</step>
          <octave>4</octave>
          </pitch>
        <duration>480</duration>
        <voice>1</voice>
        <type>quarter</type>
        <stem>up</stem>
        </note>
      </measure>
    <measure number="22" width="128.13">
      <note default-x="14.96" default-y="-140.00">
        <pitch>
          <step>F</step>
          <octave>4</octave>
          </pitch>
        <duration>960</duration>
        <voice>1</voice>
        <type>half</type>
        <stem>up</stem>
        </note>
      <note default-x="70.56" default-y="-140.00">
        <pitch>
          <step>F</step>
          <octave>4</octave>
          </pitch>
        <duration>960</duration>
        <voice>1</voice>
        <type>half</type>
        <stem>up</stem>
        </note>
      </measure>
    <measure number="23" width="284.67">
      <print new-page="yes">
        <staff-layout number="1">
          <staff-distance>65.00</staff-distance>
          </staff-layout>
        </print>
      <note default-x="59.00" default-y="-140.00">
        <pitch>
          <step>F</step>
          <octave>4</octave>
          </pitch>
        <duration>320</duration>
        <voice>1</voice>
        <type>quarter</type>
        <time-modification>
          <actual-notes>6</actual-notes>
          <normal-notes>4</normal-notes>
          </time-modification>
        <stem>up</stem>
        <notations>
          <tuplet type="start" bracket="no"/>
          </notations>
        </note>
      <note default-x="96.34" default-y="-140.00">
        <pitch>
          <step>F</step>
          <octave>4</octave>
          </pitch>
        <duration>320</duration>
        <voice>1</voice>
        <type>quarter</type>
        <time-modification>
          <actual-notes>6</actual-notes>
          <normal-notes>4</normal-notes>
          </time-modification>
        <stem>up</stem>
        </note>
      <note default-x="133.69" default-y="-140.00">
        <pitch>
          <step>F</step>
          <octave>4</octave>
          </pitch>
        <duration>320</duration>
        <voice>1</voice>
        <type>quarter</type>
        <time-modification>
          <actual-notes>6</actual-notes>
          <normal-notes>4</normal-notes>
          </time-modification>
        <stem>up</stem>
        </note>
      <note default-x="171.03" default-y="-140.00">
        <pitch>
          <step>F</step>
          <octave>4</octave>
          </pitch>
        <duration>320</duration>
        <voice>1</voice>
        <type>quarter</type>
        <time-modification>
          <actual-notes>6</actual-notes>
          <normal-notes>4</normal-notes>
          </time-modification>
        <stem>up</stem>
        </note>
      <note default-x="208.38" default-y="-140.00">
        <pitch>
          <step>F</step>
          <octave>4</octave>
          </pitch>
        <duration>320</duration>
        <voice>1</voice>
        <type>quarter</type>
        <time-modification>
          <actual-notes>6</actual-notes>
          <normal-notes>4</normal-notes>
          </time-modification>
        <stem>up</stem>
        </note>
      <note default-x="245.72" default-y="-140.00">
        <pitch>
          <step>F</step>
          <octave>4</octave>
          </pitch>
        <duration>320</duration>
        <voice>1</voice>
        <type>quarter</type>
        <time-modification>
          <actual-notes>6</actual-notes>
          <normal-notes>4</normal-notes>
          </time-modification>
        <stem>up</stem>
        <notations>
          <tuplet type="stop"/>
          </notations>
        </note>
      </measure>
    <measure number="24" width="284.46">
      <note default-x="15.32" default-y="-140.00">
        <pitch>
          <step>F</step>
          <octave>4</octave>
          </pitch>
        <duration>274</duration>
        <voice>1</voice>
        <type>quarter</type>
        <time-modification>
          <actual-notes>7</actual-notes>
          <normal-notes>4</normal-notes>
          </time-modification>
        <stem>up</stem>
        <notations>
          <tuplet type="start" bracket="no"/>
          </notations>
        </note>
      <note default-x="50.10" default-y="-140.00">
        <pitch>
          <step>F</step>
          <octave>4</octave>
          </pitch>
        <duration>274</duration>
        <voice>1</voice>
        <type>quarter</type>
        <time-modification>
          <actual-notes>7</actual-notes>
          <normal-notes>4</normal-notes>
          </time-modification>
        <stem>up</stem>
        </note>
      <forward>
        <duration>1</duration>
        </forward>
      <note default-x="84.92" default-y="-140.00">
        <pitch>
          <step>F</step>
          <octave>4</octave>
          </pitch>
        <duration>274</duration>
        <voice>1</voice>
        <type>quarter</type>
        <time-modification>
          <actual-notes>7</actual-notes>
          <normal-notes>4</normal-notes>
          </time-modification>
        <stem>up</stem>
        </note>
      <note default-x="119.71" default-y="-140.00">
        <pitch>
          <step>F</step>
          <octave>4</octave>
          </pitch>
        <duration>274</duration>
        <voice>1</voice>
        <type>quarter</type>
        <time-modification>
          <actual-notes>7</actual-notes>
          <normal-notes>4</normal-notes>
          </time-modification>
        <stem>up</stem>
        </note>
      <note default-x="154.49" default-y="-140.00">
        <pitch>
          <step>F</step>
          <octave>4</octave>
          </pitch>
        <duration>274</duration>
        <voice>1</voice>
        <type>quarter</type>
        <time-modification>
          <actual-notes>7</actual-notes>
          <normal-notes>4</normal-notes>
          </time-modification>
        <stem>up</stem>
        </note>
      <note default-x="189.27" default-y="-140.00">
        <pitch>
          <step>F</step>
          <octave>4</octave>
          </pitch>
        <duration>274</duration>
        <voice>1</voice>
        <type>quarter</type>
        <time-modification>
          <actual-notes>7</actual-notes>
          <normal-notes>4</normal-notes>
          </time-modification>
        <stem>up</stem>
        </note>
      <forward>
        <duration>1</duration>
        </forward>
      <note default-x="224.10" default-y="-140.00">
        <pitch>
          <step>F</step>
          <octave>4</octave>
          </pitch>
        <duration>274</duration>
        <voice>1</voice>
        <type>quarter</type>
        <time-modification>
          <actual-notes>7</actual-notes>
          <normal-notes>4</normal-notes>
          </time-modification>
        <stem>up</stem>
        <notations>
          <tuplet type="stop"/>
          </notations>
        </note>
      <note print-object="no">
        <rest/>
        <duration>30</duration>
        <voice>1</voice>
        <type>64th</type>
        </note>
      </measure>
    <measure number="25" width="213.84">
      <note default-x="12.36" default-y="-140.00">
        <pitch>
          <step>F</step>
          <octave>4</octave>
          </pitch>
        <duration>480</duration>
        <voice>1</voice>
        <type>quarter</type>
        <stem>up</stem>
        </note>
      <note default-x="62.33" default-y="-140.00">
        <pitch>
          <step>F</step>
          <octave>4</octave>
          </pitch>
        <duration>480</duration>
        <voice>1</voice>
        <type>quarter</type>
        <stem>up</stem>
        </note>
      <note default-x="112.30" default-y="-140.00">
        <pitch>
          <step>F</step>
          <octave>4</octave>
          </pitch>
        <duration>480</duration>
        <voice>1</voice>
        <type>quarter</type>
        <stem>up</stem>
        </note>
      <note>
        <rest/>
        <duration>480</duration>
        <voice>1</voice>
        <type>quarter</type>
        </note>
      </measure>
    <measure number="26" width="250.61">
      <note default-x="12.36" default-y="-140.00">
        <pitch>
          <step>F</step>
          <octave>4</octave>
          </pitch>
        <duration>360</duration>
        <voice>1</voice>
        <type>quarter</type>
        <time-modification>
          <actual-notes>4</actual-notes>
          <normal-notes>3</normal-notes>
          </time-modification>
        <stem>up</stem>
        <notations>
          <tuplet type="start" bracket="no"/>
          </notations>
        </note>
      <note default-x="53.43" default-y="-140.00">
        <pitch>
          <step>F</step>
          <octave>4</octave>
          </pitch>
        <duration>360</duration>
        <voice>1</voice>
        <type>quarter</type>
        <time-modification>
          <actual-notes>4</actual-notes>
          <normal-notes>3</normal-notes>
          </time-modification>
        <stem>up</stem>
        </note>
      <note default-x="94.49" default-y="-140.00">
        <pitch>
          <step>F</step>
          <octave>4</octave>
          </pitch>
        <duration>360</duration>
        <voice>1</voice>
        <type>quarter</type>
        <time-modification>
          <actual-notes>4</actual-notes>
          <normal-notes>3</normal-notes>
          </time-modification>
        <stem>up</stem>
        </note>
      <note default-x="135.55" default-y="-140.00">
        <pitch>
          <step>F</step>
          <octave>4</octave>
          </pitch>
        <duration>360</duration>
        <voice>1</voice>
        <type>quarter</type>
        <time-modification>
          <actual-notes>4</actual-notes>
          <normal-notes>3</normal-notes>
          </time-modification>
        <stem>up</stem>
        <notations>
          <tuplet type="stop"/>
          </notations>
        </note>
      <note>
        <rest/>
        <duration>480</duration>
        <voice>1</voice>
        <type>quarter</type>
        </note>
      </measure>
    <measure number="27" width="183.58">
      <print new-page="yes">
        <staff-layout number="1">
          <staff-distance>65.00</staff-distance>
          </staff-layout>
        </print>
      <attributes>
        <time>
          <beats>2</beats>
          <beat-type>4</beat-type>
          </time>
        </attributes>
      <note>
        <rest/>
        <duration>960</duration>
        <voice>1</voice>
        </note>
      </measure>
    <measure number="28" width="153.30">
      <note>
        <rest/>
        <duration>960</duration>
        <voice>1</voice>
        </note>
      </measure>
    <measure number="29" width="139.34">
      <note>
        <rest/>
        <duration>960</duration>
        <voice>1</voice>
        </note>
      </measure>
    <measure number="30" width="139.34">
      <note>
        <rest/>
        <duration>960</duration>
        <voice>1</voice>
        </note>
      </measure>
    <measure number="31" width="139.34">
      <note>
        <rest/>
        <duration>960</duration>
        <voice>1</voice>
        </note>
      </measure>
    <measure number="32" width="139.34">
      <note>
        <rest/>
        <duration>960</duration>
        <voice>1</voice>
        </note>
      </measure>
    <measure number="33" width="139.34">
      <note>
        <rest/>
        <duration>960</duration>
        <voice>1</voice>
        </note>
      </measure>
    <measure number="34" width="233.29">
      <print new-system="yes">
        <staff-layout number="1">
          <staff-distance>65.00</staff-distance>
          </staff-layout>
        </print>
      <note>
        <rest/>
        <duration>960</duration>
        <voice>1</voice>
        </note>
      </measure>
    <measure number="35" width="137.08">
      <note>
        <rest/>
        <duration>960</duration>
        <voice>1</voice>
        </note>
      </measure>
    <measure number="36" width="125.95">
      <note>
        <rest/>
        <duration>960</duration>
        <voice>1</voice>
        </note>
      </measure>
    <measure number="37" width="125.95">
      <note>
        <rest/>
        <duration>960</duration>
        <voice>1</voice>
        </note>
      </measure>
    <measure number="38" width="133.14">
      <note>
        <rest/>
        <duration>960</duration>
        <voice>1</voice>
        </note>
      </measure>
    <measure number="39" width="134.59">
      <note>
        <rest/>
        <duration>960</duration>
        <voice>1</voice>
        </note>
      </measure>
    <measure number="40" width="143.59">
      <note>
        <rest/>
        <duration>960</duration>
        <voice>1</voice>
        </note>
      <barline location="right">
        <bar-style>light-heavy</bar-style>
        </barline>
      </measure>
    </part>
  </score-partwise>
