<?xml version="1.0" encoding="UTF-8" standalone="no"?>
<!DOCTYPE score-partwise PUBLIC "-//Recordare//DTD MusicXML 2.0 Partwise//EN" "http://www.musicxml.org/dtds/partwise.dtd">
<score-partwise version="2.0">
 <work>
  <work-title></work-title>
 </work>
 <identification>
  <creator type="composer">Harmonisation instrumentale</creator>
  <creator type="poet"></creator>
  <rights></rights>
  <encoding>
   <software>Neuratron PhotoScore</software>
   <encoding-description>MusicXML 2.0</encoding-description>
  </encoding>
  <source>Scanned sheet music</source>
 </identification>
 <defaults>
  <scaling>
   <millimeters>61</millimeters>
   <tenths>400</tenths>
  </scaling>
  <page-layout>
   <page-height>1551</page-height>
   <page-width>1034</page-width>
  </page-layout>
 </defaults>
 <part-list>
  <score-part id="P1">
   <part-name></part-name>
   <part-abbreviation></part-abbreviation>
   <score-instrument id="P1-I1">
    <instrument-name></instrument-name>
   </score-instrument>
   <midi-instrument id="P1-I1">
    <midi-channel>1</midi-channel>
    <midi-program>1</midi-program>
   </midi-instrument>
  </score-part>
  <score-part id="P2">
   <part-name></part-name>
   <part-abbreviation></part-abbreviation>
   <score-instrument id="P2-I1">
    <instrument-name></instrument-name>
   </score-instrument>
   <midi-instrument id="P2-I1">
    <midi-channel>2</midi-channel>
    <midi-program>1</midi-program>
   </midi-instrument>
  </score-part>
 </part-list>
 <part id="P1">
  <measure number="1">
   <attributes>
    <divisions>2</divisions>
    <key>
     <fifths>1</fifths>
    </key>
    <time>
     <beats>2</beats>
     <beat-type>4</beat-type>
    </time>
    <clef number="1">
     <sign>G</sign>
     <line>2</line>
    </clef>
   </attributes>
   <note>
    <pitch>
     <step>D</step>
     <octave>4</octave>
    </pitch>
    <duration>2</duration>
    <voice>2</voice>
    <type>quarter</type>
    <stem>down</stem>
   </note>
   <backup>
    <duration>2</duration>
   </backup>
   <note>
    <pitch>
     <step>D</step>
     <octave>4</octave>
    </pitch>
    <duration>2</duration>
    <voice>1</voice>
    <type>quarter</type>
    <stem>up</stem>
   </note>
   <note>
    <pitch>
     <step>B</step>
     <octave>3</octave>
    </pitch>
    <duration>2</duration>
    <voice>2</voice>
    <type>quarter</type>
    <stem>down</stem>
    <lyric number="1">
     <syllabic>single</syllabic>
     <text>est</text>
    </lyric>
   </note>
   <backup>
    <duration>2</duration>
   </backup>
   <note>
    <pitch>
     <step>G</step>
     <octave>4</octave>
    </pitch>
    <duration>2</duration>
    <voice>1</voice>
    <type>quarter</type>
    <stem>up</stem>
   </note>
  </measure>
  <measure number="2">
   <note>
    <pitch>
     <step>B</step>
     <octave>3</octave>
    </pitch>
    <duration>2</duration>
    <voice>2</voice>
    <type>quarter</type>
    <stem>down</stem>
    <lyric number="1">
     <syllabic>single</syllabic>
     <text>n&#x00e9;</text>
    </lyric>
   </note>
   <backup>
    <duration>2</duration>
   </backup>
   <note>
    <pitch>
     <step>G</step>
     <octave>4</octave>
    </pitch>
    <duration>2</duration>
    <voice>1</voice>
    <type>quarter</type>
    <stem>up</stem>
   </note>
   <note>
    <pitch>
     <step>D</step>
     <octave>4</octave>
    </pitch>
    <duration>1</duration>
    <voice>2</voice>
    <type>eighth</type>
    <stem>down</stem>
    <beam number="1">begin</beam>
    <lyric number="1">
     <syllabic>single</syllabic>
     <text>Ie</text>
    </lyric>
   </note>
   <backup>
    <duration>1</duration>
   </backup>
   <note>
    <pitch>
     <step>B</step>
     <octave>4</octave>
    </pitch>
    <duration>1</duration>
    <voice>1</voice>
    <type>eighth</type>
    <stem>up</stem>
    <beam number="1">begin</beam>
   </note>
   <note>
    <pitch>
     <step>B</step>
     <octave>3</octave>
    </pitch>
    <duration>1</duration>
    <voice>2</voice>
    <type>eighth</type>
    <stem>down</stem>
    <beam number="1">end</beam>
   </note>
   <backup>
    <duration>1</duration>
   </backup>
   <note>
    <pitch>
     <step>G</step>
     <octave>4</octave>
    </pitch>
    <duration>1</duration>
    <voice>1</voice>
    <type>eighth</type>
    <stem>up</stem>
    <beam number="1">end</beam>
    <lyric number="1">
     <syllabic>begin</syllabic>
     <text>dl</text>
    </lyric>
   </note>
  </measure>
  <measure number="3">
   <note>
    <pitch>
     <step>D</step>
     <octave>4</octave>
    </pitch>
    <duration>2</duration>
    <voice>2</voice>
    <type>quarter</type>
    <stem>down</stem>
    <lyric number="1">
     <syllabic>end</syllabic>
     <text>vin</text>
    </lyric>
   </note>
   <backup>
    <duration>2</duration>
   </backup>
   <note>
    <pitch>
     <step>D</step>
     <octave>4</octave>
    </pitch>
    <duration>2</duration>
    <voice>1</voice>
    <type>quarter</type>
    <stem>up</stem>
   </note>
   <note>
    <pitch>
     <step>D</step>
     <octave>4</octave>
    </pitch>
    <duration>2</duration>
    <voice>2</voice>
    <type>quarter</type>
    <stem>down</stem>
    <lyric number="1">
     <syllabic>begin</syllabic>
     <text>en</text>
    </lyric>
   </note>
   <backup>
    <duration>2</duration>
   </backup>
   <note>
    <pitch>
     <step>G</step>
     <octave>4</octave>
    </pitch>
    <duration>2</duration>
    <voice>1</voice>
    <type>quarter</type>
    <stem>up</stem>
   </note>
  </measure>
  <measure number="4">
   <note>
    <pitch>
     <step>G</step>
     <octave>4</octave>
    </pitch>
    <duration>2</duration>
    <voice>1</voice>
    <type>quarter</type>
    <stem>up</stem>
    <lyric number="1">
     <syllabic>end</syllabic>
     <text>fant!</text>
    </lyric>
   </note>
   <note>
    <rest/>
    <duration>2</duration>
    <voice>1</voice>
    <type>quarter</type>
   </note>
  </measure>
  <measure number="5">
   <note>
    <pitch>
     <step>B</step>
     <octave>3</octave>
    </pitch>
    <duration>2</duration>
    <voice>2</voice>
    <type>quarter</type>
    <stem>down</stem>
   </note>
   <backup>
    <duration>2</duration>
   </backup>
   <note>
    <pitch>
     <step>G</step>
     <octave>4</octave>
    </pitch>
    <duration>2</duration>
    <voice>1</voice>
    <type>quarter</type>
    <stem>up</stem>
    <lyric number="1">
     <syllabic>begin</syllabic>
     <text>jou-ez</text>
    </lyric>
   </note>
   <note>
    <pitch>
     <step>B</step>
     <octave>3</octave>
    </pitch>
    <duration>1</duration>
    <voice>2</voice>
    <type>eighth</type>
    <stem>down</stem>
    <beam number="1">begin</beam>
   </note>
   <backup>
    <duration>1</duration>
   </backup>
   <note>
    <pitch>
     <step>G</step>
     <octave>4</octave>
    </pitch>
    <duration>1</duration>
    <voice>1</voice>
    <type>eighth</type>
    <stem>up</stem>
    <beam number="1">begin</beam>
   </note>
   <note>
    <pitch>
     <step>C</step>
     <octave>4</octave>
    </pitch>
    <duration>1</duration>
    <voice>2</voice>
    <type>eighth</type>
    <stem>down</stem>
    <beam number="1">end</beam>
    <lyric number="1">
     <syllabic>end</syllabic>
     <text>haut</text>
    </lyric>
   </note>
   <backup>
    <duration>1</duration>
   </backup>
   <note>
    <pitch>
     <step>A</step>
     <octave>4</octave>
    </pitch>
    <duration>1</duration>
    <voice>1</voice>
    <type>eighth</type>
    <stem>up</stem>
    <beam number="1">end</beam>
   </note>
  </measure>
  <measure number="6">
   <print new-system="yes"/>
   <note>
    <pitch>
     <step>D</step>
     <octave>4</octave>
    </pitch>
    <duration>2</duration>
    <voice>2</voice>
    <type>quarter</type>
    <stem>down</stem>
    <lyric number="1">
     <syllabic>single</syllabic>
     <text>bois,</text>
    </lyric>
   </note>
   <backup>
    <duration>2</duration>
   </backup>
   <note>
    <pitch>
     <step>B</step>
     <octave>4</octave>
    </pitch>
    <duration>2</duration>
    <voice>1</voice>
    <type>quarter</type>
    <stem>up</stem>
   </note>
   <note>
    <pitch>
     <step>E</step>
     <octave>4</octave>
    </pitch>
    <duration>1</duration>
    <voice>2</voice>
    <type>eighth</type>
    <stem>down</stem>
    <beam number="1">begin</beam>
   </note>
   <backup>
    <duration>1</duration>
   </backup>
   <note>
    <pitch>
     <step>C</step>
     <octave>5</octave>
    </pitch>
    <duration>1</duration>
    <voice>1</voice>
    <type>eighth</type>
    <stem>up</stem>
    <beam number="1">begin</beam>
    <lyric number="1">
     <syllabic>begin</syllabic>
     <text>rt-son</text>
    </lyric>
   </note>
   <note>
    <pitch>
     <step>D</step>
     <octave>4</octave>
    </pitch>
    <duration>1</duration>
    <voice>2</voice>
    <type>eighth</type>
    <stem>down</stem>
    <beam number="1">end</beam>
   </note>
   <backup>
    <duration>1</duration>
   </backup>
   <note>
    <pitch>
     <step>B</step>
     <octave>4</octave>
    </pitch>
    <duration>1</duration>
    <voice>1</voice>
    <type>eighth</type>
    <stem>up</stem>
    <beam number="1">end</beam>
   </note>
  </measure>
  <measure number="7">
   <note>
    <pitch>
     <step>C</step>
     <octave>4</octave>
    </pitch>
    <duration>2</duration>
    <voice>2</voice>
    <type>quarter</type>
    <stem>down</stem>
    <lyric number="1">
     <syllabic>end</syllabic>
     <text>nez</text>
    </lyric>
   </note>
   <backup>
    <duration>2</duration>
   </backup>
   <note>
    <pitch>
     <step>A</step>
     <octave>4</octave>
    </pitch>
    <duration>2</duration>
    <voice>1</voice>
    <type>quarter</type>
    <stem>up</stem>
   </note>
   <note>
    <pitch>
     <step>B</step>
     <octave>3</octave>
    </pitch>
    <duration>2</duration>
    <voice>2</voice>
    <type>quarter</type>
    <stem>down</stem>
    <lyric number="1">
     <syllabic>begin</syllabic>
     <text>mu</text>
    </lyric>
   </note>
   <backup>
    <duration>2</duration>
   </backup>
   <note>
    <pitch>
     <step>G</step>
     <octave>4</octave>
    </pitch>
    <duration>2</duration>
    <voice>1</voice>
    <type>quarter</type>
    <stem>up</stem>
   </note>
  </measure>
  <measure number="8">
   <note>
    <pitch>
     <step>D</step>
     <octave>4</octave>
    </pitch>
    <duration>2</duration>
    <voice>2</voice>
    <type>quarter</type>
    <stem>down</stem>
    <lyric number="1">
     <syllabic>middle</syllabic>
     <text>set-tes!</text>
    </lyric>
   </note>
   <backup>
    <duration>2</duration>
   </backup>
   <note>
    <pitch>
     <step>A</step>
     <octave>4</octave>
    </pitch>
    <duration>2</duration>
    <voice>1</voice>
    <type>quarter</type>
    <stem>up</stem>
   </note>
   <note>
    <pitch>
     <step>D</step>
     <octave>4</octave>
    </pitch>
    <duration>1</duration>
    <voice>2</voice>
    <type>eighth</type>
    <stem>down</stem>
   </note>
   <backup>
    <duration>1</duration>
   </backup>
   <note>
    <pitch>
     <step>A</step>
     <octave>4</octave>
    </pitch>
    <duration>1</duration>
    <voice>1</voice>
    <type>eighth</type>
    <stem>up</stem>
   </note>
   <note>
    <rest/>
    <duration>1</duration>
    <voice>1</voice>
    <type>eighth</type>
   </note>
  </measure>
  <measure number="9">
   <note>
    <pitch>
     <step>D</step>
     <octave>4</octave>
    </pitch>
    <duration>2</duration>
    <voice>2</voice>
    <type>quarter</type>
    <stem>down</stem>
    <lyric number="1">
     <syllabic>end</syllabic>
     <text>Il</text>
    </lyric>
   </note>
   <backup>
    <duration>2</duration>
   </backup>
   <note>
    <pitch>
     <step>D</step>
     <octave>4</octave>
    </pitch>
    <duration>2</duration>
    <voice>1</voice>
    <type>quarter</type>
    <stem>up</stem>
   </note>
   <note>
    <pitch>
     <step>B</step>
     <octave>3</octave>
    </pitch>
    <duration>2</duration>
    <voice>2</voice>
    <type>quarter</type>
    <stem>down</stem>
    <lyric number="1">
     <syllabic>single</syllabic>
     <text>es!</text>
    </lyric>
   </note>
   <backup>
    <duration>2</duration>
   </backup>
   <note>
    <pitch>
     <step>G</step>
     <octave>4</octave>
    </pitch>
    <duration>2</duration>
    <voice>1</voice>
    <type>quarter</type>
    <stem>up</stem>
   </note>
  </measure>
  <measure number="10">
   <note>
    <pitch>
     <step>B</step>
     <octave>3</octave>
    </pitch>
    <duration>2</duration>
    <voice>2</voice>
    <type>quarter</type>
    <stem>down</stem>
    <lyric number="1">
     <syllabic>single</syllabic>
     <text>ne,</text>
    </lyric>
   </note>
   <backup>
    <duration>2</duration>
   </backup>
   <note>
    <pitch>
     <step>G</step>
     <octave>4</octave>
    </pitch>
    <duration>2</duration>
    <voice>1</voice>
    <type>quarter</type>
    <stem>up</stem>
   </note>
   <note>
    <pitch>
     <step>D</step>
     <octave>4</octave>
    </pitch>
    <duration>1</duration>
    <voice>2</voice>
    <type>eighth</type>
    <stem>down</stem>
    <beam number="1">begin</beam>
   </note>
   <backup>
    <duration>1</duration>
   </backup>
   <note>
    <pitch>
     <step>B</step>
     <octave>4</octave>
    </pitch>
    <duration>1</duration>
    <voice>1</voice>
    <type>eighth</type>
    <stem>up</stem>
    <beam number="1">begin</beam>
    <lyric number="1">
     <syllabic>single</syllabic>
     <text>Ic</text>
    </lyric>
   </note>
   <note>
    <pitch>
     <step>B</step>
     <octave>3</octave>
    </pitch>
    <duration>1</duration>
    <voice>2</voice>
    <type>eighth</type>
    <stem>down</stem>
    <beam number="1">end</beam>
   </note>
   <backup>
    <duration>1</duration>
   </backup>
   <note>
    <pitch>
     <step>G</step>
     <octave>4</octave>
    </pitch>
    <duration>1</duration>
    <voice>1</voice>
    <type>eighth</type>
    <stem>up</stem>
    <beam number="1">end</beam>
    <lyric number="1">
     <syllabic>begin</syllabic>
     <text>dl</text>
    </lyric>
   </note>
  </measure>
  <measure number="11">
   <note>
    <pitch>
     <step>D</step>
     <octave>4</octave>
    </pitch>
    <duration>2</duration>
    <voice>2</voice>
    <type>quarter</type>
    <stem>down</stem>
    <lyric number="1">
     <syllabic>end</syllabic>
     <text>vin</text>
    </lyric>
   </note>
   <backup>
    <duration>2</duration>
   </backup>
   <note>
    <pitch>
     <step>D</step>
     <octave>4</octave>
    </pitch>
    <duration>2</duration>
    <voice>1</voice>
    <type>quarter</type>
    <stem>up</stem>
   </note>
   <note>
    <pitch>
     <step>D</step>
     <octave>4</octave>
    </pitch>
    <duration>2</duration>
    <voice>2</voice>
    <type>quarter</type>
    <stem>down</stem>
   </note>
   <backup>
    <duration>2</duration>
   </backup>
   <note>
    <pitch>
     <step>G</step>
     <octave>4</octave>
    </pitch>
    <duration>2</duration>
    <voice>1</voice>
    <type>quarter</type>
    <stem>up</stem>
    <lyric number="1">
     <syllabic>begin</syllabic>
     <text>en</text>
    </lyric>
   </note>
  </measure>
  <measure number="12">
   <print new-system="yes"/>
   <note>
    <pitch>
     <step>B</step>
     <octave>3</octave>
    </pitch>
    <duration>2</duration>
    <voice>2</voice>
    <type>quarter</type>
    <stem>down</stem>
    <lyric number="1">
     <syllabic>end</syllabic>
     <text>fant!</text>
    </lyric>
   </note>
   <backup>
    <duration>2</duration>
   </backup>
   <note>
    <pitch>
     <step>G</step>
     <octave>4</octave>
    </pitch>
    <duration>2</duration>
    <voice>1</voice>
    <type>quarter</type>
    <stem>up</stem>
   </note>
   <note>
    <rest/>
    <duration>2</duration>
    <voice>1</voice>
    <type>quarter</type>
   </note>
  </measure>
  <measure number="13">
   <note>
    <pitch>
     <step>B</step>
     <octave>3</octave>
    </pitch>
    <duration>2</duration>
    <voice>2</voice>
    <type>quarter</type>
    <stem>down</stem>
   </note>
   <backup>
    <duration>2</duration>
   </backup>
   <note>
    <pitch>
     <step>G</step>
     <octave>4</octave>
    </pitch>
    <duration>2</duration>
    <voice>1</voice>
    <type>quarter</type>
    <stem>up</stem>
    <lyric number="1">
     <syllabic>begin</syllabic>
     <text>Chan</text>
    </lyric>
   </note>
   <note>
    <pitch>
     <step>D</step>
     <octave>4</octave>
    </pitch>
    <duration>2</duration>
    <voice>2</voice>
    <type>quarter</type>
    <stem>down</stem>
    <lyric number="1">
     <syllabic>end</syllabic>
     <text>tons</text>
    </lyric>
   </note>
   <backup>
    <duration>2</duration>
   </backup>
   <note>
    <pitch>
     <step>A</step>
     <octave>4</octave>
    </pitch>
    <duration>2</duration>
    <voice>1</voice>
    <type>quarter</type>
    <stem>up</stem>
   </note>
  </measure>
  <measure number="14">
   <note>
    <pitch>
     <step>D</step>
     <octave>4</octave>
    </pitch>
    <duration>2</duration>
    <voice>2</voice>
    <type>quarter</type>
    <stem>down</stem>
    <lyric number="1">
     <syllabic>single</syllabic>
     <text>tons</text>
    </lyric>
   </note>
   <backup>
    <duration>2</duration>
   </backup>
   <note>
    <pitch>
     <step>B</step>
     <octave>4</octave>
    </pitch>
    <duration>2</duration>
    <voice>1</voice>
    <type>quarter</type>
    <stem>up</stem>
   </note>
   <note>
    <pitch>
     <step>E</step>
     <octave>4</octave>
    </pitch>
    <duration>1</duration>
    <voice>2</voice>
    <type>eighth</type>
    <stem>down</stem>
    <beam number="1">begin</beam>
    <lyric number="1">
     <syllabic>single</syllabic>
     <text>son</text>
    </lyric>
   </note>
   <backup>
    <duration>1</duration>
   </backup>
   <note>
    <pitch>
     <step>C</step>
     <octave>5</octave>
    </pitch>
    <duration>1</duration>
    <voice>1</voice>
    <type>eighth</type>
    <stem>up</stem>
    <beam number="1">begin</beam>
   </note>
   <note>
    <pitch>
     <step>D</step>
     <octave>4</octave>
    </pitch>
    <duration>1</duration>
    <voice>2</voice>
    <type>eighth</type>
    <stem>down</stem>
    <beam number="1">end</beam>
    <lyric number="1">
     <syllabic>begin</syllabic>
     <text>a</text>
    </lyric>
   </note>
   <backup>
    <duration>1</duration>
   </backup>
   <note>
    <pitch>
     <step>B</step>
     <octave>4</octave>
    </pitch>
    <duration>1</duration>
    <voice>1</voice>
    <type>eighth</type>
    <stem>up</stem>
    <beam number="1">end</beam>
   </note>
  </measure>
  <measure number="15">
   <note>
    <pitch>
     <step>E</step>
     <octave>4</octave>
    </pitch>
    <duration>2</duration>
    <voice>2</voice>
    <type>quarter</type>
    <stem>down</stem>
    <lyric number="1">
     <syllabic>end</syllabic>
     <text>v&#x00e8;</text>
    </lyric>
   </note>
   <backup>
    <duration>2</duration>
   </backup>
   <note>
    <pitch>
     <step>A</step>
     <octave>4</octave>
    </pitch>
    <duration>2</duration>
    <voice>1</voice>
    <type>quarter</type>
    <stem>up</stem>
   </note>
   <note>
    <pitch>
     <step>D</step>
     <octave>4</octave>
    </pitch>
    <duration>2</duration>
    <voice>2</voice>
    <type>quarter</type>
    <stem>down</stem>
    <lyric number="1">
     <syllabic>begin</syllabic>
     <text>Ite</text>
    </lyric>
   </note>
   <backup>
    <duration>2</duration>
   </backup>
   <note>
    <pitch>
     <step>D</step>
     <octave>5</octave>
    </pitch>
    <duration>2</duration>
    <voice>1</voice>
    <type>quarter</type>
    <stem>up</stem>
   </note>
  </measure>
  <measure number="16">
   <note>
    <pitch>
     <step>B</step>
     <octave>3</octave>
    </pitch>
    <duration>4</duration>
    <voice>2</voice>
    <type>half</type>
    <stem>down</stem>
    <lyric number="1">
     <syllabic>end</syllabic>
     <text>Fin</text>
    </lyric>
   </note>
   <backup>
    <duration>4</duration>
   </backup>
   <note>
    <pitch>
     <step>G</step>
     <octave>4</octave>
    </pitch>
    <duration>4</duration>
    <voice>1</voice>
    <type>half</type>
    <stem>up</stem>
    <lyric number="1">
     <syllabic>single</syllabic>
     <text>ment!</text>
    </lyric>
   </note>
   <barline location="right">
    <bar-style>light-heavy</bar-style>
   </barline>
  </measure>
  <measure number="17">
   <print new-system="yes"/>
   <direction placement="above">
    <direction-type>
     <words relative-y="-118" relative-x="-26">2. Qu'H est</words>
    </direction-type>
    <offset>0</offset>
   </direction>
   <note>
    <pitch>
     <step>G</step>
     <octave>4</octave>
    </pitch>
    <duration>2</duration>
    <voice>2</voice>
    <type>quarter</type>
    <stem>down</stem>
    <lyric number="1">
     <syllabic>single</syllabic>
     <text>Une</text>
    </lyric>
   </note>
   <backup>
    <duration>2</duration>
   </backup>
   <note>
    <pitch>
     <step>B</step>
     <octave>4</octave>
    </pitch>
    <duration>2</duration>
    <voice>1</voice>
    <type>quarter</type>
    <stem>up</stem>
    <lyric number="1">
     <syllabic>begin</syllabic>
     <text>De</text>
    </lyric>
    <lyric number="2">
     <syllabic>single</syllabic>
     <text>Il</text>
    </lyric>
   </note>
   <note>
    <pitch>
     <step>A</step>
     <octave>4</octave>
    </pitch>
    <duration>2</duration>
    <voice>2</voice>
    <type>quarter</type>
    <stem>down</stem>
    <lyric number="1">
     <syllabic>end</syllabic>
     <text>puls</text>
    </lyric>
    <lyric number="2">
     <syllabic>begin</syllabic>
     <text>i</text>
    </lyric>
    <lyric number="3">
     <syllabic>single</syllabic>
     <text>veut</text>
    </lyric>
   </note>
   <backup>
    <duration>2</duration>
   </backup>
   <note>
    <pitch>
     <step>C</step>
     <octave>5</octave>
    </pitch>
    <duration>2</duration>
    <voice>1</voice>
    <type>quarter</type>
    <stem>up</stem>
   </note>
  </measure>
  <measure number="18">
   <note>
    <pitch>
     <step>B</step>
     <octave>4</octave>
    </pitch>
    <duration>2</duration>
    <voice>1</voice>
    <type>quarter</type>
    <stem>up</stem>
    <lyric number="1">
     <syllabic>single</syllabic>
     <text>;flus</text>
    </lyric>
    <lyric number="2">
     <syllabic>end</syllabic>
     <text>beau,</text>
    </lyric>
    <lyric number="3">
     <syllabic>single</syllabic>
     <text>taWe</text>
    </lyric>
    <lyric number="4">
     <syllabic>single</syllabic>
     <text>nos</text>
    </lyric>
   </note>
   <note>
    <chord/>
    <pitch>
     <step>D</step>
     <octave>5</octave>
    </pitch>
    <duration>2</duration>
    <voice>1</voice>
    <type>quarter</type>
    <stem>up</stem>
   </note>
   <note>
    <pitch>
     <step>A</step>
     <octave>4</octave>
    </pitch>
    <duration>1</duration>
    <voice>2</voice>
    <type>eighth</type>
    <stem>down</stem>
    <beam number="1">begin</beam>
    <lyric number="1">
     <syllabic>single</syllabic>
     <text>de</text>
    </lyric>
    <lyric number="2">
     <syllabic>single</syllabic>
     <text>ce</text>
    </lyric>
    <lyric number="3">
     <syllabic>single</syllabic>
     <text>est</text>
    </lyric>
    <lyric number="4">
     <syllabic>single</syllabic>
     <text>cwurs,</text>
    </lyric>
   </note>
   <backup>
    <duration>1</duration>
   </backup>
   <note>
    <pitch>
     <step>C</step>
     <octave>5</octave>
    </pitch>
    <duration>1</duration>
    <voice>1</voice>
    <type>eighth</type>
    <stem>up</stem>
    <beam number="1">begin</beam>
   </note>
   <note>
    <pitch>
     <step>G</step>
     <octave>4</octave>
    </pitch>
    <duration>1</duration>
    <voice>2</voice>
    <type>eighth</type>
    <stem>down</stem>
    <beam number="1">end</beam>
    <lyric number="1">
     <syllabic>begin</syllabic>
     <text>qua</text>
    </lyric>
    <lyric number="2">
     <syllabic>begin</syllabic>
     <text>dl</text>
    </lyric>
    <lyric number="3">
     <syllabic>single</syllabic>
     <text>son</text>
    </lyric>
    <lyric number="4">
     <syllabic>single</syllabic>
     <text>il</text>
    </lyric>
   </note>
   <backup>
    <duration>1</duration>
   </backup>
   <note>
    <pitch>
     <step>B</step>
     <octave>4</octave>
    </pitch>
    <duration>1</duration>
    <voice>1</voice>
    <type>eighth</type>
    <stem>up</stem>
    <beam number="1">end</beam>
   </note>
  </measure>
  <measure number="19">
   <note>
    <pitch>
     <step>A</step>
     <octave>4</octave>
    </pitch>
    <duration>2</duration>
    <voice>2</voice>
    <type>quarter</type>
    <stem>down</stem>
    <lyric number="1">
     <syllabic>end</syllabic>
     <text>tte</text>
    </lyric>
    <lyric number="2">
     <syllabic>end</syllabic>
     <text>vin</text>
    </lyric>
    <lyric number="3">
     <syllabic>single</syllabic>
     <text> o- ge- ment,</text>
    </lyric>
    <lyric number="4">
     <syllabic>single</syllabic>
     <text>les</text>
    </lyric>
   </note>
   <backup>
    <duration>2</duration>
   </backup>
   <note>
    <pitch>
     <step>C</step>
     <octave>5</octave>
    </pitch>
    <duration>2</duration>
    <voice>1</voice>
    <type>quarter</type>
    <stem>up</stem>
   </note>
   <note>
    <pitch>
     <step>C</step>
     <octave>5</octave>
    </pitch>
    <duration>2</duration>
    <voice>2</voice>
    <type>quarter</type>
    <stem>down</stem>
    <lyric number="1">
     <syllabic>single</syllabic>
     <text>mllle</text>
    </lyric>
    <lyric number="2">
     <syllabic>begin</syllabic>
     <text>en</text>
    </lyric>
    <lyric number="3">
     <syllabic>begin</syllabic>
     <text>at</text>
    </lyric>
   </note>
   <backup>
    <duration>2</duration>
   </backup>
   <note>
    <pitch>
     <step>E</step>
     <octave>5</octave>
    </pitch>
    <duration>2</duration>
    <voice>1</voice>
    <type>quarter</type>
    <stem>up</stem>
   </note>
  </measure>
  <measure number="20">
   <note>
    <pitch>
     <step>B</step>
     <octave>4</octave>
    </pitch>
    <duration>4</duration>
    <voice>2</voice>
    <type>half</type>
    <stem>down</stem>
    <lyric number="1">
     <syllabic>single</syllabic>
     <text>ans</text>
    </lyric>
    <lyric number="2">
     <syllabic>end</syllabic>
     <text>tend;</text>
    </lyric>
   </note>
   <backup>
    <duration>4</duration>
   </backup>
   <note>
    <pitch>
     <step>D</step>
     <octave>5</octave>
    </pitch>
    <duration>4</duration>
    <voice>1</voice>
    <type>half</type>
    <stem>up</stem>
   </note>
  </measure>
  <measure number="21">
   <note>
    <pitch>
     <step>G</step>
     <octave>4</octave>
    </pitch>
    <duration>2</duration>
    <voice>2</voice>
    <type>quarter</type>
    <stem>down</stem>
    <lyric number="1">
     <syllabic>single</syllabic>
     <text>Nous</text>
    </lyric>
    <lyric number="2">
     <syllabic>single</syllabic>
     <text>Sa</text>
    </lyric>
    <lyric number="3">
     <syllabic>end</syllabic>
     <text>Un</text>
    </lyric>
    <lyric number="4">
     <syllabic>single</syllabic>
     <text>Il</text>
    </lyric>
   </note>
   <backup>
    <duration>2</duration>
   </backup>
   <note>
    <pitch>
     <step>B</step>
     <octave>4</octave>
    </pitch>
    <duration>2</duration>
    <voice>1</voice>
    <type>quarter</type>
    <stem>up</stem>
   </note>
   <note>
    <pitch>
     <step>A</step>
     <octave>4</octave>
    </pitch>
    <duration>2</duration>
    <voice>2</voice>
    <type>quarter</type>
    <stem>down</stem>
    <lyric number="1">
     <syllabic>single</syllabic>
     <text>Ie</text>
    </lyric>
    <lyric number="2">
     <syllabic>begin</syllabic>
     <text>beau</text>
    </lyric>
    <lyric number="3">
     <syllabic>single</syllabic>
     <text>Inu</text>
    </lyric>
    <lyric number="4">
     <syllabic>single</syllabic>
     <text>vient</text>
    </lyric>
   </note>
   <backup>
    <duration>2</duration>
   </backup>
   <note>
    <pitch>
     <step>C</step>
     <octave>5</octave>
    </pitch>
    <duration>2</duration>
    <voice>1</voice>
    <type>quarter</type>
    <stem>up</stem>
   </note>
  </measure>
 </part>
 <part id="P2">
  <measure number="1">
   <attributes>
    <divisions>2</divisions>
    <key>
     <fifths>1</fifths>
    </key>
    <time>
     <beats>2</beats>
     <beat-type>4</beat-type>
    </time>
    <clef number="1">
     <sign>F</sign>
     <line>4</line>
    </clef>
   </attributes>
   <direction placement="above">
    <direction-type>
     <words relative-y="52" relative-x="-78">Ref. Il</words>
    </direction-type>
    <offset>0</offset>
   </direction>
   <note>
    <rest/>
    <duration>4</duration>
    <voice>1</voice>
    <type>whole</type>
   </note>
  </measure>
  <measure number="2">
   <note>
    <pitch>
     <step>D</step>
     <octave>3</octave>
    </pitch>
    <duration>2</duration>
    <voice>1</voice>
    <type>quarter</type>
    <stem>up</stem>
   </note>
   <note>
    <pitch>
     <step>G</step>
     <octave>3</octave>
    </pitch>
    <duration>2</duration>
    <voice>1</voice>
    <type>quarter</type>
    <stem>up</stem>
   </note>
  </measure>
  <measure number="3">
   <note>
    <pitch>
     <step>G</step>
     <octave>3</octave>
    </pitch>
    <duration>2</duration>
    <voice>1</voice>
    <type>quarter</type>
    <stem>up</stem>
   </note>
   <note>
    <pitch>
     <step>B</step>
     <octave>3</octave>
    </pitch>
    <duration>1</duration>
    <voice>1</voice>
    <type>eighth</type>
    <stem>up</stem>
    <beam number="1">begin</beam>
   </note>
   <note>
    <pitch>
     <step>G</step>
     <octave>3</octave>
    </pitch>
    <duration>1</duration>
    <voice>1</voice>
    <type>eighth</type>
    <stem>up</stem>
    <beam number="1">end</beam>
   </note>
  </measure>
  <measure number="4">
   <note>
    <pitch>
     <step>D</step>
     <octave>3</octave>
    </pitch>
    <duration>2</duration>
    <voice>1</voice>
    <type>quarter</type>
    <stem>up</stem>
   </note>
   <note>
    <pitch>
     <step>G</step>
     <octave>3</octave>
    </pitch>
    <duration>2</duration>
    <voice>1</voice>
    <type>quarter</type>
    <stem>up</stem>
   </note>
  </measure>
  <measure number="5">
   <note>
    <pitch>
     <step>G</step>
     <octave>3</octave>
    </pitch>
    <duration>2</duration>
    <voice>2</voice>
    <type>quarter</type>
    <stem>down</stem>
   </note>
   <backup>
    <duration>2</duration>
   </backup>
   <note>
    <pitch>
     <step>G</step>
     <octave>3</octave>
    </pitch>
    <duration>2</duration>
    <voice>1</voice>
    <type>quarter</type>
    <stem>up</stem>
   </note>
   <note>
    <pitch>
     <step>G</step>
     <octave>3</octave>
    </pitch>
    <duration>1</duration>
    <voice>2</voice>
    <type>eighth</type>
    <stem>down</stem>
    <beam number="1">begin</beam>
   </note>
   <backup>
    <duration>1</duration>
   </backup>
   <note>
    <pitch>
     <step>G</step>
     <octave>3</octave>
    </pitch>
    <duration>1</duration>
    <voice>1</voice>
    <type>eighth</type>
    <stem>up</stem>
    <beam number="1">begin</beam>
   </note>
   <note>
    <pitch>
     <step>G</step>
     <octave>3</octave>
    </pitch>
    <duration>1</duration>
    <voice>2</voice>
    <type>eighth</type>
    <stem>down</stem>
    <beam number="1">end</beam>
   </note>
   <backup>
    <duration>1</duration>
   </backup>
   <note>
    <pitch>
     <step>G</step>
     <octave>3</octave>
    </pitch>
    <duration>1</duration>
    <voice>1</voice>
    <type>eighth</type>
    <stem>up</stem>
    <beam number="1">end</beam>
   </note>
  </measure>
  <measure number="6">
   <print new-system="yes"/>
   <note>
    <pitch>
     <step>G</step>
     <octave>2</octave>
    </pitch>
    <duration>2</duration>
    <voice>2</voice>
    <type>quarter</type>
    <stem>down</stem>
   </note>
   <backup>
    <duration>2</duration>
   </backup>
   <note>
    <pitch>
     <step>G</step>
     <octave>3</octave>
    </pitch>
    <duration>2</duration>
    <voice>1</voice>
    <type>quarter</type>
    <stem>up</stem>
   </note>
   <note>
    <pitch>
     <step>G</step>
     <octave>2</octave>
    </pitch>
    <duration>2</duration>
    <voice>2</voice>
    <type>quarter</type>
    <stem>down</stem>
   </note>
   <backup>
    <duration>2</duration>
   </backup>
   <note>
    <pitch>
     <step>G</step>
     <octave>3</octave>
    </pitch>
    <duration>2</duration>
    <voice>1</voice>
    <type>quarter</type>
    <stem>up</stem>
   </note>
  </measure>
  <measure number="7">
   <note>
    <pitch>
     <step>A</step>
     <octave>2</octave>
    </pitch>
    <duration>2</duration>
    <voice>2</voice>
    <type>quarter</type>
    <stem>down</stem>
   </note>
   <backup>
    <duration>2</duration>
   </backup>
   <note>
    <pitch>
     <step>E</step>
     <octave>3</octave>
    </pitch>
    <duration>2</duration>
    <voice>1</voice>
    <type>quarter</type>
    <stem>up</stem>
   </note>
   <note>
    <pitch>
     <step>E</step>
     <octave>3</octave>
    </pitch>
    <duration>2</duration>
    <voice>2</voice>
    <type>quarter</type>
    <stem>down</stem>
   </note>
   <backup>
    <duration>2</duration>
   </backup>
   <note>
    <pitch>
     <step>G</step>
     <octave>3</octave>
    </pitch>
    <duration>2</duration>
    <voice>1</voice>
    <type>quarter</type>
    <stem>up</stem>
   </note>
  </measure>
  <measure number="8">
   <note>
    <pitch>
     <step>D</step>
     <octave>3</octave>
    </pitch>
    <duration>2</duration>
    <voice>2</voice>
    <type>quarter</type>
    <stem>down</stem>
   </note>
   <backup>
    <duration>2</duration>
   </backup>
   <note>
    <pitch>
     <step>G</step>
     <octave>3</octave>
    </pitch>
    <duration>2</duration>
    <voice>1</voice>
    <type>quarter</type>
    <stem>up</stem>
   </note>
   <note>
    <pitch>
     <step>D</step>
     <octave>3</octave>
    </pitch>
    <duration>1</duration>
    <voice>2</voice>
    <type>eighth</type>
    <stem>down</stem>
   </note>
   <backup>
    <duration>1</duration>
   </backup>
   <note>
    <pitch>
     <step>F</step>
     <alter>1</alter>
     <octave>3</octave>
    </pitch>
    <duration>1</duration>
    <voice>1</voice>
    <type>eighth</type>
    <stem>up</stem>
   </note>
   <note>
    <rest/>
    <duration>1</duration>
    <voice>1</voice>
    <type>eighth</type>
   </note>
  </measure>
  <measure number="9">
   <note>
    <rest/>
    <duration>4</duration>
    <voice>1</voice>
    <type>whole</type>
   </note>
  </measure>
  <measure number="10">
   <note>
    <pitch>
     <step>D</step>
     <octave>3</octave>
    </pitch>
    <duration>2</duration>
    <voice>1</voice>
    <type>quarter</type>
    <stem>up</stem>
   </note>
   <note>
    <pitch>
     <step>G</step>
     <octave>3</octave>
    </pitch>
    <duration>2</duration>
    <voice>1</voice>
    <type>quarter</type>
    <stem>up</stem>
   </note>
  </measure>
  <measure number="11">
   <note>
    <pitch>
     <step>G</step>
     <octave>3</octave>
    </pitch>
    <duration>2</duration>
    <voice>1</voice>
    <type>quarter</type>
    <stem>up</stem>
   </note>
   <note>
    <pitch>
     <step>B</step>
     <octave>3</octave>
    </pitch>
    <duration>1</duration>
    <voice>1</voice>
    <type>eighth</type>
    <stem>up</stem>
    <beam number="1">begin</beam>
   </note>
   <note>
    <pitch>
     <step>G</step>
     <octave>3</octave>
    </pitch>
    <duration>1</duration>
    <voice>1</voice>
    <type>eighth</type>
    <stem>up</stem>
    <beam number="1">end</beam>
   </note>
  </measure>
  <measure number="12">
   <print new-system="yes"/>
   <note>
    <pitch>
     <step>D</step>
     <octave>3</octave>
    </pitch>
    <duration>2</duration>
    <voice>1</voice>
    <type>quarter</type>
    <stem>up</stem>
   </note>
   <note>
    <pitch>
     <step>G</step>
     <octave>3</octave>
    </pitch>
    <duration>2</duration>
    <voice>1</voice>
    <type>quarter</type>
    <stem>up</stem>
   </note>
  </measure>
  <measure number="13">
   <note>
    <pitch>
     <step>G</step>
     <octave>3</octave>
    </pitch>
    <duration>2</duration>
    <voice>2</voice>
    <type>quarter</type>
    <stem>down</stem>
   </note>
   <backup>
    <duration>2</duration>
   </backup>
   <note>
    <pitch>
     <step>G</step>
     <octave>3</octave>
    </pitch>
    <duration>2</duration>
    <voice>1</voice>
    <type>quarter</type>
    <stem>up</stem>
   </note>
   <note>
    <pitch>
     <step>D</step>
     <octave>3</octave>
    </pitch>
    <duration>2</duration>
    <voice>2</voice>
    <type>quarter</type>
    <stem>down</stem>
   </note>
   <backup>
    <duration>2</duration>
   </backup>
   <note>
    <pitch>
     <step>F</step>
     <alter>1</alter>
     <octave>3</octave>
    </pitch>
    <duration>2</duration>
    <voice>1</voice>
    <type>quarter</type>
    <stem>up</stem>
   </note>
  </measure>
  <measure number="14">
   <note>
    <pitch>
     <step>G</step>
     <octave>2</octave>
    </pitch>
    <duration>2</duration>
    <voice>2</voice>
    <type>quarter</type>
    <stem>down</stem>
   </note>
   <backup>
    <duration>2</duration>
   </backup>
   <note>
    <pitch>
     <step>G</step>
     <octave>3</octave>
    </pitch>
    <duration>2</duration>
    <voice>1</voice>
    <type>quarter</type>
    <stem>up</stem>
   </note>
   <note>
    <pitch>
     <step>A</step>
     <octave>2</octave>
    </pitch>
    <duration>1</duration>
    <voice>2</voice>
    <type>eighth</type>
    <stem>down</stem>
    <beam number="1">begin</beam>
   </note>
   <backup>
    <duration>1</duration>
   </backup>
   <note>
    <pitch>
     <step>G</step>
     <octave>3</octave>
    </pitch>
    <duration>1</duration>
    <voice>1</voice>
    <type>eighth</type>
    <stem>up</stem>
    <beam number="1">begin</beam>
   </note>
   <note>
    <pitch>
     <step>B</step>
     <octave>2</octave>
    </pitch>
    <duration>1</duration>
    <voice>2</voice>
    <type>eighth</type>
    <stem>down</stem>
    <beam number="1">end</beam>
   </note>
   <backup>
    <duration>1</duration>
   </backup>
   <note>
    <pitch>
     <step>G</step>
     <octave>3</octave>
    </pitch>
    <duration>1</duration>
    <voice>1</voice>
    <type>eighth</type>
    <stem>up</stem>
    <beam number="1">end</beam>
   </note>
  </measure>
  <measure number="15">
   <note>
    <pitch>
     <step>C</step>
     <octave>3</octave>
    </pitch>
    <duration>2</duration>
    <voice>2</voice>
    <type>quarter</type>
    <stem>down</stem>
   </note>
   <backup>
    <duration>2</duration>
   </backup>
   <note>
    <pitch>
     <step>G</step>
     <octave>3</octave>
    </pitch>
    <duration>2</duration>
    <voice>1</voice>
    <type>quarter</type>
    <stem>up</stem>
   </note>
   <note>
    <pitch>
     <step>D</step>
     <octave>3</octave>
    </pitch>
    <duration>2</duration>
    <voice>2</voice>
    <type>quarter</type>
    <stem>down</stem>
   </note>
   <backup>
    <duration>2</duration>
   </backup>
   <note>
    <pitch>
     <step>F</step>
     <alter>1</alter>
     <octave>3</octave>
    </pitch>
    <duration>2</duration>
    <voice>1</voice>
    <type>quarter</type>
    <stem>up</stem>
   </note>
  </measure>
  <measure number="16">
   <note>
    <pitch>
     <step>G</step>
     <octave>2</octave>
    </pitch>
    <duration>4</duration>
    <voice>2</voice>
    <type>half</type>
    <stem>down</stem>
   </note>
   <backup>
    <duration>4</duration>
   </backup>
   <note>
    <pitch>
     <step>G</step>
     <octave>3</octave>
    </pitch>
    <duration>4</duration>
    <voice>1</voice>
    <type>half</type>
    <stem>up</stem>
   </note>
   <barline location="right">
    <bar-style>light-heavy</bar-style>
   </barline>
  </measure>
  <measure number="17">
   <print new-system="yes"/>
   <note>
    <pitch>
     <step>G</step>
     <octave>2</octave>
    </pitch>
    <duration>4</duration>
    <voice>2</voice>
    <type>half</type>
    <stem>down</stem>
   </note>
   <backup>
    <duration>4</duration>
   </backup>
   <note>
    <rest/>
    <duration>1</duration>
    <voice>1</voice>
    <type>eighth</type>
   </note>
   <note>
    <pitch>
     <step>G</step>
     <octave>3</octave>
    </pitch>
    <duration>1</duration>
    <voice>1</voice>
    <type>eighth</type>
    <stem>up</stem>
   </note>
   <note>
    <rest/>
    <duration>1</duration>
    <voice>1</voice>
    <type>eighth</type>
   </note>
   <note>
    <pitch>
     <step>G</step>
     <octave>3</octave>
    </pitch>
    <duration>1</duration>
    <voice>1</voice>
    <type>eighth</type>
    <stem>up</stem>
   </note>
  </measure>
  <measure number="18">
   <note>
    <pitch>
     <step>G</step>
     <octave>2</octave>
    </pitch>
    <duration>4</duration>
    <voice>2</voice>
    <type>half</type>
    <stem>down</stem>
   </note>
   <backup>
    <duration>4</duration>
   </backup>
   <note>
    <rest/>
    <duration>1</duration>
    <voice>1</voice>
    <type>eighth</type>
   </note>
   <note>
    <pitch>
     <step>G</step>
     <octave>3</octave>
    </pitch>
    <duration>1</duration>
    <voice>1</voice>
    <type>eighth</type>
    <stem>up</stem>
   </note>
   <note>
    <rest/>
    <duration>1</duration>
    <voice>1</voice>
    <type>eighth</type>
   </note>
   <note>
    <pitch>
     <step>G</step>
     <octave>3</octave>
    </pitch>
    <duration>1</duration>
    <voice>1</voice>
    <type>eighth</type>
    <stem>up</stem>
   </note>
  </measure>
  <measure number="19">
   <note>
    <pitch>
     <step>G</step>
     <octave>2</octave>
    </pitch>
    <duration>4</duration>
    <voice>2</voice>
    <type>half</type>
    <stem>down</stem>
   </note>
   <backup>
    <duration>4</duration>
   </backup>
   <note>
    <rest/>
    <duration>1</duration>
    <voice>1</voice>
    <type>eighth</type>
   </note>
   <note>
    <pitch>
     <step>G</step>
     <octave>3</octave>
    </pitch>
    <duration>1</duration>
    <voice>1</voice>
    <type>eighth</type>
    <stem>up</stem>
   </note>
   <note>
    <rest/>
    <duration>1</duration>
    <voice>1</voice>
    <type>eighth</type>
   </note>
   <note>
    <pitch>
     <step>G</step>
     <octave>3</octave>
    </pitch>
    <duration>1</duration>
    <voice>1</voice>
    <type>eighth</type>
    <stem>up</stem>
   </note>
  </measure>
  <measure number="20">
   <note>
    <pitch>
     <step>G</step>
     <octave>2</octave>
    </pitch>
    <duration>4</duration>
    <voice>2</voice>
    <type>half</type>
    <stem>down</stem>
   </note>
   <backup>
    <duration>4</duration>
   </backup>
   <note>
    <rest/>
    <duration>1</duration>
    <voice>1</voice>
    <type>eighth</type>
   </note>
   <note>
    <pitch>
     <step>G</step>
     <octave>3</octave>
    </pitch>
    <duration>1</duration>
    <voice>1</voice>
    <type>eighth</type>
    <stem>up</stem>
   </note>
   <note>
    <rest/>
    <duration>1</duration>
    <voice>1</voice>
    <type>eighth</type>
   </note>
   <note>
    <pitch>
     <step>G</step>
     <octave>3</octave>
    </pitch>
    <duration>1</duration>
    <voice>1</voice>
    <type>eighth</type>
    <stem>up</stem>
   </note>
  </measure>
  <measure number="21">
   <note>
    <pitch>
     <step>G</step>
     <octave>2</octave>
    </pitch>
    <duration>4</duration>
    <voice>2</voice>
    <type>half</type>
    <stem>down</stem>
   </note>
   <backup>
    <duration>4</duration>
   </backup>
   <note>
    <rest/>
    <duration>1</duration>
    <voice>1</voice>
    <type>eighth</type>
   </note>
   <note>
    <pitch>
     <step>G</step>
     <octave>3</octave>
    </pitch>
    <duration>1</duration>
    <voice>1</voice>
    <type>eighth</type>
    <stem>up</stem>
   </note>
   <note>
    <rest/>
    <duration>1</duration>
    <voice>1</voice>
    <type>eighth</type>
   </note>
   <note>
    <pitch>
     <step>G</step>
     <octave>3</octave>
    </pitch>
    <duration>1</duration>
    <voice>1</voice>
    <type>eighth</type>
    <stem>up</stem>
   </note>
  </measure>
 </part>
</score-partwise>
