<?xml version="1.0" encoding="UTF-8" standalone="no"?>
<!DOCTYPE score-partwise PUBLIC "-//Recordare//DTD MusicXML 2.0 Partwise//EN" "http://www.musicxml.org/dtds/partwise.dtd">
<score-partwise version="2.0">
 <work>
  <work-title></work-title>
 </work>
 <identification>
  <creator type="composer">Noll</creator>
  <creator type="poet"></creator>
  <rights></rights>
  <encoding>
   <software>Neuratron PhotoScore</software>
   <encoding-description>MusicXML 2.0</encoding-description>
  </encoding>
  <source>Scanned sheet music</source>
 </identification>
 <defaults>
  <scaling>
   <millimeters>59</millimeters>
   <tenths>400</tenths>
  </scaling>
  <page-layout>
   <page-height>1105</page-height>
   <page-width>1096</page-width>
  </page-layout>
 </defaults>
 <part-list>
  <score-part id="P1">
   <part-name></part-name>
   <part-abbreviation></part-abbreviation>
   <score-instrument id="P1-I1">
    <instrument-name></instrument-name>
   </score-instrument>
   <midi-instrument id="P1-I1">
    <midi-channel>1</midi-channel>
    <midi-program>1</midi-program>
   </midi-instrument>
  </score-part>
  <score-part id="P2">
   <part-name></part-name>
   <part-abbreviation></part-abbreviation>
   <score-instrument id="P2-I1">
    <instrument-name></instrument-name>
   </score-instrument>
   <midi-instrument id="P2-I1">
    <midi-channel>2</midi-channel>
    <midi-program>1</midi-program>
   </midi-instrument>
  </score-part>
 </part-list>
 <part id="P1">
  <measure number="1">
   <attributes>
    <divisions>2</divisions>
    <key>
     <fifths>1</fifths>
    </key>
    <time>
     <beats>2</beats>
     <beat-type>4</beat-type>
    </time>
    <clef number="1">
     <sign>G</sign>
     <line>2</line>
    </clef>
   </attributes>
   <note>
    <pitch>
     <step>B</step>
     <octave>4</octave>
    </pitch>
    <duration>2</duration>
    <voice>2</voice>
    <type>quarter</type>
    <stem>down</stem>
    <lyric number="1">
     <syllabic>begin</syllabic>
     <text>Im,</text>
    </lyric>
    <lyric number="2">
     <syllabic>single</syllabic>
     <text>de</text>
    </lyric>
    <lyric number="3">
     <syllabic>single</syllabic>
     <text>en</text>
    </lyric>
   </note>
   <backup>
    <duration>2</duration>
   </backup>
   <note>
    <pitch>
     <step>D</step>
     <octave>5</octave>
    </pitch>
    <duration>2</duration>
    <voice>1</voice>
    <type>quarter</type>
    <stem>up</stem>
   </note>
   <note>
    <pitch>
     <step>C</step>
     <octave>5</octave>
    </pitch>
    <duration>1</duration>
    <voice>2</voice>
    <type>eighth</type>
    <stem>down</stem>
    <beam number="1">begin</beam>
    <lyric number="1">
     <syllabic>end</syllabic>
     <text>meMalent</text>
    </lyric>
    <lyric number="2">
     <syllabic>single</syllabic>
     <text>sa</text>
    </lyric>
    <lyric number="3">
     <syllabic>single</syllabic>
     <text> paille est</text>
    </lyric>
    <lyric number="4">
     <syllabic>single</syllabic>
     <text> taI-re</text>
    </lyric>
   </note>
   <backup>
    <duration>1</duration>
   </backup>
   <note>
    <pitch>
     <step>E</step>
     <octave>5</octave>
    </pitch>
    <duration>1</duration>
    <voice>1</voice>
    <type>eighth</type>
    <stem>up</stem>
    <beam number="1">begin</beam>
   </note>
   <note>
    <pitch>
     <step>B</step>
     <octave>4</octave>
    </pitch>
    <duration>1</duration>
    <voice>2</voice>
    <type>eighth</type>
    <stem>down</stem>
    <beam number="1">end</beam>
    <lyric number="1">
     <syllabic>single</syllabic>
     <text>grace</text>
    </lyric>
   </note>
   <backup>
    <duration>1</duration>
   </backup>
   <note>
    <pitch>
     <step>D</step>
     <octave>5</octave>
    </pitch>
    <duration>1</duration>
    <voice>1</voice>
    <type>eighth</type>
    <stem>up</stem>
    <beam number="1">end</beam>
   </note>
  </measure>
  <measure number="2">
   <note>
    <pitch>
     <step>A</step>
     <octave>4</octave>
    </pitch>
    <duration>2</duration>
    <voice>2</voice>
    <type>quarter</type>
    <stem>down</stem>
    <lyric number="1">
     <syllabic>single</syllabic>
     <text>Ies</text>
    </lyric>
    <lyric number="2">
     <syllabic>single</syllabic>
     <text>est</text>
    </lyric>
    <lyric number="3">
     <syllabic>single</syllabic>
     <text>sa</text>
    </lyric>
    <lyric number="4">
     <syllabic>single</syllabic>
     <text>Ia</text>
    </lyric>
   </note>
   <backup>
    <duration>2</duration>
   </backup>
   <note>
    <pitch>
     <step>C</step>
     <octave>5</octave>
    </pitch>
    <duration>2</duration>
    <voice>1</voice>
    <type>quarter</type>
    <stem>up</stem>
   </note>
   <note>
    <pitch>
     <step>G</step>
     <octave>4</octave>
    </pitch>
    <duration>2</duration>
    <voice>2</voice>
    <type>quarter</type>
    <stem>down</stem>
    <lyric number="1">
     <syllabic>begin</syllabic>
     <text>{uo</text>
    </lyric>
    <lyric number="2">
     <syllabic>single</syllabic>
     <text> cou- chet- te,</text>
    </lyric>
   </note>
   <backup>
    <duration>2</duration>
   </backup>
   <note>
    <pitch>
     <step>B</step>
     <octave>4</octave>
    </pitch>
    <duration>2</duration>
    <voice>1</voice>
    <type>quarter</type>
    <stem>up</stem>
   </note>
  </measure>
  <measure number="3">
   <note>
    <pitch>
     <step>G</step>
     <octave>4</octave>
    </pitch>
    <duration>2</duration>
    <voice>2</voice>
    <type>quarter</type>
    <stem>down</stem>
    <lyric number="1">
     <syllabic>middle</syllabic>
     <text>phk</text>
    </lyric>
    <lyric number="2">
     <syllabic>begin</syllabic>
     <text>fai</text>
    </lyric>
   </note>
   <backup>
    <duration>2</duration>
   </backup>
   <note>
    <pitch>
     <step>B</step>
     <octave>4</octave>
    </pitch>
    <duration>2</duration>
    <voice>1</voice>
    <type>quarter</type>
    <stem>up</stem>
   </note>
   <note>
    <pitch>
     <step>F</step>
     <alter>1</alter>
     <octave>4</octave>
    </pitch>
    <duration>1</duration>
    <voice>1</voice>
    <type>eighth</type>
    <stem>up</stem>
    <lyric number="1">
     <syllabic>end</syllabic>
     <text>tes,</text>
    </lyric>
   </note>
   <note>
    <chord/>
    <pitch>
     <step>A</step>
     <octave>4</octave>
    </pitch>
    <duration>1</duration>
    <voice>1</voice>
    <type>eighth</type>
    <stem>up</stem>
   </note>
   <note>
    <rest/>
    <duration>1</duration>
    <voice>1</voice>
    <type>eighth</type>
   </note>
  </measure>
  <measure number="4">
   <note>
    <pitch>
     <step>G</step>
     <octave>4</octave>
    </pitch>
    <duration>2</duration>
    <voice>2</voice>
    <type>quarter</type>
    <stem>down</stem>
    <lyric number="1">
     <syllabic>begin</syllabic>
     <text>Ik</text>
    </lyric>
    <lyric number="2">
     <syllabic>end</syllabic>
     <text>Qu'il</text>
    </lyric>
    <lyric number="3">
     <syllabic>single</syllabic>
     <text>Une</text>
    </lyric>
    <lyric number="4">
     <syllabic>single</syllabic>
     <text> II veut nos cceurs, II</text>
    </lyric>
   </note>
   <backup>
    <duration>2</duration>
   </backup>
   <note>
    <pitch>
     <step>B</step>
     <octave>4</octave>
    </pitch>
    <duration>2</duration>
    <voice>1</voice>
    <type>quarter</type>
    <stem>up</stem>
   </note>
   <note>
    <pitch>
     <step>G</step>
     <octave>4</octave>
    </pitch>
    <duration>2</duration>
    <voice>2</voice>
    <type>quarter</type>
    <stem>down</stem>
    <lyric number="1">
     <syllabic>end</syllabic>
     <text>puls</text>
    </lyric>
    <lyric number="2">
     <syllabic>single</syllabic>
     <text>est</text>
    </lyric>
   </note>
   <backup>
    <duration>2</duration>
   </backup>
   <note>
    <pitch>
     <step>C</step>
     <octave>5</octave>
    </pitch>
    <duration>2</duration>
    <voice>1</voice>
    <type>quarter</type>
    <stem>up</stem>
   </note>
  </measure>
  <measure number="5">
   <note>
    <pitch>
     <step>G</step>
     <octave>4</octave>
    </pitch>
    <duration>2</duration>
    <voice>2</voice>
    <type>quarter</type>
    <stem>down</stem>
   </note>
   <backup>
    <duration>2</duration>
   </backup>
   <note>
    <pitch>
     <step>D</step>
     <octave>5</octave>
    </pitch>
    <duration>2</duration>
    <voice>1</voice>
    <type>quarter</type>
    <stem>up</stem>
    <lyric number="1">
     <syllabic>single</syllabic>
     <text>[*Is</text>
    </lyric>
    <lyric number="2">
     <syllabic>single</syllabic>
     <text>beau,</text>
    </lyric>
   </note>
   <note>
    <pitch>
     <step>G</step>
     <octave>4</octave>
    </pitch>
    <duration>1</duration>
    <voice>2</voice>
    <type>eighth</type>
    <stem>down</stem>
    <beam number="1">begin</beam>
    <lyric number="1">
     <syllabic>single</syllabic>
     <text>cte</text>
    </lyric>
    <lyric number="2">
     <syllabic>single</syllabic>
     <text>ee</text>
    </lyric>
    <lyric number="3">
     <syllabic>single</syllabic>
     <text> est son</text>
    </lyric>
   </note>
   <backup>
    <duration>1</duration>
   </backup>
   <note>
    <pitch>
     <step>C</step>
     <octave>5</octave>
    </pitch>
    <duration>1</duration>
    <voice>1</voice>
    <type>eighth</type>
    <stem>up</stem>
    <beam number="1">begin</beam>
   </note>
   <note>
    <pitch>
     <step>G</step>
     <octave>4</octave>
    </pitch>
    <duration>1</duration>
    <voice>2</voice>
    <type>eighth</type>
    <stem>down</stem>
    <beam number="1">end</beam>
    <lyric number="1">
     <syllabic>begin</syllabic>
     <text>dl-</text>
    </lyric>
   </note>
   <backup>
    <duration>1</duration>
   </backup>
   <note>
    <pitch>
     <step>B</step>
     <octave>4</octave>
    </pitch>
    <duration>1</duration>
    <voice>1</voice>
    <type>eighth</type>
    <stem>up</stem>
    <beam number="1">end</beam>
    <lyric number="1">
     <syllabic>end</syllabic>
     <text>cte</text>
    </lyric>
   </note>
  </measure>
  <measure number="6">
   <print new-system="yes"/>
   <note>
    <pitch>
     <step>G</step>
     <octave>4</octave>
    </pitch>
    <duration>2</duration>
    <voice>2</voice>
    <type>quarter</type>
    <stem>down</stem>
    <lyric number="1">
     <syllabic>single</syllabic>
     <text>tre</text>
    </lyric>
    <lyric number="2">
     <syllabic>single</syllabic>
     <text>vin</text>
    </lyric>
    <lyric number="3">
     <syllabic>begin</syllabic>
     <text> 1O- Be- ment, Four un Dieu, queI a</text>
    </lyric>
    <lyric number="4">
     <syllabic>single</syllabic>
     <text> les at- tend: Qu'lis solent A lui des</text>
    </lyric>
   </note>
   <backup>
    <duration>2</duration>
   </backup>
   <note>
    <pitch>
     <step>C</step>
     <octave>5</octave>
    </pitch>
    <duration>2</duration>
    <voice>1</voice>
    <type>quarter</type>
    <stem>up</stem>
   </note>
   <note>
    <pitch>
     <step>G</step>
     <octave>4</octave>
    </pitch>
    <duration>2</duration>
    <voice>2</voice>
    <type>quarter</type>
    <stem>down</stem>
    <lyric number="1">
     <syllabic>single</syllabic>
     <text>ndlle</text>
    </lyric>
    <lyric number="2">
     <syllabic>begin</syllabic>
     <text>en</text>
    </lyric>
   </note>
   <backup>
    <duration>2</duration>
   </backup>
   <note>
    <pitch>
     <step>E</step>
     <octave>5</octave>
    </pitch>
    <duration>2</duration>
    <voice>1</voice>
    <type>quarter</type>
    <stem>up</stem>
   </note>
  </measure>
  <measure number="7">
   <note>
    <pitch>
     <step>G</step>
     <octave>4</octave>
    </pitch>
    <duration>4</duration>
    <voice>2</voice>
    <type>half</type>
    <stem>down</stem>
    <lyric number="1">
     <syllabic>single</syllabic>
     <text>ans,</text>
    </lyric>
    <lyric number="2">
     <syllabic>end</syllabic>
     <text>fant!</text>
    </lyric>
   </note>
   <backup>
    <duration>4</duration>
   </backup>
   <note>
    <pitch>
     <step>D</step>
     <octave>5</octave>
    </pitch>
    <duration>4</duration>
    <voice>1</voice>
    <type>half</type>
    <stem>up</stem>
   </note>
  </measure>
  <measure number="8">
   <note>
    <pitch>
     <step>G</step>
     <octave>4</octave>
    </pitch>
    <duration>2</duration>
    <voice>2</voice>
    <type>quarter</type>
    <stem>down</stem>
    <lyric number="1">
     <syllabic>single</syllabic>
     <text>Nous</text>
    </lyric>
   </note>
   <backup>
    <duration>2</duration>
   </backup>
   <note>
    <pitch>
     <step>B</step>
     <octave>4</octave>
    </pitch>
    <duration>2</duration>
    <voice>1</voice>
    <type>quarter</type>
    <stem>up</stem>
   </note>
   <note>
    <pitch>
     <step>G</step>
     <octave>4</octave>
    </pitch>
    <duration>2</duration>
    <voice>2</voice>
    <type>quarter</type>
    <stem>down</stem>
    <lyric number="1">
     <syllabic>begin</syllabic>
     <text>at</text>
    </lyric>
   </note>
   <backup>
    <duration>2</duration>
   </backup>
   <note>
    <pitch>
     <step>C</step>
     <octave>5</octave>
    </pitch>
    <duration>2</duration>
    <voice>1</voice>
    <type>quarter</type>
    <stem>up</stem>
   </note>
  </measure>
  <measure number="9">
   <note>
    <pitch>
     <step>G</step>
     <octave>4</octave>
    </pitch>
    <duration>2</duration>
    <voice>2</voice>
    <type>quarter</type>
    <stem>down</stem>
    <lyric number="1">
     <syllabic>middle</syllabic>
     <text>ten</text>
    </lyric>
   </note>
   <backup>
    <duration>2</duration>
   </backup>
   <note>
    <pitch>
     <step>D</step>
     <octave>5</octave>
    </pitch>
    <duration>2</duration>
    <voice>1</voice>
    <type>quarter</type>
    <stem>up</stem>
   </note>
   <note>
    <pitch>
     <step>G</step>
     <octave>4</octave>
    </pitch>
    <duration>1</duration>
    <voice>2</voice>
    <type>eighth</type>
    <stem>down</stem>
    <beam number="1">begin</beam>
    <lyric number="1">
     <syllabic>end</syllabic>
     <text>dionscet</text>
    </lyric>
   </note>
   <backup>
    <duration>1</duration>
   </backup>
   <note>
    <pitch>
     <step>E</step>
     <octave>5</octave>
    </pitch>
    <duration>1</duration>
    <voice>1</voice>
    <type>eighth</type>
    <stem>up</stem>
    <beam number="1">begin</beam>
   </note>
   <note>
    <pitch>
     <step>G</step>
     <octave>4</octave>
    </pitch>
    <duration>1</duration>
    <voice>2</voice>
    <type>eighth</type>
    <stem>down</stem>
    <beam number="1">end</beam>
   </note>
   <backup>
    <duration>1</duration>
   </backup>
   <note>
    <pitch>
     <step>D</step>
     <octave>5</octave>
    </pitch>
    <duration>1</duration>
    <voice>1</voice>
    <type>eighth</type>
    <stem>up</stem>
    <beam number="1">end</beam>
   </note>
  </measure>
  <measure number="10">
   <note>
    <pitch>
     <step>G</step>
     <octave>4</octave>
    </pitch>
    <duration>2</duration>
    <voice>2</voice>
    <type>quarter</type>
    <stem>down</stem>
    <lyric number="1">
     <syllabic>begin</syllabic>
     <text>heu-nux</text>
    </lyric>
    <lyric number="2">
     <syllabic>single</syllabic>
     <text>est</text>
    </lyric>
    <lyric number="3">
     <syllabic>end</syllabic>
     <text> bals- Ie- ment r</text>
    </lyric>
   </note>
   <backup>
    <duration>2</duration>
   </backup>
   <note>
    <pitch>
     <step>C</step>
     <octave>5</octave>
    </pitch>
    <duration>2</duration>
    <voice>1</voice>
    <type>quarter</type>
    <stem>up</stem>
   </note>
   <note>
    <pitch>
     <step>G</step>
     <octave>4</octave>
    </pitch>
    <duration>2</duration>
    <voice>2</voice>
    <type>quarter</type>
    <stem>down</stem>
    <lyric number="1">
     <syllabic>end</syllabic>
     <text>mo-ment!</text>
    </lyric>
   </note>
   <backup>
    <duration>2</duration>
   </backup>
   <note>
    <pitch>
     <step>B</step>
     <octave>4</octave>
    </pitch>
    <duration>2</duration>
    <voice>1</voice>
    <type>quarter</type>
    <stem>up</stem>
   </note>
  </measure>
  <measure number="11">
   <note>
    <pitch>
     <step>G</step>
     <octave>4</octave>
    </pitch>
    <duration>1</duration>
    <voice>1</voice>
    <type>eighth</type>
    <stem>down</stem>
    <beam number="1">begin</beam>
   </note>
   <note>
    <pitch>
     <step>E</step>
     <octave>4</octave>
    </pitch>
    <duration>1</duration>
    <voice>1</voice>
    <type>eighth</type>
    <stem>down</stem>
    <beam number="1">end</beam>
   </note>
   <direction placement="above">
    <direction-type>
     <words relative-y="0" relative-x="-3">D.C</words>
    </direction-type>
    <offset>0</offset>
   </direction>
   <note>
    <pitch>
     <step>F</step>
     <alter>1</alter>
     <octave>4</octave>
    </pitch>
    <duration>2</duration>
    <voice>1</voice>
    <type>quarter</type>
    <stem>down</stem>
   </note>
   <barline location="right">
    <bar-style>light-light</bar-style>
   </barline>
  </measure>
 </part>
 <part id="P2">
  <measure number="1">
   <attributes>
    <divisions>2</divisions>
    <key>
     <fifths>1</fifths>
    </key>
    <time>
     <beats>2</beats>
     <beat-type>4</beat-type>
    </time>
    <clef number="1">
     <sign>F</sign>
     <line>4</line>
    </clef>
   </attributes>
   <note>
    <pitch>
     <step>G</step>
     <octave>2</octave>
    </pitch>
    <duration>4</duration>
    <voice>2</voice>
    <type>half</type>
    <stem>down</stem>
   </note>
   <backup>
    <duration>4</duration>
   </backup>
   <note>
    <rest/>
    <duration>1</duration>
    <voice>1</voice>
    <type>eighth</type>
   </note>
   <note>
    <pitch>
     <step>G</step>
     <octave>3</octave>
    </pitch>
    <duration>1</duration>
    <voice>1</voice>
    <type>eighth</type>
    <stem>up</stem>
   </note>
   <note>
    <rest/>
    <duration>1</duration>
    <voice>1</voice>
    <type>eighth</type>
   </note>
   <note>
    <pitch>
     <step>G</step>
     <octave>3</octave>
    </pitch>
    <duration>1</duration>
    <voice>1</voice>
    <type>eighth</type>
    <stem>up</stem>
   </note>
  </measure>
  <measure number="2">
   <note>
    <pitch>
     <step>G</step>
     <octave>2</octave>
    </pitch>
    <duration>2</duration>
    <voice>2</voice>
    <type>quarter</type>
    <stem>down</stem>
   </note>
   <backup>
    <duration>2</duration>
   </backup>
   <note>
    <rest/>
    <duration>1</duration>
    <voice>1</voice>
    <type>eighth</type>
   </note>
   <note>
    <pitch>
     <step>G</step>
     <octave>3</octave>
    </pitch>
    <duration>1</duration>
    <voice>1</voice>
    <type>eighth</type>
    <stem>up</stem>
   </note>
   <note>
    <pitch>
     <step>B</step>
     <octave>2</octave>
    </pitch>
    <duration>2</duration>
    <voice>2</voice>
    <type>quarter</type>
    <stem>down</stem>
   </note>
   <backup>
    <duration>2</duration>
   </backup>
   <note>
    <rest/>
    <duration>1</duration>
    <voice>1</voice>
    <type>eighth</type>
   </note>
   <note>
    <pitch>
     <step>G</step>
     <octave>3</octave>
    </pitch>
    <duration>1</duration>
    <voice>1</voice>
    <type>eighth</type>
    <stem>up</stem>
   </note>
  </measure>
  <measure number="3">
   <note>
    <pitch>
     <step>D</step>
     <octave>3</octave>
    </pitch>
    <duration>4</duration>
    <voice>2</voice>
    <type>half</type>
    <stem>down</stem>
   </note>
   <backup>
    <duration>4</duration>
   </backup>
   <note>
    <rest/>
    <duration>1</duration>
    <voice>1</voice>
    <type>eighth</type>
   </note>
   <note>
    <pitch>
     <step>D</step>
     <octave>4</octave>
    </pitch>
    <duration>1</duration>
    <voice>1</voice>
    <type>eighth</type>
    <stem>up</stem>
   </note>
   <note>
    <rest/>
    <duration>1</duration>
    <voice>1</voice>
    <type>eighth</type>
   </note>
   <note>
    <pitch>
     <step>D</step>
     <octave>4</octave>
    </pitch>
    <duration>1</duration>
    <voice>1</voice>
    <type>eighth</type>
    <stem>up</stem>
   </note>
  </measure>
  <measure number="4">
   <note>
    <pitch>
     <step>G</step>
     <octave>3</octave>
    </pitch>
    <duration>2</duration>
    <voice>2</voice>
    <type>quarter</type>
    <stem>down</stem>
   </note>
   <backup>
    <duration>2</duration>
   </backup>
   <note>
    <rest/>
    <duration>1</duration>
    <voice>1</voice>
    <type>eighth</type>
   </note>
   <note>
    <pitch>
     <step>D</step>
     <octave>4</octave>
    </pitch>
    <duration>1</duration>
    <voice>1</voice>
    <type>eighth</type>
    <stem>up</stem>
   </note>
   <note>
    <pitch>
     <step>A</step>
     <octave>3</octave>
    </pitch>
    <duration>2</duration>
    <voice>2</voice>
    <type>quarter</type>
    <stem>down</stem>
   </note>
   <backup>
    <duration>2</duration>
   </backup>
   <note>
    <rest/>
    <duration>1</duration>
    <voice>1</voice>
    <type>eighth</type>
   </note>
   <note>
    <pitch>
     <step>D</step>
     <octave>4</octave>
    </pitch>
    <duration>1</duration>
    <voice>1</voice>
    <type>eighth</type>
    <stem>up</stem>
   </note>
  </measure>
  <measure number="5">
   <note>
    <pitch>
     <step>B</step>
     <octave>3</octave>
    </pitch>
    <duration>2</duration>
    <voice>2</voice>
    <type>quarter</type>
    <stem>down</stem>
   </note>
   <backup>
    <duration>2</duration>
   </backup>
   <note>
    <rest/>
    <duration>1</duration>
    <voice>1</voice>
    <type>eighth</type>
   </note>
   <note>
    <pitch>
     <step>D</step>
     <octave>4</octave>
    </pitch>
    <duration>1</duration>
    <voice>1</voice>
    <type>eighth</type>
    <stem>up</stem>
   </note>
   <note>
    <pitch>
     <step>A</step>
     <octave>3</octave>
    </pitch>
    <duration>1</duration>
    <voice>2</voice>
    <type>eighth</type>
    <stem>down</stem>
    <beam number="1">begin</beam>
   </note>
   <backup>
    <duration>1</duration>
   </backup>
   <note>
    <rest/>
    <duration>1</duration>
    <voice>1</voice>
    <type>eighth</type>
   </note>
   <note>
    <pitch>
     <step>G</step>
     <octave>3</octave>
    </pitch>
    <duration>1</duration>
    <voice>2</voice>
    <type>eighth</type>
    <stem>down</stem>
    <beam number="1">end</beam>
   </note>
   <backup>
    <duration>1</duration>
   </backup>
   <note>
    <pitch>
     <step>D</step>
     <octave>4</octave>
    </pitch>
    <duration>1</duration>
    <voice>1</voice>
    <type>eighth</type>
    <stem>up</stem>
   </note>
  </measure>
  <measure number="6">
   <print new-system="yes"/>
   <note>
    <pitch>
     <step>A</step>
     <octave>3</octave>
    </pitch>
    <duration>2</duration>
    <voice>2</voice>
    <type>quarter</type>
    <stem>down</stem>
    <lyric number="1">
     <syllabic>single</syllabic>
     <text>Text. traditiolV'lel</text>
    </lyric>
   </note>
   <backup>
    <duration>2</duration>
   </backup>
   <note>
    <rest/>
    <duration>1</duration>
    <voice>1</voice>
    <type>eighth</type>
   </note>
   <note>
    <pitch>
     <step>D</step>
     <octave>4</octave>
    </pitch>
    <duration>1</duration>
    <voice>1</voice>
    <type>eighth</type>
    <stem>up</stem>
   </note>
   <note>
    <pitch>
     <step>C</step>
     <octave>4</octave>
    </pitch>
    <duration>2</duration>
    <voice>2</voice>
    <type>quarter</type>
    <stem>down</stem>
   </note>
   <backup>
    <duration>2</duration>
   </backup>
   <note>
    <rest/>
    <duration>1</duration>
    <voice>1</voice>
    <type>eighth</type>
   </note>
   <note>
    <pitch>
     <step>D</step>
     <octave>4</octave>
    </pitch>
    <duration>1</duration>
    <voice>1</voice>
    <type>eighth</type>
    <stem>up</stem>
   </note>
  </measure>
  <measure number="7">
   <note>
    <pitch>
     <step>B</step>
     <octave>3</octave>
    </pitch>
    <duration>4</duration>
    <voice>2</voice>
    <type>half</type>
    <stem>down</stem>
   </note>
   <backup>
    <duration>4</duration>
   </backup>
   <note>
    <rest/>
    <duration>1</duration>
    <voice>1</voice>
    <type>eighth</type>
   </note>
   <note>
    <pitch>
     <step>D</step>
     <octave>4</octave>
    </pitch>
    <duration>1</duration>
    <voice>1</voice>
    <type>eighth</type>
    <stem>up</stem>
   </note>
   <note>
    <rest/>
    <duration>1</duration>
    <voice>1</voice>
    <type>eighth</type>
   </note>
   <note>
    <pitch>
     <step>D</step>
     <octave>4</octave>
    </pitch>
    <duration>1</duration>
    <voice>1</voice>
    <type>eighth</type>
    <stem>up</stem>
   </note>
  </measure>
  <measure number="8">
   <note>
    <pitch>
     <step>G</step>
     <octave>3</octave>
    </pitch>
    <duration>2</duration>
    <voice>2</voice>
    <type>quarter</type>
    <stem>down</stem>
    <lyric number="1">
     <syllabic>single</syllabic>
     <text>Harmonisation : Roger Trunk</text>
    </lyric>
   </note>
   <backup>
    <duration>2</duration>
   </backup>
   <note>
    <rest/>
    <duration>1</duration>
    <voice>1</voice>
    <type>eighth</type>
   </note>
   <note>
    <pitch>
     <step>D</step>
     <octave>4</octave>
    </pitch>
    <duration>1</duration>
    <voice>1</voice>
    <type>eighth</type>
    <stem>up</stem>
   </note>
   <note>
    <pitch>
     <step>A</step>
     <octave>3</octave>
    </pitch>
    <duration>2</duration>
    <voice>2</voice>
    <type>quarter</type>
    <stem>down</stem>
   </note>
   <backup>
    <duration>2</duration>
   </backup>
   <note>
    <rest/>
    <duration>1</duration>
    <voice>1</voice>
    <type>eighth</type>
   </note>
   <note>
    <pitch>
     <step>D</step>
     <octave>4</octave>
    </pitch>
    <duration>1</duration>
    <voice>1</voice>
    <type>eighth</type>
    <stem>up</stem>
   </note>
  </measure>
  <measure number="9">
   <note>
    <pitch>
     <step>B</step>
     <octave>3</octave>
    </pitch>
    <duration>2</duration>
    <voice>2</voice>
    <type>quarter</type>
    <stem>down</stem>
   </note>
   <backup>
    <duration>2</duration>
   </backup>
   <note>
    <rest/>
    <duration>1</duration>
    <voice>1</voice>
    <type>eighth</type>
   </note>
   <note>
    <pitch>
     <step>D</step>
     <octave>4</octave>
    </pitch>
    <duration>1</duration>
    <voice>1</voice>
    <type>eighth</type>
    <stem>up</stem>
   </note>
   <note>
    <pitch>
     <step>C</step>
     <octave>4</octave>
    </pitch>
    <duration>1</duration>
    <voice>2</voice>
    <type>eighth</type>
    <stem>down</stem>
    <beam number="1">begin</beam>
   </note>
   <backup>
    <duration>1</duration>
   </backup>
   <note>
    <rest/>
    <duration>1</duration>
    <voice>1</voice>
    <type>eighth</type>
   </note>
   <note>
    <pitch>
     <step>B</step>
     <octave>3</octave>
    </pitch>
    <duration>1</duration>
    <voice>2</voice>
    <type>eighth</type>
    <stem>down</stem>
    <beam number="1">end</beam>
   </note>
   <backup>
    <duration>1</duration>
   </backup>
   <note>
    <pitch>
     <step>D</step>
     <octave>4</octave>
    </pitch>
    <duration>1</duration>
    <voice>1</voice>
    <type>eighth</type>
    <stem>up</stem>
    <lyric number="1">
     <syllabic>single</syllabic>
     <text>11.181OO18: notl populalre 18&quot; s.</text>
    </lyric>
   </note>
  </measure>
  <measure number="10">
   <note>
    <pitch>
     <step>A</step>
     <octave>3</octave>
    </pitch>
    <duration>2</duration>
    <voice>2</voice>
    <type>quarter</type>
    <stem>down</stem>
   </note>
   <backup>
    <duration>2</duration>
   </backup>
   <note>
    <rest/>
    <duration>1</duration>
    <voice>1</voice>
    <type>eighth</type>
   </note>
   <note>
    <pitch>
     <step>D</step>
     <octave>4</octave>
    </pitch>
    <duration>1</duration>
    <voice>1</voice>
    <type>eighth</type>
    <stem>up</stem>
   </note>
   <note>
    <pitch>
     <step>G</step>
     <octave>3</octave>
    </pitch>
    <duration>2</duration>
    <voice>2</voice>
    <type>quarter</type>
    <stem>down</stem>
   </note>
   <backup>
    <duration>2</duration>
   </backup>
   <note>
    <rest/>
    <duration>1</duration>
    <voice>1</voice>
    <type>eighth</type>
   </note>
   <note>
    <pitch>
     <step>D</step>
     <octave>4</octave>
    </pitch>
    <duration>1</duration>
    <voice>1</voice>
    <type>eighth</type>
    <stem>up</stem>
   </note>
  </measure>
  <measure number="11">
   <note>
    <pitch>
     <step>D</step>
     <octave>3</octave>
    </pitch>
    <duration>4</duration>
    <voice>2</voice>
    <type>half</type>
    <stem>down</stem>
   </note>
   <backup>
    <duration>4</duration>
   </backup>
   <note>
    <rest/>
    <duration>1</duration>
    <voice>1</voice>
    <type>eighth</type>
   </note>
   <note>
    <pitch>
     <step>D</step>
     <octave>4</octave>
    </pitch>
    <duration>1</duration>
    <voice>1</voice>
    <type>eighth</type>
    <stem>up</stem>
   </note>
   <note>
    <pitch>
     <step>D</step>
     <octave>4</octave>
    </pitch>
    <duration>2</duration>
    <voice>1</voice>
    <type>quarter</type>
    <stem>up</stem>
   </note>
   <barline location="right">
    <bar-style>light-light</bar-style>
   </barline>
  </measure>
 </part>
</score-partwise>
